<svg width="203" height="92" viewBox="0 0 203 92" fill="none" xmlns="http://www.w3.org/2000/svg">
<g id="name">
<g id="Group">
<g id="web_text">
<path id="Vector" d="M84.8995 0H94.2683L82.4584 34.9261H73.0896L66.4619 11.1602L59.7343 34.9261H50.3694L38.6133 0H48.428L55.3056 25.5113L62.1793 0H71.0982L78.0719 25.5113L84.8995 0Z" fill="white"/>
<path id="Vector_2" d="M97.5547 0H125.107V7.27356H106.674V13.8013H123.316V21.0249L106.674 21.0749V27.6526H125.607V34.9261H97.5547V0V0Z" fill="white"/>
<path id="Vector_3" d="M154.625 1.07258C156.57 1.78763 158.069 2.81024 159.134 4.13655C160.195 5.4667 160.73 7.02752 160.73 8.819C160.73 10.6451 160.188 12.2405 159.111 13.6014C158.031 14.9623 156.562 15.8926 154.702 16.3924C156.927 16.823 158.681 17.8379 159.957 19.4333C161.237 21.0287 161.875 22.9548 161.875 25.2114C161.875 27.172 161.325 28.8905 160.23 30.3667C159.134 31.8468 157.573 32.9732 155.547 33.7536C153.521 34.534 151.146 34.9261 148.424 34.9261H131.186V0H147.778C150.4 0 152.683 0.357527 154.625 1.07258ZM150.265 12.9786C150.996 12.3635 151.361 11.5101 151.361 10.4144C151.361 9.35336 150.996 8.53067 150.265 7.94632C149.535 7.36582 148.539 7.09287 147.274 7.12363H140.301V13.9013H147.274C148.539 13.9013 149.535 13.5937 150.265 12.9786ZM151.065 26.8568C151.995 26.1917 152.46 25.2614 152.46 24.0658C152.46 22.9701 151.995 22.0975 151.065 21.4516C150.134 20.8058 148.874 20.4982 147.278 20.529H140.304V27.8525H147.278C148.874 27.8525 150.134 27.518 151.065 26.8568Z" fill="white"/>
</g>
<g id="design_text">
<path id="Vector_4" d="M15.882 43.1915C17.5928 44.0834 18.9268 45.3367 19.8802 46.9475C20.8336 48.5583 21.3103 50.4074 21.3103 52.4949C21.3103 54.5824 20.8297 56.4393 19.8648 58.0577C18.9037 59.6801 17.5428 60.9372 15.7898 61.8291C14.0367 62.721 12.0223 63.1669 9.75408 63.1669H0.785156V41.8537H9.96937C12.1953 41.8537 14.1674 42.2996 15.882 43.1915ZM12.9757 57.9078C13.8061 57.4004 14.4558 56.6814 14.9209 55.7473C15.3861 54.8169 15.6206 53.752 15.6206 52.5564C15.6206 51.3416 15.3707 50.2652 14.8748 49.3349C14.3789 48.4007 13.6946 47.6779 12.8219 47.1589C11.9492 46.6438 10.9574 46.3824 9.8425 46.3824H6.34412V58.6652H10.1193C11.1919 58.6652 12.1453 58.4153 12.9757 57.9078Z" fill="white"/>
<path id="Vector_5" d="M30.1562 41.8537H46.9715V46.2939H35.7229V50.2767H45.8797V54.6862L35.7229 54.717V58.7305H47.2753V63.1708H30.1562V41.8537V41.8537Z" fill="white"/>
<path id="Vector_6" d="M67.8113 46.6246C66.5235 46.1978 65.4432 45.9864 64.5744 45.9864C63.8862 45.9864 63.3442 46.1133 62.9482 46.367C62.5522 46.6207 62.3562 46.9898 62.3562 47.478C62.3562 47.9432 62.5292 48.3353 62.8713 48.6467C63.2173 48.9619 63.6402 49.2157 64.1476 49.4079C64.6551 49.6001 65.4048 49.85 66.3966 50.1537C67.8767 50.5804 69.0992 51.0033 70.0603 51.43C71.0214 51.8568 71.8479 52.5103 72.5399 53.3907C73.2281 54.271 73.574 55.4243 73.574 56.8429C73.574 58.2615 73.1973 59.4725 72.4476 60.4758C71.698 61.4792 70.6677 62.2366 69.3606 62.7402C68.0535 63.2476 66.6004 63.5014 64.9972 63.5014C63.2327 63.5014 61.4758 63.1938 59.7228 62.5749C57.9697 61.9559 56.455 61.1102 55.1787 60.0376L57.3392 55.6896C58.4118 56.643 59.6843 57.4234 61.1567 58.0308C62.6253 58.6382 63.9285 58.9419 65.0626 58.9419C65.893 58.9419 66.5465 58.792 67.0232 58.4845C67.4999 58.1808 67.7383 57.7348 67.7383 57.1466C67.7383 56.6584 67.5614 56.2547 67.2078 55.9318C66.8541 55.6089 66.4081 55.3475 65.8699 55.1552C65.3317 54.963 64.5782 54.7362 63.6056 54.4709C62.1447 54.0673 60.9376 53.6559 59.988 53.2407C59.0346 52.8255 58.2196 52.1951 57.5392 51.357C56.8587 50.5151 56.5204 49.3964 56.5204 47.997C56.5204 46.6784 56.8702 45.5251 57.5699 44.5294C58.2696 43.5375 59.2614 42.7725 60.5493 42.2343C61.8372 41.6961 63.3326 41.427 65.0357 41.427C66.5773 41.427 68.0958 41.6461 69.5951 42.0805C71.0944 42.5149 72.413 43.0993 73.5471 43.8297L71.4481 48.27C70.3102 47.601 69.0992 47.0513 67.8113 46.6246Z" fill="white"/>
<path id="Vector_7" d="M82.4824 41.8537H88.0452V63.1669H82.4824V41.8537Z" fill="white"/>
<path id="Vector_8" d="M112.372 52.2835H117.177V60.768C116.043 61.5984 114.648 62.275 112.995 62.7902C111.342 63.3053 109.777 63.5667 108.297 63.5667C106.148 63.5667 104.207 63.0862 102.477 62.1213C100.743 61.1602 99.378 59.8377 98.3862 58.1539C97.3943 56.47 96.8945 54.5863 96.8945 52.4988C96.8945 50.4305 97.4058 48.5622 98.4284 46.8898C99.451 45.2175 100.862 43.9066 102.653 42.9532C104.449 41.9998 106.448 41.5231 108.658 41.5231C110.238 41.5231 111.818 41.8114 113.402 42.3881C114.982 42.9647 116.32 43.7413 117.416 44.7139L114.252 48.6044C113.483 47.874 112.595 47.2974 111.592 46.8706C110.588 46.4439 109.6 46.2325 108.628 46.2325C107.493 46.2325 106.467 46.5054 105.556 47.0552C104.645 47.6011 103.922 48.3507 103.399 49.3041C102.873 50.2575 102.607 51.3224 102.607 52.4949C102.607 53.6905 102.869 54.7708 103.399 55.7319C103.926 56.693 104.656 57.4503 105.587 57.9962C106.521 58.5421 107.551 58.8151 108.689 58.8151C109.762 58.8151 110.988 58.4691 112.368 57.781V52.2835H112.372Z" fill="white"/>
<path id="Vector_9" d="M141.501 41.8537H146.672V63.1669H141.809L132.14 50.4267V63.1669H126.942V41.8537H131.836L141.536 54.6862L141.501 41.8537Z" fill="white"/>
<path id="Vector_10" d="M156.917 41.8537H173.732V46.2939H162.483V50.2767H172.64V54.6862L162.483 54.717V58.7305H174.039V63.1708H156.92V41.8537H156.917Z" fill="white"/>
<path id="Vector_11" d="M196.322 63.1669L193.219 57.2696H193.096H189.083V63.1669H183.52V41.8537H193.096C195.914 41.8537 198.098 42.5072 199.651 43.8143C201.2 45.1214 201.977 46.9629 201.977 49.3349C201.977 50.938 201.654 52.3181 201.004 53.4868C200.355 54.6516 199.413 55.5589 198.175 56.2086L202.615 63.1708H196.322V63.1669ZM189.083 52.8294H193.127C194.261 52.8294 195.138 52.5449 195.757 51.9798C196.376 51.4108 196.683 50.592 196.683 49.5155C196.683 48.4814 196.372 47.6856 195.757 47.1282C195.138 46.5707 194.261 46.2939 193.127 46.2939H189.083V52.8294Z" fill="white"/>
</g>
<g id="concept_text">
<path id="Vector_12" d="M22.9061 75.2459C21.9527 74.7308 21.0108 74.4694 20.0766 74.4694C19.0002 74.4694 18.0238 74.7385 17.1434 75.2767C16.263 75.8149 15.5672 76.553 15.0597 77.4949C14.5523 78.4368 14.2986 79.4863 14.2986 80.6434C14.2986 81.8006 14.5523 82.8463 15.0597 83.792C15.5672 84.7338 16.2592 85.4758 17.1434 86.0102C18.0238 86.5484 19.0041 86.8175 20.0766 86.8175C20.9493 86.8175 21.8604 86.5945 22.8138 86.1486C23.7672 85.7026 24.6169 85.0952 25.3665 84.3225L28.6188 87.8209C27.4655 89.0357 26.0892 90.0045 24.4977 90.7234C22.9061 91.4423 21.3299 91.8037 19.7691 91.8037C17.6624 91.8037 15.7556 91.3154 14.0525 90.3428C12.3495 89.3702 11.0116 88.0439 10.039 86.36C9.06636 84.6762 8.57812 82.7924 8.57812 80.7049C8.57812 78.6367 9.07405 76.7721 10.0697 75.1114C11.0616 73.4506 12.4263 72.1435 14.1602 71.1901C15.894 70.2367 17.8354 69.76 19.9844 69.76C21.5644 69.76 23.1252 70.0906 24.6668 70.748C26.2084 71.4054 27.5155 72.305 28.5881 73.4391L25.3665 77.3296C24.6784 76.4569 23.8595 75.7649 22.9061 75.2459Z" fill="white"/>
<path id="Vector_13" d="M52.7462 71.1863C54.4992 72.1397 55.8794 73.4468 56.8827 75.1075C57.8861 76.7683 58.3897 78.6328 58.3897 80.7011C58.3897 82.7886 57.8861 84.6762 56.8827 86.3562C55.8794 88.04 54.4992 89.3663 52.7462 90.3389C50.9932 91.3116 49.0325 91.7998 46.8643 91.7998C44.6961 91.7998 42.7354 91.3193 40.9824 90.3543C39.2294 89.3932 37.8492 88.0631 36.8459 86.3716C35.8425 84.68 35.3389 82.7886 35.3389 80.7011C35.3389 78.6328 35.8425 76.7683 36.8459 75.1075C37.8492 73.4468 39.2294 72.1397 40.9824 71.1863C42.7354 70.2329 44.6961 69.7562 46.8643 69.7562C49.0325 69.76 50.9932 70.2367 52.7462 71.1863ZM43.9925 75.2921C43.0891 75.838 42.3741 76.5953 41.8512 77.5564C41.3246 78.5175 41.0593 79.5785 41.0593 80.7319C41.0593 81.9082 41.3284 82.977 41.8666 83.9381C42.4048 84.903 43.116 85.6603 44.0118 86.2178C44.9037 86.7752 45.8763 87.0558 46.9297 87.0558C47.983 87.0558 48.9518 86.7791 49.8322 86.2178C50.7125 85.6603 51.4084 84.8992 51.9158 83.9381C52.4233 82.977 52.677 81.9082 52.677 80.7319C52.677 79.5785 52.4233 78.5175 51.9158 77.5564C51.4084 76.5953 50.7164 75.838 49.8322 75.2921C48.9518 74.7462 47.983 74.4732 46.9297 74.4732C45.8725 74.4732 44.8921 74.7462 43.9925 75.2921Z" fill="white"/>
<path id="Vector_14" d="M81.7979 70.0945H86.9686V91.4077H82.1055L72.4369 78.6674V91.4077H67.2393V70.0945H72.1332L81.8325 82.927L81.7979 70.0945Z" fill="white"/>
<path id="Vector_15" d="M110.17 75.2459C109.216 74.7308 108.275 74.4694 107.344 74.4694C106.268 74.4694 105.291 74.7385 104.411 75.2767C103.531 75.8149 102.835 76.553 102.327 77.4949C101.82 78.4368 101.566 79.4863 101.566 80.6434C101.566 81.8006 101.82 82.8463 102.327 83.792C102.835 84.7338 103.527 85.4758 104.411 86.0102C105.291 86.5484 106.272 86.8175 107.344 86.8175C108.217 86.8175 109.128 86.5945 110.081 86.1486C111.035 85.7026 111.884 85.0952 112.634 84.3225L115.886 87.8209C114.729 89.0357 113.357 90.0045 111.765 90.7234C110.174 91.4423 108.598 91.8037 107.037 91.8037C104.93 91.8037 103.023 91.3154 101.32 90.3428C99.617 89.3702 98.2792 88.0439 97.3066 86.36C96.3339 84.6762 95.8457 82.7924 95.8457 80.7049C95.8457 78.6367 96.3416 76.7721 97.3373 75.1114C98.3292 73.4506 99.6939 72.1435 101.428 71.1901C103.162 70.2367 105.103 69.76 107.252 69.76C108.832 69.76 110.393 70.0906 111.934 70.748C113.476 71.4054 114.783 72.305 115.856 73.4391L112.634 77.3296C111.942 76.4569 111.119 75.7649 110.17 75.2459Z" fill="white"/>
<path id="Vector_16" d="M124.336 70.0945H141.151V74.5347H129.903V78.5175H140.059V82.927L129.903 82.9578V86.9713H141.455V91.4115H124.336V70.0945Z" fill="white"/>
<path id="Vector_17" d="M166.632 72.0551C168.131 73.3622 168.881 75.2037 168.881 77.5718C168.881 80.086 168.131 82.0351 166.632 83.4268C165.133 84.8146 163.022 85.5104 160.308 85.5104H156.506V91.4077H150.939V70.0945H160.304C163.022 70.0945 165.129 70.748 166.632 72.0551ZM162.661 80.2167C163.28 79.6478 163.587 78.8289 163.587 77.7525C163.587 76.7183 163.28 75.9226 162.661 75.3651C162.042 74.8077 161.165 74.5309 160.031 74.5309H156.506V81.0663H160.031C161.165 81.0702 162.046 80.7857 162.661 80.2167Z" fill="white"/>
<path id="Vector_18" d="M175.843 70.0945H194.115V74.6847H187.73V91.4077H182.167V74.6847H175.843V70.0945V70.0945Z" fill="white"/>
</g>
</g>
</g>
</svg>
