<svg width="341" height="335" viewBox="0 0 341 335" fill="none" xmlns="http://www.w3.org/2000/svg">
<path d="M340.262 334.195H0V13.5861H75.0883V17.0268H3.44456V330.751H336.817V17.0268H262.848V13.5861H340.262V334.195Z" fill="white"/>
<path d="M150.9 0H160.268L148.458 34.9261H139.09L132.462 11.1602L125.734 34.9261H116.369L104.613 0H114.428L121.306 25.5113L128.179 0H137.098L144.072 25.5113L150.9 0Z" fill="white"/>
<path d="M163.555 0H191.107V7.27356H172.674V13.8013H189.316V21.0249L172.674 21.0749V27.6526H191.607V34.9261H163.555V0V0Z" fill="white"/>
<path d="M220.625 1.07258C222.57 1.78763 224.069 2.81024 225.134 4.13655C226.195 5.4667 226.73 7.02752 226.73 8.819C226.73 10.6451 226.188 12.2405 225.111 13.6014C224.031 14.9623 222.562 15.8926 220.702 16.3924C222.927 16.823 224.681 17.8379 225.957 19.4333C227.237 21.0287 227.875 22.9548 227.875 25.2114C227.875 27.172 227.325 28.8905 226.23 30.3667C225.134 31.8468 223.573 32.9732 221.547 33.7536C219.521 34.534 217.146 34.9261 214.424 34.9261H197.186V0H213.778C216.4 0 218.683 0.357527 220.625 1.07258ZM216.265 12.9786C216.996 12.3635 217.361 11.5101 217.361 10.4144C217.361 9.35336 216.996 8.53067 216.265 7.94632C215.535 7.36582 214.539 7.09287 213.274 7.12363H206.301V13.9013H213.274C214.539 13.9013 215.535 13.5937 216.265 12.9786ZM217.065 26.8568C217.995 26.1917 218.46 25.2614 218.46 24.0658C218.46 22.9701 217.995 22.0975 217.065 21.4516C216.134 20.8058 214.874 20.4982 213.278 20.529H206.304V27.8525H213.278C214.874 27.8525 216.134 27.518 217.065 26.8568Z" fill="white"/>
<path d="M81.882 43.1915C83.5928 44.0834 84.9268 45.3367 85.8802 46.9475C86.8336 48.5583 87.3103 50.4074 87.3103 52.4949C87.3103 54.5824 86.8297 56.4393 85.8648 58.0577C84.9037 59.6801 83.5428 60.9372 81.7898 61.8291C80.0367 62.721 78.0223 63.1669 75.7541 63.1669H66.7852V41.8537H75.9694C78.1953 41.8537 80.1674 42.2996 81.882 43.1915ZM78.9757 57.9078C79.8061 57.4004 80.4558 56.6814 80.9209 55.7473C81.3861 54.8169 81.6206 53.752 81.6206 52.5564C81.6206 51.3416 81.3707 50.2652 80.8748 49.3349C80.3789 48.4007 79.6946 47.6779 78.8219 47.1589C77.9492 46.6438 76.9574 46.3824 75.8425 46.3824H72.3441V58.6652H76.1193C77.1919 58.6652 78.1453 58.4153 78.9757 57.9078Z" fill="white"/>
<path d="M96.1562 41.8537H112.972V46.2939H101.723V50.2767H111.88V54.6862L101.723 54.717V58.7305H113.275V63.1708H96.1562V41.8537V41.8537Z" fill="white"/>
<path d="M133.811 46.6246C132.523 46.1978 131.443 45.9864 130.574 45.9864C129.886 45.9864 129.344 46.1133 128.948 46.367C128.552 46.6207 128.356 46.9898 128.356 47.478C128.356 47.9432 128.529 48.3353 128.871 48.6467C129.217 48.9619 129.64 49.2157 130.148 49.4079C130.655 49.6001 131.405 49.85 132.397 50.1537C133.877 50.5804 135.099 51.0033 136.06 51.43C137.021 51.8568 137.848 52.5103 138.54 53.3907C139.228 54.271 139.574 55.4243 139.574 56.8429C139.574 58.2615 139.197 59.4725 138.448 60.4758C137.698 61.4792 136.668 62.2366 135.361 62.7402C134.054 63.2476 132.6 63.5014 130.997 63.5014C129.233 63.5014 127.476 63.1938 125.723 62.5749C123.97 61.9559 122.455 61.1102 121.179 60.0376L123.339 55.6896C124.412 56.643 125.684 57.4234 127.157 58.0308C128.625 58.6382 129.929 58.9419 131.063 58.9419C131.893 58.9419 132.547 58.792 133.023 58.4845C133.5 58.1808 133.738 57.7348 133.738 57.1466C133.738 56.6584 133.561 56.2547 133.208 55.9318C132.854 55.6089 132.408 55.3475 131.87 55.1552C131.332 54.963 130.578 54.7362 129.606 54.4709C128.145 54.0673 126.938 53.6559 125.988 53.2407C125.035 52.8255 124.22 52.1951 123.539 51.357C122.859 50.5151 122.52 49.3964 122.52 47.997C122.52 46.6784 122.87 45.5251 123.57 44.5294C124.27 43.5375 125.261 42.7725 126.549 42.2343C127.837 41.6961 129.333 41.427 131.036 41.427C132.577 41.427 134.096 41.6461 135.595 42.0805C137.094 42.5149 138.413 43.0993 139.547 43.8297L137.448 48.27C136.31 47.601 135.099 47.0513 133.811 46.6246Z" fill="white"/>
<path d="M148.482 41.8537H154.045V63.1669H148.482V41.8537Z" fill="white"/>
<path d="M178.372 52.2835H183.177V60.768C182.043 61.5984 180.648 62.275 178.995 62.7902C177.342 63.3053 175.777 63.5667 174.297 63.5667C172.148 63.5667 170.207 63.0862 168.477 62.1213C166.743 61.1602 165.378 59.8377 164.386 58.1539C163.394 56.47 162.895 54.5863 162.895 52.4988C162.895 50.4305 163.406 48.5622 164.428 46.8898C165.451 45.2175 166.862 43.9066 168.653 42.9532C170.449 41.9998 172.448 41.5231 174.658 41.5231C176.238 41.5231 177.818 41.8114 179.402 42.3881C180.982 42.9647 182.32 43.7413 183.416 44.7139L180.252 48.6044C179.483 47.874 178.595 47.2974 177.592 46.8706C176.588 46.4439 175.6 46.2325 174.628 46.2325C173.493 46.2325 172.467 46.5054 171.556 47.0552C170.645 47.6011 169.922 48.3507 169.399 49.3041C168.873 50.2575 168.607 51.3224 168.607 52.4949C168.607 53.6905 168.869 54.7708 169.399 55.7319C169.926 56.693 170.656 57.4503 171.587 57.9962C172.521 58.5421 173.551 58.8151 174.689 58.8151C175.762 58.8151 176.988 58.4691 178.368 57.781V52.2835H178.372Z" fill="white"/>
<path d="M207.501 41.8537H212.672V63.1669H207.809L198.14 50.4267V63.1669H192.942V41.8537H197.836L207.536 54.6862L207.501 41.8537Z" fill="white"/>
<path d="M222.917 41.8537H239.732V46.2939H228.483V50.2767H238.64V54.6862L228.483 54.717V58.7305H240.039V63.1708H222.92V41.8537H222.917Z" fill="white"/>
<path d="M262.322 63.1669L259.219 57.2696H259.096H255.083V63.1669H249.52V41.8537H259.096C261.914 41.8537 264.098 42.5072 265.651 43.8143C267.2 45.1214 267.977 46.9629 267.977 49.3349C267.977 50.938 267.654 52.3181 267.004 53.4868C266.355 54.6516 265.413 55.5589 264.175 56.2086L268.615 63.1708H262.322V63.1669ZM255.083 52.8294H259.127C260.261 52.8294 261.138 52.5449 261.757 51.9798C262.376 51.4108 262.683 50.592 262.683 49.5155C262.683 48.4814 262.372 47.6856 261.757 47.1282C261.138 46.5707 260.261 46.2939 259.127 46.2939H255.083V52.8294Z" fill="white"/>
<path d="M88.9061 75.2459C87.9527 74.7308 87.0108 74.4694 86.0766 74.4694C85.0002 74.4694 84.0238 74.7385 83.1434 75.2767C82.263 75.8149 81.5672 76.553 81.0597 77.4949C80.5523 78.4368 80.2986 79.4863 80.2986 80.6434C80.2986 81.8006 80.5523 82.8463 81.0597 83.792C81.5672 84.7338 82.2592 85.4758 83.1434 86.0102C84.0238 86.5484 85.0041 86.8175 86.0766 86.8175C86.9493 86.8175 87.8604 86.5945 88.8138 86.1486C89.7672 85.7026 90.6169 85.0952 91.3665 84.3225L94.6188 87.8209C93.4655 89.0357 92.0892 90.0045 90.4977 90.7234C88.9061 91.4423 87.3299 91.8037 85.7691 91.8037C83.6624 91.8037 81.7556 91.3154 80.0525 90.3428C78.3495 89.3702 77.0116 88.0439 76.039 86.36C75.0664 84.6762 74.5781 82.7924 74.5781 80.7049C74.5781 78.6367 75.074 76.7721 76.0697 75.1114C77.0616 73.4506 78.4263 72.1435 80.1602 71.1901C81.894 70.2367 83.8354 69.76 85.9844 69.76C87.5644 69.76 89.1252 70.0906 90.6668 70.748C92.2084 71.4054 93.5155 72.305 94.5881 73.4391L91.3665 77.3296C90.6784 76.4569 89.8595 75.7649 88.9061 75.2459Z" fill="white"/>
<path d="M118.746 71.1863C120.499 72.1397 121.879 73.4468 122.883 75.1075C123.886 76.7683 124.39 78.6328 124.39 80.7011C124.39 82.7886 123.886 84.6762 122.883 86.3562C121.879 88.04 120.499 89.3663 118.746 90.3389C116.993 91.3116 115.033 91.7998 112.864 91.7998C110.696 91.7998 108.735 91.3193 106.982 90.3543C105.229 89.3932 103.849 88.0631 102.846 86.3716C101.842 84.68 101.339 82.7886 101.339 80.7011C101.339 78.6328 101.842 76.7683 102.846 75.1075C103.849 73.4468 105.229 72.1397 106.982 71.1863C108.735 70.2329 110.696 69.7562 112.864 69.7562C115.033 69.76 116.993 70.2367 118.746 71.1863ZM109.993 75.2921C109.089 75.838 108.374 76.5953 107.851 77.5564C107.325 78.5175 107.059 79.5785 107.059 80.7319C107.059 81.9082 107.328 82.977 107.867 83.9381C108.405 84.903 109.116 85.6603 110.012 86.2178C110.904 86.7752 111.876 87.0558 112.93 87.0558C113.983 87.0558 114.952 86.7791 115.832 86.2178C116.713 85.6603 117.408 84.8992 117.916 83.9381C118.423 82.977 118.677 81.9082 118.677 80.7319C118.677 79.5785 118.423 78.5175 117.916 77.5564C117.408 76.5953 116.716 75.838 115.832 75.2921C114.952 74.7462 113.983 74.4732 112.93 74.4732C111.872 74.4732 110.892 74.7462 109.993 75.2921Z" fill="white"/>
<path d="M147.798 70.0945H152.969V91.4077H148.105L138.437 78.6674V91.4077H133.239V70.0945H138.133L147.833 82.927L147.798 70.0945Z" fill="white"/>
<path d="M176.17 75.2459C175.216 74.7308 174.275 74.4694 173.344 74.4694C172.268 74.4694 171.291 74.7385 170.411 75.2767C169.531 75.8149 168.835 76.553 168.327 77.4949C167.82 78.4368 167.566 79.4863 167.566 80.6434C167.566 81.8006 167.82 82.8463 168.327 83.792C168.835 84.7338 169.527 85.4758 170.411 86.0102C171.291 86.5484 172.272 86.8175 173.344 86.8175C174.217 86.8175 175.128 86.5945 176.081 86.1486C177.035 85.7026 177.884 85.0952 178.634 84.3225L181.886 87.8209C180.729 89.0357 179.357 90.0045 177.765 90.7234C176.174 91.4423 174.598 91.8037 173.037 91.8037C170.93 91.8037 169.023 91.3154 167.32 90.3428C165.617 89.3702 164.279 88.0439 163.307 86.36C162.334 84.6762 161.846 82.7924 161.846 80.7049C161.846 78.6367 162.342 76.7721 163.337 75.1114C164.329 73.4506 165.694 72.1435 167.428 71.1901C169.162 70.2367 171.103 69.76 173.252 69.76C174.832 69.76 176.393 70.0906 177.934 70.748C179.476 71.4054 180.783 72.305 181.856 73.4391L178.634 77.3296C177.942 76.4569 177.119 75.7649 176.17 75.2459Z" fill="white"/>
<path d="M190.336 70.0945H207.151V74.5347H195.903V78.5175H206.059V82.927L195.903 82.9578V86.9713H207.455V91.4115H190.336V70.0945Z" fill="white"/>
<path d="M232.632 72.0551C234.131 73.3622 234.881 75.2037 234.881 77.5718C234.881 80.086 234.131 82.0351 232.632 83.4268C231.133 84.8146 229.022 85.5104 226.308 85.5104H222.506V91.4077H216.939V70.0945H226.304C229.022 70.0945 231.129 70.748 232.632 72.0551ZM228.661 80.2167C229.28 79.6478 229.587 78.8289 229.587 77.7525C229.587 76.7183 229.28 75.9226 228.661 75.3651C228.042 74.8077 227.165 74.5309 226.031 74.5309H222.506V81.0663H226.031C227.165 81.0702 228.046 80.7857 228.661 80.2167Z" fill="white"/>
<path d="M241.843 70.0945H260.115V74.6847H253.73V91.4077H248.167V74.6847H241.843V70.0945V70.0945Z" fill="white"/>
</svg>
