<svg width="300" height="240" viewBox="0 0 300 240" fill="none" xmlns="http://www.w3.org/2000/svg">
<g id="Frame" clip-path="url(#clip0_308_2)">
<g id="Group">
<g id="Group_2">
<path id="Vector" d="M39.5922 88.2944L1.60901 173.401H21.3779L50.5534 108.003L60.3653 125.08L59.3853 88.2944H39.5922Z" fill="#F79F63"/>
</g>
<g id="Group_3">
<path id="Vector_2" d="M216.357 25.7363L186.056 56.2627L213.538 56.3115L230.113 39.607L241.697 51.2898L249.743 5.52759L204.337 13.6208L216.357 25.7363Z" fill="#F79F63"/>
</g>
<g id="Group_4">
<path id="Vector_3" d="M252.029 144.965C248.515 144.965 245.097 145.361 241.806 146.105L240.814 155.387C244.359 154.277 248.122 153.68 252.029 153.68C272.857 153.68 289.74 170.689 289.74 191.672C289.74 212.655 272.857 229.664 252.029 229.664C231.202 229.664 214.319 212.655 214.319 191.672C214.319 189.015 214.591 186.419 215.105 183.92L206.321 183.804C205.892 186.364 205.668 188.991 205.668 191.672C205.668 217.469 226.423 238.379 252.029 238.379C277.636 238.379 298.391 217.469 298.391 191.672C298.391 165.875 277.636 144.965 252.029 144.965Z" fill="#F9C269"/>
</g>
<g id="Group_5">
<path id="Vector_4" d="M198.173 114.628H166.263V133.13H198.173V114.628Z" fill="#F79F63"/>
</g>
<g id="Group_6">
<path id="Vector_5" d="M134.602 95.248H102.692V113.75H134.602V95.248Z" fill="#F79F63"/>
</g>
<g id="Group_7">
<g id="Group_8">
<path id="Vector_6" d="M234.136 184.779H66.838C62.3979 184.779 58.7865 181.141 58.7865 176.668V63.6916C58.7865 59.2184 62.3979 55.5801 66.838 55.5801H90.6297C91.5189 55.5801 92.2388 56.3053 92.2388 57.2012C92.2388 58.097 91.5189 58.8222 90.6297 58.8222H66.838C64.1703 58.8222 61.9986 61.0101 61.9986 63.6977V176.674C61.9986 179.362 64.1703 181.549 66.838 181.549H234.136C236.804 181.549 238.975 179.362 238.975 176.674V63.6916C238.975 61.004 236.804 58.8161 234.136 58.8161H210.731C209.842 58.8161 209.122 58.0909 209.122 57.1951C209.122 56.2992 209.842 55.574 210.731 55.574H234.136C238.576 55.574 242.187 59.2123 242.187 63.6855V176.662C242.187 181.141 238.576 184.779 234.136 184.779Z" fill="#7F7F7F"/>
</g>
<g id="Group_9">
<path id="Vector_7" d="M202.032 58.8161H174.345C173.456 58.8161 172.736 58.0909 172.736 57.1951C172.736 56.2992 173.456 55.574 174.345 55.574H202.032C202.922 55.574 203.642 56.2992 203.642 57.1951C203.642 58.0909 202.922 58.8161 202.032 58.8161Z" fill="#7F7F7F"/>
</g>
<g id="Group_10">
<path id="Vector_8" d="M164.334 58.8161H137.118C136.229 58.8161 135.509 58.0909 135.509 57.1951C135.509 56.2992 136.229 55.574 137.118 55.574H164.334C165.223 55.574 165.943 56.2992 165.943 57.1951C165.937 58.0909 165.217 58.8161 164.334 58.8161Z" fill="#7F7F7F"/>
</g>
<g id="Group_11">
<path id="Vector_9" d="M127.766 58.8161H100.175C99.2861 58.8161 98.5663 58.0909 98.5663 57.1951C98.5663 56.2992 99.2861 55.574 100.175 55.574H127.766C128.655 55.574 129.375 56.2992 129.375 57.1951C129.369 58.0909 128.649 58.8161 127.766 58.8161Z" fill="#7F7F7F"/>
</g>
<g id="Group_12">
<path id="Vector_10" d="M94.7311 67.1593H91.9908C91.1016 67.1593 90.3817 66.4341 90.3817 65.5383V47.0725C90.3817 46.1766 91.1016 45.4514 91.9908 45.4514H97.5682C98.4574 45.4514 99.1773 46.1766 99.1773 47.0725C99.1773 47.9684 98.4574 48.6936 97.5682 48.6936H93.5999V63.9233H94.7311C95.6204 63.9233 96.3402 64.6485 96.3402 65.5443C96.3342 66.4402 95.6143 67.1593 94.7311 67.1593Z" fill="#7F7F7F"/>
</g>
<g id="Group_13">
<path id="Vector_11" d="M131.771 67.1593H129.03C128.141 67.1593 127.421 66.4341 127.421 65.5383V47.0725C127.421 46.1766 128.141 45.4514 129.03 45.4514H134.608C135.497 45.4514 136.217 46.1766 136.217 47.0725C136.217 47.9684 135.497 48.6936 134.608 48.6936H130.639V63.9233H131.771C132.66 63.9233 133.38 64.6485 133.38 65.5443C133.374 66.4402 132.66 67.1593 131.771 67.1593Z" fill="#7F7F7F"/>
</g>
<g id="Group_14">
<path id="Vector_12" d="M206.043 67.1593H203.303C202.414 67.1593 201.694 66.4341 201.694 65.5383V47.0725C201.694 46.1766 202.414 45.4514 203.303 45.4514H208.88C209.769 45.4514 210.489 46.1766 210.489 47.0725C210.489 47.9684 209.769 48.6936 208.88 48.6936H204.912V63.9233H206.043C206.932 63.9233 207.652 64.6485 207.652 65.5443C207.646 66.4402 206.932 67.1593 206.043 67.1593Z" fill="#7F7F7F"/>
</g>
<g id="Group_15">
<path id="Vector_13" d="M169.004 67.1593H166.263C165.374 67.1593 164.654 66.4341 164.654 65.5383V47.0725C164.654 46.1766 165.374 45.4514 166.263 45.4514H171.841C172.73 45.4514 173.45 46.1766 173.45 47.0725C173.45 47.9684 172.73 48.6936 171.841 48.6936H167.872V63.9233H169.004C169.893 63.9233 170.613 64.6485 170.613 65.5443C170.607 66.4402 169.887 67.1593 169.004 67.1593Z" fill="#7F7F7F"/>
</g>
<g id="Group_16">
<path id="Vector_14" d="M228.734 173.304H72.234C71.3447 173.304 70.6249 172.579 70.6249 171.683V76.2886C70.6249 75.3927 71.3447 74.6675 72.234 74.6675H228.734C229.623 74.6675 230.343 75.3927 230.343 76.2886V171.689C230.343 172.579 229.623 173.304 228.734 173.304ZM73.8431 170.068H227.125V77.9036H73.8431V170.068Z" fill="#7F7F7F"/>
</g>
<g id="Group_17">
<path id="Vector_15" d="M228.341 96.863H72.24C71.3507 96.863 70.6309 96.1378 70.6309 95.2419C70.6309 94.3461 71.3507 93.6208 72.24 93.6208H228.347C229.236 93.6208 229.956 94.3461 229.956 95.2419C229.956 96.1378 229.23 96.863 228.341 96.863Z" fill="#7F7F7F"/>
</g>
<g id="Group_18">
<path id="Vector_16" d="M228.534 115.902H72.4276C71.5383 115.902 70.8185 115.176 70.8185 114.281C70.8185 113.385 71.5383 112.659 72.4276 112.659H228.534C229.424 112.659 230.143 113.385 230.143 114.281C230.137 115.176 229.417 115.902 228.534 115.902Z" fill="#7F7F7F"/>
</g>
<g id="Group_19">
<path id="Vector_17" d="M228.534 135.135H72.4276C71.5383 135.135 70.8185 134.41 70.8185 133.514C70.8185 132.618 71.5383 131.893 72.4276 131.893H228.534C229.424 131.893 230.143 132.618 230.143 133.514C230.137 134.41 229.417 135.135 228.534 135.135Z" fill="#7F7F7F"/>
</g>
<g id="Group_20">
<path id="Vector_18" d="M228.534 154.174H72.4276C71.5383 154.174 70.8185 153.449 70.8185 152.553C70.8185 151.657 71.5383 150.932 72.4276 150.932H228.534C229.424 150.932 230.143 151.657 230.143 152.553C230.137 153.449 229.417 154.174 228.534 154.174Z" fill="#7F7F7F"/>
</g>
<g id="Group_21">
<path id="Vector_19" d="M197.635 173.115C196.745 173.115 196.026 172.39 196.026 171.494V76.4836C196.026 75.5878 196.745 74.8625 197.635 74.8625C198.524 74.8625 199.244 75.5878 199.244 76.4836V171.494C199.238 172.39 198.518 173.115 197.635 173.115Z" fill="#7F7F7F"/>
</g>
<g id="Group_22">
<path id="Vector_20" d="M166.263 173.115C165.374 173.115 164.654 172.39 164.654 171.494V76.4836C164.654 75.5878 165.374 74.8625 166.263 74.8625C167.153 74.8625 167.872 75.5878 167.872 76.4836V171.494C167.866 172.39 167.147 173.115 166.263 173.115Z" fill="#7F7F7F"/>
</g>
<g id="Group_23">
<path id="Vector_21" d="M134.886 173.115C133.997 173.115 133.277 172.39 133.277 171.494V76.4836C133.277 75.5878 133.997 74.8625 134.886 74.8625C135.775 74.8625 136.495 75.5878 136.495 76.4836V171.494C136.495 172.39 135.775 173.115 134.886 173.115Z" fill="#7F7F7F"/>
</g>
<g id="Group_24">
<path id="Vector_22" d="M103.515 173.115C102.625 173.115 101.906 172.39 101.906 171.494V76.4836C101.906 75.5878 102.625 74.8625 103.515 74.8625C104.404 74.8625 105.124 75.5878 105.124 76.4836V171.494C105.124 172.39 104.404 173.115 103.515 173.115Z" fill="#7F7F7F"/>
</g>
</g>
<g id="Group_25">
<path id="Vector_23" d="M21.3782 174.925H1.60929C1.06485 174.925 0.556717 174.645 0.260304 174.187C-0.0361085 173.724 -0.0784532 173.145 0.145369 172.646L38.1346 87.5386C38.3947 86.9596 38.9694 86.5818 39.5985 86.5818H59.3916C60.2809 86.5818 61.0007 87.307 61.0007 88.2029C61.0007 89.0987 60.2809 89.824 59.3916 89.824H40.6329L4.08947 171.689H20.3377L49.0898 107.29C49.3378 106.736 49.8701 106.37 50.4751 106.34C51.0739 106.309 51.6426 106.62 51.945 107.144L61.7569 124.196C62.2045 124.97 61.9384 125.957 61.1701 126.408C60.4019 126.859 59.4219 126.591 58.9742 125.817L50.7291 111.489L22.8421 173.974C22.582 174.553 22.0073 174.925 21.3782 174.925Z" fill="#7F7F7F"/>
</g>
<g id="Group_26">
<path id="Vector_24" d="M213.538 57.9263C213.127 57.9263 212.715 57.7679 212.401 57.4509C211.772 56.8171 211.772 55.7933 212.401 55.1595L228.976 38.4794C229.278 38.1746 229.684 38.0284 230.113 38.0284C230.537 38.0284 230.948 38.1807 231.25 38.4794L240.651 47.9499L247.759 7.52027L207.652 14.6689L217.488 24.5843C218.117 25.2181 218.117 26.242 217.488 26.8697L187.188 57.3961C186.559 58.0299 185.542 58.0299 184.913 57.3961C184.284 56.7623 184.284 55.7384 184.913 55.1046L214.077 25.724L203.194 14.7542C202.77 14.3276 202.619 13.6999 202.801 13.1209C202.982 12.5481 203.466 12.1215 204.053 12.0118L249.459 3.91853C249.973 3.82712 250.505 3.99167 250.874 4.36951C251.243 4.74127 251.412 5.27756 251.322 5.79558L243.276 51.5578C243.173 52.1489 242.75 52.6364 242.175 52.8193C241.607 53.0021 240.978 52.8437 240.554 52.4171L230.113 41.8983L214.669 57.457C214.361 57.7679 213.949 57.9263 213.538 57.9263Z" fill="#7F7F7F"/>
</g>
<g id="Group_27">
<g id="Group_28">
<path id="Vector_25" d="M252.029 231.285C230.349 231.285 212.709 213.514 212.709 191.672C212.709 188.948 212.988 186.23 213.526 183.591C213.707 182.713 214.554 182.153 215.425 182.336C216.297 182.518 216.853 183.372 216.672 184.249C216.17 186.675 215.921 189.173 215.921 191.672C215.921 211.728 232.121 228.049 252.029 228.049C271.937 228.049 288.137 211.728 288.137 191.672C288.137 171.616 271.937 155.295 252.029 155.295C248.37 155.295 244.752 155.844 241.292 156.928C240.445 157.19 239.544 156.715 239.284 155.862C239.017 155.009 239.495 154.101 240.342 153.839C244.111 152.656 248.049 152.059 252.035 152.059C273.716 152.059 291.356 169.83 291.356 191.672C291.356 213.514 273.71 231.285 252.029 231.285Z" fill="#7F7F7F"/>
</g>
<g id="Group_29">
<path id="Vector_26" d="M252.029 240C239.217 240 227.167 234.972 218.111 225.843C209.05 216.714 204.059 204.58 204.059 191.672C204.059 188.942 204.289 186.199 204.736 183.53C204.888 182.646 205.716 182.055 206.588 182.208C207.465 182.36 208.051 183.195 207.9 184.073C207.483 186.565 207.265 189.119 207.265 191.672C207.265 216.537 227.342 236.764 252.023 236.764C276.704 236.764 296.782 216.537 296.782 191.672C296.782 166.807 276.704 146.58 252.023 146.58C248.696 146.58 245.375 146.952 242.157 147.677C241.292 147.872 240.433 147.324 240.239 146.452C240.046 145.581 240.59 144.715 241.455 144.52C244.903 143.74 248.46 143.344 252.029 143.344C264.842 143.344 276.892 148.372 285.948 157.501C295.009 166.631 300 178.764 300 191.672C300 204.58 295.009 216.72 285.948 225.843C276.892 234.972 264.842 240 252.029 240Z" fill="#7F7F7F"/>
</g>
<g id="Group_30">
<g id="Group_31">
<path id="Vector_27" d="M251.872 161.121C250.983 161.121 250.263 160.396 250.263 159.5V154.929C250.263 154.034 250.983 153.308 251.872 153.308C252.761 153.308 253.481 154.034 253.481 154.929V159.5C253.475 160.396 252.761 161.121 251.872 161.121Z" fill="#7F7F7F"/>
</g>
<g id="Group_32">
<path id="Vector_28" d="M251.872 230.237C250.983 230.237 250.263 229.512 250.263 228.616V224.045C250.263 223.149 250.983 222.424 251.872 222.424C252.761 222.424 253.481 223.149 253.481 224.045V228.616C253.475 229.512 252.761 230.237 251.872 230.237Z" fill="#7F7F7F"/>
</g>
</g>
<g id="Group_33">
<g id="Group_34">
<path id="Vector_29" d="M277.932 219.499C277.521 219.499 277.11 219.34 276.795 219.023L273.444 215.647C272.815 215.013 272.815 213.99 273.444 213.356C274.073 212.722 275.089 212.722 275.718 213.356L279.07 216.732C279.699 217.366 279.699 218.39 279.07 219.023C278.755 219.34 278.344 219.499 277.932 219.499Z" fill="#7F7F7F"/>
</g>
</g>
<g id="Group_35">
<g id="Group_36">
<path id="Vector_30" d="M219.835 193.586H215.298C214.409 193.586 213.689 192.86 213.689 191.965C213.689 191.069 214.409 190.344 215.298 190.344H219.835C220.725 190.344 221.444 191.069 221.444 191.965C221.444 192.86 220.725 193.586 219.835 193.586Z" fill="#7F7F7F"/>
</g>
<g id="Group_37">
<path id="Vector_31" d="M288.44 193.586H283.903C283.014 193.586 282.294 192.86 282.294 191.965C282.294 191.069 283.014 190.344 283.903 190.344H288.44C289.329 190.344 290.049 191.069 290.049 191.965C290.049 192.86 289.329 193.586 288.44 193.586Z" fill="#7F7F7F"/>
</g>
</g>
<g id="Group_38">
<g id="Group_39">
<path id="Vector_32" d="M225.957 219.602C225.546 219.602 225.135 219.444 224.82 219.127C224.191 218.493 224.191 217.469 224.82 216.835L228.171 213.459C228.8 212.825 229.817 212.825 230.446 213.459C231.075 214.093 231.075 215.117 230.446 215.751L227.095 219.127C226.78 219.444 226.369 219.602 225.957 219.602Z" fill="#7F7F7F"/>
</g>
<g id="Group_40">
<path id="Vector_33" d="M274.478 170.72C274.067 170.72 273.656 170.561 273.341 170.244C272.712 169.611 272.712 168.587 273.341 167.953L276.692 164.577C277.321 163.943 278.338 163.943 278.967 164.577C279.596 165.21 279.596 166.234 278.967 166.868L275.616 170.244C275.301 170.561 274.89 170.72 274.478 170.72Z" fill="#7F7F7F"/>
</g>
</g>
<g id="Group_41">
<path id="Vector_34" d="M252.029 195.615C249.87 195.615 248.116 193.848 248.116 191.672C248.116 189.496 249.87 187.729 252.029 187.729C254.189 187.729 255.943 189.496 255.943 191.672C255.943 193.848 254.189 195.615 252.029 195.615ZM252.029 190.965C251.642 190.965 251.328 191.282 251.328 191.672C251.328 192.062 251.642 192.379 252.029 192.379C252.417 192.379 252.731 192.062 252.731 191.672C252.731 191.282 252.417 190.965 252.029 190.965Z" fill="#7F7F7F"/>
</g>
<g id="Group_42">
<path id="Vector_35" d="M251.872 190.825C250.983 190.825 250.263 190.1 250.263 189.204V171.689C250.263 170.793 250.983 170.068 251.872 170.068C252.761 170.068 253.481 170.793 253.481 171.689V189.204C253.475 190.1 252.761 190.825 251.872 190.825Z" fill="#7F7F7F"/>
</g>
<g id="Group_43">
<path id="Vector_36" d="M264.818 193.202H254.425C253.536 193.202 252.816 192.477 252.816 191.581C252.816 190.685 253.536 189.96 254.425 189.96H264.818C265.707 189.96 266.427 190.685 266.427 191.581C266.427 192.477 265.707 193.202 264.818 193.202Z" fill="#7F7F7F"/>
</g>
</g>
<g id="Group_44">
<g id="Group_45">
<path id="Vector_37" d="M61.2787 239.281H43.137C42.2478 239.281 41.528 238.556 41.528 237.66C41.528 236.764 42.2478 236.039 43.137 236.039H61.2787C62.168 236.039 62.8878 236.764 62.8878 237.66C62.8818 238.556 62.1619 239.281 61.2787 239.281Z" fill="#7F7F7F"/>
</g>
<g id="Group_46">
<path id="Vector_38" d="M61.2787 230.712H43.137C42.2478 230.712 41.528 229.987 41.528 229.091C41.528 228.195 42.2478 227.47 43.137 227.47H61.2787C62.168 227.47 62.8878 228.195 62.8878 229.091C62.8878 229.987 62.1619 230.712 61.2787 230.712Z" fill="#7F7F7F"/>
</g>
<g id="Group_47">
<path id="Vector_39" d="M61.2787 222.144H43.137C42.2478 222.144 41.528 221.419 41.528 220.523C41.528 219.627 42.2478 218.902 43.137 218.902H61.2787C62.168 218.902 62.8878 219.627 62.8878 220.523C62.8818 221.419 62.1619 222.144 61.2787 222.144Z" fill="#7F7F7F"/>
</g>
</g>
<g id="Group_48">
<g id="Group_49">
<path id="Vector_40" d="M91.5129 239.281H73.3712C72.4819 239.281 71.7621 238.556 71.7621 237.66C71.7621 236.764 72.4819 236.039 73.3712 236.039H91.5129C92.4021 236.039 93.122 236.764 93.122 237.66C93.122 238.556 92.4021 239.281 91.5129 239.281Z" fill="#7F7F7F"/>
</g>
<g id="Group_50">
<path id="Vector_41" d="M91.5129 230.712H73.3712C72.4819 230.712 71.7621 229.987 71.7621 229.091C71.7621 228.195 72.4819 227.47 73.3712 227.47H91.5129C92.4021 227.47 93.122 228.195 93.122 229.091C93.122 229.987 92.4021 230.712 91.5129 230.712Z" fill="#7F7F7F"/>
</g>
<g id="Group_51">
<path id="Vector_42" d="M91.5129 222.144H73.3712C72.4819 222.144 71.7621 221.419 71.7621 220.523C71.7621 219.627 72.4819 218.902 73.3712 218.902H91.5129C92.4021 218.902 93.122 219.627 93.122 220.523C93.122 221.419 92.4021 222.144 91.5129 222.144Z" fill="#7F7F7F"/>
</g>
<g id="Group_52">
<path id="Vector_43" d="M91.5129 213.575H73.3712C72.4819 213.575 71.7621 212.85 71.7621 211.954C71.7621 211.058 72.4819 210.333 73.3712 210.333H91.5129C92.4021 210.333 93.122 211.058 93.122 211.954C93.122 212.85 92.4021 213.575 91.5129 213.575Z" fill="#7F7F7F"/>
</g>
</g>
<g id="Group_53">
<g id="Group_54">
<path id="Vector_44" d="M121.753 239.281H103.611C102.722 239.281 102.002 238.556 102.002 237.66C102.002 236.764 102.722 236.039 103.611 236.039H121.753C122.642 236.039 123.362 236.764 123.362 237.66C123.362 238.556 122.642 239.281 121.753 239.281Z" fill="#7F7F7F"/>
</g>
<g id="Group_55">
<path id="Vector_45" d="M121.753 230.712H103.611C102.722 230.712 102.002 229.987 102.002 229.091C102.002 228.195 102.722 227.47 103.611 227.47H121.753C122.642 227.47 123.362 228.195 123.362 229.091C123.362 229.987 122.642 230.712 121.753 230.712Z" fill="#7F7F7F"/>
</g>
<g id="Group_56">
<path id="Vector_46" d="M121.753 222.144H103.611C102.722 222.144 102.002 221.418 102.002 220.522C102.002 219.627 102.722 218.901 103.611 218.901H121.753C122.642 218.901 123.362 219.627 123.362 220.522C123.362 221.418 122.642 222.144 121.753 222.144Z" fill="#7F7F7F"/>
</g>
<g id="Group_57">
<path id="Vector_47" d="M121.753 213.575H103.611C102.722 213.575 102.002 212.85 102.002 211.954C102.002 211.058 102.722 210.333 103.611 210.333H121.753C122.642 210.333 123.362 211.058 123.362 211.954C123.362 212.85 122.642 213.575 121.753 213.575Z" fill="#7F7F7F"/>
</g>
<g id="Group_58">
<path id="Vector_48" d="M121.753 205.006H103.611C102.722 205.006 102.002 204.281 102.002 203.385C102.002 202.489 102.722 201.764 103.611 201.764H121.753C122.642 201.764 123.362 202.489 123.362 203.385C123.362 204.281 122.642 205.006 121.753 205.006Z" fill="#7F7F7F"/>
</g>
</g>
<g id="Group_59">
<path id="Vector_49" d="M86.982 7.18529H35.5755C34.6863 7.18529 33.9664 6.46007 33.9664 5.5642C33.9664 4.66834 34.6863 3.94312 35.5755 3.94312H86.982C87.8712 3.94312 88.5911 4.66834 88.5911 5.5642C88.5911 6.46007 87.8652 7.18529 86.982 7.18529Z" fill="#7F7F7F"/>
</g>
<g id="Group_60">
<path id="Vector_50" d="M52.2049 33.0798H21.9708C21.0816 33.0798 20.3617 32.3546 20.3617 31.4587C20.3617 30.5629 21.0816 29.8376 21.9708 29.8376H52.2049C53.0941 29.8376 53.814 30.5629 53.814 31.4587C53.814 32.3546 53.0941 33.0798 52.2049 33.0798Z" fill="#7F7F7F"/>
</g>
<g id="Group_61">
<path id="Vector_51" d="M103.611 20.9461C100.563 20.9461 98.0824 18.4474 98.0824 15.3759C98.0824 12.3043 100.563 9.80566 103.611 9.80566C106.66 9.80566 109.14 12.3043 109.14 15.3759C109.14 18.4474 106.66 20.9461 103.611 20.9461ZM103.611 13.0417C102.335 13.0417 101.295 14.09 101.295 15.3759C101.295 16.6618 102.335 17.71 103.611 17.71C104.888 17.71 105.928 16.6618 105.928 15.3759C105.928 14.09 104.888 13.0417 103.611 13.0417Z" fill="#7F7F7F"/>
</g>
<g id="Group_62">
<path id="Vector_52" d="M268.598 11.1404C265.55 11.1404 263.069 8.64173 263.069 5.5702C263.069 2.49867 265.55 0 268.598 0C271.647 0 274.127 2.49867 274.127 5.5702C274.127 8.64173 271.647 11.1404 268.598 11.1404ZM268.598 3.23608C267.322 3.23608 266.281 4.2843 266.281 5.5702C266.281 6.8561 267.322 7.90432 268.598 7.90432C269.875 7.90432 270.915 6.8561 270.915 5.5702C270.915 4.2843 269.875 3.23608 268.598 3.23608Z" fill="#7F7F7F"/>
</g>
<g id="Group_63">
<g id="Group_64">
<path id="Vector_53" d="M158.133 24.7978C157.244 24.7978 156.524 24.0725 156.524 23.1767V15.376C156.524 14.4801 157.244 13.7549 158.133 13.7549C159.022 13.7549 159.742 14.4801 159.742 15.376V23.1828C159.742 24.0725 159.022 24.7978 158.133 24.7978Z" fill="#7F7F7F"/>
</g>
<g id="Group_65">
<path id="Vector_54" d="M162.011 20.8974H154.262C153.372 20.8974 152.653 20.1722 152.653 19.2764C152.653 18.3805 153.372 17.6553 154.262 17.6553H162.011C162.9 17.6553 163.62 18.3805 163.62 19.2764C163.614 20.1722 162.894 20.8974 162.011 20.8974Z" fill="#7F7F7F"/>
</g>
</g>
<g id="Group_66">
<g id="Group_67">
<path id="Vector_55" d="M268.689 83.0595C267.8 83.0595 267.08 82.3343 267.08 81.4384V73.6316C267.08 72.7357 267.8 72.0105 268.689 72.0105C269.578 72.0105 270.298 72.7357 270.298 73.6316V81.4384C270.298 82.3343 269.578 83.0595 268.689 83.0595Z" fill="#7F7F7F"/>
</g>
<g id="Group_68">
<path id="Vector_56" d="M272.567 79.1592H264.818C263.928 79.1592 263.208 78.4339 263.208 77.5381C263.208 76.6422 263.928 75.917 264.818 75.917H272.567C273.456 75.917 274.176 76.6422 274.176 77.5381C274.176 78.4339 273.456 79.1592 272.567 79.1592Z" fill="#7F7F7F"/>
</g>
</g>
<g id="Group_69">
<g id="Group_70">
<path id="Vector_57" d="M171.744 208.913C170.855 208.913 170.135 208.188 170.135 207.292V199.485C170.135 198.589 170.855 197.864 171.744 197.864C172.633 197.864 173.353 198.589 173.353 199.485V207.292C173.347 208.188 172.627 208.913 171.744 208.913Z" fill="#7F7F7F"/>
</g>
<g id="Group_71">
<path id="Vector_58" d="M175.616 205.007H167.866C166.977 205.007 166.257 204.281 166.257 203.385C166.257 202.49 166.977 201.764 167.866 201.764H175.616C176.505 201.764 177.225 202.49 177.225 203.385C177.225 204.281 176.505 205.007 175.616 205.007Z" fill="#7F7F7F"/>
</g>
</g>
</g>
</g>
<defs>
<clipPath id="clip0_308_2">
<rect width="300" height="240" fill="white"/>
</clipPath>
</defs>
</svg>
