<svg width="299" height="240" viewBox="0 0 299 240" fill="none" xmlns="http://www.w3.org/2000/svg">
<g id="Group">
<g id="Group_2">
<path id="Vector" d="M135.432 130.901L139.835 126.573L135.877 122.699L131.438 126.997C130.089 126.144 128.619 125.509 126.926 125.174V119.206H121.282V125.174C119.776 125.515 118.18 126.15 116.824 127.014L112.421 122.687L108.481 126.55L112.927 130.953C112.053 132.265 111.427 133.729 111.078 135.381H104.717V140.89H111.078C111.421 142.36 112.059 143.859 112.933 145.176L108.493 149.468L112.451 153.307L116.824 148.968C118.18 149.832 119.776 150.456 121.282 150.797V157.064H126.926V150.797C128.619 150.462 130.089 149.832 131.432 148.98L135.859 153.284L139.823 149.421L135.42 145.211C136.311 143.882 136.968 142.36 137.317 140.89H143.491V135.381H137.317C136.968 133.717 136.317 132.223 135.432 130.901ZM124.161 143.865C120.83 143.865 118.131 141.231 118.131 137.979C118.131 134.728 120.83 132.094 124.161 132.094C127.492 132.094 130.191 134.728 130.191 137.979C130.191 141.225 127.492 143.865 124.161 143.865Z" fill="#F79F63"/>
</g>
<g id="Group_3">
<path id="Vector_2" d="M294.374 12.8289H209.783C207.56 12.8289 205.795 14.528 205.795 16.6975V48.8641L254.593 49.4344L259.25 53.9793V71.8H294.374C296.597 71.8 298.398 69.9891 298.398 67.8137V16.6975C298.398 14.528 296.597 12.8289 294.374 12.8289ZM256.238 44.0606H248.708V34.5065H256.238V44.0606Z" fill="#F79F63"/>
</g>
<g id="Group_4">
<g id="Group_5">
<path id="Vector_3" d="M259.96 177.284H268.4C268.153 183.434 264.267 188.096 257.515 191.583H238.751V227.412H284.459V171.187H259.966L259.96 177.284Z" fill="#F9C269"/>
</g>
<g id="Group_6">
<path id="Vector_4" d="M250.045 227.782V238.442H295.753V182.217H284.832L250.045 227.782Z" fill="#F9C269"/>
</g>
</g>
<g id="Group_7">
<g id="Group_8">
<path id="Vector_5" d="M258.834 178.971C257.948 178.971 257.231 178.271 257.231 177.407V54.9025C257.231 53.2504 255.852 51.904 254.159 51.904H51.9366C50.244 51.904 48.8645 53.2504 48.8645 54.9025V177.407C48.8645 178.271 48.1477 178.971 47.2622 178.971C46.3767 178.971 45.6599 178.271 45.6599 177.407V54.9025C45.6599 51.5277 48.473 48.782 51.9306 48.782H254.153C257.611 48.782 260.424 51.5277 260.424 54.9025V177.407C260.43 178.271 259.719 178.971 258.834 178.971Z" fill="#7F7F7F"/>
</g>
<g id="Group_9">
<path id="Vector_6" d="M245.768 178.971C244.883 178.971 244.166 178.271 244.166 177.407V64.145H61.93V177.407C61.93 178.271 61.2131 178.971 60.3277 178.971C59.4422 178.971 58.7253 178.271 58.7253 177.407V62.581C58.7253 61.7167 59.4422 61.0171 60.3277 61.0171H245.768C246.654 61.0171 247.371 61.7167 247.371 62.581V177.407C247.371 178.271 246.654 178.971 245.768 178.971Z" fill="#7F7F7F"/>
</g>
<g id="Group_10">
<path id="Vector_7" d="M254.882 192.194H51.2198C42.8648 192.194 36.0701 185.562 36.0701 177.407C36.0701 176.543 36.7869 175.843 37.6724 175.843H268.436C269.321 175.843 270.038 176.543 270.038 177.407C270.032 185.562 263.237 192.194 254.882 192.194ZM39.3711 178.971C40.1542 184.668 45.1659 189.078 51.2198 189.078H254.882C260.93 189.078 265.942 184.668 266.731 178.971H39.3711Z" fill="#7F7F7F"/>
</g>
<g id="Group_11">
<path id="Vector_8" d="M166.978 186.315H139.118C134.082 186.315 129.992 182.317 129.992 177.407C129.992 176.543 130.709 175.843 131.595 175.843C132.48 175.843 133.197 176.543 133.197 177.407C133.197 180.6 135.859 183.193 139.124 183.193H166.984C170.255 183.193 172.911 180.594 172.911 177.407C172.911 176.543 173.628 175.843 174.514 175.843C175.399 175.843 176.116 176.543 176.116 177.407C176.11 182.322 172.014 186.315 166.978 186.315Z" fill="#7F7F7F"/>
</g>
<g id="Group_12">
<g id="Group_13">
<g id="Group_14">
<path id="Vector_9" d="M172.459 117.149C166.616 117.149 161.87 112.51 161.87 106.812C161.87 101.109 166.622 96.4763 172.459 96.4763C178.302 96.4763 183.049 101.115 183.049 106.812C183.049 112.51 178.302 117.149 172.459 117.149ZM172.459 99.5983C168.381 99.5983 165.068 102.838 165.068 106.812C165.068 110.793 168.387 114.027 172.459 114.027C176.537 114.027 179.85 110.787 179.85 106.812C179.85 102.832 176.537 99.5983 172.459 99.5983Z" fill="#7F7F7F"/>
</g>
<g id="Group_15">
<path id="Vector_10" d="M176.712 136.657H168.429C167.544 136.657 166.827 135.957 166.827 135.093V127.132C165.134 126.667 163.43 125.985 161.882 125.133L156.117 130.724C155.49 131.33 154.478 131.33 153.858 130.718L147.961 124.956C147.334 124.345 147.334 123.357 147.961 122.752L153.695 117.143C152.828 115.643 152.153 114.062 151.69 112.404H143.582C142.696 112.404 141.979 111.704 141.979 110.84V102.756C141.979 101.891 142.696 101.192 143.582 101.192H151.69C152.153 99.5513 152.828 97.9697 153.701 96.4704L147.973 90.8555C147.352 90.2441 147.352 89.2563 147.979 88.6507L153.888 82.8947C154.515 82.2891 155.521 82.2833 156.147 82.8947L161.894 88.4861C163.436 87.6336 165.141 86.9516 166.833 86.4871V78.6909C166.833 77.8266 167.55 77.127 168.435 77.127H176.718C177.604 77.127 178.32 77.8266 178.32 78.6909V86.4871C180.013 86.9398 181.597 87.5924 183.133 88.4449L188.802 82.9065C189.103 82.6125 189.507 82.4538 189.934 82.4538C190.356 82.4538 190.765 82.6125 191.067 82.9065L196.964 88.6625C197.59 89.2739 197.59 90.2617 196.964 90.8673L191.29 96.4057C192.175 97.9168 192.856 99.516 193.332 101.192H201.373C202.259 101.192 202.976 101.891 202.976 102.756V110.84C202.976 111.704 202.259 112.404 201.373 112.404H193.332C192.856 114.079 192.169 115.685 191.284 117.201L196.97 122.758C197.596 123.369 197.596 124.357 196.97 124.962L191.079 130.718C190.778 131.012 190.374 131.177 189.946 131.177C189.525 131.177 189.115 131.012 188.814 130.718L183.133 125.168C181.597 126.021 180.013 126.679 178.32 127.132V135.093C178.308 135.957 177.592 136.657 176.712 136.657ZM170.026 133.535H175.11V125.909C175.11 125.168 175.64 124.533 176.381 124.38C178.555 123.933 180.555 123.122 182.489 121.887C183.121 121.488 183.959 121.57 184.495 122.093L189.934 127.408L193.567 123.863L188.121 118.542C187.585 118.019 187.501 117.201 187.916 116.584C189.163 114.72 190.037 112.68 190.506 110.522C190.663 109.799 191.314 109.288 192.073 109.288H199.771V104.325H192.073C191.32 104.325 190.663 103.808 190.506 103.091C190.037 100.927 189.169 98.8869 187.928 97.0348C187.513 96.4175 187.603 95.6003 188.133 95.077L193.567 89.7737L189.934 86.2225L184.507 91.5317C183.971 92.0549 183.139 92.1372 182.507 91.7374C180.567 90.5086 178.561 89.6973 176.387 89.2504C175.646 89.0976 175.116 88.4626 175.116 87.7218V80.2548H170.032V87.7159C170.032 88.4508 169.502 89.0917 168.761 89.2445C166.55 89.7031 164.394 90.5733 162.52 91.7668C161.888 92.1725 161.05 92.0843 160.514 91.5669L155.009 86.2107L151.358 89.7619L156.846 95.1417C157.376 95.6649 157.466 96.4763 157.057 97.0936C155.822 98.9516 154.966 100.968 154.509 103.079C154.352 103.802 153.701 104.32 152.942 104.32H145.178V109.282H152.942C153.701 109.282 154.352 109.799 154.509 110.522C154.972 112.662 155.828 114.685 157.051 116.531C157.46 117.149 157.376 117.966 156.84 118.483L151.346 123.851L154.984 127.408L160.508 122.052C161.044 121.535 161.876 121.452 162.508 121.852C164.382 123.046 166.538 123.922 168.749 124.374C169.49 124.527 170.02 125.162 170.02 125.903V133.535H170.026Z" fill="#7F7F7F"/>
</g>
</g>
<g id="Group_16">
<g id="Group_17">
<path id="Vector_11" d="M124.161 145.423C119.951 145.423 116.529 142.083 116.529 137.974C116.529 133.864 119.951 130.524 124.161 130.524C128.372 130.524 131.793 133.864 131.793 137.974C131.793 142.083 128.372 145.423 124.161 145.423ZM124.161 133.652C121.715 133.652 119.728 135.593 119.728 137.98C119.728 140.367 121.715 142.307 124.161 142.307C126.607 142.307 128.595 140.367 128.595 137.98C128.595 135.593 126.607 133.652 124.161 133.652Z" fill="#7F7F7F"/>
</g>
<g id="Group_18">
<path id="Vector_12" d="M127.016 158.517H121.372C120.487 158.517 119.77 157.817 119.77 156.953V151.973C118.83 151.69 117.951 151.326 117.125 150.903L113.577 154.383C113.276 154.677 112.873 154.842 112.445 154.842C112.023 154.842 111.614 154.677 111.312 154.389L107.355 150.538C107.054 150.244 106.885 149.844 106.885 149.433C106.885 149.015 107.054 148.621 107.355 148.327L110.921 144.864C110.499 144.071 110.132 143.224 109.849 142.354H104.801C103.915 142.354 103.198 141.654 103.198 140.79V135.281C103.198 134.417 103.915 133.717 104.801 133.717H109.825C110.096 132.829 110.457 131.977 110.915 131.142L107.343 127.638C106.722 127.026 106.722 126.038 107.343 125.433L111.294 121.535C111.596 121.241 111.999 121.035 112.427 121.035C112.849 121.035 113.258 121.241 113.559 121.535L117.113 125.027C117.939 124.604 118.818 124.257 119.758 123.975V119.106C119.758 118.242 120.475 117.542 121.36 117.542H127.004C127.89 117.542 128.607 118.242 128.607 119.106V123.951C129.546 124.216 130.366 124.568 131.221 125.021L134.739 121.541C135.04 121.247 135.444 121.041 135.871 121.041C136.293 121.041 136.702 121.247 137.004 121.541L140.961 125.427C141.588 126.038 141.588 127.032 140.961 127.643L137.437 131.095C137.901 131.941 138.275 132.811 138.552 133.717H143.576C144.461 133.717 145.178 134.417 145.178 135.281V140.79C145.178 141.654 144.461 142.354 143.576 142.354H138.522C138.233 143.236 137.859 144.1 137.425 144.9L140.955 148.304C141.256 148.598 141.431 148.992 141.431 149.409C141.431 149.827 141.262 150.226 140.961 150.52L137.01 154.383C136.709 154.677 136.305 154.842 135.877 154.842C135.45 154.842 135.046 154.677 134.745 154.383L131.221 150.938C130.366 151.391 129.552 151.743 128.613 152.008V156.964C128.619 157.817 127.902 158.517 127.016 158.517ZM122.974 155.395H125.42V150.785C125.42 150.044 125.956 149.403 126.703 149.256C128.089 148.98 129.329 148.474 130.612 147.663C131.245 147.257 132.082 147.346 132.618 147.869L135.889 151.067L137.57 149.421L134.305 146.27C133.763 145.746 133.673 144.923 134.088 144.306C134.841 143.183 135.431 141.813 135.757 140.437C135.925 139.732 136.57 139.226 137.317 139.226H141.985V136.839H137.317C136.558 136.839 135.901 136.316 135.751 135.592C135.456 134.199 134.913 132.929 134.094 131.706C133.679 131.089 133.769 130.272 134.299 129.748L137.57 126.55L135.877 124.898L132.612 128.09C132.076 128.614 131.245 128.696 130.612 128.296C129.323 127.479 128.083 126.973 126.697 126.703C125.95 126.556 125.414 125.915 125.414 125.174V120.676H122.968V125.174C122.968 125.903 122.456 126.532 121.727 126.697C120.312 127.014 118.854 127.608 117.74 128.32C117.107 128.725 116.27 128.637 115.734 128.114L112.439 124.892L110.746 126.544L114.065 129.795C114.595 130.319 114.686 131.13 114.276 131.747C113.463 132.964 112.933 134.223 112.65 135.587C112.499 136.316 111.843 136.839 111.084 136.839H106.415V139.226H111.084C111.83 139.226 112.475 139.732 112.644 140.437C112.963 141.795 113.547 143.153 114.282 144.265C114.692 144.882 114.601 145.699 114.065 146.223L110.764 149.433L112.451 151.073L115.74 147.845C116.276 147.322 117.113 147.234 117.752 147.64C118.86 148.345 120.318 148.939 121.74 149.262C122.468 149.427 122.98 150.056 122.98 150.785V155.395H122.974Z" fill="#7F7F7F"/>
</g>
</g>
</g>
<g id="Group_19">
<g id="Group_20">
<path id="Vector_13" d="M75.658 90.2909C75.2484 90.2909 74.8387 90.1381 74.5255 89.8323C73.899 89.2209 73.899 88.2331 74.5255 87.6217L81.1456 81.1601L74.5255 74.6986C73.899 74.0871 73.899 73.0994 74.5255 72.4879C75.152 71.8764 76.164 71.8764 76.7904 72.4879L84.5369 80.0489C85.1634 80.6604 85.1634 81.6481 84.5369 82.2596L76.7904 89.8206C76.4772 90.1381 76.0676 90.2909 75.658 90.2909Z" fill="#7F7F7F"/>
</g>
<g id="Group_21">
<path id="Vector_14" d="M88.8318 90.2909C88.4222 90.2909 88.0126 90.1381 87.6993 89.8323C87.0729 89.2209 87.0729 88.2331 87.6993 87.6217L94.3194 81.1601L87.6993 74.6986C87.0729 74.0871 87.0729 73.0994 87.6993 72.4879C88.3258 71.8764 89.3378 71.8764 89.9643 72.4879L97.7108 80.0489C98.3373 80.6604 98.3373 81.6481 97.7108 82.2596L89.9643 89.8206C89.651 90.1381 89.2414 90.2909 88.8318 90.2909Z" fill="#7F7F7F"/>
</g>
<g id="Group_22">
<path id="Vector_15" d="M102.006 90.2909C101.596 90.2909 101.187 90.1381 100.873 89.8323C100.247 89.2209 100.247 88.2331 100.873 87.6217L107.493 81.1601L100.873 74.6986C100.247 74.0871 100.247 73.0994 100.873 72.4879C101.5 71.8764 102.512 71.8764 103.138 72.4879L110.885 80.0489C111.511 80.6604 111.511 81.6481 110.885 82.2596L103.138 89.8206C102.825 90.1381 102.415 90.2909 102.006 90.2909Z" fill="#7F7F7F"/>
</g>
<g id="Group_23">
<path id="Vector_16" d="M115.186 90.2909C114.776 90.2909 114.366 90.1381 114.053 89.8323C113.427 89.2209 113.427 88.2331 114.053 87.6217L120.673 81.1601L114.053 74.6986C113.427 74.0871 113.427 73.0994 114.053 72.4879C114.68 71.8764 115.692 71.8764 116.318 72.4879L124.065 80.0489C124.691 80.6604 124.691 81.6481 124.065 82.2596L116.318 89.8206C116.005 90.1381 115.595 90.2909 115.186 90.2909Z" fill="#7F7F7F"/>
</g>
</g>
<g id="Group_24">
<g id="Group_25">
<path id="Vector_17" d="M230.444 167.947C230.034 167.947 229.625 167.794 229.311 167.489L221.565 159.928C220.938 159.316 220.938 158.328 221.565 157.717L229.311 150.156C229.938 149.544 230.95 149.544 231.576 150.156C232.203 150.767 232.203 151.755 231.576 152.367L224.956 158.828L231.576 165.29C232.203 165.901 232.203 166.889 231.576 167.5C231.263 167.794 230.853 167.947 230.444 167.947Z" fill="#7F7F7F"/>
</g>
<g id="Group_26">
<path id="Vector_18" d="M217.27 167.947C216.86 167.947 216.451 167.794 216.138 167.489L208.391 159.928C207.765 159.316 207.765 158.328 208.391 157.717L216.138 150.156C216.764 149.544 217.776 149.544 218.402 150.156C219.029 150.767 219.029 151.755 218.402 152.367L211.782 158.828L218.402 165.29C219.029 165.901 219.029 166.889 218.402 167.5C218.089 167.794 217.68 167.947 217.27 167.947Z" fill="#7F7F7F"/>
</g>
<g id="Group_27">
<path id="Vector_19" d="M204.09 167.947C203.68 167.947 203.271 167.794 202.958 167.489L195.211 159.928C194.585 159.316 194.585 158.328 195.211 157.717L202.958 150.156C203.584 149.544 204.596 149.544 205.223 150.156C205.849 150.767 205.849 151.755 205.223 152.367L198.602 158.828L205.223 165.29C205.849 165.901 205.849 166.889 205.223 167.5C204.909 167.794 204.5 167.947 204.09 167.947Z" fill="#7F7F7F"/>
</g>
<g id="Group_28">
<path id="Vector_20" d="M190.916 167.947C190.507 167.947 190.097 167.794 189.784 167.489L182.037 159.928C181.411 159.316 181.411 158.328 182.037 157.717L189.784 150.156C190.41 149.544 191.422 149.544 192.049 150.156C192.675 150.767 192.675 151.755 192.049 152.367L185.429 158.828L192.049 165.29C192.675 165.901 192.675 166.889 192.049 167.5C191.735 167.794 191.326 167.947 190.916 167.947Z" fill="#7F7F7F"/>
</g>
</g>
</g>
<g id="Group_29">
<g id="Group_30">
<path id="Vector_21" d="M294.374 73.3111H259.213C258.328 73.3111 257.611 72.6115 257.611 71.7472C257.611 70.8829 258.328 70.1833 259.213 70.1833H294.374C295.711 70.1833 296.801 69.1191 296.801 67.8138V16.6977C296.801 15.3925 295.711 14.3283 294.374 14.3283H209.783C208.445 14.3283 207.355 15.3925 207.355 16.6977V48.8643C207.355 49.7286 206.638 50.4282 205.753 50.4282C204.867 50.4282 204.15 49.7286 204.15 48.8643V16.6977C204.15 13.6698 206.674 11.2063 209.777 11.2063H294.368C297.47 11.2063 299.994 13.6698 299.994 16.6977V67.8197C300 70.8476 297.476 73.3111 294.374 73.3111Z" fill="#7F7F7F"/>
</g>
<g id="Group_31">
<path id="Vector_22" d="M273.249 14.3341C272.363 14.3341 271.646 13.6345 271.646 12.7702C271.646 7.44929 267.213 3.122 261.761 3.122H242.377C236.925 3.122 232.492 7.44929 232.492 12.7702C232.492 13.6345 231.775 14.3341 230.89 14.3341C230.004 14.3341 229.287 13.6345 229.287 12.7702C229.299 5.7266 235.173 0 242.383 0H261.767C268.984 0 274.851 5.7266 274.851 12.7702C274.851 13.6345 274.134 14.3341 273.249 14.3341Z" fill="#7F7F7F"/>
</g>
<g id="Group_32">
<path id="Vector_23" d="M256.858 40.386C255.979 40.386 255.262 39.657 255.256 38.7986C255.25 37.9343 255.961 37.2111 256.846 37.2052C267.093 37.1347 276.664 36.8113 283.808 36.3115C293.754 35.6236 296.35 34.7594 296.958 34.4713C297.217 33.948 297.765 33.5894 298.398 33.5894C299.283 33.5894 300 34.289 300 35.1474C300 37.0818 297.542 37.7167 295.241 38.1636C293.037 38.5928 289.862 39.0043 285.808 39.3218C278.399 39.898 268.123 40.1979 256.876 40.3801C256.864 40.386 256.858 40.386 256.858 40.386Z" fill="#7F7F7F"/>
</g>
<g id="Group_33">
<path id="Vector_24" d="M247.304 40.3862C247.298 40.3862 247.298 40.3862 247.292 40.3862C236.052 40.204 225.782 39.9041 218.379 39.3279C214.325 39.0104 211.15 38.6165 208.951 38.1873C206.65 37.7405 204.193 37.0937 204.193 35.1594C204.193 34.2951 204.909 33.5955 205.795 33.5955C206.427 33.5955 206.976 33.9541 207.235 34.4715C207.849 34.7596 210.439 35.6121 220.372 36.3C227.51 36.7939 237.076 37.1055 247.317 37.1819C248.202 37.1878 248.913 37.9345 248.907 38.7929C248.895 39.6572 248.184 40.3862 247.304 40.3862Z" fill="#7F7F7F"/>
</g>
<g id="Group_34">
<g id="Group_35">
<path id="Vector_25" d="M238.636 40.1098C237.751 40.1098 237.034 39.4102 237.034 38.5459V12.8291C237.034 11.9648 237.751 11.2651 238.636 11.2651C239.522 11.2651 240.239 11.9648 240.239 12.8291V38.5518C240.239 39.4102 239.522 40.1098 238.636 40.1098Z" fill="#7F7F7F"/>
</g>
<g id="Group_36">
<path id="Vector_26" d="M265.364 40.1098C264.478 40.1098 263.761 39.4102 263.761 38.5459V12.8291C263.761 11.9648 264.478 11.2651 265.364 11.2651C266.249 11.2651 266.966 11.9648 266.966 12.8291V38.5518C266.966 39.4102 266.249 40.1098 265.364 40.1098Z" fill="#7F7F7F"/>
</g>
</g>
<g id="Group_37">
<path id="Vector_27" d="M255.798 45.1307H248.395C247.509 45.1307 246.792 44.431 246.792 43.5668V34.383C246.792 33.5187 247.509 32.8191 248.395 32.8191H255.798C256.683 32.8191 257.4 33.5187 257.4 34.383V43.5668C257.394 44.431 256.677 45.1307 255.798 45.1307ZM249.991 42.0087H254.196V35.947H249.991V42.0087Z" fill="#7F7F7F"/>
</g>
</g>
<g id="Group_38">
<g id="Group_39">
<path id="Vector_28" d="M284.459 228.982H238.751C237.865 228.982 237.148 228.282 237.148 227.418V191.588C237.148 190.724 237.865 190.025 238.751 190.025C239.636 190.025 240.353 190.724 240.353 191.588V225.86H282.863V172.762H259.966C259.081 172.762 258.364 172.063 258.364 171.198C258.364 170.334 259.081 169.635 259.966 169.635H284.459C285.344 169.635 286.061 170.334 286.061 171.198V227.424C286.055 228.282 285.338 228.982 284.459 228.982Z" fill="#7F7F7F"/>
</g>
<g id="Group_40">
<path id="Vector_29" d="M295.753 240H250.045C249.16 240 248.443 239.3 248.443 238.436V227.782C248.443 226.918 249.16 226.218 250.045 226.218C250.931 226.218 251.648 226.918 251.648 227.782V236.878H294.157V183.78H284.838C283.953 183.78 283.236 183.081 283.236 182.217C283.236 181.352 283.953 180.653 284.838 180.653H295.753C296.639 180.653 297.356 181.352 297.356 182.217V238.442C297.35 239.306 296.633 240 295.753 240Z" fill="#7F7F7F"/>
</g>
</g>
<g id="Group_41">
<g id="Group_42">
<path id="Vector_30" d="M168.351 239.265H98.2169C96.4339 239.265 94.9822 237.848 94.9822 236.108V215.53C94.9822 213.789 96.4339 212.372 98.2169 212.372H107.789L114.276 203.2C114.632 202.701 115.252 202.442 115.872 202.548C116.487 202.654 116.987 203.101 117.143 203.688L119.469 212.372H168.357C170.14 212.372 171.592 213.789 171.592 215.53V236.108C171.592 237.842 170.14 239.265 168.351 239.265ZM98.2169 215.489C98.1989 215.489 98.1808 215.506 98.1808 215.524V236.102C98.1808 236.12 98.1989 236.137 98.2169 236.137H168.351C168.369 236.137 168.387 236.12 168.387 236.102V215.524C168.387 215.506 168.369 215.489 168.351 215.489H118.228C117.499 215.489 116.866 215.006 116.68 214.324L114.927 207.775L109.945 214.818C109.644 215.242 109.156 215.494 108.626 215.494H98.2169V215.489Z" fill="#7F7F7F"/>
</g>
<g id="Group_43">
<g id="Group_44">
<path id="Vector_31" d="M159.49 223.373H107.162C106.277 223.373 105.56 222.673 105.56 221.809C105.56 220.945 106.277 220.245 107.162 220.245H159.49C160.376 220.245 161.093 220.945 161.093 221.809C161.087 222.673 160.37 223.373 159.49 223.373Z" fill="#7F7F7F"/>
</g>
<g id="Group_45">
<path id="Vector_32" d="M136.148 231.451H107.162C106.277 231.451 105.56 230.752 105.56 229.887C105.56 229.023 106.277 228.323 107.162 228.323H136.148C137.034 228.323 137.751 229.023 137.751 229.887C137.751 230.752 137.034 231.451 136.148 231.451Z" fill="#7F7F7F"/>
</g>
</g>
</g>
<g id="Group_46">
<g id="Group_47">
<path id="Vector_33" d="M6.23456 231.933C2.79501 231.933 0 229.205 0 225.848C0 222.491 2.79501 219.763 6.23456 219.763C9.67412 219.763 12.4691 222.491 12.4691 225.848C12.4691 229.205 9.66809 231.933 6.23456 231.933ZM6.23456 222.891C4.55997 222.891 3.1986 224.22 3.1986 225.854C3.1986 227.489 4.55997 228.817 6.23456 228.817C7.90916 228.817 9.27053 227.489 9.27053 225.854C9.27053 224.22 7.90916 222.891 6.23456 222.891Z" fill="#7F7F7F"/>
</g>
<g id="Group_48">
<path id="Vector_34" d="M6.23456 104.119C2.79501 104.119 0 101.391 0 98.0342C0 94.6771 2.79501 91.949 6.23456 91.949C9.67412 91.949 12.4691 94.6771 12.4691 98.0342C12.4691 101.391 9.66809 104.119 6.23456 104.119ZM6.23456 95.071C4.55997 95.071 3.1986 96.3997 3.1986 98.0342C3.1986 99.6687 4.55997 100.997 6.23456 100.997C7.90916 100.997 9.27053 99.6687 9.27053 98.0342C9.27053 96.3997 7.90916 95.071 6.23456 95.071Z" fill="#7F7F7F"/>
</g>
<g id="Group_49">
<path id="Vector_35" d="M83.0672 227.412H80.0553C79.1698 227.412 78.453 226.712 78.453 225.848C78.453 224.984 79.1698 224.284 80.0553 224.284H83.0672C83.9527 224.284 84.6695 224.984 84.6695 225.848C84.6695 226.712 83.9527 227.412 83.0672 227.412ZM70.6463 227.412H64.8093C63.9238 227.412 63.207 226.712 63.207 225.848C63.207 224.984 63.9238 224.284 64.8093 224.284H70.6463C71.5318 224.284 72.2486 224.984 72.2486 225.848C72.2426 226.712 71.5257 227.412 70.6463 227.412ZM55.4002 227.412H49.5632C48.6777 227.412 47.9609 226.712 47.9609 225.848C47.9609 224.984 48.6777 224.284 49.5632 224.284H55.4002C56.2857 224.284 57.0025 224.984 57.0025 225.848C56.9965 226.712 56.2797 227.412 55.4002 227.412ZM40.1541 227.412H34.3171C33.4316 227.412 32.7148 226.712 32.7148 225.848C32.7148 224.984 33.4316 224.284 34.3171 224.284H40.1541C41.0396 224.284 41.7564 224.984 41.7564 225.848C41.7504 226.712 41.0336 227.412 40.1541 227.412ZM24.9081 227.412H19.0711C18.1856 227.412 17.4688 226.712 17.4688 225.848C17.4688 224.984 18.1856 224.284 19.0711 224.284H24.9081C25.7935 224.284 26.5104 224.984 26.5104 225.848C26.5043 226.712 25.7875 227.412 24.9081 227.412Z" fill="#7F7F7F"/>
</g>
<g id="Group_50">
<path id="Vector_36" d="M6.18019 209.497C5.29471 209.497 4.57788 208.798 4.57788 207.933V202.236C4.57788 201.372 5.29471 200.672 6.18019 200.672C7.06568 200.672 7.78251 201.372 7.78251 202.236V207.933C7.77648 208.803 7.05966 209.497 6.18019 209.497ZM6.18019 194.616C5.29471 194.616 4.57788 193.917 4.57788 193.052V187.355C4.57788 186.491 5.29471 185.791 6.18019 185.791C7.06568 185.791 7.78251 186.491 7.78251 187.355V193.052C7.77648 193.917 7.05966 194.616 6.18019 194.616ZM6.18019 179.735C5.29471 179.735 4.57788 179.036 4.57788 178.171V172.474C4.57788 171.61 5.29471 170.91 6.18019 170.91C7.06568 170.91 7.78251 171.61 7.78251 172.474V178.171C7.77648 179.036 7.05966 179.735 6.18019 179.735ZM6.18019 164.854C5.29471 164.854 4.57788 164.155 4.57788 163.29V157.593C4.57788 156.729 5.29471 156.029 6.18019 156.029C7.06568 156.029 7.78251 156.729 7.78251 157.593V163.29C7.77648 164.155 7.05966 164.854 6.18019 164.854ZM6.18019 149.973C5.29471 149.973 4.57788 149.274 4.57788 148.409V142.712C4.57788 141.848 5.29471 141.148 6.18019 141.148C7.06568 141.148 7.78251 141.848 7.78251 142.712V148.409C7.77648 149.274 7.05966 149.973 6.18019 149.973ZM6.18019 135.092C5.29471 135.092 4.57788 134.393 4.57788 133.529V127.831C4.57788 126.967 5.29471 126.267 6.18019 126.267C7.06568 126.267 7.78251 126.967 7.78251 127.831V133.529C7.77648 134.393 7.05966 135.092 6.18019 135.092ZM6.18019 120.212C5.29471 120.212 4.57788 119.512 4.57788 118.648V115.89C4.57788 115.026 5.29471 114.326 6.18019 114.326C7.06568 114.326 7.78251 115.026 7.78251 115.89V118.648C7.77648 119.512 7.05966 120.212 6.18019 120.212Z" fill="#7F7F7F"/>
</g>
<g id="Group_51">
<path id="Vector_37" d="M39.5879 100.098H34.3171C33.4316 100.098 32.7148 99.3982 32.7148 98.5339C32.7148 97.6696 33.4316 96.97 34.3171 96.97H39.5879C40.4734 96.97 41.1902 97.6696 41.1902 98.5339C41.1902 99.3982 40.4734 100.098 39.5879 100.098ZM24.9081 100.098H19.0711C18.1856 100.098 17.4688 99.3982 17.4688 98.5339C17.4688 97.6696 18.1856 96.97 19.0711 96.97H24.9081C25.7935 96.97 26.5104 97.6696 26.5104 98.5339C26.5043 99.3982 25.7875 100.098 24.9081 100.098Z" fill="#7F7F7F"/>
</g>
</g>
<g id="Group_52">
<g id="Group_53">
<path id="Vector_38" d="M138.594 26.5399C135.154 26.5399 132.359 23.8118 132.359 20.4546C132.359 17.0975 135.154 14.3694 138.594 14.3694C142.033 14.3694 144.829 17.0975 144.829 20.4546C144.822 23.8059 142.027 26.5399 138.594 26.5399ZM138.594 17.4914C136.919 17.4914 135.558 18.8201 135.558 20.4546C135.558 22.0891 136.919 23.4179 138.594 23.4179C140.269 23.4179 141.63 22.0891 141.63 20.4546C141.624 18.8201 140.263 17.4914 138.594 17.4914Z" fill="#7F7F7F"/>
</g>
<g id="Group_54">
<path id="Vector_39" d="M138.498 41.3974C137.612 41.3974 136.895 40.6977 136.895 39.8334V34.1362C136.895 33.2719 137.612 32.5723 138.498 32.5723C139.383 32.5723 140.1 33.2719 140.1 34.1362V39.8334C140.1 40.6977 139.383 41.3974 138.498 41.3974Z" fill="#7F7F7F"/>
</g>
<g id="Group_55">
<path id="Vector_40" d="M188.477 20.5429H182.64C181.754 20.5429 181.037 19.8433 181.037 18.979C181.037 18.1147 181.754 17.415 182.64 17.415H188.477C189.362 17.415 190.079 18.1147 190.079 18.979C190.079 19.8433 189.356 20.5429 188.477 20.5429ZM173.231 20.5429H167.394C166.508 20.5429 165.791 19.8433 165.791 18.979C165.791 18.1147 166.508 17.415 167.394 17.415H173.231C174.116 17.415 174.833 18.1147 174.833 18.979C174.833 19.8433 174.11 20.5429 173.231 20.5429ZM157.984 20.5429H152.147C151.262 20.5429 150.545 19.8433 150.545 18.979C150.545 18.1147 151.262 17.415 152.147 17.415H157.984C158.87 17.415 159.587 18.1147 159.587 18.979C159.587 19.8433 158.864 20.5429 157.984 20.5429Z" fill="#7F7F7F"/>
</g>
</g>
<g id="Group_56">
<path id="Vector_41" d="M190.916 235.749C187.88 235.749 185.41 233.339 185.41 230.375C185.41 227.412 187.88 225.001 190.916 225.001C193.952 225.001 196.422 227.412 196.422 230.375C196.422 233.339 193.952 235.749 190.916 235.749ZM190.916 228.123C189.645 228.123 188.609 229.135 188.609 230.375C188.609 231.616 189.645 232.627 190.916 232.627C192.187 232.627 193.223 231.616 193.223 230.375C193.223 229.135 192.187 228.123 190.916 228.123Z" fill="#7F7F7F"/>
</g>
<g id="Group_57">
<path id="Vector_42" d="M280.549 125.368C277.513 125.368 275.044 122.957 275.044 119.994C275.044 117.031 277.513 114.62 280.549 114.62C283.585 114.62 286.055 117.031 286.055 119.994C286.055 122.957 283.585 125.368 280.549 125.368ZM280.549 117.742C279.278 117.742 278.242 118.754 278.242 119.994C278.242 121.235 279.278 122.246 280.549 122.246C281.82 122.246 282.856 121.235 282.856 119.994C282.856 118.754 281.82 117.742 280.549 117.742Z" fill="#7F7F7F"/>
</g>
<g id="Group_58">
<path id="Vector_43" d="M6.2347 12.5409C3.19873 12.5409 0.729004 10.1303 0.729004 7.16705C0.729004 4.2038 3.19873 1.79321 6.2347 1.79321C9.27066 1.79321 11.7404 4.2038 11.7404 7.16705C11.7404 10.1303 9.27066 12.5409 6.2347 12.5409ZM6.2347 4.91521C4.96369 4.91521 3.92761 5.92648 3.92761 7.16705C3.92761 8.40762 4.96369 9.41889 6.2347 9.41889C7.5057 9.41889 8.54179 8.40762 8.54179 7.16705C8.54179 5.92648 7.5057 4.91521 6.2347 4.91521Z" fill="#7F7F7F"/>
</g>
<g id="Group_59">
<g id="Group_60">
<path id="Vector_44" d="M222.264 213.172C221.378 213.172 220.662 212.472 220.662 211.608V204.076C220.662 203.212 221.378 202.512 222.264 202.512C223.149 202.512 223.866 203.212 223.866 204.076V211.608C223.86 212.472 223.143 213.172 222.264 213.172Z" fill="#7F7F7F"/>
</g>
<g id="Group_61">
<path id="Vector_45" d="M226.119 209.409H218.403C217.517 209.409 216.8 208.709 216.8 207.845C216.8 206.981 217.517 206.281 218.403 206.281H226.119C227.005 206.281 227.721 206.981 227.721 207.845C227.721 208.709 227.005 209.409 226.119 209.409Z" fill="#7F7F7F"/>
</g>
</g>
<g id="Group_62">
<g id="Group_63">
<path id="Vector_46" d="M25.3782 68.0372C24.4927 68.0372 23.7759 67.3375 23.7759 66.4732V58.9416C23.7759 58.0773 24.4927 57.3777 25.3782 57.3777C26.2637 57.3777 26.9805 58.0773 26.9805 58.9416V66.4732C26.9745 67.3375 26.2577 68.0372 25.3782 68.0372Z" fill="#7F7F7F"/>
</g>
<g id="Group_64">
<path id="Vector_47" d="M29.2333 64.2685H21.5169C20.6314 64.2685 19.9146 63.5688 19.9146 62.7046C19.9146 61.8403 20.6314 61.1406 21.5169 61.1406H29.2333C30.1188 61.1406 30.8356 61.8403 30.8356 62.7046C30.8356 63.5688 30.1188 64.2685 29.2333 64.2685Z" fill="#7F7F7F"/>
</g>
</g>
<g id="Group_65">
<g id="Group_66">
<path id="Vector_48" d="M101.982 21.1898C101.096 21.1898 100.38 20.4901 100.38 19.6258V12.0942C100.38 11.2299 101.096 10.5303 101.982 10.5303C102.867 10.5303 103.584 11.2299 103.584 12.0942V19.6258C103.584 20.4901 102.867 21.1898 101.982 21.1898Z" fill="#7F7F7F"/>
</g>
<g id="Group_67">
<path id="Vector_49" d="M105.843 17.4211H98.1267C97.2412 17.4211 96.5244 16.7214 96.5244 15.8572C96.5244 14.9929 97.2412 14.2932 98.1267 14.2932H105.843C106.729 14.2932 107.445 14.9929 107.445 15.8572C107.445 16.7214 106.729 17.4211 105.843 17.4211Z" fill="#7F7F7F"/>
</g>
</g>
</g>
</svg>
