<svg width="300" height="240" viewBox="0 0 300 240" fill="none" xmlns="http://www.w3.org/2000/svg">
<g id="Frame">
<g id="Group">
<g id="Group_2">
<path id="Vector" d="M136.073 46.9377H136.009C115.113 53.5625 94.1779 67.7451 73.2302 65.5594V127.091C73.2302 146.253 82.9378 164.335 99.2112 175.49L135.951 195.162H136.137L172.743 175.49C189.016 164.335 198.532 146.253 198.532 127.091V65.5655C177.783 67.7451 156.963 53.5625 136.073 46.9377ZM188.766 126.011C188.766 142.17 180.745 157.55 167.024 166.956L136.157 183.675H136.003L104.963 166.956C91.2413 157.55 82.9956 142.176 82.9956 126.011V74.1242C100.692 75.9662 118.434 64.0797 136.054 58.6277H136.105C153.725 64.0797 171.069 75.9662 188.766 74.1242V126.011Z" fill="#F79F63"/>
</g>
<g id="Group_3">
<path id="Vector_2" d="M146.685 102.416L136.009 81.7007L125.333 102.416L101.462 105.738L118.736 121.86L114.658 144.626L136.009 133.876L157.361 144.626L153.283 121.86L170.557 105.738L146.685 102.416Z" fill="#F9C269"/>
</g>
<g id="Group_4">
<path id="Vector_3" d="M9.95117 35.6408H27.2184L38.7342 12.8565V8.08594H9.95117V35.6408Z" fill="#F79F63"/>
</g>
<g id="Group_5">
<path id="Vector_4" d="M28.2573 13.9248V41.4858H65.177L56.0209 27.7084L65.177 13.9248H28.2573Z" fill="#F79F63"/>
</g>
<g id="Group_6">
<path id="Vector_5" d="M136.131 196.721H135.945C135.65 196.721 135.362 196.648 135.105 196.513L98.4164 176.89C98.3587 176.859 98.3074 176.829 98.2561 176.792C81.5659 165.354 71.6018 146.775 71.6018 127.097V65.5655C71.6018 65.0928 71.8134 64.6446 72.1789 64.3315C72.5444 64.0183 73.0317 63.8649 73.519 63.9201C87.4649 65.3752 101.892 59.1189 115.85 53.0652C122.262 50.2839 128.892 47.4105 135.452 45.28C135.631 45.2248 135.817 45.1941 136.009 45.1941H136.073C136.259 45.1941 136.452 45.2248 136.631 45.28C143.21 47.4167 149.853 50.2962 156.277 53.0836C170.21 59.125 184.618 65.3752 198.448 63.9201C198.936 63.871 199.423 64.0183 199.789 64.3315C200.154 64.6446 200.366 65.0928 200.366 65.5655V127.091C200.366 146.812 190.434 165.391 173.808 176.786C173.756 176.823 173.699 176.853 173.647 176.884L136.99 196.506C136.715 196.648 136.426 196.721 136.131 196.721ZM100.186 174.041L136.041 193.216L171.865 174.041C187.542 163.26 196.903 145.713 196.903 127.091V67.3645C196.089 67.4136 195.146 67.4443 194.274 67.4443C181.014 67.4443 167.735 61.6853 154.848 56.0982C148.673 53.4213 142.293 50.6523 136.041 48.5832C129.809 50.6461 123.442 53.409 117.28 56.0797C104.373 61.6791 91.0683 67.4443 77.7252 67.4443C76.8403 67.4443 75.8785 67.4197 75.0642 67.3645V127.091C75.0578 145.676 84.4513 163.223 100.186 174.041Z" fill="#7F7F7F"/>
</g>
<g id="Group_7">
<path id="Vector_6" d="M136.15 185.228H135.996C135.701 185.228 135.406 185.154 135.15 185.013L104.161 168.344C104.104 168.313 104.052 168.282 104.001 168.246C89.8243 158.533 81.3606 142.741 81.3606 126.005V74.1182C81.3606 73.6454 81.5722 73.1972 81.9377 72.8841C82.3031 72.571 82.7905 72.4175 83.2778 72.4727C94.8128 73.6761 106.809 68.5495 118.409 63.5886C124.006 61.1942 129.79 58.7199 135.516 56.9516C135.689 56.8964 135.868 56.8718 136.048 56.8718H136.099C136.279 56.8718 136.458 56.8964 136.631 56.9516C142.389 58.7322 148.173 61.2187 153.764 63.6255C164.536 68.2548 174.769 72.6569 185.086 72.6569C186.279 72.6569 187.478 72.5955 188.677 72.4727C189.164 72.4236 189.651 72.571 190.017 72.8841C190.382 73.1972 190.594 73.6454 190.594 74.1182V126.005C190.594 142.79 182.175 158.582 168.075 168.246C168.024 168.282 167.973 168.313 167.915 168.344L136.997 185.013C136.74 185.154 136.452 185.228 136.15 185.228ZM105.937 165.507L136.073 181.716L166.139 165.507C179.29 156.457 187.131 141.704 187.131 126.011V75.9171C175.333 76.5249 163.645 71.5088 152.347 66.6462C147.006 64.35 141.485 61.9739 136.073 60.2609C130.681 61.9678 125.16 64.3315 119.819 66.6155C109.047 71.2203 97.9482 75.9662 86.7915 75.9662C86.1375 75.9662 85.4321 75.9478 84.823 75.9171V126.011C84.823 141.655 92.7161 156.408 105.937 165.507Z" fill="#7F7F7F"/>
</g>
<g id="Group_8">
<path id="Vector_7" d="M157.361 146.278C157.085 146.278 156.81 146.216 156.559 146.087L136.016 135.742L115.472 146.087C114.889 146.382 114.183 146.333 113.651 145.959C113.119 145.59 112.85 144.958 112.965 144.338L116.889 122.431L100.269 106.916C99.7949 106.474 99.6282 105.817 99.8334 105.222C100.039 104.62 100.577 104.184 101.231 104.092L124.205 100.893L134.477 80.9639C134.765 80.3991 135.368 80.043 136.029 80.043C136.689 80.043 137.285 80.3991 137.58 80.9639L147.852 100.893L170.826 104.092C171.48 104.184 172.019 104.62 172.224 105.222C172.429 105.823 172.256 106.48 171.788 106.916L155.168 122.431L159.092 144.338C159.201 144.958 158.938 145.584 158.406 145.959C158.079 146.173 157.72 146.278 157.361 146.278ZM136.009 132.218C136.285 132.218 136.561 132.279 136.811 132.408L155.059 141.593L151.571 122.137C151.475 121.602 151.661 121.05 152.071 120.669L166.838 106.886L146.435 104.049C145.871 103.969 145.384 103.632 145.133 103.14L136.009 85.4336L126.885 103.147C126.635 103.638 126.148 103.975 125.584 104.055L105.181 106.892L119.948 120.675C120.358 121.056 120.544 121.602 120.448 122.143L116.96 141.599L135.208 132.414C135.458 132.285 135.734 132.218 136.009 132.218Z" fill="#7F7F7F"/>
</g>
<g id="Group_9">
<g id="Group_10">
<path id="Vector_8" d="M11.5927 88.1351C11.5927 89.0499 10.8169 89.7928 9.8615 89.7928H1.73121C0.77584 89.7928 0 89.0499 0 88.1351V1.65771C0 0.742901 0.77584 0 1.73121 0H9.86792C10.8233 0 11.5991 0.742901 11.5991 1.65771V88.1351H11.5927ZM3.45601 86.4774H8.1367V3.30929H3.45601V86.4774Z" fill="#7F7F7F"/>
</g>
<g id="Group_11">
<path id="Vector_9" d="M27.2184 37.2985H9.95118C8.99581 37.2985 8.21997 36.5556 8.21997 35.6408V8.08594C8.21997 7.17112 8.99581 6.42822 9.95118 6.42822H38.7342C39.6896 6.42822 40.4654 7.17112 40.4654 8.08594V12.8565C40.4654 13.7713 39.6896 14.5142 38.7342 14.5142C37.7788 14.5142 37.003 13.7713 37.003 12.8565V9.73751H11.676V33.9892H27.212C28.1674 33.9892 28.9432 34.7321 28.9432 35.6469C28.9432 36.5556 28.1738 37.2985 27.2184 37.2985Z" fill="#7F7F7F"/>
</g>
<g id="Group_12">
<path id="Vector_10" d="M65.1768 43.1435H28.2571C27.3017 43.1435 26.5259 42.4006 26.5259 41.4858V13.9248C26.5259 13.01 27.3017 12.2671 28.2571 12.2671H65.1768C65.8052 12.2671 66.3887 12.5986 66.69 13.1266C66.9914 13.6547 66.9721 14.2993 66.6323 14.8151L58.066 27.7084L66.6323 40.6017C66.9721 41.1113 66.9914 41.756 66.69 42.2901C66.3887 42.812 65.8052 43.1435 65.1768 43.1435ZM29.9819 39.8342H62.0222L54.5651 28.5925C54.2061 28.0522 54.2061 27.3584 54.5651 26.8181L62.0286 15.5825H29.9819V39.8342Z" fill="#7F7F7F"/>
</g>
</g>
<g id="Group_13">
<g id="Group_14">
<g id="Group_15">
<path id="Vector_11" d="M257.361 240C250.789 240 244.486 238.606 238.619 235.85C237.76 235.444 237.407 234.456 237.83 233.633C238.247 232.81 239.286 232.473 240.145 232.878C245.531 235.407 251.327 236.691 257.367 236.691C278.969 236.691 296.544 219.862 296.544 199.177C296.544 193.394 295.204 187.843 292.562 182.686C292.139 181.863 292.498 180.875 293.351 180.47C294.21 180.064 295.242 180.408 295.665 181.225C298.538 186.843 300 192.878 300 199.171C300 221.685 280.873 240 257.361 240Z" fill="#7F7F7F"/>
</g>
<g id="Group_16">
<path id="Vector_12" d="M220.614 218.051C219.973 218.051 219.364 217.713 219.062 217.124C216.19 211.506 214.728 205.47 214.728 199.177C214.728 176.663 233.855 158.348 257.367 158.348C263.939 158.348 270.249 159.742 276.109 162.499C276.968 162.904 277.321 163.893 276.898 164.715C276.475 165.538 275.442 165.876 274.583 165.47C269.197 162.941 263.401 161.658 257.361 161.658C235.759 161.658 218.184 178.487 218.184 199.171C218.184 204.955 219.524 210.505 222.166 215.662C222.589 216.485 222.23 217.473 221.377 217.879C221.127 217.995 220.871 218.051 220.614 218.051Z" fill="#7F7F7F"/>
</g>
</g>
<g id="Group_17">
<g id="Group_18">
<path id="Vector_13" d="M283.816 213.225C283.56 213.225 283.303 213.17 283.053 213.053C282.194 212.648 281.841 211.659 282.265 210.837C284.13 207.19 285.079 203.26 285.079 199.171C285.079 184.534 272.647 172.629 257.361 172.629C253.09 172.629 248.987 173.538 245.178 175.325C244.319 175.724 243.287 175.386 242.863 174.569C242.44 173.747 242.799 172.758 243.652 172.353C247.942 170.339 252.552 169.32 257.354 169.32C274.545 169.32 288.529 182.711 288.529 199.171C288.529 203.77 287.465 208.184 285.362 212.292C285.067 212.881 284.457 213.225 283.816 213.225Z" fill="#7F7F7F"/>
</g>
<g id="Group_19">
<path id="Vector_14" d="M257.361 229.029C240.17 229.029 226.186 215.638 226.186 199.177C226.186 194.579 227.25 190.164 229.354 186.057C229.777 185.234 230.809 184.897 231.668 185.302C232.527 185.707 232.88 186.695 232.457 187.518C230.591 191.165 229.642 195.095 229.642 199.184C229.642 213.821 242.075 225.725 257.361 225.725C261.631 225.725 265.735 224.817 269.543 223.03C270.402 222.625 271.435 222.969 271.858 223.785C272.281 224.608 271.922 225.597 271.069 226.002C266.78 228.003 262.17 229.029 257.361 229.029Z" fill="#7F7F7F"/>
</g>
</g>
<g id="Group_20">
<g id="Group_21">
<path id="Vector_15" d="M240.433 208.761C239.792 208.761 239.183 208.424 238.882 207.834C237.497 205.121 236.792 202.21 236.792 199.171C236.792 188.304 246.025 179.469 257.367 179.469C260.541 179.469 263.58 180.144 266.414 181.471C267.274 181.876 267.626 182.864 267.203 183.687C266.78 184.51 265.748 184.847 264.888 184.442C262.535 183.337 260.003 182.778 257.367 182.778C247.929 182.778 240.248 190.134 240.248 199.171C240.248 201.701 240.831 204.12 241.985 206.373C242.408 207.196 242.049 208.184 241.196 208.589C240.946 208.712 240.69 208.761 240.433 208.761Z" fill="#7F7F7F"/>
</g>
<g id="Group_22">
<path id="Vector_16" d="M257.361 218.879C254.187 218.879 251.148 218.204 248.314 216.878C247.455 216.473 247.102 215.484 247.525 214.661C247.948 213.839 248.981 213.501 249.84 213.906C252.193 215.011 254.726 215.57 257.367 215.57C266.806 215.57 274.487 208.215 274.487 199.177C274.487 196.648 273.904 194.229 272.75 191.975C272.326 191.153 272.686 190.164 273.538 189.759C274.397 189.354 275.43 189.698 275.853 190.514C277.238 193.228 277.943 196.138 277.943 199.177C277.943 210.038 268.71 218.879 257.361 218.879Z" fill="#7F7F7F"/>
</g>
</g>
</g>
<g id="Group_23">
<path id="Vector_17" d="M65.0937 150.557H59.5987C58.6433 150.557 57.8674 149.814 57.8674 148.899C57.8674 147.985 58.6433 147.242 59.5987 147.242H65.0937C66.049 147.242 66.8249 147.985 66.8249 148.899C66.8185 149.82 66.049 150.557 65.0937 150.557ZM49.4294 150.557H43.1265C42.1711 150.557 41.3953 149.814 41.3953 148.899C41.3953 147.985 42.1711 147.242 43.1265 147.242H49.4294C50.3847 147.242 51.1606 147.985 51.1606 148.899C51.1606 149.82 50.3847 150.557 49.4294 150.557Z" fill="#7F7F7F"/>
</g>
<g id="Group_24">
<g id="Group_25">
<path id="Vector_18" d="M258.817 105.124C255.104 105.124 252.078 102.232 252.078 98.6708C252.078 95.116 255.098 92.218 258.817 92.218C262.529 92.218 265.555 95.1098 265.555 98.6708C265.549 102.232 262.529 105.124 258.817 105.124ZM258.817 95.5396C257.008 95.5396 255.54 96.9456 255.54 98.677C255.54 100.408 257.008 101.814 258.817 101.814C260.625 101.814 262.093 100.408 262.093 98.677C262.093 96.9456 260.625 95.5396 258.817 95.5396Z" fill="#7F7F7F"/>
</g>
<g id="Group_26">
<path id="Vector_19" d="M241.043 100.31H234.74C233.784 100.31 233.009 99.5672 233.009 98.6523C233.009 97.7375 233.784 96.9946 234.74 96.9946H241.043C241.998 96.9946 242.774 97.7375 242.774 98.6523C242.767 99.5672 241.998 100.31 241.043 100.31ZM224.564 100.31H219.069C218.114 100.31 217.338 99.5672 217.338 98.6523C217.338 97.7375 218.114 96.9946 219.069 96.9946H224.564C225.519 96.9946 226.295 97.7375 226.295 98.6523C226.295 99.5672 225.519 100.31 224.564 100.31Z" fill="#7F7F7F"/>
</g>
<g id="Group_27">
<path id="Vector_20" d="M258.842 137.995C257.887 137.995 257.111 137.253 257.111 136.338V131.076C257.111 130.161 257.887 129.418 258.842 129.418C259.797 129.418 260.573 130.161 260.573 131.076V136.338C260.567 137.259 259.791 137.995 258.842 137.995ZM258.842 123.002C257.887 123.002 257.111 122.259 257.111 121.345V115.309C257.111 114.395 257.887 113.652 258.842 113.652C259.797 113.652 260.573 114.395 260.573 115.309V121.345C260.567 122.259 259.791 123.002 258.842 123.002Z" fill="#7F7F7F"/>
</g>
</g>
<g id="Group_28">
<path id="Vector_21" d="M268.909 20.0645H182.258C181.303 20.0645 180.527 19.3215 180.527 18.4067C180.527 17.4919 181.303 16.749 182.258 16.749H268.909C269.864 16.749 270.64 17.4919 270.64 18.4067C270.64 19.3215 269.864 20.0645 268.909 20.0645Z" fill="#7F7F7F"/>
</g>
<g id="Group_29">
<path id="Vector_22" d="M286.811 48.4973H244.293C243.338 48.4973 242.562 47.7544 242.562 46.8396C242.562 45.9248 243.338 45.1819 244.293 45.1819H286.804C287.76 45.1819 288.536 45.9248 288.536 46.8396C288.536 47.7544 287.76 48.4973 286.811 48.4973Z" fill="#7F7F7F"/>
</g>
<g id="Group_30">
<path id="Vector_23" d="M92.3507 231.976H18.5112C17.5559 231.976 16.78 231.233 16.78 230.318C16.78 229.403 17.5559 228.66 18.5112 228.66H92.3507C93.3061 228.66 94.0819 229.403 94.0819 230.318C94.0755 231.233 93.3061 231.976 92.3507 231.976Z" fill="#7F7F7F"/>
</g>
<g id="Group_31">
<path id="Vector_24" d="M36.8172 196.721H5.69386C4.73849 196.721 3.96265 195.979 3.96265 195.064C3.96265 194.149 4.73849 193.406 5.69386 193.406H36.8172C37.7726 193.406 38.5484 194.149 38.5484 195.064C38.5484 195.979 37.7726 196.721 36.8172 196.721Z" fill="#7F7F7F"/>
</g>
<g id="Group_32">
<path id="Vector_25" d="M187.529 208.847C184.246 208.847 181.579 206.293 181.579 203.15C181.579 200.006 184.246 197.452 187.529 197.452C190.812 197.452 193.479 200.006 193.479 203.15C193.473 206.293 190.805 208.847 187.529 208.847ZM187.529 200.767C186.157 200.767 185.035 201.836 185.035 203.156C185.035 204.47 186.15 205.544 187.529 205.544C188.901 205.544 190.023 204.476 190.023 203.156C190.017 201.836 188.901 200.767 187.529 200.767Z" fill="#7F7F7F"/>
</g>
<g id="Group_33">
<path id="Vector_26" d="M144.774 14.3669C141.491 14.3669 138.824 11.8128 138.824 8.6693C138.824 5.52579 141.491 2.97168 144.774 2.97168C148.057 2.97168 150.724 5.52579 150.724 8.6693C150.724 11.8128 148.057 14.3669 144.774 14.3669ZM144.774 6.28097C143.402 6.28097 142.28 7.34927 142.28 8.6693C142.28 9.98933 143.396 11.0576 144.774 11.0576C146.153 11.0576 147.268 9.98933 147.268 8.6693C147.268 7.34927 146.146 6.28097 144.774 6.28097Z" fill="#7F7F7F"/>
</g>
<g id="Group_34">
<g id="Group_35">
<path id="Vector_27" d="M134.355 231.681C133.399 231.681 132.624 230.938 132.624 230.023V222.035C132.624 221.121 133.399 220.378 134.355 220.378C135.31 220.378 136.086 221.121 136.086 222.035V230.023C136.08 230.944 135.304 231.681 134.355 231.681Z" fill="#7F7F7F"/>
</g>
<g id="Group_36">
<path id="Vector_28" d="M138.523 227.69H130.181C129.225 227.69 128.449 226.947 128.449 226.032C128.449 225.117 129.225 224.375 130.181 224.375H138.523C139.478 224.375 140.254 225.117 140.254 226.032C140.254 226.947 139.478 227.69 138.523 227.69Z" fill="#7F7F7F"/>
</g>
</g>
<g id="Group_37">
<g id="Group_38">
<path id="Vector_29" d="M291.184 80.9272C290.228 80.9272 289.452 80.1843 289.452 79.2695V71.2817C289.452 70.3669 290.228 69.624 291.184 69.624C292.139 69.624 292.915 70.3669 292.915 71.2817V79.2695C292.908 80.1904 292.139 80.9272 291.184 80.9272Z" fill="#7F7F7F"/>
</g>
<g id="Group_39">
<path id="Vector_30" d="M295.351 76.9363H287.01C286.054 76.9363 285.278 76.1934 285.278 75.2786C285.278 74.3637 286.054 73.6208 287.01 73.6208H295.351C296.307 73.6208 297.083 74.3637 297.083 75.2786C297.083 76.1934 296.307 76.9363 295.351 76.9363Z" fill="#7F7F7F"/>
</g>
</g>
<g id="Group_40">
<g id="Group_41">
<path id="Vector_31" d="M94.0755 30.8702C93.1201 30.8702 92.3442 30.1273 92.3442 29.2125V21.231C92.3442 20.3161 93.1201 19.5732 94.0755 19.5732C95.0308 19.5732 95.8067 20.3161 95.8067 21.231V29.2187C95.8067 30.1273 95.0308 30.8702 94.0755 30.8702Z" fill="#7F7F7F"/>
</g>
<g id="Group_42">
<path id="Vector_32" d="M98.2496 26.8794H89.9077C88.9524 26.8794 88.1765 26.1365 88.1765 25.2217C88.1765 24.3069 88.9524 23.564 89.9077 23.564H98.2496C99.205 23.564 99.9808 24.3069 99.9808 25.2217C99.9744 26.1365 99.205 26.8794 98.2496 26.8794Z" fill="#7F7F7F"/>
</g>
</g>
</g>
</g>
</svg>
