<svg width="300" height="240" viewBox="0 0 300 240" fill="none" xmlns="http://www.w3.org/2000/svg">
<g id="Frame">
<g id="Group">
<g id="Group_2">
<g id="Group_3">
<path id="Vector" d="M248.468 160.672H245.444C244.554 160.672 243.836 159.944 243.836 159.04C243.836 158.137 244.554 157.409 245.444 157.409H248.468C249.359 157.409 250.077 158.137 250.077 159.04C250.077 159.944 249.352 160.672 248.468 160.672Z" fill="#7F7F7F"/>
</g>
<g id="Group_4">
<path id="Vector_2" d="M234.474 160.672H231.636C230.746 160.672 230.028 159.944 230.028 159.04C230.028 158.137 230.746 157.409 231.636 157.409H234.474C235.365 157.409 236.083 158.137 236.083 159.04C236.083 159.944 235.358 160.672 234.474 160.672Z" fill="#7F7F7F"/>
</g>
</g>
<g id="Group_5">
<g id="Group_6">
<path id="Vector_3" d="M284.024 63.2128H281.187C280.296 63.2128 279.578 62.4845 279.578 61.581C279.578 60.6776 280.296 59.9492 281.187 59.9492H284.024C284.915 59.9492 285.633 60.6776 285.633 61.581C285.626 62.4845 284.908 63.2128 284.024 63.2128Z" fill="#7F7F7F"/>
</g>
<g id="Group_7">
<path id="Vector_4" d="M292.813 66.1893C291.922 66.1893 291.204 65.4609 291.204 64.5575V63.2128H289.879C288.988 63.2128 288.27 62.4845 288.27 61.581C288.27 60.6776 288.988 59.9492 289.879 59.9492H292.813C293.703 59.9492 294.422 60.6776 294.422 61.581V64.5575C294.422 65.4539 293.703 66.1893 292.813 66.1893Z" fill="#7F7F7F"/>
</g>
<g id="Group_8">
<path id="Vector_5" d="M292.813 146.763C291.922 146.763 291.204 146.035 291.204 145.132V138.99C291.204 138.086 291.922 137.358 292.813 137.358C293.704 137.358 294.422 138.086 294.422 138.99V145.132C294.422 146.028 293.704 146.763 292.813 146.763ZM292.813 130.649C291.922 130.649 291.204 129.92 291.204 129.017V122.875C291.204 121.971 291.922 121.243 292.813 121.243C293.704 121.243 294.422 121.971 294.422 122.875V129.017C294.422 129.913 293.704 130.649 292.813 130.649ZM292.813 114.534C291.922 114.534 291.204 113.805 291.204 112.902V106.76C291.204 105.857 291.922 105.128 292.813 105.128C293.704 105.128 294.422 105.857 294.422 106.76V112.902C294.422 113.798 293.704 114.534 292.813 114.534ZM292.813 98.4189C291.922 98.4189 291.204 97.6905 291.204 96.7871V90.6451C291.204 89.7416 291.922 89.0133 292.813 89.0133C293.704 89.0133 294.422 89.7416 294.422 90.6451V96.7871C294.422 97.6835 293.704 98.4189 292.813 98.4189ZM292.813 82.304C291.922 82.304 291.204 81.5757 291.204 80.6722V74.5302C291.204 73.6268 291.922 72.8984 292.813 72.8984C293.704 72.8984 294.422 73.6268 294.422 74.5302V80.6722C294.422 81.5687 293.704 82.304 292.813 82.304Z" fill="#7F7F7F"/>
</g>
<g id="Group_9">
<path id="Vector_6" d="M292.813 160.672H289.879C288.988 160.672 288.27 159.944 288.27 159.041C288.27 158.137 288.988 157.409 289.879 157.409H291.204V156.064C291.204 155.161 291.922 154.432 292.813 154.432C293.703 154.432 294.422 155.161 294.422 156.064V159.041C294.422 159.937 293.703 160.672 292.813 160.672Z" fill="#7F7F7F"/>
</g>
<g id="Group_10">
<path id="Vector_7" d="M280.047 160.672H277.21C276.319 160.672 275.601 159.944 275.601 159.04C275.601 158.137 276.319 157.409 277.21 157.409H280.047C280.938 157.409 281.656 158.137 281.656 159.04C281.656 159.944 280.938 160.672 280.047 160.672Z" fill="#7F7F7F"/>
</g>
</g>
<g id="Group_11">
<g id="Group_12">
<path id="Vector_8" d="M262.801 174.385C254.51 174.385 247.764 167.543 247.764 159.132C247.764 150.721 254.51 143.878 262.801 143.878C271.093 143.878 277.838 150.721 277.838 159.132C277.838 167.543 271.093 174.385 262.801 174.385ZM262.801 147.142C256.284 147.142 250.982 152.52 250.982 159.132C250.982 165.743 256.284 171.121 262.801 171.121C269.319 171.121 274.621 165.743 274.621 159.132C274.621 152.52 269.319 147.142 262.801 147.142Z" fill="#7F7F7F"/>
</g>
<g id="Group_13">
<g id="Group_14">
<path id="Vector_9" d="M262.746 165.372C261.855 165.372 261.137 164.643 261.137 163.74V154.53C261.137 153.627 261.855 152.899 262.746 152.899C263.637 152.899 264.355 153.627 264.355 154.53V163.74C264.355 164.636 263.63 165.372 262.746 165.372Z" fill="#7F7F7F"/>
</g>
<g id="Group_15">
<path id="Vector_10" d="M267.379 160.861H258.3C257.409 160.861 256.691 160.133 256.691 159.23C256.691 158.326 257.409 157.598 258.3 157.598H267.379C268.269 157.598 268.987 158.326 268.987 159.23C268.987 160.133 268.269 160.861 267.379 160.861Z" fill="#7F7F7F"/>
</g>
</g>
</g>
<g id="thecloud">
<g id="Group_16">
<g id="Group_17">
<path id="Vector_11" d="M30.2189 175.449L50.7376 199.142C50.7376 186.984 41.79 176.955 30.2189 175.449Z" fill="#F79F63"/>
</g>
<g id="Group_18">
<path id="Vector_12" d="M88.4611 195.815V159.23C81.9851 153.494 73.5139 150.02 64.2349 150.02C48.2798 150.02 34.6927 160.301 29.563 174.693L30.212 175.442C41.7831 176.948 50.7307 186.984 50.7307 199.135L30.212 175.442C29.2178 175.316 28.2098 175.246 27.1811 175.246C14.174 175.246 3.63153 185.941 3.63153 199.135C3.63153 212.329 14.174 223.024 27.1811 223.024H55.8742H76.5103H106.95C118.273 223.024 127.524 214.031 128.145 202.7L128.166 201.887H94.4469C90.6704 200.003 88.8823 197.958 88.4611 195.815Z" fill="#F79F63"/>
</g>
</g>
<g id="Group_19">
<g id="Group_20">
<path id="Vector_13" d="M106.957 224.655H76.5171C75.6265 224.655 74.9085 223.927 74.9085 223.024C74.9085 222.12 75.6265 221.392 76.5171 221.392H106.957C117.368 221.392 125.971 213.142 126.551 202.609C126.599 201.712 127.358 201.019 128.242 201.068C129.126 201.117 129.809 201.887 129.761 202.784C129.084 215.054 119.073 224.655 106.957 224.655Z" fill="#7F7F7F"/>
</g>
<g id="Group_21">
<path id="Vector_14" d="M55.8811 224.655H27.188C13.3178 224.655 2.02979 213.205 2.02979 199.135C2.02979 185.065 13.3178 173.615 27.188 173.615C41.0582 173.615 52.3462 185.065 52.3462 199.135C52.3462 200.038 51.6282 200.767 50.7376 200.767C49.847 200.767 49.129 200.038 49.129 199.135C49.129 186.865 39.2838 176.878 27.188 176.878C15.0922 176.878 5.24705 186.865 5.24705 199.135C5.24705 211.405 15.0922 221.392 27.188 221.392H55.8811C56.7717 221.392 57.4897 222.12 57.4897 223.024C57.4828 223.927 56.7648 224.655 55.8811 224.655Z" fill="#7F7F7F"/>
</g>
<g id="Group_22">
<path id="Vector_15" d="M29.5699 176.325C29.3904 176.325 29.204 176.297 29.0245 176.227C28.1891 175.919 27.7541 174.987 28.0579 174.14C30.7229 166.667 35.5142 160.273 41.9143 155.637C48.4593 150.895 56.178 148.395 64.2418 148.395C73.5415 148.395 82.5237 151.806 89.5243 158.004C90.194 158.599 90.2631 159.629 89.6762 160.308C89.0894 160.987 88.0745 161.057 87.4048 160.462C80.991 154.782 72.7614 151.659 64.2418 151.659C49.4396 151.659 36.1149 161.141 31.0819 175.253C30.8471 175.912 30.2258 176.325 29.5699 176.325Z" fill="#7F7F7F"/>
</g>
</g>
</g>
<g id="Group_23">
<g id="Group_24">
<path id="Vector_16" d="M65.8712 240C64.9806 240 64.2626 239.272 64.2626 238.368V212.659C64.2626 211.755 64.9806 211.027 65.8712 211.027C66.7618 211.027 67.4798 211.755 67.4798 212.659V238.368C67.4798 239.265 66.7549 240 65.8712 240Z" fill="#7F7F7F"/>
</g>
<g id="Group_25">
<path id="Vector_17" d="M70.6419 217.841C70.2276 217.841 69.8203 217.68 69.5027 217.365L65.8712 213.681L62.2397 217.365C61.6114 218.002 60.5965 218.002 59.9683 217.365C59.34 216.728 59.34 215.698 59.9683 215.061L64.7389 210.221C65.0427 209.913 65.45 209.745 65.8781 209.745C66.3061 209.745 66.7135 209.92 67.0173 210.221L71.7879 215.061C72.4162 215.698 72.4162 216.728 71.7879 217.365C71.4634 217.68 71.0492 217.841 70.6419 217.841Z" fill="#7F7F7F"/>
</g>
</g>
<g id="Group_26">
<path id="Vector_18" d="M40.9062 126.615C40.0156 126.615 39.2976 125.886 39.2976 124.983V119.037C39.2976 118.134 40.0156 117.405 40.9062 117.405C41.7969 117.405 42.5149 118.134 42.5149 119.037V124.983C42.5149 125.886 41.7969 126.615 40.9062 126.615ZM40.9062 111.081C40.0156 111.081 39.2976 110.353 39.2976 109.449V103.504C39.2976 102.6 40.0156 101.872 40.9062 101.872C41.7969 101.872 42.5149 102.6 42.5149 103.504V109.449C42.5149 110.346 41.7969 111.081 40.9062 111.081ZM40.9062 95.5406C40.0156 95.5406 39.2976 94.8123 39.2976 93.9088V87.9629C39.2976 87.0595 40.0156 86.3311 40.9062 86.3311C41.7969 86.3311 42.5149 87.0595 42.5149 87.9629V93.9088C42.5149 94.8053 41.7969 95.5406 40.9062 95.5406ZM40.9062 80.0001C40.0156 80.0001 39.2976 79.2717 39.2976 78.3683V72.4224C39.2976 71.5189 40.0156 70.7906 40.9062 70.7906C41.7969 70.7906 42.5149 71.5189 42.5149 72.4224V78.3683C42.5149 79.2717 41.7969 80.0001 40.9062 80.0001ZM40.9062 64.4595C40.0156 64.4595 39.2976 63.7311 39.2976 62.8277V56.8818C39.2976 55.9784 40.0156 55.25 40.9062 55.25C41.7969 55.25 42.5149 55.9784 42.5149 56.8818V62.8277C42.5149 63.7311 41.7969 64.4595 40.9062 64.4595Z" fill="#7F7F7F"/>
</g>
<g id="Group_27">
<path id="Vector_19" d="M40.9063 41.5582C37.4543 41.5582 34.6443 38.7078 34.6443 35.2061C34.6443 31.7044 37.4543 28.854 40.9063 28.854C44.3583 28.854 47.1682 31.7044 47.1682 35.2061C47.1682 38.7078 44.3583 41.5582 40.9063 41.5582ZM40.9063 32.1106C39.2286 32.1106 37.8547 33.4973 37.8547 35.1991C37.8547 36.9009 39.2217 38.2946 40.9063 38.2946C42.584 38.2946 43.951 36.9079 43.951 35.1991C43.951 33.4903 42.584 32.1106 40.9063 32.1106Z" fill="#7F7F7F"/>
</g>
<g id="Group_28">
<path id="Vector_20" d="M77.1247 36.7399H71.2632C70.3726 36.7399 69.6545 36.0116 69.6545 35.1081C69.6545 34.2047 70.3726 33.4763 71.2632 33.4763H77.1247C78.0153 33.4763 78.7333 34.2047 78.7333 35.1081C78.7333 36.0116 78.0084 36.7399 77.1247 36.7399ZM61.8047 36.7399H55.9432C55.0526 36.7399 54.3345 36.0116 54.3345 35.1081C54.3345 34.2047 55.0526 33.4763 55.9432 33.4763H61.8047C62.6953 33.4763 63.4133 34.2047 63.4133 35.1081C63.4133 36.0116 62.6884 36.7399 61.8047 36.7399Z" fill="#7F7F7F"/>
</g>
<g id="thefold">
<g id="Group_29">
<g id="Group_30">
<g id="Group_31">
<g id="Group_32">
<path id="Vector_21" d="M160.801 23.1462C157.342 23.1462 154.532 25.9896 154.532 29.5053V36.8939L199.919 38.1826C203.951 37.6153 205.27 39.5132 203.931 43.8273V103.622H259.467C262.925 103.622 265.735 100.779 265.735 97.2634V23.1462H210.075H160.801Z" fill="#F9C269"/>
</g>
<g id="Group_33">
<path id="Vector_22" d="M257.361 4.72729H246.204C241.606 4.72729 237.885 8.50914 237.885 13.1664H219.92C214.487 13.1664 210.089 17.5786 210.089 23.1393H210.186H237.988H265.597V13.0754L265.646 13.1244C265.639 8.46011 261.959 4.72729 257.361 4.72729Z" fill="#F9C269"/>
</g>
<g id="Group_34">
<path id="Vector_23" d="M254.903 82.5212C254.012 82.5212 253.294 81.7928 253.294 80.8894V36.957C253.294 36.0536 254.012 35.3252 254.903 35.3252C255.794 35.3252 256.512 36.0536 256.512 36.957V80.8894C256.512 81.7928 255.794 82.5212 254.903 82.5212Z" fill="#7F7F7F"/>
</g>
</g>
<g id="Group_35">
<path id="Vector_24" d="M259.473 105.254H203.944C203.054 105.254 202.336 104.526 202.336 103.622C202.336 102.719 203.054 101.991 203.944 101.991H259.48C262.049 101.991 264.141 99.8686 264.141 97.2633V23.1462C264.141 22.2428 264.859 21.5144 265.749 21.5144C266.64 21.5144 267.358 22.2428 267.358 23.1462V97.2703C267.351 101.675 263.816 105.254 259.473 105.254Z" fill="#7F7F7F"/>
</g>
</g>
<g id="Group_36">
<path id="Vector_25" d="M265.687 24.68H237.981C237.091 24.68 236.373 23.9517 236.373 23.0482C236.373 22.1448 237.091 21.4164 237.981 21.4164H264.078V13.0754C264.078 9.32155 261.068 6.26806 257.368 6.26806H246.211C242.51 6.26806 239.5 9.32155 239.5 13.0754C239.5 13.9788 238.782 14.7072 237.891 14.7072H219.927C215.557 14.7072 211.974 18.1809 211.718 22.544C211.767 22.7051 211.801 22.8732 211.801 23.0552C211.801 23.9587 211.083 24.687 210.193 24.687H210.096C209.205 24.687 208.487 23.9587 208.487 23.0552C208.487 19.9317 209.675 17.0113 211.843 14.8262C213.997 12.6482 216.869 11.4506 219.934 11.4506H236.421C237.194 6.66726 241.295 3.01147 246.218 3.01147H257.375C262.849 3.01147 267.303 7.52868 267.303 13.0824V23.0552C267.289 23.9517 266.571 24.68 265.687 24.68Z" fill="#7F7F7F"/>
</g>
</g>
<g id="Group_37">
<path id="Vector_26" d="M154.539 38.5258C153.649 38.5258 152.931 37.7974 152.931 36.894V29.5054C152.931 25.1002 156.466 21.5215 160.801 21.5215H210.082C210.973 21.5215 211.691 22.2498 211.691 23.1533C211.691 24.0567 210.973 24.7851 210.082 24.7851H160.801C158.233 24.7851 156.141 26.9071 156.141 29.5124V36.901C156.148 37.7974 155.423 38.5258 154.539 38.5258Z" fill="#7F7F7F"/>
</g>
</g>
<g id="Group_38">
<path id="Vector_27" d="M294.47 198.694C291.418 198.694 288.94 196.18 288.94 193.084C288.94 189.989 291.418 187.474 294.47 187.474C297.521 187.474 300 189.989 300 193.084C300 196.18 297.521 198.694 294.47 198.694ZM294.47 190.731C293.193 190.731 292.15 191.788 292.15 193.084C292.15 194.38 293.193 195.437 294.47 195.437C295.747 195.437 296.79 194.38 296.79 193.084C296.79 191.788 295.747 190.731 294.47 190.731Z" fill="#7F7F7F"/>
</g>
<g id="Group_39">
<path id="Vector_28" d="M128.152 15.9119C125.101 15.9119 122.622 13.3976 122.622 10.3021C122.622 7.20661 125.101 4.69238 128.152 4.69238C131.204 4.69238 133.682 7.20661 133.682 10.3021C133.682 13.3976 131.204 15.9119 128.152 15.9119ZM128.152 7.94897C126.875 7.94897 125.832 9.00649 125.832 10.3021C125.832 11.5977 126.875 12.6553 128.152 12.6553C129.429 12.6553 130.472 11.5977 130.472 10.3021C130.472 9.00649 129.429 7.94897 128.152 7.94897Z" fill="#7F7F7F"/>
</g>
<g id="Group_40">
<path id="Vector_29" d="M5.53011 72.3733C2.47854 72.3733 0 69.8591 0 66.7635C0 63.668 2.47854 61.1538 5.53011 61.1538C8.58169 61.1538 11.0602 63.668 11.0602 66.7635C11.0602 69.8591 8.58169 72.3733 5.53011 72.3733ZM5.53011 64.4104C4.25287 64.4104 3.21037 65.4679 3.21037 66.7635C3.21037 68.0592 4.25287 69.1167 5.53011 69.1167C6.80736 69.1167 7.84986 68.0592 7.84986 66.7635C7.84986 65.4679 6.80736 64.4104 5.53011 64.4104Z" fill="#7F7F7F"/>
</g>
<g id="star3">
<g id="Group_41">
<path id="Vector_30" d="M231.54 235.007C230.649 235.007 229.931 234.278 229.931 233.375V225.51C229.931 224.607 230.649 223.878 231.54 223.878C232.431 223.878 233.149 224.607 233.149 225.51V233.375C233.149 234.278 232.431 235.007 231.54 235.007Z" fill="#7F7F7F"/>
</g>
<g id="Group_42">
<path id="Vector_31" d="M235.42 231.078H227.667C226.776 231.078 226.058 230.349 226.058 229.446C226.058 228.542 226.776 227.814 227.667 227.814H235.42C236.311 227.814 237.029 228.542 237.029 229.446C237.029 230.349 236.304 231.078 235.42 231.078Z" fill="#7F7F7F"/>
</g>
</g>
<g id="star1">
<g id="Group_43">
<path id="Vector_32" d="M19.9112 144.845C19.0206 144.845 18.3026 144.116 18.3026 143.213V135.348C18.3026 134.445 19.0206 133.716 19.9112 133.716C20.8018 133.716 21.5198 134.445 21.5198 135.348V143.213C21.5198 144.109 20.8018 144.845 19.9112 144.845Z" fill="#7F7F7F"/>
</g>
<g id="Group_44">
<path id="Vector_33" d="M23.7912 140.909H16.038C15.1474 140.909 14.4294 140.18 14.4294 139.277C14.4294 138.374 15.1474 137.645 16.038 137.645H23.7912C24.6818 137.645 25.3999 138.374 25.3999 139.277C25.3999 140.18 24.6749 140.909 23.7912 140.909Z" fill="#7F7F7F"/>
</g>
</g>
<g id="star2">
<g id="Group_45">
<path id="Vector_34" d="M59.0638 11.1284C58.1732 11.1284 57.4552 10.4001 57.4552 9.49663V1.6318C57.4552 0.728355 58.1732 0 59.0638 0C59.9545 0 60.6725 0.728355 60.6725 1.6318V9.49663C60.6656 10.4001 59.9475 11.1284 59.0638 11.1284Z" fill="#7F7F7F"/>
</g>
<g id="Group_46">
<path id="Vector_35" d="M62.937 7.19255H55.1838C54.2932 7.19255 53.5751 6.46419 53.5751 5.56075C53.5751 4.65731 54.2932 3.92896 55.1838 3.92896H62.937C63.8276 3.92896 64.5456 4.65731 64.5456 5.56075C64.5456 6.46419 63.8276 7.19255 62.937 7.19255Z" fill="#7F7F7F"/>
</g>
</g>
<g id="thepaper">
<path id="Vector_36" d="M205.263 203.211H96.3869C91.9407 203.211 88.3438 199.555 88.3438 195.052V36.992C88.3438 32.4818 91.9476 28.833 96.3869 28.833H205.263C209.709 28.833 213.306 32.4888 213.306 36.992V195.059C213.306 199.562 209.702 203.211 205.263 203.211Z" fill="white"/>
<g id="Group_47">
<g id="Group_48">
<path id="Vector_37" d="M207.348 203.092H94.8818C90.9258 203.092 87.7086 199.829 87.7086 195.816V36.124C87.7086 32.111 90.9258 28.8474 94.8818 28.8474H207.348C211.304 28.8474 214.521 32.111 214.521 36.124V195.816C214.521 199.829 211.304 203.092 207.348 203.092ZM94.8818 32.111C92.7002 32.111 90.9258 33.9109 90.9258 36.124V195.816C90.9258 198.029 92.7002 199.829 94.8818 199.829H207.348C209.53 199.829 211.304 198.029 211.304 195.816V36.124C211.304 33.9109 209.53 32.111 207.348 32.111H94.8818V32.111Z" fill="#7F7F7F"/>
</g>
<g id="Group_49">
<g id="check1">
<path id="Vector_38" d="M114.234 68.3883C113.82 68.3883 113.412 68.2273 113.095 67.9121L107.999 62.7436C107.371 62.1063 107.371 61.0768 107.999 60.4395C108.628 59.8022 109.643 59.8022 110.271 60.4395L114.234 64.4594L123.292 55.271C123.92 54.6336 124.935 54.6336 125.563 55.271C126.192 55.9083 126.192 56.9378 125.563 57.5751L115.366 67.9121C115.055 68.2273 114.641 68.3883 114.234 68.3883Z" fill="#7F7F7F"/>
</g>
<g id="Group_50">
<g id="Group_51">
<path id="Vector_39" d="M193.057 68.1991H136.513C135.622 68.1991 134.904 67.4708 134.904 66.5673C134.904 65.6639 135.622 64.9355 136.513 64.9355H193.057C193.948 64.9355 194.666 65.6639 194.666 66.5673C194.659 67.4708 193.941 68.1991 193.057 68.1991Z" fill="#7F7F7F"/>
</g>
<g id="Group_52">
<path id="Vector_40" d="M164.688 58.4155H136.506C135.615 58.4155 134.897 57.6871 134.897 56.7837C134.897 55.8802 135.615 55.1519 136.506 55.1519H164.688C165.579 55.1519 166.297 55.8802 166.297 56.7837C166.29 57.6871 165.572 58.4155 164.688 58.4155Z" fill="#7F7F7F"/>
</g>
</g>
</g>
<g id="Group_53">
<g id="check2">
<path id="Vector_41" d="M114.234 104.645C113.82 104.645 113.412 104.484 113.095 104.169L107.999 99.0004C107.371 98.3631 107.371 97.3336 107.999 96.6963C108.628 96.059 109.643 96.059 110.271 96.6963L114.234 100.716L123.292 91.5278C123.92 90.8905 124.935 90.8905 125.563 91.5278C126.192 92.1651 126.192 93.1946 125.563 93.8319L115.366 104.176C115.055 104.484 114.641 104.645 114.234 104.645Z" fill="#7F7F7F"/>
</g>
<g id="Group_54">
<g id="Group_55">
<path id="Vector_42" d="M193.057 104.456H136.513C135.622 104.456 134.904 103.728 134.904 102.824C134.904 101.921 135.622 101.192 136.513 101.192H193.057C193.948 101.192 194.666 101.921 194.666 102.824C194.666 103.728 193.941 104.456 193.057 104.456Z" fill="#7F7F7F"/>
</g>
<g id="Group_56">
<path id="Vector_43" d="M164.688 94.6723H136.506C135.615 94.6723 134.897 93.9439 134.897 93.0405C134.897 92.137 135.615 91.4087 136.506 91.4087H164.688C165.579 91.4087 166.297 92.137 166.297 93.0405C166.297 93.9439 165.572 94.6723 164.688 94.6723Z" fill="#7F7F7F"/>
</g>
</g>
</g>
<g id="Group_57">
<g id="check3">
<path id="Vector_44" d="M114.234 140.902C113.82 140.902 113.412 140.741 113.095 140.426L107.999 135.257C107.371 134.62 107.371 133.59 107.999 132.953C108.628 132.316 109.643 132.316 110.271 132.953L114.234 136.973L123.292 127.784C123.92 127.147 124.935 127.147 125.563 127.784C126.192 128.422 126.192 129.451 125.563 130.089L115.366 140.433C115.055 140.741 114.641 140.902 114.234 140.902Z" fill="#7F7F7F"/>
</g>
<g id="Group_58">
<g id="Group_59">
<path id="Vector_45" d="M193.057 140.524H136.513C135.622 140.524 134.904 139.795 134.904 138.892C134.904 137.988 135.622 137.26 136.513 137.26H193.057C193.948 137.26 194.666 137.988 194.666 138.892C194.666 139.795 193.941 140.524 193.057 140.524Z" fill="#7F7F7F"/>
</g>
<g id="Group_60">
<path id="Vector_46" d="M164.688 130.74H136.506C135.615 130.74 134.897 130.012 134.897 129.108C134.897 128.205 135.615 127.476 136.506 127.476H164.688C165.579 127.476 166.297 128.205 166.297 129.108C166.297 130.012 165.572 130.74 164.688 130.74Z" fill="#7F7F7F"/>
</g>
</g>
</g>
<g id="Group_61">
<g id="check4">
<path id="Vector_47" d="M114.234 177.158C113.82 177.158 113.412 176.997 113.095 176.682L107.999 171.514C107.371 170.876 107.371 169.847 107.999 169.209C108.628 168.572 109.643 168.572 110.271 169.209L114.234 173.229L123.292 164.041C123.92 163.404 124.935 163.404 125.563 164.041C126.192 164.678 126.192 165.708 125.563 166.345L115.366 176.689C115.055 176.997 114.641 177.158 114.234 177.158Z" fill="#7F7F7F"/>
</g>
<g id="Group_62">
<g id="Group_63">
<path id="Vector_48" d="M193.057 176.787H136.513C135.622 176.787 134.904 176.059 134.904 175.155C134.904 174.252 135.622 173.523 136.513 173.523H193.057C193.948 173.523 194.666 174.252 194.666 175.155C194.659 176.052 193.941 176.787 193.057 176.787Z" fill="#7F7F7F"/>
</g>
<g id="Group_64">
<path id="Vector_49" d="M164.688 167.003H136.506C135.615 167.003 134.897 166.275 134.897 165.372C134.897 164.468 135.615 163.74 136.506 163.74H164.688C165.579 163.74 166.297 164.468 166.297 165.372C166.29 166.268 165.572 167.003 164.688 167.003Z" fill="#7F7F7F"/>
</g>
</g>
</g>
</g>
</g>
</g>
</g>
</svg>
