<svg width="299" height="240" viewBox="0 0 299 240" fill="none" xmlns="http://www.w3.org/2000/svg">
<g id="Group">
<g id="Group_2">
<path id="Vector" d="M16.6443 95.5953L32.2824 84.6583L16.6443 73.7271V95.5953Z" fill="#F79F63"/>
</g>
<g id="Group_3">
<path id="Vector_2" d="M51.5937 183.708C59.4249 183.708 65.7733 178.194 65.7733 171.393C65.7733 164.591 59.4249 159.077 51.5937 159.077C43.7625 159.077 37.4141 164.591 37.4141 171.393C37.4141 178.194 43.7625 183.708 51.5937 183.708Z" fill="#F79F63"/>
</g>
<g id="Group_4">
<path id="Vector_3" d="M163.531 71.7097C179.503 71.7097 192.451 69.5436 192.451 66.8716C192.451 64.1995 179.503 62.0334 163.531 62.0334C147.56 62.0334 134.612 64.1995 134.612 66.8716C134.612 69.5436 147.56 71.7097 163.531 71.7097Z" fill="#F9C269"/>
</g>
<g id="Group_5">
<path id="Vector_4" d="M134.666 115.253C134.666 117.927 147.61 120.091 163.585 120.091C179.554 120.091 192.505 117.927 192.505 115.253L192.579 115.329V66.8071L135.868 66.8658L134.666 115.253Z" fill="#F9C269"/>
</g>
<g id="Group_6">
<path id="Vector_5" d="M248.211 162.062H79.0345C72.7212 162.062 67.5828 157.6 67.5828 152.116V51.0495C67.5828 45.5663 72.7212 41.1035 79.0345 41.1035H248.211C254.524 41.1035 259.662 45.5663 259.662 51.0495V152.122C259.656 157.6 254.524 162.062 248.211 162.062ZM79.0345 44.2292C74.7063 44.2292 71.1817 47.2904 71.1817 51.0495V152.122C71.1817 155.881 74.7063 158.942 79.0345 158.942H248.211C252.539 158.942 256.064 155.881 256.064 152.122V51.0495C256.064 47.2904 252.539 44.2292 248.211 44.2292H79.0345Z" fill="#7F7F7F"/>
</g>
<g id="Group_7">
<g id="Group_8">
<g id="Group_9">
<path id="Vector_6" d="M142.316 190.047C141.324 190.047 140.52 189.349 140.52 188.487V160.919C140.52 160.057 141.324 159.359 142.316 159.359C143.309 159.359 144.112 160.057 144.112 160.919V188.487C144.112 189.343 143.309 190.047 142.316 190.047Z" fill="#7F7F7F"/>
</g>
<g id="Group_10">
<path id="Vector_7" d="M184.848 190.047C183.856 190.047 183.052 189.349 183.052 188.487V160.919C183.052 160.057 183.856 159.359 184.848 159.359C185.841 159.359 186.644 160.057 186.644 160.919V188.487C186.651 189.343 185.847 190.047 184.848 190.047Z" fill="#7F7F7F"/>
</g>
</g>
<g id="Group_11">
<path id="Vector_8" d="M202.944 190.135H124.22C123.228 190.135 122.424 189.437 122.424 188.575C122.424 187.713 123.228 187.015 124.22 187.015H202.944C203.937 187.015 204.74 187.713 204.74 188.575C204.747 189.437 203.937 190.135 202.944 190.135Z" fill="#7F7F7F"/>
</g>
</g>
<g id="Group_12">
<path id="Vector_9" d="M257.752 143.818H109.622C108.629 143.818 107.826 143.12 107.826 142.258C107.826 141.396 108.629 140.698 109.622 140.698H257.758C258.751 140.698 259.554 141.396 259.554 142.258C259.554 143.12 258.751 143.818 257.752 143.818Z" fill="#7F7F7F"/>
</g>
<g id="Group_13">
<g id="Group_14">
<path id="Vector_10" d="M163.532 73.2695C155.699 73.2695 148.312 72.7534 142.742 71.8268C135.875 70.6774 132.816 69.1468 132.816 66.8714C132.816 64.5961 135.875 63.0654 142.742 61.916C148.312 60.9836 155.692 60.4734 163.532 60.4734C171.364 60.4734 178.751 60.9895 184.322 61.916C191.189 63.0654 194.247 64.5961 194.247 66.8714C194.247 69.1468 191.189 70.6774 184.322 71.8268C178.751 72.7593 171.371 73.2695 163.532 73.2695ZM136.671 66.8714C137.347 67.2878 139.312 68.1557 144.646 68.9533C149.838 69.7274 156.55 70.1496 163.532 70.1496C170.513 70.1496 177.225 69.7274 182.418 68.9533C187.759 68.1616 189.723 67.2878 190.392 66.8714C189.717 66.4551 187.752 65.5871 182.418 64.7896C177.225 64.0155 170.513 63.5932 163.532 63.5932C156.55 63.5932 149.838 64.0155 144.646 64.7896C139.312 65.5813 137.347 66.4551 136.671 66.8714Z" fill="#7F7F7F"/>
</g>
<g id="Group_15">
<path id="Vector_11" d="M163.532 89.3965C155.699 89.3965 148.312 88.8804 142.742 87.9538C135.875 86.8044 132.816 85.2738 132.816 82.9984C132.816 82.1363 133.619 81.4385 134.612 81.4385C135.53 81.4385 136.287 82.0366 136.395 82.8049C136.671 83.0512 138.204 84.1244 144.639 85.0803C149.831 85.8544 156.543 86.2766 163.525 86.2766C170.507 86.2766 177.218 85.8544 182.411 85.0803C188.852 84.1244 190.385 83.0512 190.655 82.8049C190.763 82.0308 191.52 81.4385 192.438 81.4385C193.43 81.4385 194.234 82.1363 194.234 82.9984C194.234 85.2738 191.175 86.8044 184.308 87.9538C178.751 88.8862 171.371 89.3965 163.532 89.3965Z" fill="#7F7F7F"/>
</g>
<g id="Group_16">
<path id="Vector_12" d="M163.586 105.529C155.753 105.529 148.366 105.013 142.796 104.087C135.929 102.937 132.87 101.407 132.87 99.1315C132.87 98.2694 133.673 97.5715 134.666 97.5715C135.584 97.5715 136.341 98.1697 136.449 98.9379C136.725 99.1842 138.258 100.257 144.693 101.213C149.885 101.987 156.597 102.41 163.579 102.41C170.561 102.41 177.272 101.987 182.465 101.213C188.906 100.257 190.439 99.1842 190.709 98.9379C190.817 98.1638 191.573 97.5715 192.492 97.5715C193.484 97.5715 194.288 98.2694 194.288 99.1315C194.288 101.407 191.229 102.937 184.362 104.087C178.798 105.013 171.418 105.529 163.586 105.529Z" fill="#7F7F7F"/>
</g>
<g id="Group_17">
<path id="Vector_13" d="M163.586 121.656C155.753 121.656 148.366 121.14 142.796 120.214C135.929 119.064 132.87 117.534 132.87 115.258C132.87 114.396 133.673 113.698 134.666 113.698C135.584 113.698 136.341 114.297 136.449 115.065C136.725 115.311 138.258 116.384 144.693 117.34C149.885 118.114 156.597 118.537 163.579 118.537C170.561 118.537 177.272 118.114 182.465 117.34C188.906 116.384 190.439 115.311 190.709 115.065C190.817 114.291 191.573 113.698 192.492 113.698C193.484 113.698 194.288 114.396 194.288 115.258C194.288 117.534 191.229 119.064 184.362 120.214C178.798 121.14 171.418 121.656 163.586 121.656Z" fill="#7F7F7F"/>
</g>
<g id="Group_18">
<path id="Vector_14" d="M192.681 116.895C191.688 116.895 190.885 116.197 190.885 115.335V66.8129C190.885 65.9508 191.688 65.2529 192.681 65.2529C193.673 65.2529 194.477 65.9508 194.477 66.8129V115.335C194.477 116.197 193.673 116.895 192.681 116.895Z" fill="#7F7F7F"/>
</g>
<g id="Group_19">
<path id="Vector_15" d="M134.484 116.895C133.491 116.895 132.688 116.197 132.688 115.335V66.8129C132.688 65.9508 133.491 65.2529 134.484 65.2529C135.476 65.2529 136.28 65.9508 136.28 66.8129V115.335C136.286 116.197 135.476 116.895 134.484 116.895Z" fill="#7F7F7F"/>
</g>
</g>
<g id="Group_20">
<path id="Vector_16" d="M157.232 12.1745C153.369 12.1745 150.223 9.44166 150.223 6.08723C150.223 2.7328 153.369 0 157.232 0C161.094 0 164.24 2.7328 164.24 6.08723C164.24 9.44166 161.101 12.1745 157.232 12.1745ZM157.232 3.12572C155.348 3.12572 153.822 4.45693 153.822 6.08723C153.822 7.71753 155.355 9.04875 157.232 9.04875C159.116 9.04875 160.642 7.71753 160.642 6.08723C160.642 4.45693 159.116 3.12572 157.232 3.12572Z" fill="#7F7F7F"/>
</g>
<g id="Group_21">
<path id="Vector_17" d="M135.861 225.908C131.999 225.908 128.852 223.175 128.852 219.821C128.852 216.466 131.999 213.733 135.861 213.733C139.723 213.733 142.87 216.466 142.87 219.821C142.87 223.175 139.723 225.908 135.861 225.908ZM135.861 216.859C133.977 216.859 132.451 218.19 132.451 219.821C132.451 221.451 133.984 222.782 135.861 222.782C137.745 222.782 139.271 221.451 139.271 219.821C139.271 218.19 137.745 216.859 135.861 216.859Z" fill="#7F7F7F"/>
</g>
<g id="Group_22">
<path id="Vector_18" d="M232.181 225.908C228.319 225.908 225.172 223.175 225.172 219.821C225.172 216.466 228.319 213.733 232.181 213.733C236.043 213.733 239.19 216.466 239.19 219.821C239.19 223.175 236.043 225.908 232.181 225.908ZM232.181 216.859C230.297 216.859 228.771 218.19 228.771 219.821C228.771 221.451 230.304 222.782 232.181 222.782C234.058 222.782 235.591 221.451 235.591 219.821C235.591 218.19 234.058 216.859 232.181 216.859Z" fill="#7F7F7F"/>
</g>
<g id="Group_23">
<path id="Vector_19" d="M22.019 12.1745C18.1568 12.1745 15.0103 9.44166 15.0103 6.08723C15.0103 2.7328 18.1568 0 22.019 0C25.8813 0 29.0278 2.7328 29.0278 6.08723C29.0278 9.44166 25.8813 12.1745 22.019 12.1745ZM22.019 3.12572C20.1352 3.12572 18.6092 4.45693 18.6092 6.08723C18.6092 7.71753 20.1419 9.04875 22.019 9.04875C23.8961 9.04875 25.4289 7.71753 25.4289 6.08723C25.4289 4.45693 23.9029 3.12572 22.019 3.12572Z" fill="#7F7F7F"/>
</g>
<g id="Group_24">
<path id="Vector_20" d="M22.019 141.197C18.1568 141.197 15.0103 138.464 15.0103 135.11C15.0103 131.755 18.1568 129.022 22.019 129.022C25.8813 129.022 29.0278 131.755 29.0278 135.11C29.0278 138.47 25.8813 141.197 22.019 141.197ZM22.019 132.148C20.1352 132.148 18.6092 133.479 18.6092 135.11C18.6092 136.746 20.1419 138.071 22.019 138.071C23.8961 138.071 25.4289 136.74 25.4289 135.11C25.4289 133.479 23.9029 132.148 22.019 132.148Z" fill="#7F7F7F"/>
</g>
<g id="Group_25">
<g id="Group_26">
<path id="Vector_21" d="M135.861 7.62962H132.478C131.486 7.62962 130.682 6.93176 130.682 6.06969C130.682 5.20763 131.486 4.50977 132.478 4.50977H135.861C136.854 4.50977 137.657 5.20763 137.657 6.06969C137.657 6.93176 136.854 7.62962 135.861 7.62962Z" fill="#7F7F7F"/>
</g>
<g id="Group_27">
<path id="Vector_22" d="M121.047 7.62962H113.849C112.856 7.62962 112.053 6.93176 112.053 6.06969C112.053 5.20763 112.856 4.50977 113.849 4.50977H121.047C122.039 4.50977 122.843 5.20763 122.843 6.06969C122.843 6.93176 122.039 7.62962 121.047 7.62962ZM102.424 7.62962H95.2263C94.2337 7.62962 93.4302 6.93176 93.4302 6.06969C93.4302 5.20763 94.2337 4.50977 95.2263 4.50977H102.424C103.417 4.50977 104.22 5.20763 104.22 6.06969C104.22 6.93176 103.417 7.62962 102.424 7.62962ZM83.8015 7.62962H76.6037C75.6111 7.62962 74.8076 6.93176 74.8076 6.06969C74.8076 5.20763 75.6111 4.50977 76.6037 4.50977H83.8015C84.7941 4.50977 85.5976 5.20763 85.5976 6.06969C85.5976 6.93176 84.7941 7.62962 83.8015 7.62962ZM65.179 7.62962H57.9811C56.9886 7.62962 56.1851 6.93176 56.1851 6.06969C56.1851 5.20763 56.9886 4.50977 57.9811 4.50977H65.179C66.1716 4.50977 66.9751 5.20763 66.9751 6.06969C66.9751 6.93176 66.1716 7.62962 65.179 7.62962Z" fill="#7F7F7F"/>
</g>
<g id="Group_28">
<path id="Vector_23" d="M46.7658 7.62962H43.5922C42.5997 7.62962 41.7961 6.93176 41.7961 6.06969C41.7961 5.20763 42.5997 4.50977 43.5922 4.50977H46.7658C47.7583 4.50977 48.5618 5.20763 48.5618 6.06969C48.5618 6.93176 47.7651 7.62962 46.7658 7.62962Z" fill="#7F7F7F"/>
</g>
</g>
<g id="Group_29">
<g id="Group_30">
<path id="Vector_24" d="M208.238 221.381H204.855C203.862 221.381 203.059 220.683 203.059 219.821C203.059 218.959 203.862 218.261 204.855 218.261H208.238C209.23 218.261 210.034 218.959 210.034 219.821C210.034 220.683 209.23 221.381 208.238 221.381Z" fill="#7F7F7F"/>
</g>
<g id="Group_31">
<path id="Vector_25" d="M195.118 221.381H188.981C187.988 221.381 187.184 220.683 187.184 219.821C187.184 218.959 187.988 218.261 188.981 218.261H195.118C196.111 218.261 196.914 218.959 196.914 219.821C196.914 220.683 196.111 221.381 195.118 221.381ZM179.244 221.381H173.106C172.114 221.381 171.31 220.683 171.31 219.821C171.31 218.959 172.114 218.261 173.106 218.261H179.244C180.236 218.261 181.04 218.959 181.04 219.821C181.04 220.683 180.236 221.381 179.244 221.381Z" fill="#7F7F7F"/>
</g>
<g id="Group_32">
<path id="Vector_26" d="M163.16 221.381H159.987C158.994 221.381 158.19 220.683 158.19 219.821C158.19 218.959 158.994 218.261 159.987 218.261H163.16C164.153 218.261 164.956 218.959 164.956 219.821C164.956 220.683 164.153 221.381 163.16 221.381Z" fill="#7F7F7F"/>
</g>
</g>
<g id="Group_33">
<g id="Group_34">
<g id="Group_35">
<path id="Vector_27" d="M22.1135 67.2703C21.1209 67.2703 20.3174 66.5725 20.3174 65.7104V62.7723C20.3174 61.9103 21.1209 61.2124 22.1135 61.2124C23.106 61.2124 23.9095 61.9103 23.9095 62.7723V65.7104C23.9163 66.5725 23.106 67.2703 22.1135 67.2703Z" fill="#7F7F7F"/>
</g>
<g id="Group_36">
<path id="Vector_28" d="M22.1135 55.6881C21.1209 55.6881 20.3174 54.9902 20.3174 54.1282V48.7974C20.3174 47.9354 21.1209 47.2375 22.1135 47.2375C23.106 47.2375 23.9095 47.9354 23.9095 48.7974V54.1282C23.9163 54.9902 23.106 55.6881 22.1135 55.6881ZM22.1135 41.7191C21.1209 41.7191 20.3174 41.0213 20.3174 40.1592V34.8285C20.3174 33.9664 21.1209 33.2686 22.1135 33.2686C23.106 33.2686 23.9095 33.9664 23.9095 34.8285V40.1592C23.9163 41.0213 23.106 41.7191 22.1135 41.7191Z" fill="#7F7F7F"/>
</g>
<g id="Group_37">
<path id="Vector_29" d="M22.1135 27.3866C21.1209 27.3866 20.3174 26.6888 20.3174 25.8267V23.0704C20.3174 22.2084 21.1209 21.5105 22.1135 21.5105C23.106 21.5105 23.9095 22.2084 23.9095 23.0704V25.8267C23.9163 26.6888 23.106 27.3866 22.1135 27.3866Z" fill="#7F7F7F"/>
</g>
</g>
<g id="Group_38">
<g id="Group_39">
<path id="Vector_30" d="M22.1135 119.833C21.1209 119.833 20.3174 119.135 20.3174 118.273V115.335C20.3174 114.473 21.1209 113.775 22.1135 113.775C23.106 113.775 23.9095 114.473 23.9095 115.335V118.273C23.9163 119.135 23.106 119.833 22.1135 119.833Z" fill="#7F7F7F"/>
</g>
<g id="Group_40">
<path id="Vector_31" d="M22.1135 107.887C21.1209 107.887 20.3174 107.189 20.3174 106.327V103.571C20.3174 102.709 21.1209 102.011 22.1135 102.011C23.106 102.011 23.9095 102.709 23.9095 103.571V106.327C23.9163 107.189 23.106 107.887 22.1135 107.887Z" fill="#7F7F7F"/>
</g>
</g>
<g id="Group_41">
<g id="Group_42">
<path id="Vector_32" d="M16.6374 97.1553C16.3741 97.1553 16.1107 97.1025 15.8609 97.0028C15.2397 96.7448 14.8413 96.1936 14.8413 95.5954V73.7271C14.8413 73.1231 15.2397 72.5777 15.8609 72.3196C16.4821 72.0616 17.2248 72.132 17.765 72.5132L33.4031 83.4502C33.8285 83.7493 34.0716 84.195 34.0716 84.67C34.0716 85.1451 33.8217 85.5907 33.4031 85.8898L17.765 96.8269C17.4409 97.038 17.0425 97.1553 16.6374 97.1553ZM18.4402 76.9877V92.3289L29.4125 84.6583L18.4402 76.9877Z" fill="#7F7F7F"/>
</g>
<g id="Group_43">
<path id="Vector_33" d="M22.1134 103.864C9.91897 103.864 0 95.2493 0 84.6583C0 74.0672 9.91897 65.4524 22.1134 65.4524C34.3079 65.4524 44.2269 74.0672 44.2269 84.6583C44.2269 95.2493 34.3079 103.864 22.1134 103.864ZM22.1134 68.5781C11.9041 68.5781 3.59892 75.7913 3.59892 84.6583C3.59892 93.5252 11.9041 100.738 22.1134 100.738C32.3228 100.738 40.628 93.5252 40.628 84.6583C40.628 75.7913 32.3228 68.5781 22.1134 68.5781Z" fill="#7F7F7F"/>
</g>
</g>
</g>
<g id="Group_44">
<path id="Vector_34" d="M108.967 240H25.6718C24.6792 240 23.8757 239.302 23.8757 238.44V145.771C23.8757 144.909 24.6792 144.211 25.6718 144.211H67.3193C68.3119 144.211 69.1154 144.909 69.1154 145.771C69.1154 146.633 68.3119 147.331 67.3193 147.331H27.4679V236.868H107.164V161.652C107.164 160.79 107.968 160.092 108.96 160.092C109.953 160.092 110.756 160.79 110.756 161.652V238.44C110.763 239.302 109.959 240 108.967 240Z" fill="#7F7F7F"/>
</g>
<g id="Group_45">
<path id="Vector_35" d="M51.5936 185.268C42.782 185.268 35.6179 179.045 35.6179 171.392C35.6179 163.739 42.782 157.517 51.5936 157.517C60.4052 157.517 67.5693 163.739 67.5693 171.392C67.5693 179.04 60.4052 185.268 51.5936 185.268ZM51.5936 160.637C44.7671 160.637 39.2168 165.458 39.2168 171.387C39.2168 177.315 44.7671 182.136 51.5936 182.136C58.4201 182.136 63.9704 177.315 63.9704 171.387C63.9704 165.464 58.4201 160.637 51.5936 160.637Z" fill="#7F7F7F"/>
</g>
<g id="Group_46">
<path id="Vector_36" d="M88.4605 173.046H77.0358C76.0433 173.046 75.2397 172.349 75.2397 171.486C75.2397 170.624 76.0433 169.927 77.0358 169.927H88.4605C89.4531 169.927 90.2566 170.624 90.2566 171.486C90.2566 172.349 89.4531 173.046 88.4605 173.046Z" fill="#7F7F7F"/>
</g>
<g id="Group_47">
<g id="Group_48">
<path id="Vector_37" d="M88.4605 198.961H46.3471C45.3545 198.961 44.551 198.263 44.551 197.401C44.551 196.539 45.3545 195.841 46.3471 195.841H88.4605C89.4531 195.841 90.2566 196.539 90.2566 197.401C90.2566 198.263 89.4531 198.961 88.4605 198.961Z" fill="#7F7F7F"/>
</g>
<g id="Group_49">
<path id="Vector_38" d="M88.4605 221.381H46.3471C45.3545 221.381 44.551 220.683 44.551 219.821C44.551 218.959 45.3545 218.261 46.3471 218.261H88.4605C89.4531 218.261 90.2566 218.959 90.2566 219.821C90.2566 220.683 89.4531 221.381 88.4605 221.381Z" fill="#7F7F7F"/>
</g>
</g>
<g id="Group_50">
<path id="Vector_39" d="M291.188 17.552H227.07C226.077 17.552 225.273 16.8541 225.273 15.9921C225.273 15.13 226.077 14.4321 227.07 14.4321H291.188C292.181 14.4321 292.984 15.13 292.984 15.9921C292.991 16.8541 292.181 17.552 291.188 17.552Z" fill="#7F7F7F"/>
</g>
<g id="Group_51">
<path id="Vector_40" d="M117.873 92.7278H88.4604C87.4678 92.7278 86.6643 92.0299 86.6643 91.1678C86.6643 90.3058 87.4678 89.6079 88.4604 89.6079H117.873C118.866 89.6079 119.669 90.3058 119.669 91.1678C119.669 92.024 118.866 92.7278 117.873 92.7278Z" fill="#7F7F7F"/>
</g>
<g id="Group_52">
<g id="Group_53">
<path id="Vector_41" d="M116.178 92.7278H86.7656C85.773 92.7278 84.9695 92.0299 84.9695 91.1678C84.9695 90.3058 85.773 89.6079 86.7656 89.6079H116.178C117.171 89.6079 117.974 90.3058 117.974 91.1678C117.981 92.024 117.171 92.7278 116.178 92.7278Z" fill="#7F7F7F"/>
</g>
<g id="Group_54">
<path id="Vector_42" d="M240.189 92.7278H210.776C209.784 92.7278 208.98 92.0299 208.98 91.1678C208.98 90.3058 209.784 89.6079 210.776 89.6079H240.189C241.181 89.6079 241.985 90.3058 241.985 91.1678C241.992 92.024 241.181 92.7278 240.189 92.7278Z" fill="#7F7F7F"/>
</g>
</g>
<g id="Group_55">
<g id="Group_56">
<path id="Vector_43" d="M184.848 28.3074C183.856 28.3074 183.052 27.6096 183.052 26.7475V19.2059C183.052 18.3439 183.856 17.646 184.848 17.646C185.841 17.646 186.644 18.3439 186.644 19.2059V26.7417C186.651 27.6037 185.847 28.3074 184.848 28.3074Z" fill="#7F7F7F"/>
</g>
<g id="Group_57">
<path id="Vector_44" d="M189.19 24.5366H180.513C179.521 24.5366 178.717 23.8387 178.717 22.9767C178.717 22.1146 179.521 21.4167 180.513 21.4167H189.19C190.182 21.4167 190.986 22.1146 190.986 22.9767C190.986 23.8387 190.182 24.5366 189.19 24.5366Z" fill="#7F7F7F"/>
</g>
</g>
<g id="Group_58">
<path id="Vector_45" d="M292.903 150.087C288.994 150.087 285.807 147.325 285.807 143.924C285.807 140.528 288.987 137.76 292.903 137.76C296.813 137.76 300 140.522 300 143.924C300 147.325 296.813 150.087 292.903 150.087ZM292.903 140.927C290.999 140.927 289.453 142.27 289.453 143.924C289.453 145.577 290.999 146.92 292.903 146.92C294.808 146.92 296.354 145.577 296.354 143.924C296.354 142.276 294.808 140.927 292.903 140.927Z" fill="#7F7F7F"/>
</g>
<g id="Group_59">
<path id="Vector_46" d="M292.91 129.691C291.904 129.691 291.087 128.981 291.087 128.108V122.343C291.087 121.469 291.904 120.76 292.91 120.76C293.916 120.76 294.733 121.469 294.733 122.343V128.108C294.733 128.981 293.916 129.691 292.91 129.691ZM292.91 114.625C291.904 114.625 291.087 113.916 291.087 113.042V108.016C291.087 107.142 291.904 106.433 292.91 106.433C293.916 106.433 294.733 107.142 294.733 108.016V113.042C294.733 113.916 293.916 114.625 292.91 114.625Z" fill="#7F7F7F"/>
</g>
</g>
</svg>
