<svg width="300" height="240" viewBox="0 0 300 240" fill="none" xmlns="http://www.w3.org/2000/svg">
<g id="Group">
<g id="Group_2">
<path id="Vector" d="M123.784 102.671H92.4065C89.2373 102.671 86.6641 105.162 86.6641 108.231V156.828C86.6641 159.896 89.2373 162.388 92.4065 162.388H123.784C126.953 162.388 129.526 159.896 129.526 156.828V108.231C129.526 105.157 126.959 102.671 123.784 102.671Z" fill="#FFE67D"/>
</g>
<g id="Group_3">
<path id="Vector_2" d="M276.933 31.6729C281.658 31.6729 285.489 27.9639 285.489 23.3885C285.489 18.8131 281.658 15.104 276.933 15.104C272.207 15.104 268.376 18.8131 268.376 23.3885C268.376 27.9639 272.207 31.6729 276.933 31.6729Z" fill="#FFB0B0"/>
</g>
<g id="Group_4">
<path id="Vector_3" d="M260.29 58.2632L274.308 56.3044L284.188 35.929L270.887 36.1454L260.29 58.2632Z" fill="#FFB0B0"/>
</g>
<g id="Group_5">
<path id="Vector_4" d="M278.561 47.9755L279.753 50.8775L292.063 53.3856L283.478 36.1453L278.561 47.9755Z" fill="#FFB0B0"/>
</g>
<g id="Group_6">
<g id="Group_7">
<path id="Vector_5" d="M123.783 163.93H92.4063C88.3603 163.93 85.0649 160.74 85.0649 156.822V108.225C85.0649 104.308 88.3603 101.117 92.4063 101.117H123.783C127.83 101.117 131.125 104.308 131.125 108.225V156.822C131.125 160.745 127.835 163.93 123.783 163.93ZM92.4121 104.213C90.1254 104.213 88.2686 106.011 88.2686 108.225V156.822C88.2686 159.036 90.1254 160.834 92.4121 160.834H123.789C126.076 160.834 127.933 159.036 127.933 156.822V108.225C127.933 106.011 126.076 104.213 123.789 104.213H92.4121V104.213Z" fill="#7F7F7F"/>
</g>
<g id="Group_8">
<path id="Vector_6" d="M175.878 167.959C171.259 167.959 166.726 167.343 162.405 166.122C151.74 163.115 140.633 161.295 129.4 160.701C128.552 160.657 127.887 159.98 127.887 159.158V107.304C127.887 106.477 128.558 105.8 129.412 105.756C134.868 105.506 138.977 103.875 141.98 100.779C143.498 99.2139 144.444 97.183 144.708 94.908C145.355 89.3702 146.983 84.1931 149.539 79.521C151.144 75.7144 151.642 72.0078 151.109 67.8794C149.568 64.6666 149.401 62.0087 150.616 59.9834C152.003 57.675 154.972 56.3932 159.694 56.0659C159.734 56.0659 159.769 56.0603 159.809 56.0603C163.19 56.0603 166.319 57.3976 168.858 59.9223C173.408 64.4502 175.959 72.6514 175.695 81.8626C175.695 81.8681 175.695 81.8737 175.695 81.8848L175.047 97.1109H196.407C199.742 97.1109 202.917 97.7157 205.846 98.9087C210.379 100.757 213.296 103.575 214.511 107.288C215.566 110.517 215.313 114.446 213.755 118.973C216.821 125.732 216.643 131.708 213.21 136.758C214.442 142.839 212.992 148.033 208.906 152.228C209.496 155.868 208.408 158.92 205.668 161.306C203.341 163.337 199.886 164.874 194.796 166.144C194.762 166.15 194.733 166.161 194.699 166.167C188.916 167.243 182.882 167.842 176.767 167.948C176.469 167.953 176.176 167.959 175.878 167.959ZM131.085 157.699C142.043 158.382 152.874 160.218 163.293 163.154C167.586 164.363 172.102 164.935 176.704 164.857C182.618 164.757 188.447 164.18 194.04 163.143C203.387 160.795 206.854 157.477 205.617 152.056C205.496 151.534 205.668 150.99 206.064 150.613C209.978 146.918 211.25 142.39 209.943 136.769C209.846 136.341 209.938 135.886 210.201 135.531C213.451 131.131 213.571 125.954 210.585 119.7C210.408 119.334 210.39 118.918 210.528 118.535C213.64 110.006 211.76 104.674 204.608 101.761C202.075 100.729 199.312 100.207 196.407 100.207H173.38C172.944 100.207 172.526 100.035 172.228 99.73C171.924 99.4248 171.764 99.0142 171.787 98.5924L172.497 81.7682C172.738 73.506 170.463 65.965 166.566 62.0864C164.629 60.1609 162.376 59.1788 159.86 59.1621C156.405 59.4063 154.164 60.2275 153.379 61.5426C152.697 62.6801 152.943 64.4391 154.101 66.7752C154.175 66.9195 154.221 67.0804 154.244 67.2413C154.909 72.0522 154.341 76.3525 152.462 80.775C152.439 80.8249 152.422 80.8693 152.393 80.9137C150.003 85.2585 148.484 90.086 147.877 95.2631C147.533 98.204 146.295 100.845 144.301 102.898C141.046 106.255 136.604 108.22 131.074 108.741V157.699H131.085Z" fill="#7F7F7F"/>
</g>
</g>
<g id="Group_9">
<path id="Vector_7" d="M292.555 100.296H225.251C221.147 100.296 217.806 97.0609 217.806 93.0879V7.20799C217.806 3.23499 221.147 0 225.251 0H292.555C296.659 0 300 3.23499 300 7.20799V93.0879C300 97.0609 296.659 100.296 292.555 100.296ZM225.251 3.09627C222.907 3.09627 221.004 4.94405 221.004 7.20799V93.0879C221.004 95.3574 222.912 97.1997 225.251 97.1997H292.555C294.899 97.1997 296.802 95.3519 296.802 93.0879V7.20799C296.802 4.9385 294.894 3.09627 292.555 3.09627H225.251Z" fill="#7F7F7F"/>
</g>
<g id="Group_10">
<path id="Vector_8" d="M276.933 40.4068C275.139 40.4068 273.78 39.3914 272.577 38.498C271.981 38.0541 271.419 37.6324 270.926 37.4382C270.393 37.2218 269.654 37.1274 268.881 37.022C267.402 36.8278 265.723 36.6058 264.508 35.4239C263.287 34.242 263.064 32.6217 262.857 31.1901C262.748 30.4355 262.651 29.7252 262.427 29.2092C262.221 28.732 261.791 28.1882 261.333 27.6111C260.41 26.4458 259.361 25.1308 259.361 23.394C259.361 21.6572 260.41 20.3421 261.333 19.1768C261.791 18.5997 262.227 18.0559 262.427 17.5787C262.651 17.0627 262.748 16.3469 262.857 15.5978C263.058 14.1662 263.287 12.5404 264.508 11.364C265.728 10.1821 267.402 9.96568 268.881 9.76592C269.66 9.66604 270.393 9.56616 270.926 9.34975C271.419 9.14999 271.981 8.73383 272.577 8.28992C273.78 7.39655 275.139 6.3811 276.933 6.3811C278.726 6.3811 280.085 7.39655 281.288 8.28992C281.884 8.73383 282.446 9.15554 282.939 9.34975C283.472 9.56616 284.211 9.66049 284.985 9.76592C286.463 9.96013 288.142 10.1821 289.357 11.364C290.578 12.5459 290.802 14.1662 291.008 15.5978C291.117 16.3524 291.214 17.0627 291.438 17.5787C291.644 18.0559 292.074 18.5997 292.532 19.1768C293.455 20.3421 294.504 21.6572 294.504 23.394C294.504 25.1308 293.455 26.4458 292.532 27.6111C292.074 28.1882 291.638 28.732 291.438 29.2092C291.214 29.7252 291.117 30.441 291.008 31.1901C290.807 32.6217 290.578 34.2476 289.357 35.4239C288.137 36.6058 286.463 36.8222 284.985 37.022C284.205 37.1219 283.472 37.2218 282.939 37.4382C282.446 37.6379 281.884 38.0541 281.288 38.498C280.085 39.3914 278.726 40.4068 276.933 40.4068ZM276.933 9.46628C276.228 9.46628 275.402 10.0822 274.526 10.737C273.792 11.2863 273.03 11.8523 272.147 12.2074C271.23 12.5736 270.25 12.7068 269.31 12.8289C268.284 12.9621 267.224 13.1063 266.766 13.5447C266.307 13.9886 266.164 15.0152 266.021 16.0084C265.895 16.924 265.757 17.8673 265.379 18.7551C265.012 19.6096 264.428 20.3476 263.86 21.0579C263.184 21.9069 262.548 22.7059 262.548 23.3884C262.548 24.0709 263.184 24.87 263.86 25.7189C264.428 26.4292 265.012 27.1672 265.379 28.0217C265.757 28.9095 265.895 29.8584 266.021 30.7684C266.158 31.7617 266.307 32.7937 266.76 33.2321C267.219 33.676 268.279 33.8147 269.305 33.9479C270.25 34.07 271.224 34.2032 272.141 34.5694C273.024 34.9245 273.786 35.4905 274.52 36.0398C275.397 36.6946 276.222 37.3105 276.927 37.3105C277.632 37.3105 278.457 36.6946 279.334 36.0398C280.067 35.4905 280.83 34.9245 281.712 34.5694C282.629 34.2032 283.609 34.07 284.549 33.9479C285.575 33.8147 286.641 33.6705 287.094 33.2321C287.552 32.7882 287.695 31.7617 287.839 30.7684C287.965 29.8528 288.102 28.9095 288.48 28.0217C288.847 27.1672 289.432 26.4292 289.999 25.7189C290.675 24.87 291.312 24.0709 291.312 23.3884C291.312 22.7059 290.675 21.9069 289.999 21.0579C289.432 20.3476 288.847 19.6096 288.48 18.7551C288.102 17.8673 287.965 16.9184 287.839 16.0084C287.701 15.0152 287.552 13.9831 287.099 13.5447C286.641 13.1008 285.581 12.9621 284.555 12.8289C283.609 12.7068 282.635 12.5736 281.718 12.2074C280.835 11.8523 280.073 11.2863 279.34 10.737C278.463 10.0822 277.637 9.46628 276.933 9.46628Z" fill="#7F7F7F"/>
</g>
<g id="Group_11">
<path id="Vector_9" d="M276.933 33.2213C271.334 33.2213 266.783 28.8099 266.783 23.3942C266.783 17.9785 271.339 13.5671 276.933 13.5671C282.532 13.5671 287.082 17.9785 287.082 23.3942C287.082 28.8099 282.532 33.2213 276.933 33.2213ZM276.933 16.6579C273.099 16.6579 269.975 19.6765 269.975 23.3942C269.975 27.1119 273.093 30.1305 276.933 30.1305C280.767 30.1305 283.89 27.1119 283.89 23.3942C283.89 19.6765 280.767 16.6579 276.933 16.6579Z" fill="#7F7F7F"/>
</g>
<g id="Group_12">
<path id="Vector_10" d="M260.29 59.8114C259.791 59.8114 259.31 59.5839 259.006 59.19C258.657 58.735 258.594 58.1301 258.84 57.6141L269.437 35.4963C269.809 34.7194 270.761 34.3809 271.557 34.7416C272.359 35.1023 272.703 36.0234 272.337 36.7947L262.984 56.3212L273.231 54.8896L282.738 35.2743C283.111 34.503 284.068 34.1701 284.864 34.5308C285.661 34.8914 286.005 35.8126 285.632 36.5894L275.758 56.9593C275.529 57.431 275.07 57.7584 274.537 57.8305L260.519 59.7948C260.445 59.8059 260.364 59.8114 260.29 59.8114Z" fill="#7F7F7F"/>
</g>
<g id="Group_13">
<path id="Vector_11" d="M292.068 54.9339C291.959 54.9339 291.851 54.9228 291.736 54.9006L279.426 52.387C278.904 52.2816 278.469 51.9264 278.268 51.4437L277.076 48.5472C276.749 47.7537 277.151 46.8548 277.97 46.5385C278.79 46.2222 279.718 46.6106 280.045 47.4041L280.922 49.5293L289.214 51.2217L282.039 36.8168C281.655 36.0456 281.988 35.1244 282.784 34.7527C283.581 34.3809 284.532 34.7027 284.916 35.474L293.507 52.7144C293.77 53.2471 293.702 53.8741 293.323 54.3402C293.014 54.7175 292.55 54.9339 292.068 54.9339Z" fill="#7F7F7F"/>
</g>
<g id="Group_14">
<path id="Vector_12" d="M254.41 17.0184H228.277C227.394 17.0184 226.678 16.3248 226.678 15.4703C226.678 14.6157 227.394 13.9221 228.277 13.9221H254.41C255.292 13.9221 256.009 14.6157 256.009 15.4703C256.009 16.3248 255.292 17.0184 254.41 17.0184Z" fill="#7F7F7F"/>
</g>
<g id="Group_15">
<path id="Vector_13" d="M250.461 31.0347H228.277C227.394 31.0347 226.678 30.3411 226.678 29.4866C226.678 28.6321 227.394 27.9385 228.277 27.9385H250.461C251.344 27.9385 252.06 28.6321 252.06 29.4866C252.06 30.3411 251.344 31.0347 250.461 31.0347Z" fill="#7F7F7F"/>
</g>
<g id="Group_16">
<path id="Vector_14" d="M285.432 86.5513H228.283C227.4 86.5513 226.684 85.8577 226.684 85.0032C226.684 84.1487 227.4 83.4551 228.283 83.4551H285.432C286.314 83.4551 287.031 84.1487 287.031 85.0032C287.031 85.8577 286.314 86.5513 285.432 86.5513Z" fill="#7F7F7F"/>
</g>
<g id="Group_17">
<path id="Vector_15" d="M281.672 72.535H228.283C227.4 72.535 226.684 71.8414 226.684 70.9869C226.684 70.1323 227.4 69.4387 228.283 69.4387H281.672C282.555 69.4387 283.271 70.1323 283.271 70.9869C283.271 71.8414 282.555 72.535 281.672 72.535Z" fill="#7F7F7F"/>
</g>
<g id="Group_18">
<path id="Vector_16" d="M248.02 58.7015H228.283C227.4 58.7015 226.684 58.0079 226.684 57.1534C226.684 56.2988 227.4 55.6052 228.283 55.6052H248.02C248.903 55.6052 249.619 56.2988 249.619 57.1534C249.619 58.0079 248.903 58.7015 248.02 58.7015Z" fill="#7F7F7F"/>
</g>
<g id="Group_19">
<path id="Vector_17" d="M254.41 44.8685H228.277C227.394 44.8685 226.678 44.1749 226.678 43.3204C226.678 42.4658 227.394 41.7722 228.277 41.7722H254.41C255.292 41.7722 256.009 42.4658 256.009 43.3204C256.009 44.1749 255.292 44.8685 254.41 44.8685Z" fill="#7F7F7F"/>
</g>
<g id="Group_20">
<path id="Vector_18" d="M96.4012 149.442C95.5186 149.442 94.8022 148.749 94.8022 147.894V119.501C94.8022 118.646 95.5186 117.952 96.4012 117.952C97.2838 117.952 98.0001 118.646 98.0001 119.501V147.894C98.0001 148.749 97.2838 149.442 96.4012 149.442Z" fill="#7F7F7F"/>
</g>
<g id="Group_21">
<path id="Vector_19" d="M24.7353 196.68H2.16096C1.27838 196.68 0.562012 195.986 0.562012 195.132V173.28C0.562012 172.426 1.27838 171.732 2.16096 171.732H24.7296C25.6122 171.732 26.3285 172.426 26.3285 173.28V195.132C26.3285 195.986 25.6179 196.68 24.7353 196.68ZM3.7599 193.584H23.1364V174.823H3.7599V193.584Z" fill="#7F7F7F"/>
</g>
<g id="Group_22">
<path id="Vector_20" d="M11.6398 189.727C11.2157 189.727 10.8088 189.567 10.5108 189.272L5.92603 184.833C5.30135 184.229 5.30135 183.252 5.92603 182.647C6.5507 182.042 7.55936 182.042 8.18404 182.647L11.6398 185.993L18.7119 179.146C19.3365 178.541 20.3452 178.541 20.9699 179.146C21.5945 179.751 21.5945 180.727 20.9699 181.332L12.7688 189.272C12.4708 189.561 12.0639 189.727 11.6398 189.727Z" fill="#7F7F7F"/>
</g>
<g id="Group_23">
<path id="Vector_21" d="M11.0724 233.047C10.6483 233.047 10.2414 232.886 9.94343 232.592L5.35864 228.153C4.73397 227.548 4.73397 226.572 5.35864 225.967C5.98332 225.362 6.99198 225.362 7.61665 225.967L11.0724 229.313L18.1445 222.466C18.7692 221.861 19.7778 221.861 20.4025 222.466C21.0272 223.07 21.0272 224.047 20.4025 224.652L12.2014 232.592C11.9034 232.881 11.4965 233.047 11.0724 233.047Z" fill="#7F7F7F"/>
</g>
<g id="Group_24">
<g id="Group_25">
<path id="Vector_22" d="M135.033 178.835H45.3607C44.4781 178.835 43.7617 178.141 43.7617 177.287C43.7617 176.432 44.4781 175.739 45.3607 175.739H135.033C135.916 175.739 136.632 176.432 136.632 177.287C136.632 178.141 135.916 178.835 135.033 178.835Z" fill="#7F7F7F"/>
</g>
<g id="Group_26">
<path id="Vector_23" d="M88.9735 192.668H45.3607C44.4781 192.668 43.7617 191.975 43.7617 191.12C43.7617 190.266 44.4781 189.572 45.3607 189.572H88.9735C89.856 189.572 90.5724 190.266 90.5724 191.12C90.5724 191.975 89.856 192.668 88.9735 192.668Z" fill="#7F7F7F"/>
</g>
</g>
<g id="Group_27">
<path id="Vector_24" d="M24.1676 240H1.59894C0.716373 240 0 239.306 0 238.452V216.6C0 215.746 0.716373 215.052 1.59894 215.052H24.1676C25.0501 215.052 25.7665 215.746 25.7665 216.6V238.452C25.7665 239.306 25.0501 240 24.1676 240ZM3.19789 236.909H22.5744V218.149H3.19789V236.909Z" fill="#7F7F7F"/>
</g>
<g id="Group_28">
<g id="Group_29">
<path id="Vector_25" d="M134.472 222.155H44.7996C43.9171 222.155 43.2007 221.461 43.2007 220.607C43.2007 219.752 43.9171 219.059 44.7996 219.059H134.472C135.355 219.059 136.071 219.752 136.071 220.607C136.071 221.461 135.355 222.155 134.472 222.155Z" fill="#7F7F7F"/>
</g>
<g id="Group_30">
<path id="Vector_26" d="M88.4124 235.994H44.7996C43.9171 235.994 43.2007 235.3 43.2007 234.446C43.2007 233.591 43.9171 232.897 44.7996 232.897H88.4124C89.295 232.897 90.0114 233.591 90.0114 234.446C90.0114 235.3 89.295 235.994 88.4124 235.994Z" fill="#7F7F7F"/>
</g>
</g>
<g id="Group_31">
<path id="Vector_27" d="M135.223 17.9286H37.4637C36.5811 17.9286 35.8647 17.2349 35.8647 16.3804C35.8647 15.5259 36.5811 14.8323 37.4637 14.8323H135.223C136.105 14.8323 136.822 15.5259 136.822 16.3804C136.822 17.2349 136.105 17.9286 135.223 17.9286Z" fill="#7F7F7F"/>
</g>
<g id="Group_32">
<path id="Vector_28" d="M71.6776 46.5052H13.3992C12.5167 46.5052 11.8003 45.8116 11.8003 44.9571C11.8003 44.1025 12.5167 43.4089 13.3992 43.4089H71.6776C72.5602 43.4089 73.2766 44.1025 73.2766 44.9571C73.2766 45.8116 72.5602 46.5052 71.6776 46.5052Z" fill="#7F7F7F"/>
</g>
<g id="Group_33">
<path id="Vector_29" d="M264.697 142.667C261.792 142.667 259.431 140.381 259.431 137.568C259.431 134.754 261.792 132.468 264.697 132.468C267.603 132.468 269.964 134.754 269.964 137.568C269.964 140.381 267.597 142.667 264.697 142.667ZM264.697 135.565C263.557 135.565 262.629 136.463 262.629 137.568C262.629 138.672 263.557 139.571 264.697 139.571C265.838 139.571 266.766 138.672 266.766 137.568C266.766 136.463 265.838 135.565 264.697 135.565Z" fill="#7F7F7F"/>
</g>
<g id="Group_34">
<path id="Vector_30" d="M273.832 221.833C270.927 221.833 268.565 219.547 268.565 216.734C268.565 213.92 270.927 211.634 273.832 211.634C276.738 211.634 279.099 213.92 279.099 216.734C279.099 219.547 276.738 221.833 273.832 221.833ZM273.832 214.731C272.692 214.731 271.763 215.629 271.763 216.734C271.763 217.838 272.692 218.737 273.832 218.737C274.973 218.737 275.901 217.838 275.901 216.734C275.901 215.629 274.973 214.731 273.832 214.731Z" fill="#7F7F7F"/>
</g>
<g id="Group_35">
<path id="Vector_31" d="M19.841 107.765C16.9354 107.765 14.5742 105.479 14.5742 102.665C14.5742 99.8521 16.9354 97.5659 19.841 97.5659C22.7466 97.5659 25.1078 99.8521 25.1078 102.665C25.1078 105.479 22.7466 107.765 19.841 107.765ZM19.841 100.662C18.7005 100.662 17.7721 101.561 17.7721 102.665C17.7721 103.77 18.7005 104.668 19.841 104.668C20.9815 104.668 21.9099 103.77 21.9099 102.665C21.9099 101.561 20.9815 100.662 19.841 100.662Z" fill="#7F7F7F"/>
</g>
<g id="Group_36">
<path id="Vector_32" d="M135.034 49.8622C132.128 49.8622 129.767 47.576 129.767 44.7627C129.767 41.9495 132.128 39.6633 135.034 39.6633C137.939 39.6633 140.301 41.9495 140.301 44.7627C140.301 47.576 137.939 49.8622 135.034 49.8622ZM135.034 42.7596C133.893 42.7596 132.965 43.6585 132.965 44.7627C132.965 45.867 133.893 46.7659 135.034 46.7659C136.174 46.7659 137.103 45.867 137.103 44.7627C137.103 43.6585 136.174 42.7596 135.034 42.7596Z" fill="#7F7F7F"/>
</g>
<g id="Group_37">
<g id="Group_38">
<path id="Vector_33" d="M187.581 217.333C186.699 217.333 185.982 216.639 185.982 215.785V210.691C185.982 209.836 186.699 209.143 187.581 209.143C188.464 209.143 189.18 209.836 189.18 210.691V215.785C189.175 216.639 188.464 217.333 187.581 217.333Z" fill="#7F7F7F"/>
</g>
<g id="Group_39">
<path id="Vector_34" d="M190.303 214.875H185.042C184.16 214.875 183.443 214.181 183.443 213.327C183.443 212.472 184.16 211.779 185.042 211.779H190.303C191.186 211.779 191.902 212.472 191.902 213.327C191.902 214.181 191.186 214.875 190.303 214.875Z" fill="#7F7F7F"/>
</g>
</g>
<g id="Group_40">
<g id="Group_41">
<path id="Vector_35" d="M198.292 16.197C197.41 16.197 196.693 15.5034 196.693 14.6488V9.55497C196.693 8.70044 197.41 8.00684 198.292 8.00684C199.175 8.00684 199.891 8.70044 199.891 9.55497V14.6488C199.891 15.5089 199.175 16.197 198.292 16.197Z" fill="#7F7F7F"/>
</g>
<g id="Group_42">
<path id="Vector_36" d="M201.02 13.7447H195.759C194.877 13.7447 194.16 13.0511 194.16 12.1966C194.16 11.342 194.877 10.6484 195.759 10.6484H201.02C201.903 10.6484 202.619 11.342 202.619 12.1966C202.619 13.0511 201.903 13.7447 201.02 13.7447Z" fill="#7F7F7F"/>
</g>
</g>
<g id="Group_43">
<g id="Group_44">
<path id="Vector_37" d="M60.8685 136.696C59.9859 136.696 59.2695 136.003 59.2695 135.148V130.054C59.2695 129.2 59.9859 128.506 60.8685 128.506C61.7511 128.506 62.4674 129.2 62.4674 130.054V135.148C62.4674 136.003 61.7511 136.696 60.8685 136.696Z" fill="#7F7F7F"/>
</g>
<g id="Group_45">
<path id="Vector_38" d="M63.5963 134.238H58.3353C57.4527 134.238 56.7363 133.545 56.7363 132.69C56.7363 131.836 57.4527 131.142 58.3353 131.142H63.5963C64.4789 131.142 65.1953 131.836 65.1953 132.69C65.1953 133.545 64.4789 134.238 63.5963 134.238Z" fill="#7F7F7F"/>
</g>
</g>
<g id="Group_46">
<g id="Group_47">
<path id="Vector_39" d="M77.7923 69.3498C76.9097 69.3498 76.1934 68.6562 76.1934 67.8017V62.7078C76.1934 61.8533 76.9097 61.1597 77.7923 61.1597C78.6749 61.1597 79.3912 61.8533 79.3912 62.7078V67.8017C79.3855 68.6562 78.6749 69.3498 77.7923 69.3498Z" fill="#7F7F7F"/>
</g>
<g id="Group_48">
<path id="Vector_40" d="M80.5143 66.8917H75.2532C74.3707 66.8917 73.6543 66.1981 73.6543 65.3435C73.6543 64.489 74.3707 63.7954 75.2532 63.7954H80.5143C81.3968 63.7954 82.1132 64.489 82.1132 65.3435C82.1132 66.1981 81.3968 66.8917 80.5143 66.8917Z" fill="#7F7F7F"/>
</g>
</g>
</g>
</svg>
