<svg width="1046" height="714" viewBox="0 0 1046 714" fill="none" xmlns="http://www.w3.org/2000/svg"><g id="Frame" clip-path="url(#clip0_20_363)"><g id="Group"><g id="Group_2"><g id="Group_3"><path id="Vector" d="M1046 490.7c1-8.5-8.5-12.4-14.7-15.5-10.5-5.2-21-10-32.2-13.3-14.7-4.3-28.3-12.7-43.8-16-9-1.9-18.4-1-26.7-5.5-2.8-1.5-4.8-5-7.7-6-1-.4-2.7.3-3.8.2-2.3-.4-4.5-1.4-6.8-1.8a323 323 0 0 1-19-3.8c-6-1.4-12.4-3.8-18.2-5-8-1.6-15.8-1.2-23.8-4-11.3-3.9-24.1-3.8-35.3-8-4-1.4-7.6-4.2-11.8-4.9-4.4-.7-8.6-.4-13-1.3-5-1-7-2.1-11.7-4.8a20 20 0 0 0-13-3c-4.1.5-9.1 4.3-13.1 4-2.3 0-4.2-2.3-6.2-3-2-.7-3.5-.4-5.6-.9-2-.4-2.6-1.7-5.1-1.4-1.9.2-3 1.7-4.5 2-2.5.6-4.3 0-6.8-.1-4.1-.2-7.1-.3-11.2-1.6-4-1.3-8.2-3.6-12.3-4.2-2.2-.3-4.7.3-7 .1-6.4-.4-12.2-1.9-18.6-1.8-8.6 0-17-.3-25.6-.9-8.1-.4-15.8-2.6-24-2.8-7.7-.1-15-.6-22.7-1.5-5.5-.7-10.8-2-16.4-2-8-.2-15.9 0-23.8-.9-8.6-.8-17.3-1-25.8-2.8-7-1.5-15-2.7-22-2.8-8.2 0-16.4 0-24.4 1.1-7 1-13 3.9-20.2 4.1-4.8.2-8.2 1.5-12.8 2.1-5.7.8-12-.1-17.6 0-5.9.2-11.7 1-17.6 1.2-17.6.5-34.8.7-52.3 2.4a1480.9 1480.9 0 0 0-65.9 8c-3 .4-5.3 1.2-8 2.1-3.5 1.1-6.3.6-9.8 1-3.9.5-7.5 1-11.7 1.1-9.8 0-19.5 3.2-29.3 1.9-5.2-.7-10.2-3-15.4-3-5.6 0-10.4 3-15.7 4.1-2.9.7-6.3.3-9.1 1-3 .7-3.2 2-5.5 3.7-3 2.1-4.1 2-7.5 2.8-3.7.8-4.8 0-7.8 0-11.7 0-18.4 11.5-28.7 14.5a35.8 35.8 0 0 1-15.7 1.6c-2.7-.7-5.1-2.2-7.8-2.9-3-.8-6-1.5-8.9-2.5-4.4 4-6.5 10.3-10.6 14.5-5 5.2-11.7 5.2-18.2 6.4-8.5 1.6-17.4 5.2-25.5 8.2-20 7.4-46.1 8-62 24.2-3.3 3.5-5.6 5-5.8 9.9-.3 7 5 9.5 10.3 12.2 1.8 1 18.9 10 18.8 10.8a18.7 18.7 0 0 0 9.3 18c8.8 5.8 14.6 2 17 13.1 2 9.3.6 13 9.4 19.6 6.1 4.7 12.2 7.8 17.9 13 5.9 5.5 11.3 9.8 15.7 15.7 3.4 4.6 10.8 11.1 13.2 15.6 2 4 1.2 8.4 4.5 11.4 12.6 11 34.4 6.7 47.9 19.6 6.3 6.1 4.3 8 15.3 8.2 10.2.2 15.3-2 24.4 2.4 11 5.3 16.7 17 27.2 23 11 6.3 24 5.3 35.5 9.3 12.7 4.3 22 15 34.9 19.4a88.7 88.7 0 0 0 39.8 1.5c5.5-.7 11-3 17.5-2 9.6 1.2 12.4 6.5 21.4 9.3 15.6 4.9 23-8.9 34.8-13.8 4.7-1.9 12.7-3.6 18.2-3.3 15.4 1 18.3 12.7 33.8 3.7a61 61 0 0 1 43.5-7.7c16.4 2 34.3 6.7 50.8 2.3 11.2-3 19.4-12.5 31.4-14.1 9.3-1.3 16.9.6 24.7 5.2 20.3 12 42.9 8 64.8 4 10.1-1.9 16 2.2 25.9 1.9 9.1-.3 17.3-6.1 24.6-11 13.1-8.9 32.7-4.4 47.9-7.6 8.5-1.8 17.1-3.2 22.9-10.8 5.8-7.8 1.7-10.3 13.3-10.4 13.8-.1 27 6 40.7 1.6 16.8-5.4 11-19 21.9-27.8 5.3-4.3 16.3.8 22.4-3.8a75 75 0 0 0 16.7-19.6c2-3.7-.4-5.3 2.5-8.8 2.9-3.2 6.7-3 10.4-5.1 8.4-4.8 17.9-10.5 22.5-18.7 3.4-6 3.4-10.5 8.1-15.6 11-12 27-4.5 37.5-19.7 9-13 17.6-10.7 29.7-18.2 5-3.2 3.7-6.3 7.8-9.7 4-3.3 7 1.7 8.9-6l.2-1.3Z" fill="#D48888"/></g><path id="Vector_2" d="M386.6 637c34.8-5.3 60.3-28 56.8-50.8-3.4-22.9-34.5-37-69.3-31.8-34.9 5.3-60.3 28-56.9 50.9 3.5 22.8 34.5 37 69.4 31.7Z" fill="#D9A3A3"/><path id="Vector_3" d="M904.2 457.4c-1 4-17 3.5-35.9-1.2-18.8-4.7-33.2-11.8-32.2-15.9 1-4 17-3.5 35.9 1.2 18.8 4.7 33.2 11.8 32.2 15.9Z" fill="#D9A3A3"/><path id="Vector_4" d="M741.4 669c4.8-1.2 9.2-1.6 14.1-1.3 3.8.2 7.6.8 11.3 1.3 3.7.6 7.4 1.2 11 1.3H779a31.2 31.2 0 0 0 5.3-.8l2.3-.5c3.8-1.1 7.5-2.5 11-4l5.6-2.9a11.3 11.3 0 0 0 1.2-.7 36.6 36.6 0 0 0 6.1-5l.2-.2 3-3.6c2.7-3.1 5.8-6 9.7-7.5.8-2.3 1.1-4.8 1.1-7.3-.4-19.4-26.6-34.6-58.5-34-31.8.7-57.4 17-57 36.4.3 13 12.2 24.2 29.6 29.9 1-.4 1.9-.8 2.8-1Z" fill="#D9A3A3"/><path id="Vector_5" d="M224 536c2.3 8.5-10.1 19.4-27.7 24.2-17.6 4.8-33.8 1.8-36.1-6.7-2.4-8.6 10-19.4 27.6-24.3 17.6-4.8 33.8-1.8 36.1 6.7Z" fill="#D9A3A3"/><path id="Vector_6" d="M639.3 511.6c0 4.7-7.3 8.5-16.3 8.4-9-.1-16.2-4-16.2-8.8 0-4.8 7.4-8.6 16.4-8.5 9 .1 16.2 4 16.1 8.9Z" fill="#D9A3A3"/><path id="Vector_7" d="M466.5 459c0 3.6-5.5 6.4-12.2 6.4-6.8-.1-12.2-3-12.1-6.6 0-3.6 5.5-6.4 12.2-6.4 6.7.1 12.1 3 12.1 6.6Z" fill="#D9A3A3"/><path id="Vector_8" d="M224 421.6c1.3 4.6-13.2 12.6-32.4 17.8-19.1 5.3-35.7 5.9-37 1.3-1.2-4.6 13.3-12.5 32.5-17.8 19.2-5.3 35.7-5.8 37-1.3Z" fill="#D9A3A3"/><g id="Group_4"><g id="Group_5"><g id="Group_6"><g id="Group_7"><path id="Vector_9" fill-rule="evenodd" clip-rule="evenodd" d="M809.2 536.4c0-.2-.4-.3-.6-.5-.5-.8-1.4-1.5-1.5-2.4-.1-.8.6-1.7.9-2.6l1-4.4c0-.2 0-.5.2-.7 3-2.6 6.3-5.1 11.3-5.5 7-.5 13 .9 18 4.2 1.5 1 3.5 2 4.4 3.4 2.2 3.2-.4 9.1-4.7 11.5l-.6.2c-4.8 2-9.8 3-15.3 2.7-6-.4-11-1.4-13-5.9Zm15 5c7.5 0 13.8-3.5 14.2-7.9.4-4.4-5.3-8-12.7-8-7.5 0-13.8 3.5-14.2 7.9-.4 4.4 5.3 8 12.7 8Z" fill="#242424"/></g></g><g id="Group_8"><g id="Group_9"><path id="Vector_10" fill-rule="evenodd" clip-rule="evenodd" d="m838.1 549 3.8 2.6 3.1 3.2c.3.2 1.2 0 1.7.1l.2-.5-2.2-1.3c1.3-1.1.2-1.6-1.7-1.7l.8-.4-.6-3c0-.3 0-.6-.2-.8l-.8-1.4 2.9-.7c.5 0 1.3.3 1.5.1 2.4-1.6 3.8-.1 5.5.6l5 2.2 1.3-.7v-.2c-1.4-.8-2.7-1.8-4.2-2.6l-7-3.3h-1c-1.4 0-2.8 0-4.2.2-.8 0-1.7.4-2.3.8-1 .7-1.9 1.6-3 2.5l1.4 4.3Z" fill="#242424"/></g></g><g id="Group_10"><g id="Group_11"><path id="Vector_11" fill-rule="evenodd" clip-rule="evenodd" d="M794.8 543c1.5.2 3 .6 4.6.5 2.2 0 3.4.7 3.6 2.3 0 .2.3.3.5.6l2.1-1c-1.5 2 0 2 1.8 2.1 1.9.1 3-.3 3.3-1.9H809l.1-.4c.2-.3.7-.8.6-1-.6-.6-1.5-1.1-2-1.8-.9-1-1.8-.9-3.3-.7-3 .4-6.3.4-9.4.5l-.2.8Z" fill="#242424"/></g></g><g id="Group_12"><g id="Group_13"><path id="Vector_12" fill-rule="evenodd" clip-rule="evenodd" d="M838.1 549c-.8-.7-1.4-1.8-2.4-2a15 15 0 0 0-5 .4c-.8.1-2 1-2 1.4.3 1.6-.8 3.3.7 4.8.5.5.3 1.5.4 2.2h1l.8-5.7.8.3c2.4 1.8 4 1.5 5.3-.9l.4-.5Z" fill="#242424"/></g></g><g id="Group_14"><g id="Group_15"><path id="Vector_13" fill-rule="evenodd" clip-rule="evenodd" d="m797.6 535.9-2.8 1.5c3.3 2.4 6.2 1.1 8-1.5.6-.7.6-1.3-.8-1.4h-11.3c-1.6 0-3.1 0-4.6.2v.4l11.5.8Z" fill="#242424"/></g></g><g id="Group_16"><g id="Group_17"><path id="Vector_14" fill-rule="evenodd" clip-rule="evenodd" d="M804.5 553.3c3.3-.5 6.3-1.9 8.6-3.6.3.4.6 1 1 1 .8 0 2-.2 2.5-.6.7-.6.9-1.5 1.3-2.3l-1 .3c-.9-.5-1.7-1.1-2.7-1.2-1-.2-2.6 0-3.3.6-2.3 1.8-4.3 3.8-6.4 5.8Z" fill="#242424"/></g></g><g id="Group_18"><g id="Group_19"><path id="Vector_15" fill-rule="evenodd" clip-rule="evenodd" d="M862.3 524.2c-.8.3-1.7.5-2.3 1-2.8 1.5-6.2 1.2-9.2 2-1.2.3-2.5.8-2.4 1.7 0 .6 1 1.7 1.6 1.6 1.1 0 2.3-.6 3.3-1.1.8-.4 1.3-1 2-1.4l7-3.6v-.2Z" fill="#242424"/></g></g><g id="Group_20"><g id="Group_21"><path id="Vector_16" fill-rule="evenodd" clip-rule="evenodd" d="M853.3 533.9c2.4-.6 5 .8 7.4-.4-1.4-.3-2.7-.7-4-.7-2.4 0-4.8.2-7.2.5-.5 0-.8 1-1.2 1.6 1.2.3 2.3.8 3.4.8.6 0 1.2-.9 1.8-1.4l-.2-.4Z" fill="#242424"/></g></g><g id="Group_22"><g id="Group_23"><path id="Vector_17" fill-rule="evenodd" clip-rule="evenodd" d="M846.7 536.6c-1 1.3-1.4 2.3 1 2.7.4 0 .7 0 1 .2 1.3.8 2.9 1 4.1 0 .6-.5.3-1.5.4-2.3-2.4-.4-4.8 1-6.5-.6Z" fill="#242424"/></g></g><g id="Group_24"><g id="Group_25"><path id="Vector_18" fill-rule="evenodd" clip-rule="evenodd" d="M824.5 549.4c-2-.7-3.5.1-4.7.9-.7.4-1.6 1.6.6 2 .6 0 1 .8 1.5 1.4 1.3-.3 1.3-.3 2.6-4.3Z" fill="#242424"/></g></g><g id="Group_26"><g id="Group_27"><path id="Vector_19" fill-rule="evenodd" clip-rule="evenodd" d="m802.5 530.6-2.3-2.2c-.9.2-2.3.4-3.2 1-.4.4-.2 1.7.3 2 1.3.9 4 .3 5.2-.8Z" fill="#242424"/></g></g><g id="Group_28"><g id="Group_29"><path id="Vector_20" fill-rule="evenodd" clip-rule="evenodd" d="m799.8 526.8-7.9-.6c2.8 1.6 7 1.7 7.9.6Z" fill="#242424"/></g></g><g id="Group_30"><g id="Group_31"><path id="Vector_21" fill-rule="evenodd" clip-rule="evenodd" d="M854.6 524.4c-.2-.5-.2-1.1-.6-1.3-.4-.2-1.2 0-1.7.3-.8.3-1.6.8-2.2 1.6l4.5-.6Z" fill="#242424"/></g></g></g><g id="Group_32"><g id="Group_33"><g id="Group_34"><path id="Vector_22" fill-rule="evenodd" clip-rule="evenodd" d="M913.5 454.3a51 51 0 0 1-5-7.7 15 15 0 0 0-8-7.6c-4.4-1.6-8.6-3.6-13.3-4.8-7.7-2-15-5.3-23.1-5.6-5.4-.1-10-3.9-15.7-2.9-5.1.9-10.5.4-15.7 1-2 .1-3.6 1.4-4.9 3.3-2.2 3.3-.3 6 1 8.6 1.7 3.8 5.5 5.5 9 7.2 3 1.5 6.3 2.4 9.5 3.7 5.2 2 10.3 5 15.7 6.3 11.6 3 23.2 6.5 35.4 6.1 3.7-.4 7.4-.6 11-1.2 1.3-.2 2.7-1 3.8-2 1.4-1.2 1.8-2.6.3-4.4Zm-45.8 1.2-7.3-2c-1.6-.3-2.7-1-4.1-1.8-2.4-1.1-5-2-7.6-3-2-.7-4.2-1.3-6-2.2l-3-1.4c-1.3-.6-4.1-2-3.7-3.8.9-3.2 16.4-2.2 34.7 2.3 18.3 4.6 32.4 10.9 31.6 14.2-.8 3.2-16.3 2.2-34.6-2.3Z" fill="#242424"/></g></g><g id="Group_35"><g id="Group_36"><path id="Vector_23" fill-rule="evenodd" clip-rule="evenodd" d="M901.4 484.5c-2.4-3.8-3.7-7.6-7.7-10 .4 1.4.7 2.4.7 3.4 0 .6-.5 1.2-.8 1.8-.4-.4-1.1-.7-1.3-1.2-.5-1.5-.8-3-1-4 1.2-1.3 2.5-2.2 3.2-3.5 1-1.6 2.2-2.3 4-2 2 .2 1.9 1.8 2 3.2.2 3.9.6 7.7 1 12.3Z" fill="#242424"/></g></g><g id="Group_37"><g id="Group_38"><path id="Vector_24" fill-rule="evenodd" clip-rule="evenodd" d="M860.2 493.2c-.5-.5-1-.8-1-1.1v-5c.2-5.3.6-10.7.7-16 0-1.1-.8-2.3-1.3-3.7 2 .4 2.2-4 5-2.7-.9 4.9-1.8 9.4-2.4 14-.5 4.7-.6 9.4-1 14.5Z" fill="#242424"/></g></g><g id="Group_39"><g id="Group_40"><path id="Vector_25" fill-rule="evenodd" clip-rule="evenodd" d="M829 471c1.8-3.8 6-6.4 5.2-11.4l-4 2.6-.1 1.5h-1v-1.6l-2.7-1.8.3-.7c1 0 2 .3 3 .1 1-.1 2-.4 2.8-1 1.2-.9 1.9-2 3.5-.4 1 .9 2.5 1.3 4.4 2.2l-11 11-.5-.5Z" fill="#242424"/></g></g><g id="Group_41"><g id="Group_42"><path id="Vector_26" fill-rule="evenodd" clip-rule="evenodd" d="m922 472 5.5 5.2-.5.7c-1-.5-2.1-.7-2.7-1.5-1.7-2-3.2-4.4-4.7-6.6.7-.6 1.4-1.5 2.1-1.6 1.2 0 2.7 0 3.5.7 1.7 1.5 3 3.5 4.6 5.1l11.2 10.5c-6.8-3.4-11.7-9.7-17.9-14l-1 1.5Z" fill="#242424"/></g></g><g id="Group_43"><g id="Group_44"><path id="Vector_27" fill-rule="evenodd" clip-rule="evenodd" d="M904.3 473.7c3-3.2 4.5-3.1 6.2.3 1.6 3.3 2.9 6.7 4.6 10.5-3.1-.4-2.5-3-3.4-4.3l-3-4.9-.6.3 1.1 5.3c-4.4-.8-1.7-5.9-4.9-7.2Z" fill="#242424"/></g></g><g id="Group_45"><g id="Group_46"><path id="Vector_28" fill-rule="evenodd" clip-rule="evenodd" d="m871.4 468.4.5 3.7c-1 .7-1.7 1.6-2.7 2-.6.3-2 .2-2.1-.1-.6-1.2-.9-2.6-1.3-3.9l2.4.6 2.5-3 .7.7Z" fill="#242424"/></g></g><g id="Group_47"><g id="Group_48"><path id="Vector_29" fill-rule="evenodd" clip-rule="evenodd" d="M876.6 481.7c-.3-.8-1-1.6-1-2.4l.2-8.6-.2-2.2c2 .3 2.2.3 2 2-.2 2.8-.6 5.7-.7 8.6 0 .7.4 1.5.6 2.2l-.9.4Z" fill="#242424"/></g></g><g id="Group_49"><g id="Group_50"><path id="Vector_30" fill-rule="evenodd" clip-rule="evenodd" d="m825.5 446.4-8.6 5.7-1-.8c.3-.7.3-1.8.8-2 2.7-1.4 5.5-2.5 8.3-3.8l.5 1Z" fill="#242424"/></g></g><g id="Group_51"><g id="Group_52"><path id="Vector_31" fill-rule="evenodd" clip-rule="evenodd" d="m915.3 471.4 6 3.8-.3.7-1.5.3.9 1.6c-.8.1-2 .5-2.2.2-1.4-1.8-2.6-3.7-3.8-5.6l1-1Z" fill="#242424"/></g></g><g id="Group_53"><g id="Group_54"><path id="Vector_32" fill-rule="evenodd" clip-rule="evenodd" d="M840.6 468.1c.2-2.2 2.6-4.4 4-4.2.5.1 1.3 1.3 1.3 1.4-1.2 1.6-2.5 3-3.8 4.4l-1.5-1.6Z" fill="#242424"/></g></g><g id="Group_55"><g id="Group_56"><path id="Vector_33" fill-rule="evenodd" clip-rule="evenodd" d="M849.3 466c-.6 2.6-.9 4.5-1.5 6.4-.1.5-1.1.7-1.8 1.1-.1-.5-.5-1.1-.4-1.6.5-2 1.1-4 1.9-5.9.1-.4 1-.6 1.4-1l.4 1Z" fill="#242424"/></g></g><g id="Group_57"><g id="Group_58"><path id="Vector_34" fill-rule="evenodd" clip-rule="evenodd" d="m882.8 474.4 2.2-1.8 2.4 1.5 1.6-1.4 1.3 2.4c-1.4.2-2.7 0-3.5.5-2 1.4-2.9.4-4-1.2Z" fill="#242424"/></g></g><g id="Group_59"><g id="Group_60"><path id="Vector_35" fill-rule="evenodd" clip-rule="evenodd" d="M816.3 443.3c-1 2.5-2 4.6-4.9 4.5-.6 0-1.2-.5-1.7-.7.3-.6.5-1.3 1-1.6 1.7-.8 3.5-1.4 5.6-2.2Z" fill="#242424"/></g></g><g id="Group_61"><g id="Group_62"><path id="Vector_36" fill-rule="evenodd" clip-rule="evenodd" d="M852.5 468.7c.3 1.3.7 2.6.8 3.9 0 .4-.8 1.4-1 1.4-.8-.2-2.1-1-2-1.2.3-1.5 1-3 1.6-4.4l.6.3Z" fill="#242424"/></g></g><g id="Group_63"><g id="Group_64"><path id="Vector_37" fill-rule="evenodd" clip-rule="evenodd" d="m859.1 469.7-5 2.2v-5.2l5 3Z" fill="#242424"/></g></g></g><g id="Group_65"><g id="Group_66"><g id="Group_67"><path id="Vector_38" fill-rule="evenodd" clip-rule="evenodd" d="m605.5 513.6-.6-.5c-.6-.8-1.5-1.6-1.5-2.4 0-.8.9-1.6 1.2-2.5l1.6-4c.1-.3.1-.6.3-.7 3.7-2.3 7.6-4.5 13.3-4.5 7.9 0 14.4 1.7 19.7 5.2 1.7 1.1 3.8 2.2 4.7 3.6 2.2 3.2-1.3 8.6-6.4 10.6l-.7.2a44.4 44.4 0 0 1-17.5 1.5c-6.6-.7-12.2-2-14.1-6.5Zm16.4 5.9c8.3.5 15.9-2.5 16.7-6.7 1-4.2-5.1-8-13.5-8.5s-15.9 2.4-16.8 6.6c-.9 4.2 5.2 8 13.6 8.6Z" fill="#242424"/></g></g><g id="Group_68"><g id="Group_69"><path id="Vector_39" fill-rule="evenodd" clip-rule="evenodd" d="M636.7 527.6c1.4.9 2.8 1.8 4 2.8 1.2 1 2 2.2 3.2 3.2.3.2 1.3.2 2 .2l.2-.4-2.4-1.4c1.7-1 .5-1.5-1.7-1.8l1-.3-.5-2.9v-.8l-.8-1.4 3.3-.4c.5 0 1.4.3 1.7.2 2.8-1.5 4.3 0 6 .9l5.6 2.4c.3 0 .9-.3 1.4-.5v-.2c-1.4-1-2.8-2-4.4-2.8l-7.5-3.6a3 3 0 0 0-1-.2h-5a7 7 0 0 0-2.6.6c-1.2.6-2.3 1.4-3.5 2.2l1 4.3v-.1Z" fill="#242424"/></g></g><g id="Group_70"><g id="Group_71"><path id="Vector_40" fill-rule="evenodd" clip-rule="evenodd" d="M588.6 519c1.7.3 3.4.7 5.1.8 2.5.1 3.8.8 3.8 2.4 0 .2.3.3.6.6l2.5-.9c-2 2-.3 2 1.7 2.3 2.1.1 3.4-.2 4-1.7h-2l.2-.5c.3-.3.9-.7.8-.8-.6-.7-1.6-1.2-2.2-2-.8-.9-1.8-.9-3.5-.8-3.6.2-7.1-.1-10.7-.2 0 .3-.2.5-.3.8Z" fill="#242424"/></g></g><g id="Group_72"><g id="Group_73"><path id="Vector_41" fill-rule="evenodd" clip-rule="evenodd" d="M636.7 527.7c-.8-.8-1.4-1.9-2.5-2.1-1.7-.4-3.9-.2-5.7 0-.9 0-2.3.8-2.3 1.2.2 1.5-1.3 3.1.3 4.6.5.5.1 1.4.2 2.2h1l1.6-5.4.8.4c2.6 1.8 4.5 1.7 6.1-.5l.5-.5Z" fill="#242424"/></g></g><g id="Group_74"><g id="Group_75"><path id="Vector_42" fill-rule="evenodd" clip-rule="evenodd" d="m592.5 512.4-3.3 1.2c3.4 2.5 6.8 1.5 9.2-.8.6-.7.7-1.3-.8-1.4l-8.7-.7-4-.2h-5.3v.3l12.9 1.6Z" fill="#242424"/></g></g><g id="Group_76"><g id="Group_77"><path id="Vector_43" fill-rule="evenodd" clip-rule="evenodd" d="M598.5 529.4c3.8-.2 7.3-1.3 10-2.8.4.4.7 1 1 1 1 0 2.3 0 2.9-.4.8-.5 1.2-1.4 1.7-2l-1.1.1c-1-.5-1.8-1.2-3-1.3-1-.2-2.9-.1-3.7.3-2.8 1.6-5.2 3.4-7.8 5.1Z" fill="#242424"/></g></g><g id="Group_78"><g id="Group_79"><path id="Vector_44" fill-rule="evenodd" clip-rule="evenodd" d="M666.4 505.5c-.9.3-2 .4-2.7.8-3.3 1.3-7 .8-10.5 1.3-1.5.3-2.9.6-3 1.5 0 .6 1 1.6 1.8 1.7 1.2 0 2.5-.5 3.7-1 1-.2 1.6-.8 2.5-1.1l8.2-3v-.2Z" fill="#242424"/></g></g><g id="Group_80"><g id="Group_81"><path id="Vector_45" fill-rule="evenodd" clip-rule="evenodd" d="M655.3 514.2c2.8-.5 5.5 1.1 8.4 0-1.6-.3-3-.8-4.5-.8-2.7-.2-5.4-.2-8.1 0-.5 0-1 .9-1.5 1.4 1.3.4 2.5.9 3.8 1 .6 0 1.4-.8 2.1-1.2l-.2-.4Z" fill="#242424"/></g></g><g id="Group_82"><g id="Group_83"><path id="Vector_46" fill-rule="evenodd" clip-rule="evenodd" d="M647.6 516.4c-1.3 1.1-1.8 2 1 2.6.3 0 .7 0 .9.2 1.4.9 3.2 1.1 4.7.3.7-.4.5-1.4.7-2.1-2.6-.6-5.5.6-7.3-1Z" fill="#242424"/></g></g><g id="Group_84"><g id="Group_85"><path id="Vector_47" fill-rule="evenodd" clip-rule="evenodd" d="M621.4 527.1c-2.1-.9-4-.1-5.4.5-.9.4-2 1.5.5 2 .7 0 1 .8 1.5 1.4 1.5-.1 1.5-.1 3.4-3.9Z" fill="#242424"/></g></g><g id="Group_86"><g id="Group_87"><path id="Vector_48" fill-rule="evenodd" clip-rule="evenodd" d="m598.5 507.6-2.4-2.3c-1 .2-2.6.3-3.6.9-.6.2-.5 1.5 0 2 1.4.8 4.5.4 6-.6Z" fill="#242424"/></g></g><g id="Group_88"><g id="Group_89"><path id="Vector_49" fill-rule="evenodd" clip-rule="evenodd" d="m595.8 503.8-8.8-1.1c3 1.7 7.6 2.1 8.8 1Z" fill="#242424"/></g></g><g id="Group_90"><g id="Group_91"><path id="Vector_50" fill-rule="evenodd" clip-rule="evenodd" d="M657.7 505.2c-.2-.5-.1-1.1-.5-1.3-.4-.2-1.4 0-2 .2a7 7 0 0 0-2.6 1.4l5.1-.3Z" fill="#242424"/></g></g></g><g id="Group_92"><g id="Group_93"><g id="Group_94"><path id="Vector_51" fill-rule="evenodd" clip-rule="evenodd" d="M154.3 441.9c.4.7 1.2 1.4 2 1.7a39 39 0 0 0 15.5 2.3c5.6-.8 11.2-1.3 16.7-2.5a85 85 0 0 0 17.4-5.5c6.6-3.1 12.6-7.5 18.7-11.4a8 8 0 0 0 4-7c0-2.1-.4-2.7-2.2-3.6-4.7-2.2-9.8-2.8-14.7-4a3 3 0 0 0-1.3-.1c-3.2.7-6.5 1.2-9.7 2.2-3.2 1.1-6.3 2.7-9.4 4-.8.4-1.7.4-2.5.7-2.7 1-5.4 2-8 2.8-1.4.4-2.8.4-4.2.7-2.5.6-4.9 1.5-7.4 2-4.5.7-8.5 2.1-11.2 6.1-.3.5-1 .9-1.4 1.3a8.3 8.3 0 0 0-2.3 10.3Zm7.9-1.4a44 44 0 0 1 6.5-3.7 185.9 185.9 0 0 1 40.9-13.3c3.5-.7 8-2 11.5-1.1 2.8.6.9 2.2-.7 3.5-3 2.6-6.6 4.4-10.1 6.3-2.6 1.4-5.5 2.2-8 3.6-2.7 1.5-6.2 2.2-9.1 3.1a90 90 0 0 1-24.4 4.7c-2.6 0-5.6.1-8-1.2-.5-.4 1.2-1.8 1.4-1.9Z" fill="#242424"/></g></g><g id="Group_95"><g id="Group_96"><path id="Vector_52" fill-rule="evenodd" clip-rule="evenodd" d="m134.8 458 1.3-1.8 5.2-6.8c.5-.7 1.6-1 2.3-1.5l2.7-2.8-.4-.4 2.8-.1-1.8 7.2c2.7-2.6 5-1 7.6.7-.7 2.2-1.2 4.5-2.2 6.7-.8 2.1-2 4-3.5 5.9l2.2-9.3-7 1-16.7 21.2-.5-.3c4.9-8 11.8-14.7 15.5-23.5-1.9-1.1-2.6-.6-6.5 5.1l-1-1.3Z" fill="#242424"/></g></g><g id="Group_97"><g id="Group_98"><path id="Vector_53" fill-rule="evenodd" clip-rule="evenodd" d="M166.7 467.7c-1.6-2.3-1-5.5-3-8-.4.4-.8 1-1.4 1.3-.5.3-1.2.6-1.7.5-.3 0-.7-.8-.7-1.3 0-1.7 0-3.4.3-5 .2-2 1.5-2.5 3-1.6.5.3 1 .4 1.6.6l1.9.5.5 12.7-.5.3Z" fill="#242424"/></g></g><g id="Group_99"><g id="Group_100"><path id="Vector_54" fill-rule="evenodd" clip-rule="evenodd" d="M202 455.9c-1.6.2-3.3 1.7-3.6-1.1-3.5-.6-.5-4-2.1-5.4l2.5-1 1 3.6 1-4.1c0-.3.7-.6.9-.5.9.3 1.7.8 2.5 1.2.8.2.5.2 1 2.1.5 2 1.7 3.7 2.7 5.8-3.2.2-1.9-3.7-4.6-3.8 0 0-.3.4-.7.6-2 .7-2 .7-.6 2.6Z" fill="#242424"/></g></g><g id="Group_101"><g id="Group_102"><path id="Vector_55" fill-rule="evenodd" clip-rule="evenodd" d="M233.8 437c.2 2.1-.2 2.6-2.6 2.4l.2 1.9-4.5-5.5c4.6-1.6 8.5-1.2 12.4.8 4.1 2.2 7.2 5.6 10.8 8.3.7.5 1.5.8 2.1 1.6-1.1-.6-2.4-1-3.4-1.7a36 36 0 0 0-15-7.7Z" fill="#242424"/></g></g><g id="Group_103"><g id="Group_104"><path id="Vector_56" fill-rule="evenodd" clip-rule="evenodd" d="m237.6 427.5-1.5-.5c1.7-1.9 3 0 4.5.1l4.6.7c1.6.3 3.1.8 4.8 1.3-1 1-3.1 1.2-5.5.7-1.9-.4-3.8-.6-5.8-.5 1.7.6 2.7 1.4 1.5 3-.4.5-1.3.6-2 .7a6 6 0 0 1-1.8-.2c-.8-.1-2-.2-2.1-.6-.4-1-.5-2.1-.4-3.2 0-.2 1.2-.4 2-.6l1.7-.4v-.5Z" fill="#242424"/></g></g><g id="Group_105"><g id="Group_106"><path id="Vector_57" fill-rule="evenodd" clip-rule="evenodd" d="M210 446.3c.3 1.4.6 2.4.6 3.5 0 .5-.6 1.3-1 1.3-.7.1-1.8 0-2-.5-.5-1-1-2.4-.7-3.5.2-1.2 1.1-2.3 1.8-3.7l1.4 1.2 1-1.8 8 8.4v.4c-1.2-.6-2.4-1-3.4-1.7l-5.2-3.8-.4.2Z" fill="#242424"/></g></g><g id="Group_107"><g id="Group_108"><path id="Vector_58" fill-rule="evenodd" clip-rule="evenodd" d="M243.7 453.3c-1-.4-2-.6-3-1.2-3.9-2.2-7.6-4.8-12.1-6-2.8-.7-5.9-2-7.4-4.9-.3-.5-.4-1-.5-1.5.5 0 1.2-.1 1.7.2 1.3.8 2.4 1.8 3.6 2.6 1.5.9 3.1 1.4 4.6 2.3l7.7 4.6 5.5 3.6-.2.3Z" fill="#242424"/></g></g><g id="Group_109"><g id="Group_110"><path id="Vector_59" fill-rule="evenodd" clip-rule="evenodd" d="m194.9 467.8-7.9-15.3c1.5-.2 2.7-.8 3.4-.4 1 .5 1.4 1.6.6 2.9-.3.4-.2 1.4 0 1.8 1.6 2.8 1.5 6.2 3.9 8.6.5.5.4 1.6.6 2.4h-.6Z" fill="#242424"/></g></g><g id="Group_111"><g id="Group_112"><path id="Vector_60" fill-rule="evenodd" clip-rule="evenodd" d="M173.6 467.2c-.2-.6-.5-1.2-.5-1.8-.4-3.4-3.1-6.8-.2-10.5l1.3.7-.1 11.4-.5.2Z" fill="#242424"/></g></g><g id="Group_113"><g id="Group_114"><path id="Vector_61" fill-rule="evenodd" clip-rule="evenodd" d="m179.9 454.8 1.8 1.1c.6-.7 1.2-1.4 2-2h.9c.2.2.2.7.4 1-1.5.1-1.1 3.3-3.5 2.2-.3-.2-1.1.6-1.6 1-2 1.5-3.7 1-4.8-1.5 1.5-.8 4.3 1.6 4.8-1.8Z" fill="#242424"/></g></g><g id="Group_115"><g id="Group_116"><path id="Vector_62" fill-rule="evenodd" clip-rule="evenodd" d="m195.7 455.8 1.2 4.9.5 3.2c0 .4-.3.8-.7 1.7l-2.2-9.5 1.2-.3Z" fill="#242424"/></g></g><g id="Group_117"><g id="Group_118"><path id="Vector_63" fill-rule="evenodd" clip-rule="evenodd" d="M196 455h-1.8l-1-5.9c1.5.7 1.5.7 2.7 5.8Z" fill="#242424"/></g></g><g id="Group_119"><g id="Group_120"><path id="Vector_64" fill-rule="evenodd" clip-rule="evenodd" d="m218.4 440.8 2.3 1.5c.2.2.1.9.2 1.3-.5 0-1.2.2-1.5 0-.6-.7-1-1.6-1.5-2.4l.5-.4Z" fill="#242424"/></g></g></g><g id="Group_121"><g id="Group_122"><g id="Group_123"><path id="Vector_65" fill-rule="evenodd" clip-rule="evenodd" d="M356.3 638.6a40.1 40.1 0 0 1-11.9-3.4 69 69 0 0 0 11.9 3.4Z" fill="#242424"/></g></g><g id="Group_124"><g id="Group_125"><path id="Vector_66" fill-rule="evenodd" clip-rule="evenodd" d="M409.4 632.3a67.1 67.1 0 0 0 21.1-14.6c19.6-20.7 12.8-46.3-15.2-57.3s-66.5-3.2-86 17.5c-19 20-13.2 44.7 12.6 56.2-1.8-.7-3.7-1.3-5.3-2.1a42 42 0 0 1-19.8-18.1c-2.6-5-4.5-10.1-5.6-15.3-1.3-5.6.6-11.1 3.8-16.5 2-3.4 3-7 5.3-10.3 2.3-3.3 5.7-6.2 8.4-9.4 3.5-4.1 9.4-6.2 15-8.4 8.6-3.5 17.3-7 26.6-9.4a66.8 66.8 0 0 1 24-2.3c5.6.7 11.8 0 17.3.8 6.4.9 13.2 1.6 18.1 4.9.3.2.7.5 1.1.5 8.2 1.7 10.5 7.5 17 10.4 1.7.8 2.6 2.4 3.5 3.7 1.3 1.9 2.1 3.9 3.4 5.8 2.7 4.1 2.1 8.6 3.2 13 1 3.7-.6 7.3-.2 11 0 .8 0 1.8-.8 2.2-3.3 2-3.8 4.5-4.8 7a31.1 31.1 0 0 1-10 12c-4.7 3.8-9.5 7.5-14.7 10.9-5.3 3.4-11.3 5.9-18 7.8Z" fill="#242424"/></g></g><g id="Group_126"><g id="Group_127"><path id="Vector_67" fill-rule="evenodd" clip-rule="evenodd" d="m371 663 .2 7.5c0 .4.1 1-.1 1.3-1.3 1.7-1.4 1.7 2.2 1.6l-5.3.9-2.7-13.8c-1.8 1.1-3.5 1.1-5-.3-.5-.5-1.6-.6-2.2-1-.9-.6-2.2-1.3-2-2 0-.5 1.7-1 2.8-1.5.4-.2 1-.1 2-.3l-.3 2h.8c.4-.3.7-.9 1.2-1 .6-.2 1.4 0 2.2.1 2-2.6 4.7-3.3 8.4-2-2.8 3.3.6 6 1.5 8.8l-3.8-.3Z" fill="#242424"/></g></g><g id="Group_128"><g id="Group_129"><path id="Vector_68" fill-rule="evenodd" clip-rule="evenodd" d="M493.6 596.5h-8.3c1.5 1.3 2.6 2.2 3.8 3-4 1.4-5.2 1-8-2.6l-5 2c.4-1 1.2-2.2 1.1-3.2-.4-3 2.7-5.9.6-9-.6-.8.8-2.4 1.5-3.6.1-.2 1.7-.3 2.3-.1.9.2 1.5.8 2.3 1.3l-1.8 2.2 19.7 3.4-.1.4c-3.6-.2-7.1-.7-10.7-.7-2.8 0-5.7.3-8.5.7-1.9.2-2.2 1-1.3 2l3.1 3.2c.3.2 1.3 0 2 0l7.3-.2v1.2Z" fill="#242424"/></g></g><g id="Group_130"><g id="Group_131"><path id="Vector_69" fill-rule="evenodd" clip-rule="evenodd" d="m449.5 632.3 5.3-4.5 2.5 1c.3-.3 1-.7 1-.9-1.2-2.3 1.3-3.8 3.1-5.4.8-.7 2-1.2 3-1.8.7.7 1.5 1.3 2 2 .7 1 1.4 2 1.9 3 .2.5-.1 1.1-.2 1.9l-8.1-3-.8.7c1.2 3 5.6 3.7 8.5 5.8l-9.1-2.7c-.6 1.3-.7 2-1.2 2.7-1 1.3-.2 1.9 1.5 2.3.7.2 1.7.4 2 .8.3.7 0 1.4.1 2.2l-2.6-.6-1.9-.8-1 .4 6.1 8.5c-4.6.5-4.3 1.4-5-2.2-.2-1-1.3-2-2.1-2.8-.8-.8-2.4-1.4-.2-2.4.3-.1 0-1.2-.5-1.5-1.3-1-2.8-1.8-4.3-2.7Z" fill="#242424"/></g></g><g id="Group_132"><g id="Group_133"><path id="Vector_70" fill-rule="evenodd" clip-rule="evenodd" d="M398.3 679c-1-2.6-1.6-5.2-3-7.6-1.2-2.1-3.8-4-5-6.1-2-3.8-3.4-7.7-5.2-11.8 3 .5 6 .5 6.8 1.3 1.7 2 2.5 4.2 3.3 6.4.7 2 1 4 1.4 6 .2 1.3 0 2.7 0 4 0 .3-.2.8 0 .9 5 1.5.2 4.7 2.8 6.6l-1.1.2Z" fill="#242424"/></g></g><g id="Group_134"><g id="Group_135"><path id="Vector_71" fill-rule="evenodd" clip-rule="evenodd" d="M434.9 637.3c2.9.6 6.3 0 8.7 1.7.7.6 2.4 1 2.4 1.6 0 1.9.1 3.6 3.1 4.7l-.8.4c-2-1-4.1-1.8-6.2-2.7 1.7 5.8 6.3 10.4 10.7 15l-.6.6c-.8-.3-1.9-.5-2.3-1-3-3.1-5.5-6.5-9-9.3a15 15 0 0 1-6-11Z" fill="#242424"/></g></g><g id="Group_136"><g id="Group_137"><path id="Vector_72" fill-rule="evenodd" clip-rule="evenodd" d="m316.8 658.6 9.8-10.7c-.7-3 .1-4 4.2-4 2 2 1.7 3.3-1.7 4.8-1.5.6-1.4 2.8-2 4.3l4.6.5-13.4 9-.8-.1c.8-1.2 1.6-2.4 2.6-3.5l4.6-5.6-1-.4-6.2 6-.7-.3Z" fill="#242424"/></g></g><g id="Group_138"><g id="Group_139"><path id="Vector_73" fill-rule="evenodd" clip-rule="evenodd" d="M323.9 640.2c3.2 3.1-1.6 4.3-2.5 6.3-.5 1.1-1.4 2.2-2.5 3.1-1.2 1-2.8 2-4.3 3-3 2-6 4-9 6.2-1.4 1-2.6 2.1-4.6 3 .3-.5.3-1.2.8-1.7 2.6-2.9 5-5.9 8.1-8.5 1.7-1.4 4.6-2.1 6.8-3.4a13 13 0 0 0 3.4-2.8c1.4-1.6 2.4-3.3 3.8-5.2Z" fill="#242424"/></g></g><g id="Group_140"><g id="Group_141"><path id="Vector_74" fill-rule="evenodd" clip-rule="evenodd" d="m509.8 614.9-14.5-3.1c-2.1-.5-4.1-1.3-6.3-1.8-1.6-.3-3.3-.6-5-.6-3.9 0-8.3-1.8-9.4-4l7.7.6c5 .4 8.6 2.8 13 4l11 3.4 3.8 1.1-.3.4Z" fill="#242424"/></g></g><g id="Group_142"><g id="Group_143"><path id="Vector_75" fill-rule="evenodd" clip-rule="evenodd" d="m331.5 668.2 1-3.9s.1-.1 0-.2c-2.5-2.9 1.7-4.5 3-6.7.8-1.3 1-2.8 1.6-4.2.3-.7 1.2-1.2 1.9-1.9l2.6 4.2-9.4 12.6h-.7Z" fill="#242424"/></g></g><g id="Group_144"><g id="Group_145"><path id="Vector_76" fill-rule="evenodd" clip-rule="evenodd" d="m419.7 676.6-9.6-14.6 4-.5 6.5 14.9-.9.2Z" fill="#242424"/></g></g><g id="Group_146"><g id="Group_147"><path id="Vector_77" fill-rule="evenodd" clip-rule="evenodd" d="m341 664.3 3-2.6-.3-.2-2.5 1.7-.7-.3c1.4-2.7 2.6-5.4 4.1-8.1.4-.6 1.7-.9 2.6-1.3.2.7.9 1.4.6 2-1.3 3-2.9 5.8-4.5 8.6-.2.4-1.3.5-2 .8l-.3-.6Z" fill="#242424"/></g></g><g id="Group_148"><g id="Group_149"><path id="Vector_78" fill-rule="evenodd" clip-rule="evenodd" d="M427.6 660.7c-5.2 1-4.4-4.2-9.2-4l1.5 2.7c-4.3-1.3-4.2-2.2.8-6.3l3.6 6 1.5-4.9 1.8 6.5Z" fill="#242424"/></g></g><g id="Group_150"><g id="Group_151"><path id="Vector_79" fill-rule="evenodd" clip-rule="evenodd" d="M469.5 619.7c9.1 2.4 15.5 7.2 23 11l-23.8-10.2.8-.8Z" fill="#242424"/></g></g><g id="Group_152"><g id="Group_153"><path id="Vector_80" fill-rule="evenodd" clip-rule="evenodd" d="M276.2 609.5h3.6c1-3.8 5-2.4 9.4-2.3l-5.5 3.3H276l.2-1Z" fill="#242424"/></g></g><g id="Group_154"><g id="Group_155"><path id="Vector_81" fill-rule="evenodd" clip-rule="evenodd" d="M354 653.8v1.4c-.3.6-.5 1.4-1 2-.7.5-1.7 1-2.7 1.1-.6 0-2-.6-2-.8.2-.8.6-1.9 1.5-2.2 1.5-.7 3.4-1 1-2.1.6-.6 1.1-1.2 2-1.6.4-.2 1.7 0 2 .4.4.5.3 1.2.4 1.8H354Z" fill="#242424"/></g></g><g id="Group_156"><g id="Group_157"><path id="Vector_82" fill-rule="evenodd" clip-rule="evenodd" d="m280.5 631.7 1.9-.6-.6-.3c1.5-1 3-2 4.8-3 1.3-.6 2.7-1.3 4.2-1.6.8-.3 2 0 3.7.2l-5.2 3.5-.3.2-8.4 1.8v-.2Z" fill="#242424"/></g></g><g id="Group_158"><g id="Group_159"><path id="Vector_83" fill-rule="evenodd" clip-rule="evenodd" d="m482.4 572.7-4-1.3.1-.9 11-2.2.9.8-3 1.7-5.1 2Z" fill="#242424"/></g></g><g id="Group_160"><g id="Group_161"><path id="Vector_84" fill-rule="evenodd" clip-rule="evenodd" d="m283.4 597-1-1.2h1.3c2.3 1.6-1.3 2.3-2.3 3.7l3.3.5.1.5-5.3 1c0-.3-.2-.4-.3-.6l1.7-2h-6l-.4-.7c1.3-.3 2.5-.8 3.8-1 1.6-.1 3.3 0 5-.2Z" fill="#242424"/></g></g><g id="Group_162"><g id="Group_163"><path id="Vector_85" fill-rule="evenodd" clip-rule="evenodd" d="M482.3 572.7c1.7.9 2.3 2.1.6 3-1.4 1-3.5 1.3-5.4 1.8-.2-.4-.7-.8-.6-1.2.1-2.3 2.5-3.1 5.5-3.6h-.1Z" fill="#242424"/></g></g><g id="Group_164"><g id="Group_165"><path id="Vector_86" fill-rule="evenodd" clip-rule="evenodd" d="m288.1 639.1 13.8-13.4h1c0 .7 0 1.6-.5 2-3.1 2.8-6.4 5.5-9.6 8.2-.7.5-1 1.2-1.6 1.8l-2.6 1.9-.5-.5Z" fill="#242424"/></g></g><g id="Group_166"><g id="Group_167"><path id="Vector_87" fill-rule="evenodd" clip-rule="evenodd" d="m303.6 565.7-6.8-.3c1.4-1 3.3-1.7 3.2-2.3 0-.8-1.6-1.5-2.6-2.2l.6-.6c1.8.5 4.2.7 5.2 1.6 1 .8.3 2.3.4 3.8Z" fill="#242424"/></g></g><g id="Group_168"><g id="Group_169"><path id="Vector_88" fill-rule="evenodd" clip-rule="evenodd" d="M484.8 575.7a47.4 47.4 0 0 1 21.3-1.4l-21.3 1.4Z" fill="#242424"/></g></g><g id="Group_170"><g id="Group_171"><path id="Vector_89" fill-rule="evenodd" clip-rule="evenodd" d="m299.6 568-2.3 3.8c-1.7.6-3.8 1.2-5.8 2l-.7-.5 4.3-3.5.4-2.2 4 .4Z" fill="#242424"/></g></g><g id="Group_172"><g id="Group_173"><path id="Vector_90" fill-rule="evenodd" clip-rule="evenodd" d="M279 591.3c2.2-4 2.2-4 6.1-3.6l2.3 2.5-4.2-.5.4 2-4.6-.4Z" fill="#242424"/></g></g><g id="Group_174"><g id="Group_175"><path id="Vector_91" fill-rule="evenodd" clip-rule="evenodd" d="m463 644.4 11 8.6-.7.4-1.4-1c-2.6-1.4-5.4-2.7-7.6-4.4-1.2-1-1.5-2.3-2.2-3.5l1-.1Z" fill="#242424"/></g></g><g id="Group_176"><g id="Group_177"><path id="Vector_92" fill-rule="evenodd" clip-rule="evenodd" d="M356.4 677.9c-2.3-5-2-10.5.6-11l-.6 11Z" fill="#242424"/></g></g><g id="Group_178"><g id="Group_179"><path id="Vector_93" fill-rule="evenodd" clip-rule="evenodd" d="m486.9 621.7-9.1-2c3.3-2.7 3.3-2.7 9 2Z" fill="#242424"/></g></g><g id="Group_180"><g id="Group_181"><path id="Vector_94" fill-rule="evenodd" clip-rule="evenodd" d="M378.2 662.8c5.8 2.1 3.5 5.5 4.2 8.3-.3 0-.6 0-.9.2l-3.3-8.5Z" fill="#242424"/></g></g><g id="Group_182"><g id="Group_183"><path id="Vector_95" fill-rule="evenodd" clip-rule="evenodd" d="m462.5 552 8.3.7.4.7c-1 .4-2.4 1.4-3 1.2-1.8-.6-5.4.6-5.7-2.7Z" fill="#242424"/></g></g><g id="Group_184"><g id="Group_185"><path id="Vector_96" fill-rule="evenodd" clip-rule="evenodd" d="M291.4 644.3c1.7-3.3 6.6-5.5 10.5-5l-10.5 5Z" fill="#242424"/></g></g><g id="Group_186"><g id="Group_187"><path id="Vector_97" fill-rule="evenodd" clip-rule="evenodd" d="m482.6 605 2.1-3.2h1.4l2.5 2.5-5 1.3-1-.7Z" fill="#242424"/></g></g><g id="Group_188"><g id="Group_189"><path id="Vector_98" fill-rule="evenodd" clip-rule="evenodd" d="M284.6 621.1c-2.2.9-4.2 1.8-6.5 2.5-1 .3-2.3-.1-3.4-.5 1.5-1 3.8-1 4.5-1.4 2-1 3.5-1.2 5.4-.5Z" fill="#242424"/></g></g><g id="Group_190"><g id="Group_191"><path id="Vector_99" fill-rule="evenodd" clip-rule="evenodd" d="m349.4 664.8-2 10.8c-1-3.7-.9-7.3 2-10.8Z" fill="#242424"/></g></g><g id="Group_192"><g id="Group_193"><path id="Vector_100" fill-rule="evenodd" clip-rule="evenodd" d="m431.6 655.5 3.7 7.8c-1 .3-1.2.3-3.2-3-.8-1.5-1.1-3-1.6-4.6l1-.2Z" fill="#242424"/></g></g><g id="Group_194"><g id="Group_195"><path id="Vector_101" fill-rule="evenodd" clip-rule="evenodd" d="m460.7 551.3-5.6-2.8.7-2.4c2.2 1.5 5.6 1.9 5 5.2Z" fill="#242424"/></g></g><g id="Group_196"><g id="Group_197"><path id="Vector_102" fill-rule="evenodd" clip-rule="evenodd" d="m284.6 621.2 10.8-2.8c-3.2 3.1-6.3 4.5-10.8 2.7v.1Z" fill="#242424"/></g></g><g id="Group_198"><g id="Group_199"><path id="Vector_103" fill-rule="evenodd" clip-rule="evenodd" d="m468.3 557.6 7.2-.4.2.8-3.7.8 2.3.9.1.6c-.8 0-2 .3-2.5 0-1.2-.6-2-1.5-3.6-2.7Z" fill="#242424"/></g></g><g id="Group_200"><g id="Group_201"><path id="Vector_104" fill-rule="evenodd" clip-rule="evenodd" d="m283 604-10.5-.6.1-.8 10.6.5-.2 1Z" fill="#242424"/></g></g><g id="Group_202"><g id="Group_203"><path id="Vector_105" fill-rule="evenodd" clip-rule="evenodd" d="m374.6 667.7 2.6 7.7-.7.1-3-7.7 1.1-.1Z" fill="#242424"/></g></g><g id="Group_204"><g id="Group_205"><path id="Vector_106" fill-rule="evenodd" clip-rule="evenodd" d="m289.5 580.7-2.6.9 2.4 1.3-5.3-.6c.5-2.3 2.2-2.9 5.5-1.6Z" fill="#242424"/></g></g><g id="Group_206"><g id="Group_207"><path id="Vector_107" fill-rule="evenodd" clip-rule="evenodd" d="m482 567.2-4.9 3.2.9-4 4 .8Z" fill="#242424"/></g></g><g id="Group_208"><g id="Group_209"><path id="Vector_108" fill-rule="evenodd" clip-rule="evenodd" d="m283 583.3 7 2c-6 .6-7 .4-7-2Z" fill="#242424"/></g></g><g id="Group_210"><g id="Group_211"><path id="Vector_109" fill-rule="evenodd" clip-rule="evenodd" d="M287.7 619.2c.7-1.7.5-4 5.2-3.4l-5.2 3.4Z" fill="#242424"/></g></g><g id="Group_212"><g id="Group_213"><path id="Vector_110" fill-rule="evenodd" clip-rule="evenodd" d="M425.2 647.7c-2.9-3.4 2-4.5 2.7-6.6l1 .4c-.9.8-2 1.5-2.5 2.4-.6 1-.7 2-1.2 3.8Z" fill="#242424"/></g></g><g id="Group_214"><g id="Group_215"><path id="Vector_111" fill-rule="evenodd" clip-rule="evenodd" d="m409 647.8 2.6-1.7 1.8 4.8-4.4-3Z" fill="#242424"/></g></g></g><g id="Group_216"><g id="Group_217"><g id="Group_218"><path id="Vector_112" fill-rule="evenodd" clip-rule="evenodd" d="M789.3 677a35.4 35.4 0 0 0 10.4-3.4 61 61 0 0 1-10.4 3.4Z" fill="#242424"/></g></g><g id="Group_219"><g id="Group_220"><path id="Vector_113" fill-rule="evenodd" clip-rule="evenodd" d="M742.2 673.2c-7.3-3-13.9-7-19.1-12.1-18-17.6-12.9-40.4 11.4-51 24.3-10.8 58.6-5.2 76.6 12.4 17.4 17 13.1 39-9.2 50l4.6-2a37 37 0 0 0 16.8-16.7c2.1-4.4 3.6-9 4.5-13.6.9-5-1-9.8-4-14.5-1.8-3-2.9-6-5-8.9-2.2-2.8-5.3-5.3-7.8-8-3.2-3.5-8.5-5.2-13.5-7-7.7-2.7-15.5-5.5-23.8-7.3a59 59 0 0 0-21.2-1.2c-5 .8-10.4.4-15.3 1.3-5.6 1-11.6 2-15.8 5l-1 .5c-7.1 1.7-9 7-14.6 9.7-1.4.8-2.2 2.2-3 3.4-1 1.7-1.7 3.5-2.7 5.2-2.3 3.7-1.6 7.7-2.4 11.6-.7 3.3.8 6.5.5 9.7 0 .7.2 1.6.8 2 3 1.5 3.5 3.8 4.5 6 1.7 4 5.2 7.2 9.3 10.2 4.2 3.2 8.6 6.3 13.3 9a57.8 57.8 0 0 0 16.1 6.3Z" fill="#242424"/></g></g><g id="Group_221"><g id="Group_222"><path id="Vector_114" fill-rule="evenodd" clip-rule="evenodd" d="M777.2 699v6.6c0 .4 0 .9.2 1.2 1.2 1.5 1.2 1.5-2 1.5l4.8.6 1.9-12.3c1.7 1 3.2.9 4.4-.5.4-.3 1.4-.5 1.9-.9.7-.5 1.9-1.2 1.8-1.8-.1-.5-1.7-.9-2.6-1.2-.4-.2-.8-.1-1.8-.2l.4 1.8h-.8c-.3-.3-.6-.8-1.1-1l-1.9.3c-1.9-2.3-4.2-2.7-7.5-1.4 2.6 2.7-.3 5.2-1 7.7l3.3-.4Z" fill="#242424"/></g></g><g id="Group_223"><g id="Group_224"><path id="Vector_115" fill-rule="evenodd" clip-rule="evenodd" d="m666.7 644.6 7.4-.3-3.3 2.8c3.6 1 4.6.7 6.9-2.6l4.6 1.6c-.5-1-1.2-2-1.2-2.8.3-2.7-2.5-5.1-.8-7.9.5-.8-.7-2.1-1.4-3.1-.2-.2-1.5-.3-2.1 0-.8.1-1.3.7-2 1.1.5.5 1 1 1.7 2l-17.3 3.6.1.4c3.2-.4 6.3-.9 9.5-1 2.4-.1 5 0 7.4.3 1.7.1 2 .9 1.3 1.8-.8 1-1.7 2-2.7 2.8-.2.2-1.1.1-1.7.2h-6.5l.1 1Z" fill="#242424"/></g></g><g id="Group_225"><g id="Group_226"><path id="Vector_116" fill-rule="evenodd" clip-rule="evenodd" d="m706.9 674.6-5-3.8-2 1c-.4-.2-1-.6-1-.8 1-2-1.3-3.3-3-4.6-.6-.6-1.7-1-2.6-1.5-.6.6-1.3 1.2-1.7 1.8-.6.9-1.2 1.8-1.5 2.7-.2.5 0 1 .1 1.7l7.1-3 .7.7c-.9 2.6-4.8 3.5-7.2 5.4l8-2.7c.4 1.1.5 1.8 1 2.3 1 1.2.3 1.7-1.2 2.1-.6.2-1.5.5-1.7.8-.3.6 0 1.3 0 1.9l2.2-.6 1.6-.8 1 .4-5.2 7.7c4.1.3 4 1 4.4-2.2.2-.8 1-1.7 1.8-2.5.6-.7 2-1.3 0-2.1-.2-.1 0-1 .4-1.4 1.1-.9 2.5-1.6 3.8-2.5Z" fill="#242424"/></g></g><g id="Group_227"><g id="Group_228"><path id="Vector_117" fill-rule="evenodd" clip-rule="evenodd" d="M753.7 714c.7-2.2 1.1-4.6 2.3-6.7 1-2 3.2-3.7 4.2-5.6 1.6-3.4 2.7-6.9 4.2-10.6-2.6.6-5.3.6-6 1.4-1.4 1.8-2 3.8-2.7 5.8-.5 1.7-.8 3.5-1 5.3l.2 3.5c0 .3.1.7 0 .8-4.5 1.5 0 4.2-2.3 6l1 .1Z" fill="#242424"/></g></g><g id="Group_229"><g id="Group_230"><path id="Vector_118" fill-rule="evenodd" clip-rule="evenodd" d="M720 678.6c-2.6.6-5.7 0-7.7 1.7-.6.6-2 1-2 1.5 0 1.7-.1 3.2-2.7 4.3.3 0 .5.2.8.3l5.3-2.6c-1.3 5.2-5.1 9.4-9 13.7.3.1.4.3.6.5.7-.4 1.7-.6 2-1 2.6-2.9 4.7-6 7.7-8.6 3.4-3 4.8-6.2 5-9.8Z" fill="#242424"/></g></g><g id="Group_231"><g id="Group_232"><path id="Vector_119" fill-rule="evenodd" clip-rule="evenodd" d="M824.8 693.3c-2.8-3-5.7-5.8-9-9.1.5-2.7-.2-3.5-3.8-3.4-1.8 1.8-1.4 3 1.7 4.1 1.3.5 1.2 2.5 1.8 3.8l-4 .6 12.2 7.5.7-.2-2.4-3-4.3-4.8c.3 0 .5-.2.8-.3l5.7 5 .6-.2Z" fill="#242424"/></g></g><g id="Group_233"><g id="Group_234"><path id="Vector_120" fill-rule="evenodd" clip-rule="evenodd" d="M818 677.3c-2.8 2.8 1.5 3.7 2.3 5.5.5.9 1.4 1.8 2.4 2.6 1 1 2.5 1.7 3.8 2.5l8.2 5.1c1.3.9 2.4 1.8 4.2 2.6-.3-.5-.4-1.1-.8-1.5-2.4-2.5-4.6-5-7.5-7.3-1.4-1.2-4.1-1.7-6-2.7-1.3-.6-2.3-1.5-3.2-2.4-1.2-1.3-2.2-2.8-3.5-4.4Z" fill="#242424"/></g></g><g id="Group_235"><g id="Group_236"><path id="Vector_121" fill-rule="evenodd" clip-rule="evenodd" d="M653 661.3c4.3-1 8.5-2 12.7-3.2 1.9-.5 3.6-1.3 5.5-1.8 1.4-.3 3-.6 4.4-.7 3.5 0 7.2-1.9 8.1-3.9l-6.7.9c-4.4.5-7.5 2.7-11.4 4-3.2 1-6.3 2.2-9.5 3.3l-3.3 1.1.3.3Z" fill="#242424"/></g></g><g id="Group_237"><g id="Group_238"><path id="Vector_122" fill-rule="evenodd" clip-rule="evenodd" d="m812.2 702.2-1-3.3-.1-.2c2.2-2.6-1.6-4-2.8-5.8-.8-1.2-1-2.5-1.6-3.7-.3-.6-1-1-1.7-1.6l-2.2 3.8c2.8 3.3 5.7 7 8.7 10.8h.7Z" fill="#242424"/></g></g><g id="Group_239"><g id="Group_240"><path id="Vector_123" fill-rule="evenodd" clip-rule="evenodd" d="m734.6 712.7 8-13.2-3.5-.3-5.3 13.3.8.2Z" fill="#242424"/></g></g><g id="Group_241"><g id="Group_242"><path id="Vector_124" fill-rule="evenodd" clip-rule="evenodd" d="m803.6 699.1-2.8-2.1.4-.2 2.3 1.3.6-.2c-1.3-2.4-2.5-4.7-4-7-.3-.5-1.5-.7-2.2-1-.2.5-.8 1.2-.5 1.7 1.2 2.5 2.7 5 4.2 7.4.2.4 1.2.5 1.9.7l.1-.6Z" fill="#242424"/></g></g><g id="Group_243"><g id="Group_244"><path id="Vector_125" fill-rule="evenodd" clip-rule="evenodd" d="M727.2 699c4.6.7 3.7-4 7.9-4l-1.2 2.5c3.7-1.2 3.6-2-1-5.5l-2.9 5.5-1.5-4.3c-.5 2.2-1 4-1.3 5.8Z" fill="#242424"/></g></g><g id="Group_245"><g id="Group_246"><path id="Vector_126" fill-rule="evenodd" clip-rule="evenodd" d="M688.8 664.2c-8 2.4-13.5 6.9-20 10.5l20.7-9.8-.7-.7Z" fill="#242424"/></g></g><g id="Group_247"><g id="Group_248"><path id="Vector_127" fill-rule="evenodd" clip-rule="evenodd" d="m859 648.5-3.2.1c-1-3.2-4.6-1.8-8.4-1.6l5 2.7 6.8-.3-.2-.9Z" fill="#242424"/></g></g><g id="Group_249"><g id="Group_250"><path id="Vector_128" fill-rule="evenodd" clip-rule="evenodd" d="m791.8 690.3.1 1.2c.3.6.5 1.3 1 1.7a5 5 0 0 0 2.4 1c.5 0 1.7-.6 1.6-.8-.1-.7-.5-1.6-1.3-2-1.3-.5-3-.6-1-1.8-.5-.4-1-1-1.7-1.3-.4-.1-1.6.2-1.8.4-.4.5-.2 1-.3 1.6h1Z" fill="#242424"/></g></g><g id="Group_251"><g id="Group_252"><path id="Vector_129" fill-rule="evenodd" clip-rule="evenodd" d="m855.9 668.3-1.7-.5.6-.2-4.4-2.5-3.7-1.4c-.8-.1-1.8.2-3.3.4l4.7 2.9.2.1 7.5 1.4.1-.2Z" fill="#242424"/></g></g><g id="Group_253"><g id="Group_254"><path id="Vector_130" fill-rule="evenodd" clip-rule="evenodd" d="m675.8 623.2 3.5-1.3-.2-.8-9.8-1.5-.7.7c.9.4 1.8 1 2.7 1.3l4.6 1.6h-.1Z" fill="#242424"/></g></g><g id="Group_255"><g id="Group_256"><path id="Vector_131" fill-rule="evenodd" clip-rule="evenodd" d="m852.2 637.8.9-1.2h-1.2c-2 1.6 1.2 2.1 2.1 3.3l-2.9.5v.5l4.6.7.3-.6-1.5-1.6 5.3-.3.3-.6c-1.1-.2-2.2-.6-3.4-.7h-4.5Z" fill="#242424"/></g></g><g id="Group_257"><g id="Group_258"><path id="Vector_132" fill-rule="evenodd" clip-rule="evenodd" d="M675.9 623.2c-1.5.8-2 1.9-.5 2.7 1.3.7 3.2 1 4.8 1.4.2-.4.6-.8.6-1.2-.3-2-2.4-2.6-5-3Z" fill="#242424"/></g></g><g id="Group_259"><g id="Group_260"><path id="Vector_133" fill-rule="evenodd" clip-rule="evenodd" d="m849.4 675.1-12.6-11.4-.9.1c.2.6 0 1.3.5 1.7 2.9 2.4 6 4.6 8.9 6.9l1.4 1.5 2.3 1.6.4-.4Z" fill="#242424"/></g></g><g id="Group_261"><g id="Group_262"><path id="Vector_134" fill-rule="evenodd" clip-rule="evenodd" d="m833.3 610.9 6-.6c-1.3-.8-3-1.3-3-1.8.1-.8 1.5-1.4 2.3-2.1l-.6-.5c-1.5.5-3.6.8-4.5 1.6-.8.7-.2 2-.2 3.4Z" fill="#242424"/></g></g><g id="Group_263"><g id="Group_264"><path id="Vector_135" fill-rule="evenodd" clip-rule="evenodd" d="M673.8 626c-1.4-1.5-15.2-2-18.9-.6l18.9.5Z" fill="#242424"/></g></g><g id="Group_265"><g id="Group_266"><path id="Vector_136" fill-rule="evenodd" clip-rule="evenodd" d="m837 612.7 2 3.3 5.3 1.5.5-.4-4-2.9c0-.7-.2-1.3-.3-2l-3.6.5Z" fill="#242424"/></g></g><g id="Group_267"><g id="Group_268"><path id="Vector_137" fill-rule="evenodd" clip-rule="evenodd" d="M855.9 632.6c-2-3.4-2-3.4-5.6-3l-2 2.3 3.8-.6c0 .7-.1 1.2-.3 1.8l4-.5Z" fill="#242424"/></g></g><g id="Group_269"><g id="Group_270"><path id="Vector_138" fill-rule="evenodd" clip-rule="evenodd" d="m695.3 685.7-9.4 8 .6.4 1.3-.9c2.2-1.4 4.6-2.7 6.5-4.2 1-.9 1.3-2.1 1.9-3.2h-1Z" fill="#242424"/></g></g><g id="Group_271"><g id="Group_272"><path id="Vector_139" fill-rule="evenodd" clip-rule="evenodd" d="M790.5 711.7c1.9-4.5 1.4-9.4-.9-9.7l1 9.7Z" fill="#242424"/></g></g><g id="Group_273"><g id="Group_274"><path id="Vector_140" fill-rule="evenodd" clip-rule="evenodd" d="m673.5 666.5 8-2c-3-2.3-3-2.3-8 2Z" fill="#242424"/></g></g><g id="Group_275"><g id="Group_276"><path id="Vector_141" fill-rule="evenodd" clip-rule="evenodd" d="M770.8 699.1c-5 2-2.9 5-3.4 7.4l.8.2 2.6-7.6Z" fill="#242424"/></g></g><g id="Group_277"><g id="Group_278"><path id="Vector_142" fill-rule="evenodd" clip-rule="evenodd" d="m692.6 604.2-7.3 1-.3.5c.9.4 2.2 1.2 2.6 1 1.7-.6 4.9.4 5-2.5Z" fill="#242424"/></g></g><g id="Group_279"><g id="Group_280"><path id="Vector_143" fill-rule="evenodd" clip-rule="evenodd" d="M846.7 679.8c-1.6-2.9-6-4.6-9.4-4l9.4 4Z" fill="#242424"/></g></g><g id="Group_281"><g id="Group_282"><path id="Vector_144" fill-rule="evenodd" clip-rule="evenodd" d="m676.7 651.6-2-2.7h-1.2l-2.2 2.4 4.6 1 .8-.7Z" fill="#242424"/></g></g><g id="Group_283"><g id="Group_284"><path id="Vector_145" fill-rule="evenodd" clip-rule="evenodd" d="m852 659.1 5.8 2c.8.1 2-.2 3-.6-1.4-.8-3.4-.8-4-1.1-1.9-.8-3.2-1-4.9-.2Z" fill="#242424"/></g></g><g id="Group_285"><g id="Group_286"><path id="Vector_146" fill-rule="evenodd" clip-rule="evenodd" d="m796.2 699.9 2.3 9.4c.6-3.3.4-6.5-2.3-9.4Z" fill="#242424"/></g></g><g id="Group_287"><g id="Group_288"><path id="Vector_147" fill-rule="evenodd" clip-rule="evenodd" d="m723.4 694.5-3 7c1 .2 1 .2 2.7-2.8.7-1.3 1-2.7 1.3-4l-1-.2Z" fill="#242424"/></g></g><g id="Group_289"><g id="Group_290"><path id="Vector_148" fill-rule="evenodd" clip-rule="evenodd" d="m694.2 603.5 4.8-2.6-.7-2.1c-1.9 1.4-4.9 1.8-4.1 4.7Z" fill="#242424"/></g></g><g id="Group_291"><g id="Group_292"><path id="Vector_149" fill-rule="evenodd" clip-rule="evenodd" d="m852 659.2-9.7-2.1c3 2.6 5.7 3.7 9.7 2v.1Z" fill="#242424"/></g></g><g id="Group_293"><g id="Group_294"><path id="Vector_150" fill-rule="evenodd" clip-rule="evenodd" d="m687.7 609.4-6.4-.2-.1.8 3.3.6-2 .8-.1.6c.7 0 1.8.2 2.2 0 1-.7 1.8-1.5 3-2.6Z" fill="#242424"/></g></g><g id="Group_295"><g id="Group_296"><path id="Vector_151" fill-rule="evenodd" clip-rule="evenodd" d="m852.8 644 9.2-1-.1-.7-9.3.9.2.8Z" fill="#242424"/></g></g><g id="Group_297"><g id="Group_298"><path id="Vector_152" fill-rule="evenodd" clip-rule="evenodd" d="m774.1 703.3-2 6.9h.6l2.5-6.9h-1Z" fill="#242424"/></g></g><g id="Group_299"><g id="Group_300"><path id="Vector_153" fill-rule="evenodd" clip-rule="evenodd" d="m846.2 623.6 2.4.7-2.1 1.2 4.7-.7c-.6-2-2.1-2.5-5-1.2Z" fill="#242424"/></g></g><g id="Group_301"><g id="Group_302"><path id="Vector_154" fill-rule="evenodd" clip-rule="evenodd" d="m676 618.3 4.4 2.7-1-3.5-3.5.8Z" fill="#242424"/></g></g><g id="Group_303"><g id="Group_304"><path id="Vector_155" fill-rule="evenodd" clip-rule="evenodd" d="m852 625.7-6 2c5.2.3 6.1 0 6-2Z" fill="#242424"/></g></g><g id="Group_305"><g id="Group_306"><path id="Vector_156" fill-rule="evenodd" clip-rule="evenodd" d="M849.2 657.5c-.8-1.5-.7-3.6-4.8-2.8l4.8 2.8Z" fill="#242424"/></g></g><g id="Group_307"><g id="Group_308"><path id="Vector_157" fill-rule="evenodd" clip-rule="evenodd" d="M728.8 687.3c2.4-3-2-3.8-2.6-5.6l-.8.3c.7.7 1.7 1.3 2.2 2.1.6.8.7 1.8 1.2 3.2Z" fill="#242424"/></g></g><g id="Group_309"><g id="Group_310"><path id="Vector_158" fill-rule="evenodd" clip-rule="evenodd" d="m743.1 687-2.3-1.5-1.4 4.3 3.7-2.9Z" fill="#242424"/></g></g></g><g id="Group_311"><g id="Group_312"><g id="Group_313"><path id="Vector_159" fill-rule="evenodd" clip-rule="evenodd" d="M185.4 521.7h2.7c6.5 0 13-.5 19.5.5 3 .5 6.2.7 9.2 1.7 3.7 1.2 7.1 3 9.7 6.6a6.9 6.9 0 0 1 1.2 6.5l-1.4 3.6a23 23 0 0 1-4.6 8.1c-1.7 2.3-4.2 3.8-6.4 5.5-.8.6-1.8.9-2.7 1.3l-7.7 4.3c-3.4 2-7.2 2.4-10.8 3.4-2.3.6-4.7.7-7 1l-6.5.6-4.5-.1c-2.6-.3-5.3-.1-7.7-1-2.3-.8-4.7-1.3-6.7-3-1.8-1.6-3.7-2.9-4.7-5.2-.3-.8-1.3-1.3-2.1-2-.7-2.4 1.1-5.3-.6-8l1 .7c.3-1.6.9-3 1-4.4 0-3.2 2-5.1 3.9-7a31 31 0 0 1 8.6-6.3c4.2-2 8.2-4.7 12.8-5.6 1.3-.3 2.5-.8 3.8-1.2Zm6 10.7c-16.2 2.8-29.5 11.4-29.6 19.2 0 7.9 13 12 29.4 9.2 16.3-2.8 29.6-11.4 29.7-19.3 0-7.8-13.1-11.9-29.4-9.1Z" fill="#242424"/></g></g><g id="Group_314"><g id="Group_315"><path id="Vector_160" fill-rule="evenodd" clip-rule="evenodd" d="M135.1 575.9c.6-.2 1-.1 1.1-.3a192 192 0 0 0 4.6-5c.6-2.1 1.5-3.9 3.3-5 .4-.4.3-1.6.3-2.4l1.5-5.7-5.5 5c.4.6.9 1 1.3 1.4 0 4-2.6 6.2-4.5 9l-2.1 3Z" fill="#242424"/></g></g><g id="Group_316"><g id="Group_317"><path id="Vector_161" fill-rule="evenodd" clip-rule="evenodd" d="m217.1 568.2.9 1.5 1.3-.5c-1-1.7-2.1-3.3-2-5.2l-1.4-1.7c-.6.1-.7.7-1 1.5-1.2 2.7.8 4.3 1.4 6.3.3 1.2 1 2.3 2 3.4l-1.6-5 .4-.3Z" fill="#242424"/></g></g><g id="Group_318"><g id="Group_319"><path id="Vector_162" fill-rule="evenodd" clip-rule="evenodd" d="m186.3 577 1.3 3.3c2.2-1.9-.6-3.7.4-5.3-.8-.4-1.5-1-2-.8-.7.2-1.4.9-1.6 1.5-.2.7 0 1.6.3 2.3.8 1.7 0 3-.4 4.6-.6 2.5-1 5-1.2 7.5l2.8-12.8.4-.3Z" fill="#242424"/></g></g><g id="Group_320"><g id="Group_321"><path id="Vector_163" fill-rule="evenodd" clip-rule="evenodd" d="M225 571.3c-1-5.4-3.4-9.2-6.7-12.7-1.2 1.3-.2 2.6.3 3.3 1.4 1.8 2.8 3.6 4 5.6.6 1.2 1.4 2.3 2.3 3.8Z" fill="#242424"/></g></g><g id="Group_322"><g id="Group_323"><path id="Vector_164" fill-rule="evenodd" clip-rule="evenodd" d="M232 536.8c-.2 1.7-.5 3-.4 4 0 .6 1.1 1 1.8 1.4l3.6 2.8 1.3 1c-1-3-1.6-3.8-4.3-6.6-.6-.6-1.1-1.4-2-2.6Z" fill="#242424"/></g></g><g id="Group_324"><g id="Group_325"><path id="Vector_165" fill-rule="evenodd" clip-rule="evenodd" d="m139.5 578.2 9.7-9c-2-.6-2-.7-4.2 1.6a127 127 0 0 0-4.9 5.3l-1 1.7.4.4Z" fill="#242424"/></g></g><g id="Group_326"><g id="Group_327"><path id="Vector_166" fill-rule="evenodd" clip-rule="evenodd" d="m236 558.6-4.8-5.2a22 22 0 0 0-3-2.3c-.1-.2-.8 0-.9.1 0 .5 0 1.3.2 1.4 1.4.8 2 2.8 3.8 3 .8.2 1.4 1.3 2.1 1.8l2.5 1.6.1-.4Z" fill="#242424"/></g></g><g id="Group_328"><g id="Group_329"><path id="Vector_167" fill-rule="evenodd" clip-rule="evenodd" d="M146.1 550.2a7 7 0 0 0-1.5 6h1.6c.8-.2 1.7-.4 1.4-1.7 0-.3.2-.6.4-.8.5-.8.7-1.4-.4-2-.6-.1-1-1-1.5-1.5Z" fill="#242424"/></g></g><g id="Group_330"><g id="Group_331"><path id="Vector_168" fill-rule="evenodd" clip-rule="evenodd" d="m197.6 579.4.3-3c1.6-.4 1.7-.6 1-2.3-.2-.6-.2-1.3-.6-2-.2-.4-.7-.7-1.1-1.1-.3.7-1 1.4-1 2 .1 1.6.5 3.3.8 4.9l.2 1.5h.4Z" fill="#242424"/></g></g><g id="Group_332"><g id="Group_333"><path id="Vector_169" fill-rule="evenodd" clip-rule="evenodd" d="m236.8 550.2-3.4-2.2.2-.5 1.5.7c-.7-.8-1-1.4-.5-2.5.1-.2-1-1.1-1.7-2-.7 1.4-1.3 2.3-1.7 3.3-.1.4.1 1.2.4 1.3 1.5.9 3 1.6 4.6 2.3.2 0 .4-.2.6-.4Z" fill="#242424"/></g></g><g id="Group_334"><g id="Group_335"><path id="Vector_170" fill-rule="evenodd" clip-rule="evenodd" d="M156.3 576.5v-2.8c-3 2-4.4 5.3-6.2 8.3l5.1-5.1c.3-.3.8-.3 1.1-.4Z" fill="#242424"/></g></g><g id="Group_336"><g id="Group_337"><path id="Vector_171" fill-rule="evenodd" clip-rule="evenodd" d="M212.4 574.9v-.1c0-2.3.4-4.6-.3-6.8-.1-.4-.7-.6-1-.8-1.3 1.9-1.2 3.5 0 5.4l1.3 2.3Z" fill="#242424"/></g></g><g id="Group_338"><g id="Group_339"><path id="Vector_172" fill-rule="evenodd" clip-rule="evenodd" d="M150.1 574v1.3h.4l3.4-3.3c-2.6-1.8-3.4-1.2-4.8 4l.7-1.9h.3Z" fill="#242424"/></g></g><g id="Group_340"><g id="Group_341"><path id="Vector_173" fill-rule="evenodd" clip-rule="evenodd" d="m142.6 548.7 3-.8.8 1.4c.2.2.9 0 1-.1l.8-2.1-.3-.4c-1-.6-4.6.4-5.3 2Z" fill="#242424"/></g></g><g id="Group_342"><g id="Group_343"><path id="Vector_174" fill-rule="evenodd" clip-rule="evenodd" d="M202.2 568.3c-1.2.3-2 2-1.2 3 .8 1.1.8 2.3 1 3.5.2 1.3.8 1.7 2 1l-1.2-.8-.6-6.7Z" fill="#242424"/></g></g><g id="Group_344"><g id="Group_345"><path id="Vector_175" fill-rule="evenodd" clip-rule="evenodd" d="M166.6 576.7c.2 1.3.6 2.6.6 4 0 1.3-.5 2.6-.8 4l-.4 1.2c1.2-2.8 2.8-5.4 3-8.5l-.5-.2-.8 2-.3-.1c0-.6.1-1 0-1.6 0-.3 0-.7-.2-1l-.6.2Z" fill="#242424"/></g></g><g id="Group_346"><g id="Group_347"><path id="Vector_176" fill-rule="evenodd" clip-rule="evenodd" d="m162.4 577.3-1.1 1.4.2-2.5-3.4 8.3 4.6-7s-.2 0-.3-.2Z" fill="#242424"/></g></g><g id="Group_348"><g id="Group_349"><path id="Vector_177" fill-rule="evenodd" clip-rule="evenodd" d="m146 561.8 2.6-6c-1.5.8-3.1 4.4-2.5 6Z" fill="#242424"/></g></g><g id="Group_350"><g id="Group_351"><path id="Vector_178" fill-rule="evenodd" clip-rule="evenodd" d="M179.1 577c-1.6 2.4-.7 5.3-.7 8l1.3-7.8-.6-.2Z" fill="#242424"/></g></g><g id="Group_352"><g id="Group_353"><path id="Vector_179" fill-rule="evenodd" clip-rule="evenodd" d="M144.1 554c-.7-.1-1-.3-1.2-.2l-4.8.9c-.3 0-.6.4-.9.6.3.1.6.3 1 .3l4.3-.4c.5-.1.9-.6 1.6-1.1Z" fill="#242424"/></g></g><g id="Group_354"><g id="Group_355"><path id="Vector_180" fill-rule="evenodd" clip-rule="evenodd" d="m173.8 578 1 .7.3-.3c-.4-.3-.8-1-1-.8-.6 0-1.2.6-1.4 1-.4 2-.7 3.9-1.2 5.8 0 .3-.3.5-.6.8l.4.2 2.5-7.5Z" fill="#242424"/></g></g><g id="Group_356"><g id="Group_357"><path id="Vector_181" fill-rule="evenodd" clip-rule="evenodd" d="m190.8 575.7-.4-1.4h-.3l.9 8.6h.6l-.8-7.3Z" fill="#242424"/></g></g><g id="Group_358"><g id="Group_359"><path id="Vector_182" fill-rule="evenodd" clip-rule="evenodd" d="M181.6 576c-1.6.8-1.2 2-.9 3.4l1.4.1c1.1-1.4.3-2.4-.5-3.5Z" fill="#242424"/></g></g><g id="Group_360"><g id="Group_361"><path id="Vector_183" fill-rule="evenodd" clip-rule="evenodd" d="m146 565.2-2.2 3 1.3.1c0-1.1 3.5-.9.9-3Z" fill="#242424"/></g></g><g id="Group_362"><g id="Group_363"><path id="Vector_184" fill-rule="evenodd" clip-rule="evenodd" d="m208.3 577.4-.9-5.3c-.4.5-.8.9-.7 1 .4 1.5.2 3.2 1 4.6l.6-.3Z" fill="#242424"/></g></g><g id="Group_364"><g id="Group_365"><path id="Vector_185" fill-rule="evenodd" clip-rule="evenodd" d="M205.8 573c.2-.5.6-1 .6-1.6 0-.3-.6-.6-1.2-1.1l-.1-1.3h-.6l.7 3.8.6.3Z" fill="#242424"/></g></g><g id="Group_366"><g id="Group_367"><path id="Vector_186" fill-rule="evenodd" clip-rule="evenodd" d="m225.2 556.7 2.4 1.8.3-.3-2-3.1-.7 1.6Z" fill="#242424"/></g></g><g id="Group_368"><g id="Group_369"><path id="Vector_187" fill-rule="evenodd" clip-rule="evenodd" d="m156.3 576.5-1.2 2.9c.2 0 .4.2.5.3l1.6-2.8-.3-1-.6.6Z" fill="#242424"/></g></g><g id="Group_370"><g id="Group_371"><path id="Vector_188" fill-rule="evenodd" clip-rule="evenodd" d="m237.6 540.5-2.2-2.7c0 1-.3 1.7 0 2 .5.5 1.2.9 1.9 1.3l.3-.6Z" fill="#242424"/></g></g><g id="Group_372"><g id="Group_373"><path id="Vector_189" fill-rule="evenodd" clip-rule="evenodd" d="m225.4 561.2-2-2.7-.5.4 2 2.7.5-.4Z" fill="#242424"/></g></g><g id="Group_374"><g id="Group_375"><path id="Vector_190" fill-rule="evenodd" clip-rule="evenodd" d="m190.8 575.6 1.6.4-.1-1.8h-.4l-1.1 1.5Z" fill="#242424"/></g></g></g><g id="Group_376"><g id="Group_377"><g id="Group_378"><path id="Vector_191" fill-rule="evenodd" clip-rule="evenodd" d="M464.4 463.7c1.7-1.1 3.1-2.2 4.2-4l1.2-1.1V457c-.6-2.4-1.3-4.8-3.5-6.2a22 22 0 0 0-10.9-3.5c-2.3 0-4.6.5-6.9.7-2.5.1-4.7 1.3-6.8 2.5-2.1 1-3.2 2.9-2.7 5.1.3 1.6 1 3 1.7 4.5 1 2.2 3.3 3 5.3 4s4 1.6 6.2 1.8c4.2.4 8.3 0 12.2-2.2Zm-10.6 1.2c-5.8 0-10.5-2.2-10.5-4.8 0-2.6 4.7-4.8 10.5-4.8s10.6 2.2 10.5 4.8c0 2.6-4.7 4.8-10.5 4.8Z" fill="#242424"/></g></g><g id="Group_379"><g id="Group_380"><path id="Vector_192" fill-rule="evenodd" clip-rule="evenodd" d="m434.8 475.7 2-4c-.6-.3-2 .8-1.8-1 1.2-.1 2.4 0 2.7-1.7 0-.2 1.4-.6 2-.3 1 .4 1.8 2.9 1.4 3.8.8-.2 1.5-.4 2.3-.4.4 0 1 .4 1 .5a9 9 0 0 1-.5 2.6c0 .1-1.2 0-1.4-.2-.9-1-1.7-1-2.7-.1l-1.6-1.8-7.6 8.5-.4-.3 4.6-5.6Z" fill="#242424"/></g></g><g id="Group_381"><g id="Group_382"><path id="Vector_193" fill-rule="evenodd" clip-rule="evenodd" d="m424.3 466.6 1.8-.8c-.6-2.3 1.9-1.2 2.6-2.3-.4-1-.4-1-2-.6-.9.2-1.8.4-2.7.4l.6-.3c2.3-.8 4.6-1.8 7-2.5.6-.2 1.4 0 2 0 0 .8 1 1.8-.5 2.2v1.6l-1.6-.4.6 1-7.7 2-.1-.3Z" fill="#242424"/></g></g><g id="Group_383"><g id="Group_384"><path id="Vector_194" fill-rule="evenodd" clip-rule="evenodd" d="m451.1 486-.6-8.5-2.3-.7 1-3.1c.7.3 1 .6 1.6 1l1.3-1.9.7.3-1.3 12.8h-.4Z" fill="#242424"/></g></g><g id="Group_385"><g id="Group_386"><path id="Vector_195" fill-rule="evenodd" clip-rule="evenodd" d="m477.1 472.3-3.7-2.7c-.8-.5-1.3-1.7-2.5-1 .2 1.5-.5 2-1.7 1.8v1.3h-1c-.7-.9-1.2-1.8-1.7-2.8l.4-.3 1.4 1.5V467l1.5.5c.9-1.6.9-1.6 2.4-.2l5.2 4.7-.3.4Z" fill="#242424"/></g></g><g id="Group_387"><g id="Group_388"><path id="Vector_196" fill-rule="evenodd" clip-rule="evenodd" d="m435.4 465.9-.6 1.2c.5.4 1 .7 1.3 1.1.3.3.5.9.4 1-.3.3-.8.7-1.2.6-1-.1-2.1-.5-3.2-.7l-2.6-.3c-.3 0-.6-.3-.7-.6 0-.2.2-.6.4-.7l4.5-1.4-.7-1.1 2.4.9Z" fill="#242424"/></g></g><g id="Group_389"><g id="Group_390"><path id="Vector_197" fill-rule="evenodd" clip-rule="evenodd" d="M446.3 472.4c1.8 1 1.7 1.1 1 2.7-1.2 2-2 4.3-3 6.5-.2.4-.4.8-.9 1.2 0-3.8 1.7-7 3-10.4Z" fill="#242424"/></g></g><g id="Group_391"><g id="Group_392"><path id="Vector_198" fill-rule="evenodd" clip-rule="evenodd" d="m467.3 484.4-5.2-13.5.3-.3c.5.3 1.2.5 1.4 1l3.5 11.6v1.2Z" fill="#242424"/></g></g><g id="Group_393"><g id="Group_394"><path id="Vector_199" fill-rule="evenodd" clip-rule="evenodd" d="M484 463.9c-3 .4-5.9.3-8.7-.7-2.1-.7-2.1-.7-2.4-2.5 3.5 2.4 7.3 2.6 11 3.2Z" fill="#242424"/></g></g><g id="Group_395"><g id="Group_396"><path id="Vector_200" fill-rule="evenodd" clip-rule="evenodd" d="m472.6 464.3 10.9 10.3-.2.3-5.8-4.8c-1.9-1.6-3.6-3.4-5.5-5.2l.6-.6Z" fill="#242424"/></g></g><g id="Group_397"><g id="Group_398"><path id="Vector_201" fill-rule="evenodd" clip-rule="evenodd" d="m477.4 459 3.7-1.2v.3l-2.5 1.4c-.8.3-1.6.6-2.5.7-1.5.2-1.5 0-1.3-1.6l-.9-.1c-.3-.4-.4-1-.6-1.4.4 0 1-.3 1.2-.1l3 2Z" fill="#242424"/></g></g><g id="Group_399"><g id="Group_400"><path id="Vector_202" fill-rule="evenodd" clip-rule="evenodd" d="m432.5 458-5.1.9-1-.1-2-2.3 8 1v.5Z" fill="#242424"/></g></g><g id="Group_401"><g id="Group_402"><path id="Vector_203" fill-rule="evenodd" clip-rule="evenodd" d="m455.2 474.4 1.9 1.8c.2.3 0 .8.1 1.2-.4 0-.8.2-1.1 0a4 4 0 0 1-1.7-.7c-.2-.2-.3-1-.2-1.3.2-.4.7-.7 1-1Z" fill="#242424"/></g></g><g id="Group_403"><g id="Group_404"><path id="Vector_204" fill-rule="evenodd" clip-rule="evenodd" d="m461.5 473.6 1-.2 1 4.1-.3.9c-.3-.3-.8-.7-.7-.8.5-1.6-1-2.5-1-4Z" fill="#242424"/></g></g><g id="Group_405"><g id="Group_406"><path id="Vector_205" fill-rule="evenodd" clip-rule="evenodd" d="m433 455.1-1.9.4-.2-.4c.2-.4.5-1.1.8-1.2.4 0 1 .4 1.4.6l-.1.6Z" fill="#242424"/></g></g><g id="Group_407"><g id="Group_408"><path id="Vector_206" fill-rule="evenodd" clip-rule="evenodd" d="m443.6 483.2-1.1 3.1h-.5l1-3.2.6.1Z" fill="#242424"/></g></g><g id="Group_409"><g id="Group_410"><path id="Vector_207" fill-rule="evenodd" clip-rule="evenodd" d="M457.5 474.9c1.1-2 1.7-.7 2.3-.4v.5l-2.3-.1Z" fill="#242424"/></g></g></g></g></g><g id="Group_411"><g id="Group_412"><path id="Vector_208" d="M713.8 440.5v-.4a15.1 15.1 0 0 0-7.6-13.1c-5.6-3.3-13.9-2.7-18.3 2.4l-.4.4-1.4.3h-3.5l-.7-.7a14.6 14.6 0 0 0-7.7-4c-1-.3-2-.4-3-.5-4.9-.1-9-3-12.7-5.9a41 41 0 0 1-1.8-1.4l-8-7.5a9.2 9.2 0 0 0-2-2.3l-1.4-1-6.4-6-.6-.5c-1.6-2-3.2-3.8-5-5.6a43.4 43.4 0 0 0-32.5-14.8c-6.6.3-12.3 4.3-14.3 10.3-10.7-.6-21.5-.4-32.2-.7-40.1-1-81-6.4-120.6 1.9a14.5 14.5 0 0 0-14.8-4.1c-16.1 5.4-29.3 15.6-42.7 25.6-6 4.6-12.2 8.9-18.7 12.8-4.1 2.4-7.7 5.6-11.7 8.2l-2-.5-2.5-1.5-.6-.6a16.9 16.9 0 0 0-4.9-3l-.4-1.7v-1.2c0-8.2-6.8-15.1-15.2-15.1-8.2 0-15.2 6.9-15.1 15.1a42.4 42.4 0 0 0 3.8 17c1 1.7 1.6 3.6 3 5a143.8 143.8 0 0 1 8.6 8.7 27.4 27.4 0 0 0 26.4 12c9.3-1.2 17.7-5.8 26.6-8a84.5 84.5 0 0 0 13.8-5c3.6-2.4 7.4-4.5 11.2-6.6l2.3-1.2c4.2-2.3 7.8-4.9 11.4-7.8 5.5-4.3 13-4.9 19-1.7l2.7 1.5c2.6 1.8 5 4.1 7.1 7a61 61 0 0 1 12.7-1.4c3.2 0 6.6.3 9.7 1.3a2 2 0 0 1 2.3-.3c3 1.4 5.8 3.4 6.8 6.4 7.6.6 15 1.2 22.6 0l3.3-.3c3.4-.4 6.7-.6 10-.6a111.8 111.8 0 0 1 15.6 0c3 0 6 0 9.1.2l3.1.2 13-.1 3.1-.1c10.4-1 21.5 0 31.7-3.9 1-.5 2-1 3-1.7 4-2.6 7.4-6 9.4-10.5l1-1.5.4-.7h.1a18.7 18.7 0 0 1 2-2.4 21.4 21.4 0 0 1 5.9-4.3c8.1-3.8 17.9.8 22.8 7.5l2.3 2.4a35.4 35.4 0 0 0 14 9c5.5 5 11 10 18.6 12.2l6.3 3.1c6.2 3 12.6 4.5 18.6-.3.9-.5 1.8-1 2.6-1.7 2.6-2 5-4.5 7-7.6 1-1.3 2.9-1.6 4.6-2.3l3.3-1.2a62.9 62.9 0 0 0 6-2.7l1.4-.8.5-.2v-3.5Zm-144.5-19.8-3 1.8a38 38 0 0 1-5.5 1.4c-10.3 1-20.6-1-30.8-2-5.1-.7-10.5-1.3-15.7-.8-6.9.6-13.7 1.7-20.6 2.6a157 157 0 0 1-16 1.4 118.5 118.5 0 0 1-14.8-3c0-1.4-.2-2.9-.5-4.2 16-1.2 32-.8 47.9 0 19.8.8 39.6 2 59.5 2.1h.2l-.7.7Z" fill="#A86262"/></g><g id="Group_413"><path id="Vector_209" fill-rule="evenodd" clip-rule="evenodd" d="M725.2 378.8a30.4 30.4 0 0 0-7.1-6 26.4 26.4 0 0 0-20.4-1 39.6 39.6 0 0 0-10.1 4.6l-2.1 1.8-1 1c-.9 1-2 2-3.2 2.5a4 4 0 0 1-1.4.3c-1.6 0-2.8-1-3.1-2.3a13 13 0 0 0-2.7-4.8l-3-4.1a57.5 57.5 0 0 0-3.6-5l-8.8-10.2a183 183 0 0 0-17.3-18c-2-1.8-4.2-3.4-6.3-5a259.3 259.3 0 0 1-8.2-6.5l-.6-.5c-6.9-5.2.9-17 2.1-23.4 2-9.6 1.4-19.5.5-29.2-.9-9-3.7-18.4-3.3-27.4v-.4l.8-11.8c.6-7.3 1.1-14.7 1-22v-6.1c.2-8.2.3-17.4-4-23.9a23.8 23.8 0 0 0-9.7-7.7 22.6 22.6 0 0 0-6.7-2l-1.4-.1h-1.9l.5-1.7c.8-2.8 1.3-5.8 1.7-8.7l.2-.9v-.8c.2-1.4.4-3.9 2.5-4.1 1.5-.2 2.8-.4 3.9-.8 3.9-1.3 6.6-5.7 8.2-13.5 1.3-5.9 2.9-14.7 2.5-22.5v-.2c-.1-3.3-1-5.6-2.4-7-.9-1-2-1.5-4-1.9-.4 0-.7 0-1-.2-.7 0-1.3-.2-2-.3l-1-.3v-2.2a146 146 0 0 0 0-5c-.1-8-.2-15.7-2.3-23.3-1.9-7.2-5.6-14.7-10.1-20.6-1.4-1.7-3-3.2-4.7-4.8-1-.8-2-1.7-2.9-2.7l-.1-.2c-1.1-1-2-2-3.3-2.6l-.5-.3c-1.5-.7-3-1.5-4.2-2.8-.7-.7-1-1.5-1.4-2.2-.2-.5-.4-1-.7-1.3l-2.6-3.1-1.6-2c-2.6-3.1-5.3-6.4-8.3-9.2-5.6-5.3-11.9-9.3-19-13.6-5.7-3.4-12.7-5-19.5-6.4l-4.6-1a88.3 88.3 0 0 0-25-2.1c-13.5.3-28.4 5.8-45.5 16.9-5.8 3.8-10.7 10.5-15 16.4l-1 1.5a16 16 0 0 0-2 4.2c-.5 1.5-1 3.1-2 4.6-1.3 1.8-3.2 2.9-5 3.8-1.1.7-2.3 1.3-3.1 2.1l-.2.2a44.9 44.9 0 0 0-7 7.5c-.6.9-1 1.9-1.5 2.9l-.7 1.4c-.5 1-1 2-1.6 2.8a92.8 92.8 0 0 0-6 13.5 54 54 0 0 0-2.2 10.8l-.2 1.4-.7 4.2c-.5 2.6-1 5.2-1 7.7.2 3.6-2 4.8-3.9 5.9l-2 1.2c-5.3 4.4-4.3 13-3.5 19.8l.1 1c.4 3 1.1 5.8 2 8.8a231 231 0 0 1 1 4.3c.8 3 1.5 5.8 3.7 7.7.6.5 2.2 1 3.6 1.3 2.5.7 5.1 1.3 5.7 3.4 1 3.8 2.4 7.8 4.2 12.2l.6 1.4-2.5.6c-6.2 1.7-13.2 3.6-17.1 8.5-4.5 5.8-5.1 14-5.6 21.2-.4 5.7 0 11.5.5 17l.6 8.9a362.6 362.6 0 0 0 1 16.6c.4 3.2.8 6.6.4 9.8-.2 1.5-.2 3-.2 4.5-.1 4.3-2 8.1-2.4 12.5-.4 4.6 0 9.3-1 13.8a53.7 53.7 0 0 0 1.1 23.7c.9 3.6 1.8 7.4 3.7 10.6 1.2 2 2.6 4 3.3 6.3 0 0 1.2 4.1 1.3 4l-.4.7-.5 1c-.4.8-1 2-2 2.6-1.1.8-2.3 1.5-3.4 2.1-2.3 1.4-4.4 2.6-6.3 4.3a185 185 0 0 1-8 6.7c-3.9 3-7.8 6.2-11.3 9.7a194 194 0 0 0-17 19.3l-2 2.6-1.6 2.3c-.3.4-1 1.2-1.8 1.2-.7 0-1.2-.4-1.5-.7l-.5-.4-.5-.4-1.4-1-2-1.6c-2-1.8-4-3.5-6.4-4.2l-4.7-1.4c-2.1-.8-4-1.5-6.2-1.9a41.5 41.5 0 0 0-28.4 7.5c-11.4 8.4-7.6 24.5-3.8 35.6a79 79 0 0 0 19 29.8l1.8 2c2.4 2.4 4.8 5 7.5 6.5 1.6.9 2.8 2 4 3 1.3 1.2 2.5 2.3 4 3 2.9 1.6 6 2.4 9.2 3.3l1.7.4c1.7.5 3.5.8 5.3.8 2.2 0 4.2-.4 6-1.2l1.3-.6c1.3-.6 1.3-.6 2.3-1.4l1.2-1c1.5-1.1 2.5-2.3 3.6-3.7l2-2.5c1.8-1.8 3.2-4 4.5-6 .8-1.1 1.5-2.3 2.4-3.4 3.8-5.4 9.2-8.8 14.4-12l3.7-2.5 6.5-4.2a409.7 409.7 0 0 0 17.2-11.9c2.5-2 5.3-4.4 8.4-4.4h.2c3.1 0 6.3-.2 9.3-.5l3.7-.3 1-.1.3 1 1 3.5c.7 2.5 1.3 5.1 2.2 7.5l.3 1c.4 1.1.8 2.2 1.4 3.2l1.2 1.2c.7.5 1.5 1.2 2 2.2.7 1.2.6 2.5.4 3.7v1.5c0 1.4.6 2.8 1.4 4.3 1.8 3.3 4.2 5.4 7.2 6.5 2.9 1 6.1 1.4 9.2 1.7l1.7.2 3.3.4 10.4 1.2c5.8.6 11.8.6 17.6.7a341.4 341.4 0 0 1 18.2.3c5.7 0 11.2-.2 16.8-.6a108.8 108.8 0 0 1 16 0 310 310 0 0 0 10.2 0c3 0 6-.3 8.8-.6l3.5-.3 1.3-.2c3.4-.3 7-.6 10.2-1.6 6-2 9.9-7.8 9.6-14.3-.1-2 .8-3.7 1.5-5 .6-1 1-2 1.4-3.2l.4-1.3.2-.6c1.3-3.8 2.6-7.5 3.3-11.4a184.3 184.3 0 0 0 1.3-8.1l.3-1.9 1.7 1c2.7 1.7 5.5 3.2 8.6 3.6 4.2.7 6.2 3.3 8.2 6.2l.1.1c3.7 5 8.2 9.6 12.6 14A168 168 0 0 0 649 443a397.3 397.3 0 0 1 9.8 7.4c2.6 2 5.3 3.6 8.2 5.2l2.5 1.6a29 29 0 0 0 15.1 4.9c2 0 3.9-.3 5.8-.8 6-1.7 12.3-5.7 18.6-12a92.5 92.5 0 0 0 23-43.5 29.9 29.9 0 0 0 .5-13.5c-1-4.4-3.6-8-5.8-11.8l-1.5-1.7Z" fill="#fff"/></g><g id="Group_414"><path id="Vector_210" d="M600.6 340.8c-5.8-2.5-13-3.2-19.7-3.5-10.2-.5-20.4.7-30.5-.1-7-.6-14-1.4-21.1-1.7a54 54 0 0 0-21.8 2.7c-.8 0-1.5-.2-2.3-.1-2.6 0-5 .1-7.6.3-10.3.1-20.6-.8-31-.3-11.4.5-22.7 2-34.2 2a14 14 0 0 0-4 .6 15 15 0 0 0-7.2 1c-3 1.4-5.7 4.5-5 7.3l2.2 8.6c.5 4.4.7 9 1.4 13.4a57.3 57.3 0 0 0 1.6 6.5 7.7 7.7 0 0 0 2.4 3c.1 2.4.4 4.9 1.5 7.1.2.6.6 1.1 1 1.6a78.7 78.7 0 0 0 2.6 9.2c2 8.9 1.5 18.2 7.4 26.4 1.7 2.4 4.1 4.5 7 6.1a7 7 0 0 0-1 2.3v.2c-.1.5-.2 1-.1 1.4 0 1.4.5 2.6 1.3 3.8a9.3 9.3 0 0 0 6.7 4.3h.1l1 .2c.6 0 1.1.2 1.7.4l5.4 1.9c2.8 1 5.7 1.3 8.7 1.6 5.2.5 10.3-.4 15.3-1.1 1.4.6 3 1 4.8 1l8.2-.5c2.6 1 5.7 1 8.6.2a122.7 122.7 0 0 0 38.7-.3h11.6a81 81 0 0 0 17.6-1.8c3.2-.8 6.3-2 8.8-3.9 3.8-2.8 4.9-6.6 4.3-10.5a20.3 20.3 0 0 0 7.9-15.5c1.7-2.4 2.4-5 2.6-7.9.1-1.1-.1-2.3-.7-3.3l1.6-4.2a69.2 69.2 0 0 0 3.8-16.3l.4-1.7c.6-2.6 1.2-5.2 1.4-7.8.4-.8.7-1.6.9-2.6l.1-.6c1-3.6 2.1-7.1 3-10.7 1-.9 2-2 2.4-3.1 2.7-6.3-.4-12.5-7.8-15.6Z" fill="#80918E"/></g><g id="Group_415"><path id="Vector_211" fill-rule="evenodd" clip-rule="evenodd" d="M605.2 125.9c0-3-.5-6-.8-9-.1-1.8 0-3.5-.2-5.3-.5-3.6-1-7.2-1.7-10.8a43 43 0 0 0-3-10.8c-1-2.2-1.6-4.8-2.5-7.1-.5-1.1-1.4-2.1-2-3.2l-1-2.8a18.2 18.2 0 0 0-5.4-7.8l-.1-.1c-1.3-2.9-3.7-5.1-6-7-1.5-1.2-3-2.8-4.8-3.6-3-1.3-6.2-2.3-9.3-3.5-1-.3-2.1-.8-3.2-1-.8-.2-1.7 0-2.5-.2l-2.5-.5c-1.3-.4-2.6-.8-3.9-1-4.8-1-9.7-1.8-14.5-2.6-3.8-.7-7.3-1.2-11.1-1.2-4 0-7.9-.8-11.7-.9-3.3 0-6.9-.6-10.2-.2a29 29 0 0 1-5.5-.1c-1.4-.2-2.9.5-4.2.2-2.4-.6-4.6 0-7 .2L479 49.1c-3.3.4-6.6 1.1-9.8 1.8-36.5 7.8-52 34.9-54.7 71-.1 2-.6 3.8-.6 5.8 0 2.8 0 5.7.3 8.5 2.2 26 12.7 45.1 30 64.4 27.4 30.7 73.7 28.4 99 21.9a83 83 0 0 0 53.4-47c3.9-9.4 5.8-19.6 7.3-29.6 1-6.6 1.7-13.4 1.4-20Z" fill="#242424"/></g><g id="Group_416"><path id="Vector_212" fill-rule="evenodd" clip-rule="evenodd" d="M607.4 129v-.1Zm0 .2Zm-.1.5Zm0 .1v.1Zm0 .3v-.2.2Zm0 .3Zm-161.7-95-.1.1.1-.1Zm172.9 102.1Zm6-19v-.2c-.1-2.8-.7-5.9-2.8-7.9a9.1 9.1 0 0 0-4.6-2.1l-3-.6v-4c0-8.8 0-17.3-2.3-25.8-2-7.4-5.8-15-10.4-21-2.2-3-5.1-5.1-7.6-7.7-1.2-1.2-2.3-2.3-3.8-3.1-1.5-.8-3.2-1.5-4.4-2.8-1-1-1.1-2.4-2-3.4l-3.9-4.7c-2.7-3.4-5.5-6.7-8.7-9.8-5.7-5.5-12.4-9.6-19.2-13.7-7.3-4.4-16.3-5.7-24.5-7.6-8.4-2-16.8-2.3-25.3-2.1-16.4.4-32.6 8.3-46.2 17-6.6 4.3-11.8 12-16.4 18.3-2 2.7-2.2 6.1-4 8.8-1.9 2.8-5.5 3.6-8 5.8-2.6 2.4-5.3 4.9-7.3 7.9-1 1.4-1.5 3-2.3 4.5-.9 1.8-2.2 3.4-3.1 5.2a94.8 94.8 0 0 0-4.6 11.2c-1.4 4.1-1.8 8.2-2.4 12.4-.5 4-1.7 8.1-1.6 12 0 4-3 4.2-5.5 6.2-6.2 5-4.7 15-3.9 21.9.5 4 1.7 7.7 2.7 11.7 1 3.5 1.4 7.4 4.4 10 2.1 1.7 8.3 1.7 9 4 1 4.2 2.6 8.4 4.2 12.4l1.2 2.8a133 133 0 0 0 23 37.5c5.8 6 13 10 20.4 13.7 7.5 3.7 15 7.5 23 9.4 16.2 3.7 32.5 4.8 48.9 1.3a139.3 139.3 0 0 0 37.4-16.5c5.4-3.4 9.6-7.5 14-12.2l.5-.6 1.1-1.2a56 56 0 0 0 10.7-14.6c2.5-5.8 5.3-11.6 7.3-17.6l.8-2.3.2-.7c.9-3.2 1.4-6.5 1.9-9.8.2-1.2 0-3.7 1.3-3.8 1.4-.1 2.8-.4 4.2-.8 5.7-2 8-9.1 9-14.5a95.6 95.6 0 0 0 2.6-22.9ZM442 41c.7-1.5 1.8-3 2.8-4.4l.1-.1.2-.3a84.6 84.6 0 0 1 .5-.7l.1-.1.1-.1c4.6-6.2 11.4-11 17.7-15.3a104.3 104.3 0 0 1 33.8-14.2c4.4-.6 9-.4 13.4-.2 4 .2 8.2.6 12.2 1.1 4.4.6 8.5 1.9 12.7 3a73.1 73.1 0 0 1 40.8 26.6c1.6 2 5.1 6.2.2 4.3-4.1-1.5-8.4-2.5-12.6-3.5-8.4-2-17-3.3-25.5-4.6a217 217 0 0 0-74.8 5.5c-4.2 1-8.4 2.1-12.5 3.3-2 .6-4 1-5.8 1.9-3.2 1.4-5.3 1.8-3.4-2.2Zm-39.4 104.6v-.4l-.1-.3v-.4h-.1c-1.3-6-2.7-11.8-2.7-17.8 0-2.5-.6-6.6.8-8.8 1.6-2.4 4.1-4.2 6.2-6.1 1.1 14 2.8 27.8 4.5 41.7-4.8-.4-7.5-3.3-8.6-8Zm204.9-16.7v.6l-.1.1V130.5h-.1v.4c-.5 3.5 0 7-.6 10.5-.7 4.2-1 8.4-1.5 12.7-.3 1.8-.4 3.8-1.2 5.5-.6 1.3-.6 2.4-1 4-1 4.4-2.5 8.8-4 13a80.4 80.4 0 0 1-28.7 39c-6.9 4.8-14.2 8.9-22 11.9-4 1.4-8 2.8-12 4-4 1.3-8.3 1.4-12.5 1.9a97.3 97.3 0 0 1-48.6-5.4c-7.4-3.5-15-7.2-22-11.7-6.3-4.2-10.9-10.4-15.7-16.2-2.4-2.8-3.9-5.8-5.8-8.8a100.3 100.3 0 0 1-16-34.4c-2-8.3-3.4-17-4.1-25.6-.4-4.2-.5-8.4-.8-12.6-.2-4.3-.8-8.7-.7-13a93 93 0 0 1 4-25.2 53.4 53.4 0 0 1 21.8-29.2c10.4-6 22.6-7.7 34.2-10 8.4-1.5 16.6-3.6 25-5a145 145 0 0 1 25.8-1.7c8.7.2 17.2 1.3 25.7 2.6s16.4 3 24.5 5.6c3.8 1.3 7.7 2.5 11.4 4.1 3.9 1.7 7.5 4.2 11 6.5A35.7 35.7 0 0 1 605.7 70c1.7 4.4 2.4 9.1 3 13.8.7 5.1 1.7 10.4 1.7 15.5.1 10-1.6 19.8-2.9 29.6Zm13-7.2c0 5.2-.9 10.3-1.8 15.3V137.3l-.1.1v.3c-.8 3.9-1 8.2-3.5 11.5-.9 1.2-5.3 5.7-6 2.3-.5-2 .1-4.1.5-6l2.5-12.6c.8-4.4.6-8.8.6-13.2 0-2.8.6-8 4.5-7.3 4.1.7 3.4 6.4 3.4 9.3Zm-2 15.8Z" fill="#242424"/></g><g id="Group_417"><path id="Vector_213" fill-rule="evenodd" clip-rule="evenodd" d="M597.5 410c0-1.5.6-3 .8-4.5 0-.2 0-.3.2-.3l2.3-9.8c1.4-7 3.2-14 4.8-21l.1-.6.7-4.2a40.3 40.3 0 0 0 1.2-6.2c.2-2.4 2-6.8 2.4-8 1-3.4 1.4-6.8.5-10.1-1.5-5.3-8.3-7.3-14.8-8.5-3-.1-6-.5-9.1-.5h-2c-4.8-.5-9.8-.7-14.7-.8l-14 .1c-4.8.1-9.6-.2-14.4 0-18 .5-36.1.7-54.2 1.2-8.8.2-17.7 0-26.4.6-6.1.3-12.4.7-18.5.7-2.4 0-5.1.7-7.4.6h-4.4c-.7.4-1.6.2-2.5.2-1.4 0-2.8.3-4.1.7a19 19 0 0 0-5.9 3.4c-4 3.2-2.3 8.5-1.8 12.6.7 5.2 1 10.3 2.4 15.4h-.2c.2 1.6.6 3.3.7 5l.1.6c.7 3.3 2.1 6.6 3 10 1.8 5.6 3 11.4 5.2 17a32.7 32.7 0 0 1 2.3 9.3v.4c0 1.6 1 3.2 1.4 4.8 1 2.5 2 5 3.3 7.6.5 1.1 1 2.4 2 3.4.9 1.1 2.5 1.6 3.3 2.7.8 1.1.2 2.5.4 3.8.2 1.3.9 2.6 1.8 3.8 2 2.6 4.5 4.6 8 5.6 3.6 1 7.5 1.3 11.2 1.6l13.6 1.3c8.8.7 17.7.4 26.6.7 8.6.2 17 .1 25.5-.4 8.7-.5 17.1.2 25.8 0 4 0 8.1-.4 12.2-.7 3.9-.3 8-.5 11.7-1.5 6.7-1.7 11.2-6.8 11.2-12.4 0-1.2.8-2.3 1.7-3.4.9-1.2 1.4-2.5 2-3.8 1.7-3.2 3.4-6.3 4.4-9.7l1.5-5.6v-1Zm-13.8 26-2.3 4 .3-.5c-1.6 4.4-11.9 4.4-16.1 5-5.2.9-10.5 0-15.7.3l-17.5.5c-8.6.3-17.2 1-25.8 1-8.9 0-17.6-1-26.5-1.2-1.8 0-3.5-.4-5.4-.4-2 0-4 0-6-.2-4.5-.2-9.1-.3-13.5-1-3.3-.6-7.9-1.6-9.6-4.2-1-1.3-1.6-2.7-2.3-4.1-1-2 3.5-.2 4.7.1 4 1 8 1.2 12 1.5l14 .9a745.6 745.6 0 0 0 50.3 1.2c8 0 16 .2 24-.1 5.4-.3 10.8-.4 16.3-.6 1.3 0 19.7-1.3 19.2-3 .1.2 0 .5-.1.7Zm15-49v.2l-.1.1v.4c-.8 3-1 6-1.8 8.9-1 3.5-2 7-2.6 10.6-1.2 6.7-3.9 13.5-7 19.9-1.3 2.6-5.2 4.3-8 5.5-3.4 1.5-7.1 2.5-10.9 3-8.4 1.1-16.8.8-25.2.8-17.5 0-35 .2-52.6-.4-8.7-.3-17.6-.4-26.3-1.4l-12.4-1.5a21 21 0 0 1-10-3c-6-4.3-7.2-11.6-8.7-17.3-1.7-7-3.9-13.8-6.1-20.7-2.3-6.7-4.5-13.5-5.5-20.3-.5-3.4-.8-6.8-1.4-10.2-.6-3.4-1.8-6.8-2-10.2a8 8 0 0 1 2.7-7c2.9-2.5 7.4-2.7 11.6-3 9.2-.8 18.7-1.3 28-1.8 4.3-.2 8.7.1 13 .1 4.6 0 9.3-.3 13.9-.5 9.1-.5 18.3-.5 27.5-.7 13.5-.4 27-.3 40.4-.5 6.7 0 13.5 0 20.2.3l10.3.6c6.7.5 17 1.2 20.5 6 2.5 3.5 1 7.8 0 11.5l-3.4 15.1c-1.2 5.1-2.8 10.2-4 15.2l-.1.3Z" fill="#242424"/></g><g id="Group_418"><path id="Vector_214" fill-rule="evenodd" clip-rule="evenodd" d="M729 375.6a34.8 34.8 0 0 0-10.2-7.8c-3.9-2-8-2.8-12.5-1.2l-2.2.6c-3 .8-5.8 1.9-8.6 2.8a34.1 34.1 0 0 0-10.9 7.2c-1.1 1-2.3 2.7-3.8 3.3-1 .4-2.4.1-2.7-1.1a14 14 0 0 0-3-5.3c-2.3-3-4.2-6.2-6.6-9.1l-8.8-10.2a182.2 182.2 0 0 0-17.5-18.3c-3-2.6-6.4-5-9.5-7.4l-5-4c-1-1-3.7-2.5-3-4.3.6-1.8 2.6-3.5 3.7-4.9a78 78 0 0 0 3.5-4.6 28 28 0 0 0 4.8-10.8 39 39 0 0 0-.1-12.6c-.6-4.3-1-8.7-2-13-1.4-5-3.2-9.9-4.9-14.8-.8-2.4-1.7-4.8-2.3-7.2-.7-2.6-.6-5-.4-7.7.5-11.2 2-22.6 1.7-33.8-.2-9.7 1.5-22.2-4.2-30.7a25 25 0 0 0-10.3-8.2c-2.1-1-4.3-1.6-6.6-2-.5 0-1.4-.3-2.1-.2-.3 0-.5 0-.7.2-.8.9-1.6 1.8-2.1 2.9h1.8c5.5 0 12.2 3.2 15.7 7 4.4 4.8 5.5 12.6 5.7 18.8.3 7.5.2 15-.6 22.4-.7 7.4-.7 14.6-2.6 21.7-4.8-8.2-9.7-16.6-15.7-23.9-3.2-3.8-7.1-6.6-11.3-9.2-2-1.3-4.2-2.5-6.5-3.5l-2.7-1.2a5 5 0 0 1-.3-.2c-1.2-.7-1.4.7-2.1 1.6l.7.4c5.3 3.3 10.6 6.5 15.6 10.3 5.2 4 9.1 9.9 12.3 15.6 3.5 6.2 7.4 12.2 10.5 18.6 2.9 6.1 5.2 13.1 6.9 19.7a98.5 98.5 0 0 1 3.7 20.4c.2 6.6-2.2 13.1-5.9 18.6-4 5.7-9.2 10.5-13.4 16l-6 8.4c-1.5 2.2-3.4 4.5-4.8 6.8l1.7 1 1 .8 2.7-4.1 7.5-10.1c.9-1.2 2.1-2.3 3.7-2.5 2-.2 3.3 1.3 5 2.1a95 95 0 0 1 19.8 15 102 102 0 0 1 16 18.1c2.2 3.2 5.2 5.8 7.5 9 2.4 3.3 4.2 7 5.8 10.8.6 1.4 2.3 3.6 1.3 4.7l-3 4.3a55.6 55.6 0 0 0-6 11.2c-1 2.1-1.4 2.6-.2 4.5 4.7-7.4 9.5-14.5 15-21.3 2.4-2.9 5.6-5 8.7-6.9 2.6-1.6 5-3.2 7.7-4.4l2.8-1a62.2 62.2 0 0 1 6.8-1.6c3.2-.5 6.4 0 9.3 1.3l2.8 1.5a22.6 22.6 0 0 1 11.3 18.4v-.3c-1 3.6.3 7.1-1 10.5a97.8 97.8 0 0 1-3.8 15 77.1 77.1 0 0 1-12.6 20.7c-2.2 2.9-3.9 6.2-6.5 8.8-2.8 2.7-5.6 5.6-8.9 7.7a25.8 25.8 0 0 1-31-2.2c-3-2.7-6.7-4.7-10-7.2-2.8-2.3-6-4.3-9-6.4-3.3-2.4-6-5.2-9.2-7.7-3-2.4-6.2-4.5-8.9-7.3-3-3-5.8-6.4-8.6-9.6a49.1 49.1 0 0 1-3.8-5l-1.7-2.6c-.5-.7-1-1-1.7-1.6-.8-.7-1.4-1.5-2.3-2.2-1-.8-1.9-1.5-3.1-2-1.1-.4-2-1-3-1.7l-1.4-.4c-1.4-.6-2.5-1-3.7-2-1-.7-2-1.3-3.1-1.8-.1 2-.5 3.9-.4 5.9 2.4 1.4 5 2.7 7.9 3.1 3.7.6 5.4 3 7.5 5.8 4.7 6.5 10.8 12 16.4 17.8 6 6 12.5 11.2 19.2 16.2l9.8 7.5c3.5 2.6 7.2 4.6 10.8 6.8 6.8 4 14 6.4 21.9 4.2 7.4-2 13.9-7 19.2-12.4a96.4 96.4 0 0 0 24-48.1 45.3 45.3 0 0 0 .4-12.7c-.5-4.3-2.1-7.9-3.6-11.9l-1.7-1.8Z" fill="#242424"/></g><g id="Group_419"><path id="Vector_215" fill-rule="evenodd" clip-rule="evenodd" d="M428.9 405c-.3 0-.6.3-.8.4h-1.3l-2.7.1-3.5.5c-1.2 0-2.6 0-3.8.4-1 .4-2.2.5-3.3 1-1 .6-1.8 1.5-2.8 2.2-6.8 5.1-14.2 9.7-21.4 14.2-3.4 2.2-7 4-10.5 6-3.4 2-6 4.9-8.9 7.5a87.3 87.3 0 0 0-11.8 13.8c-.8 1.2-1.4 2.7-2.4 3.7a17 17 0 0 1-4 3 17 17 0 0 1-13.6 1.6c-2.6-.7-5.2-.9-7.7-2.2a52.3 52.3 0 0 1-9.5-7.1c-2.8-2.5-5.9-4.6-8.5-7.3a82 82 0 0 1-7.4-9.4c-2.3-3.2-4.3-6.6-6.6-10-2.3-3.4-3.5-7.4-4.7-11.3a101.5 101.5 0 0 1-3.8-17.1c-.5-13.3 13.2-22.7 25.7-21.5l2.8.1c6.8.5 13.3 1.7 19.4 5 4.2 2.4 7.8 5.5 11 9a54 54 0 0 1 4.6 5.8c1.3 2 1.8 3.2 3.9 4.2-.1-3.4-2.4-6.2-4-9.2-1.8-3.4-.8-6.6 1.1-9.7a96.2 96.2 0 0 1 14-17.1 199 199 0 0 1 17.2-15.2c2.9-2.3 5.8-4.4 8.8-6.5 2.5-1.9 5.8-4.4 9-4.6 1.3 0 2 1 2.7 2a665 665 0 0 0 10.6 12c.1-1.2.4-2.3.7-3.3l-1.9-2.4-7.7-8.9c-2-2.5-3.6-5.2-5.8-7.6-2.3-2.4-3.5-5.3-5.4-8a10 10 0 0 1-1.8-3.5c-.4-1.7-1.6-3-2.3-4.5a30 30 0 0 1-2.5-11c-.4-8.2 2-15.7 4.4-23.3 2.4-7.4 4.3-15 7-22.3 2.6-7 6.4-13.5 9.7-20.2 3-6 6.7-12 11.3-16.9 4.5-4.8 10.3-6.5 15.9-9.3 1-.5 2-1 3-1.7l-2.1-2.3-3 1.5-.4.3c-2.5 1.3-5.2 2-7.6 3.4-5 2.8-8.8 7-12.3 11.5-3.6 4.4-6 9.5-8.8 14.5-3 5.4-6 10.8-8.6 16.4-.6-1.4-.4-3.2-.5-4.7l-.4-6.1c-.4-4.2-.9-8.4-1.1-12.7-.5-8.5-.7-17.1-.8-25.7 0-7.3.8-15 5.6-21 1.9-2.2 4.3-4 7.1-4.8 1.7-.4 3.4-.5 5-1l4.8-1.6 1.1-.3-.7-3-1.6.5c-6.7 1.8-14.5 3.6-18.8 9.2-4.8 6.1-5.4 14.5-5.9 22-.6 8.6.7 17.2 1 25.9l.7 12.8c.3 4.4 1.3 9.1.8 13.4-.5 4 0 7.8-1 11.7-1 4.3-2.4 8.2-4 12.3-1.4 4-1.7 8-2.2 12-.5 4.2-1.7 9.1-1 13.3.6 3.7 2.9 7.6 4.4 11a75 75 0 0 0 6 10.9l3.3 4.4c-.6 1-1 2.5-2 3.2-3.3 2.2-6.9 3.9-9.8 6.5-6.4 5.7-13.4 10.4-19.4 16.5-6 6.1-12 12.5-17 19.4l-3.7 4.9c-1 1.2-1 .6-2-.1l-1.9-1.4c-2.8-2.3-5.3-5-8.9-6-3.7-1-7.2-2.6-11-3.4a62.3 62.3 0 0 0-6.2-1 75.6 75.6 0 0 0-7.8 1.1 30 30 0 0 0-23.2 18.8 19.4 19.4 0 0 0-.3 10l.6 3c.7 4.3 1.8 8.6 3.2 12.9a81.2 81.2 0 0 0 19.4 30.3c2.9 3 6 6.6 9.6 8.7 3 1.7 4.8 4.5 8 6 3.5 2 7.2 2.8 11.1 3.9 4 1 8.5 1.2 12.2-.6 3.4-1.5 2.2-.8 5.1-3 2.5-2 3.7-4 5.8-6.4 2.7-3 4.6-6.4 7-9.6 4.5-6.3 11.3-9.8 17.8-14.1 7.2-4.9 14.6-9.5 21.7-14.6 2.7-2 6.1-5.7 9.6-5.7 4 0 8-.4 12-.7l-.7-3c-.1-.8 0-1-.6-.9Z" fill="#242424"/></g><g id="hand-l"><path id="Vector_216" fill-rule="evenodd" clip-rule="evenodd" d="m580.7 296.2-7.5 17c-3.3 7.6-7 15-11 22.4 1.5 0 2.9.4 4.2 1 4.6-9.3 7.7-19.2 11.6-28.9 1-2.6 2.4-5.2 3.1-8 .3-1 1.3-7.3-.4-3.5Z" fill="#242424"/></g><g id="hand-r"><path id="Vector_217" fill-rule="evenodd" clip-rule="evenodd" d="m457 338.2 2-.4h2.6l-.3-.6a348 348 0 0 1-14.3-26l-6.2-13.3c-1.4-3-.8 1.8-.6 2.7.6 2 1.7 4.1 2.6 6.2 3.5 8 6.1 16.4 10.6 24.2 1.3 2.3 2.4 4.8 3.6 7.2Z" fill="#242424"/></g><g id="Group_420"><path id="Vector_218" fill-rule="evenodd" clip-rule="evenodd" d="M595.3 371.3Z" fill="#242424"/></g><g id="Group_421"><path id="Vector_219" fill-rule="evenodd" clip-rule="evenodd" d="M595.3 371.4v-.1.2-.1Z" fill="#242424"/></g><g id="Group_422"><path id="Vector_220" fill-rule="evenodd" clip-rule="evenodd" d="M566 279.6c0-2.2-.6-4.1-3-5.4-2.5-1.3-4.6-.3-6.8 0-5 .6-10 1.6-15 2.2-4.4.5-8.8.7-13.1 1.1-2.8.3-5.6.8-8.5.8-4.9.2-9.8.1-14.8 0-2.5 0-5-.4-7.6-.7a315.3 315.3 0 0 1-21.9-3.7c-.7-.1-1.3-.8-2-.9-2.1-.3-4.3-.3-6.4-.6-2-.2-6 2-6.4 4-.4 2.3-.6 4.7-1 7.8.6 3.1 1.5 7 2 10.7.5 4 1.9 7.4 4.8 10.1.5.4 1 1 1.6 1l13.5 3c2.3.4 4.6.8 6.9 1l20.4.8h6.9l12.6-.3c3.2-.1 6.4-.1 9.5-.3 3.2-.1 6.5-.2 9.7-.6 2.3-.2 5-.3 7-1.5 4.2-2.6 8.4-5.6 8.9-11.5 0-.6 0-1.3.2-2 1.8-4.8 2.6-9.9 2.5-15Zm-3.5 4.8c-.5 4-1.3 8.2-2.8 12-1.3 3.3-3.4 6.8-6.9 8.2-3 1.2-6.3 1.4-9.5 1.7-4.3.5-8.7.7-13.1 1h-23.6c-5.7-.1-11.4-.5-17.2-.8-4-.3-8 0-12-1-4.8-1-10-2.2-12-7.9a63.3 63.3 0 0 1-2.5-17.3c0-1.2.4-2.4.8-3.4.7-1.7 2.7-2.1 5.2-1.4 3.9 1.1 7.8 2.5 11.8 3.2 7.7 1.2 15.5 2.1 23.3 3.2 2 .2 3.9.7 5.8.7 3 0 6-.5 9-.8l15.9-1.5 15.2-1.5c4-.5 7.8-1.2 11.9-1.8 1.8 2.2 1 5 .7 7.4Z" fill="#242424"/></g><g id="Group_423"><path id="Vector_221" fill-rule="evenodd" clip-rule="evenodd" d="M510.5 253.3c2.2.3 1.8 2.2 2 3.4.5 1.8.3 3.7.4 5.5v1c1.3 4 1.1 8.3.7 12.6-1.6-.8-2.1-1.7-2-3.4 0-3.4-.6-6.8-.7-10.2v-5.7c0-1-.3-2-.4-3.2Z" fill="#242424"/></g><g id="Group_424"><path id="Vector_222" fill-rule="evenodd" clip-rule="evenodd" d="M510.3 310.9c2.2.3 1.8 2.2 2 3.4.4 1.8.1 3.7.1 5.5v1c1.2 4.1 1 8.3.3 12.6-1.5-.8-2-1.8-2-3.5.2-3.3-.2-6.7-.3-10.1l.2-5.8-.3-3.1Z" fill="#242424"/></g><g id="Group_425"><g id="Group_426"><g id="Group_427"><path id="Vector_223" d="M846.6 502.7c-4.6-2.4-10.8 1.1-15 2.8-2.4.8-4.7 1.7-7 1-2.5-.8-3.5-2.5-3.3-5 .2-5.2 3.4-9.9 3-15.2-.4-6-6.9-8-12-8.4-6.3-.6-12.9.4-19 2-9.9 2.6-19.5 5.7-29.1 9.2-9.3 3.4-18.5 7.2-28 10-8.2 2.6-16.9 4-25.5 3-8-.9-16.8-4.3-21.7-11-1.8-2.3-3.2-4.9-5.1-7.1a15 15 0 0 0-8.3-4.6c-9.2-2-19-.5-28.3.6a229.4 229.4 0 0 0-56.5 13.8c-5 2-10.1 4-15.3 5.7-10.1 3.1-25.4 6.6-32.7-3.7a12.5 12.5 0 0 1-1.6-12.4v-.3c.8-4 3-7.4 5.7-10.3 2.2-3 5-5.3 7.7-7.9 2.7-2.4 5.3-5 7.2-8l-1 .7c-2 2.5-4.3 4.7-6.5 6.8-3.7 3.6-7.5 7-10.8 11a22.3 22.3 0 0 0-5.6 12c-.5 5 2.5 10.1 6.3 13.2a23 23 0 0 0 15.5 4.3c12.1-.5 23.1-5.8 34.2-9.9a233.8 233.8 0 0 1 57.6-13.2c4.7-.5 9.5-1 14.3-1 4.3 0 9.1.1 13 2.1 2.8 1.4 4.5 3.9 6.1 6.4 1.8 2.7 3.7 5.3 6.2 7.4 13.4 11 32.8 8.9 48.2 4 9.6-3.2 19-7 28.4-10.5a253.5 253.5 0 0 1 35.5-10 46 46 0 0 1 10.7-.2c2.8.4 6.3 1.1 8.1 3.6.6.8 1 1.6 1.1 2.4.5.5.8 1.1.8 2-.2 3.5-3 5.8-3.8 9-.1.6-.4 1.1-.7 1.5-.7 2.7-.8 5.5.7 7.7 3.2 4.3 8.7 2.7 12.9 1.1 1.8-1 3.5-2.1 5.4-3l2.7-1c2.1-.9 4.5-1.2 6.6.1l.2.2a6 6 0 0 0-1.3-1Z" fill="#A86262"/></g></g></g><g id="Group_428"><g id="Group_429"><path id="Vector_224" fill-rule="evenodd" clip-rule="evenodd" d="M566.1 63c-10.4-4.6-22.1-4.8-33.2-6.3-27.1-3.6-57.8-3.6-81.8 11.7a63.2 63.2 0 0 0-15.2 14.9c-3.8 5.5-6 11.4-2.7 15.7 6.8 9 26.4-4.1 33.4-7.3a67.8 67.8 0 0 1 47-5.8c16 3.8 32.3 8.3 48.2 10.7 7.1 1.1 16.4.2 19-7.4 3.8-11.4-5-21.8-14.7-26.2Z" fill="#fff"/></g><g id="Group_430"><path id="Vector_225" fill-rule="evenodd" clip-rule="evenodd" d="M433.1 147.5a9 9 0 0 0-4.2-3.9c-3.1 3.2-4.3 6.3-2.6 10.3 1 2.6 2.5 5.4 5.7 4.3 3.3-1 3-7 1.6-9.7a11 11 0 0 0-.5-1Z" fill="#fff"/></g><g id="Group_431"><path id="Vector_226" fill-rule="evenodd" clip-rule="evenodd" d="M596.6 106c-1-4.5-1.3-12.2-5.3-15.1-6-4.3-7.5 4.5-8.6 8.7-.8 3-1.5 6.2-.7 9.2.9 3.6 4 5.6 5.7 8.7 1.5 2.8 4 21.4 9.1 10.3a18 18 0 0 0 1.4-5.2c.7-5.5-.6-11.5-1.6-16.5Z" fill="#fff"/></g><g id="Group_432"><path id="Vector_227" fill-rule="evenodd" clip-rule="evenodd" d="M429.3 105.9c-5.7 1.6-6.7 9-7 14-.2 3.2-1.6 15.2 1.5 17 1.5.9 4 .4 4.9-1.3 1.2-2.7 2.8-5.3 4-8l.2-.1c2.9-3.5 6.1-8.6 5.4-13.3-.6-3.5-4.7-9.6-9-8.3Z" fill="#fff"/></g></g><g id="Group_433"><path id="Vector_228" d="M426.3 355.1c7.1 24 13.7 48.3 20.2 72.5.2.7 1.3.4 1.1-.3-6.5-24.2-13-48.4-20.2-72.5-.2-.7-1.3-.4-1 .3Z" fill="#242424"/></g><g id="Group_434"><path id="Vector_229" d="M581.2 426.1c3.3-24.4 10.4-48.1 15-72.3.1-.7-1-1-1.1-.3-4.6 24.3-11.8 48-15 72.6-.1.7 1 .7 1.1 0Z" fill="#242424"/></g><g id="Group_435"><path id="Vector_230" d="M430.8 352.3c10 1.3 20.3.8 30.4.6 10.2-.3 20.4 0 30.6 0h15.9c5.2 0 10.4-.3 15.6-.4 10.5-.3 21-.3 31.5-.3 12.5-.1 25-.3 37.6-1.2.7 0 .7-1.2 0-1.2-21 1.5-41.9 1.1-62.9 1.4-10.4.1-21 .6-31.4.6l-30.8-.2c-12.2 0-24.4 1.1-36.5-.5-.8 0-.7 1 0 1.2Z" fill="#242424"/></g><g id="Group_436"><path id="Vector_231" d="M595.4 352.1c2.8-2.8 6-5.3 9.1-7.8.6-.5-.2-1.3-.8-.8-3.1 2.5-6.3 5-9.1 7.8-.5.5.3 1.3.8.8Z" fill="#242424"/></g><g id="Group_437"><path id="Vector_232" d="M427.2 351.9c-2-1.4-3.4-3.3-5.3-4.6-.6-.4-1.1.6-.5 1 1.9 1.3 3.3 3.2 5.2 4.6.6.4 1.1-.6.6-1Z" fill="#242424"/></g><g id="Group_438"><path id="Vector_233" d="M447 428.6c19 3.9 38.6 2.2 57.8 2 21.2-.2 42.4 1 63.6 0 3.7-.1 7.3-.4 11-.7.7 0 .7-1.2 0-1.1-21.3 1.7-42.7.9-64 .7-19.8-.2-39.7 1.6-59.4-.6-3-.3-5.9-.8-8.8-1.4-.7-.1-1 1-.3 1.1Z" fill="#242424"/></g><g id="Group_439"><path id="Vector_234" d="M580.3 428.5a7 7 0 0 1 1.7 4.8c0 .7 1.2.7 1.2 0 0-2.1-.7-4.1-2.1-5.6-.5-.6-1.3.2-.8.8Z" fill="#242424"/></g><g id="Group_440"><path id="Vector_235" d="M446.8 427.6c-1.4.7-2.7 1.4-3.5 2.8-.3.6.7 1.2 1 .6.6-1.3 1.9-1.9 3-2.5.7-.3.1-1.3-.5-1Z" fill="#242424"/></g><g id="Group_441"><path id="Vector_236" d="M581.2 428.7c0-1.2 0-2.5.6-3.6.3-.7-.7-1.3-1-.6a9.6 9.6 0 0 0-.7 4.2c0 .7 1.1.7 1.1 0Z" fill="#242424"/></g><g id="Group_442"><path id="Vector_237" d="M447.8 434c.8 3 2 6 3.3 8.7.4.7 1.3 0 1-.6a44.2 44.2 0 0 1-3.2-8.3c-.2-.7-1.3-.4-1 .3Z" fill="#242424"/></g><g id="Group_443"><path id="Vector_238" d="M452.4 435.5c1.9 3.2 2.8 6.7 4.6 9.8.4.6 1.3 0 1-.6-1.8-3-2.8-6.6-4.6-9.7-.3-.7-1.3-.1-1 .5Z" fill="#242424"/></g><g id="Group_444"><path id="Vector_239" d="M459.6 436c1.1 3.1 1.8 6.3 3.3 9.3.3.7 1.3.1 1-.6-1.4-2.8-2.1-6-3.3-9-.2-.6-1.3-.3-1 .3Z" fill="#242424"/></g><g id="Group_445"><path id="Vector_240" d="M465.5 436.2c1.3 2.7 2 5.7 3.2 8.5.3.6 1.3 0 1-.6-1.3-2.8-2-5.8-3.2-8.5-.4-.7-1.3 0-1 .6Z" fill="#242424"/></g><g id="Group_446"><path id="Vector_241" d="M472.6 436.7c.6 3.1 1.4 6.2 2.6 9.1.3.7 1.4.4 1-.3-1-3-1.9-6-2.5-9.1-.2-.7-1.3-.4-1.1.3Z" fill="#242424"/></g><g id="Group_447"><path id="Vector_242" d="M479 436.5c.1 3.7.8 7.3 2 10.6.3.7 1.4.4 1.2-.3a29.4 29.4 0 0 1-2-10.3c0-.7-1.1-.7-1.1 0Z" fill="#242424"/></g><g id="Group_448"><path id="Vector_243" d="M485 437.2c0 3 .6 5.8 1.3 8.6.1.7 1.2.4 1-.3-.6-2.7-1.2-5.5-1.2-8.3 0-.7-1.2-.7-1.2 0Z" fill="#242424"/></g><g id="Group_449"><path id="Vector_244" d="M490.8 438c.6 2.3 1.3 4.6 1.3 7 0 .8 1.2.8 1.1 0 0-2.5-.7-4.9-1.3-7.3-.2-.7-1.2-.4-1 .3Z" fill="#242424"/></g><g id="Group_450"><path id="Vector_245" d="M499.3 437.2c0 2.5 0 4.9.7 7.3.1.7 1.2.4 1-.3-.5-2.3-.6-4.6-.6-7 0-.7-1.1-.7-1.1 0Z" fill="#242424"/></g><g id="Group_451"><path id="Vector_246" d="M506.5 437.9c0 2.2.1 4.4.6 6.6.2.7 1.3.4 1.1-.3-.5-2-.6-4.2-.6-6.3 0-.8-1.2-.8-1.1 0Z" fill="#242424"/></g><g id="Group_452"><path id="Vector_247" d="M513.6 440c.6 2.5.7 5 .7 7.6 0 .8 1.1.8 1.1 0 0-2.7 0-5.3-.7-8-.1-.7-1.2-.4-1 .4Z" fill="#242424"/></g><g id="Group_453"><path id="Vector_248" d="M520.8 439.2c0 2.2 0 4.5.7 6.6.2.7 1.3.4 1-.3-.6-2-.6-4.2-.6-6.3 0-.8-1.1-.8-1.1 0Z" fill="#242424"/></g><g id="Group_454"><path id="Vector_249" d="M525.4 439.3c.5 2.3.6 4.7.6 7 0 .8 1.1.8 1.1 0 0-2.5 0-4.9-.6-7.3-.2-.7-1.3-.4-1.1.3Z" fill="#242424"/></g><g id="Group_455"><path id="Vector_250" d="M533.2 438.5v7.2c0 .7 1.1.7 1.1 0v-7.2c0-.7-1.1-.7-1.1 0Z" fill="#242424"/></g><g id="Group_456"><path id="Vector_251" d="M538.4 438.5v7.2c0 .7 1.1.7 1.1 0v-7.2c0-.7-1.1-.7-1.1 0Z" fill="#242424"/></g><g id="Group_457"><path id="Vector_252" d="M545 438c.5 1.9.6 3.8.6 5.7 0 .8 1 .8 1 0 0-2 0-4-.6-6-.2-.7-1.3-.4-1 .3Z" fill="#242424"/></g><g id="Group_458"><path id="Vector_253" d="M552.7 440c.7 2 .7 4.2 0 6.2-.2.7 1 1 1.1.3.7-2.2.7-4.6 0-6.8-.2-.7-1.3-.4-1 .3Z" fill="#242424"/></g><g id="Group_459"><path id="Vector_254" d="M560 439.3c.5 1.9.5 3.7 0 5.6-.3.7.8 1 1 .3.6-2 .6-4.1 0-6.2-.2-.7-1.3-.4-1 .3Z" fill="#242424"/></g><g id="Group_460"><path id="Vector_255" d="M566.4 438.5c0 2 0 3.9-.6 5.7-.2.7.8 1 1 .3.7-2 .7-4 .7-6 0-.7-1.1-.7-1.1 0Z" fill="#242424"/></g><g id="Group_461"><path id="Vector_256" d="M573 436.5c-.1 2.5-.6 4.8-1.4 7-.2.8 1 1 1.1.4.8-2.4 1.3-4.8 1.4-7.4 0-.7-1.2-.7-1.2 0Z" fill="#242424"/></g><g id="Group_462"><path id="Vector_257" d="M578.1 435.9c0 2.2-.6 4.3-1.3 6.4-.2.7 1 1 1.1.3.7-2.2 1.3-4.4 1.4-6.7 0-.7-1.2-.7-1.2 0Z" fill="#242424"/></g><g id="Group_463"><path id="Vector_258" d="m556.9 400-89.3 2.6-2.9-22.7 97.5 3.2L557 400Z" fill="#fff"/></g><g id="Group_464"><path id="Vector_259" d="M566.3 441.4a4 4 0 1 1-8.1 0 4 4 0 0 1 8.1 0Z" fill="#242424"/></g><g id="Group_465"><g id="Group_466"><g id="Group_467"><path id="Vector_260" d="M562.3 442.6c2.7 2.7 3.4 5.9 1.7 9.4-2 4-5.5 7.2-8.7 10.3-3.7 3.6-7.5 7-10.8 11a22.3 22.3 0 0 0-5.6 12c-.5 5 2.5 10.1 6.3 13.2a23 23 0 0 0 15.6 4.3c12-.5 23-5.8 34.2-9.9a233.8 233.8 0 0 1 57.5-13.2c4.8-.5 9.5-1 14.3-1 4.3 0 9.2.1 13 2.1 2.8 1.4 4.6 3.9 6.2 6.4 1.7 2.7 3.6 5.3 6.1 7.4 13.4 11 32.9 8.9 48.2 4 9.6-3.2 19-7 28.4-10.5 9.1-3.3 18.3-6.2 27.7-8.5a46.2 46.2 0 0 1 19.7-1.2c2.5.6 5.6 1.7 6.6 4.3 1 2.3.2 5-.4 7.3-1.1 4.1-4 10-1.1 14 3.3 4.6 9.3 2.6 13.5 1 4-1.6 11.2-5.5 14-.2 1 1.9 1.4 4.5.7 6.5-.6 1.6-2 2.7-3.3 3.5-3.7 2.1-8.2 2.8-12.3 3.9-3.7 1-8 2.3-10.6 5.4a9.5 9.5 0 0 0-2 7c.2 1.5 2.5 1.5 2.4 0-1-9.4 11.9-10.3 18.4-12.2 3.5-1 7.5-2.6 9.2-6.1 1.9-4 .4-10.2-3.6-12.2-4.6-2.4-10.7 1.1-15 2.8-2.3.8-4.6 1.7-7 1-2.5-.8-3.4-2.5-3.3-5 .2-5.2 3.4-9.9 3-15.2-.4-6-6.9-8-12-8.4-6.2-.6-12.9.4-19 2-9.8 2.6-19.5 5.7-29.1 9.2-9.3 3.4-18.5 7.2-28 10-8.2 2.6-16.9 3.9-25.5 3-8-.9-16.8-4.3-21.7-11-1.8-2.3-3.1-4.9-5-7.1a15 15 0 0 0-8.4-4.6c-9.2-2-19-.5-28.3.5a229.6 229.6 0 0 0-56.5 13.9c-5 2-10.1 4-15.3 5.7-10.1 3.1-25.4 6.6-32.7-3.7-2.8-4-3.4-8.5-1.4-13 2-4.3 5.5-8 9-11.3 3.5-3.6 7.3-7 10.6-10.7 2.5-3 5-6.3 5.3-10.3.1-3-1.5-5.5-3.4-7.4-1-1-2.7.5-1.6 1.6Z" fill="#fff"/></g></g><g id="Group_468"><path id="Vector_261" d="M835.1 528.4a8.7 8.7 0 0 0-2-4.9c-1.7-2-4.8-2.8-7.5-2.5-5.9.6-9.8 5.2-11 10.6-.6 3.5-2.8 5.4 1.5 7.3 2.4 1 5.5 1 8 .8 2-.2 12-1.3 12.1-4 .2-2.5 0-5-1-7.3Z" fill="#fff"/></g></g><g id="Group_469"><path id="Vector_262" d="M593 417.3c11.1-7.1 18.9-23 12-35.5-.6-1.3-2.6-.1-1.9 1.2 6.2 11.4-1.2 26-11.3 32.3-1.2.8 0 2.8 1.2 2Z" fill="#242424"/></g><path id="Vector_263" d="M595.2 185c-2 7.4-6.1 14.1-10.7 20.2a137 137 0 0 1-17.4 19 115 115 0 0 1-17.7 14 206 206 0 0 0-12.5 8.1 62.5 62.5 0 0 0-20.6 20.7c-1.6 3-2.4 6.4-2 9.7a62 62 0 0 0-10.7-12.2c-5.5-4.9-11.8-8.8-18.2-12.6-6.6-3.9-13.2-7.6-19.6-11.9a97.3 97.3 0 0 1-9.5-7.2 169.5 169.5 0 0 1-41.4-76.5c-.3-1.4-2.5-.8-2.2.6a176.8 176.8 0 0 0 36.1 71.1 68.7 68.7 0 0 0 18.2 15.5c8.9 5.8 18.4 10.6 27.2 16.6a65.4 65.4 0 0 1 20 20.9c.5.8 1.3 1.4 1.8 2l1.5 1.8 3.4 3.5c1.1 1 2.5 1.7 3.7 2.6 2.6 1.8 5.1 3.6 7.5 5.7a24 24 0 0 1 5.7 7.4c1.5 3 2.2 6.4 3.2 9.7 3 10 7.9 20.4 18.5 24.1 1.4.5 2-1.7.6-2.2-11-3.8-14.9-15.5-17.8-25.7-.9-3-1.8-5.8-3.3-8.5a26.2 26.2 0 0 0-5.7-6.8c-2.8-2.5-6-4.6-9.2-6.8l-1.8-2.2-.7-.8c-3-2.6-5.2-5.9-5.2-10 0-5 3.2-9.6 6.3-13.2 7.3-8.4 17-14.8 26.4-20.5a140.1 140.1 0 0 0 27.7-23.2 79.6 79.6 0 0 0 20.6-32.3c.4-1.4-1.8-2-2.2-.6Z" fill="#242424"/><g id="Group_470"><g id="Group_471"><path id="Vector_264" d="m617.7 108.9.7.1c-.3-.2 0-.8 0-1.1l-.1-1.6A111.6 111.6 0 0 0 607 60.6 108 108 0 0 0 586.6 32a108.1 108.1 0 0 0-183 54.8 110.4 110.4 0 0 0-2.3 21.4V110l.1.2v.4c.4.4.7-.2 1-.3.5-.1 1-.2 1.3-.5.4-.4 0-.8.1-1.2l.1-1.3a97.2 97.2 0 0 1 2-19.2A106.6 106.6 0 0 1 521 3 104.7 104.7 0 0 1 593 43.2a107 107 0 0 1 22.7 63.5c0 .5-.1 1.2.1 1.7.4.8 1 .6 1.7.5h.2Z" fill="#fff"/></g></g></g></g></g><defs><clipPath id="clip0_20_363"><path fill="#fff" d="M0 0h1046v714H0z"/></clipPath></defs></svg>