<svg viewBox="0 0 28 21" fill="none" xmlns="http://www.w3.org/2000/svg">
<path d="M13.2406 12.9516L0.390259 1.93831C0.248861 1.81753 0.147819 1.65633 0.100677 1.47647C0.0535348 1.29661 0.0625561 1.10661 0.126535 0.931999C0.190514 0.757389 0.306379 0.606538 0.458592 0.499587C0.610805 0.392708 0.792082 0.334906 0.978096 0.333984H27.0315C27.2188 0.334268 27.4016 0.39214 27.5548 0.4998C27.7082 0.607389 27.8247 0.759517 27.8885 0.935616C27.9524 1.11164 27.9606 1.30306 27.9119 1.48391C27.8633 1.66477 27.7602 1.82626 27.6166 1.94654L14.419 12.9584C14.2536 13.0968 14.0443 13.1721 13.8286 13.1709C13.6128 13.1696 13.4045 13.0919 13.2406 12.9516Z"/>
<path d="M0 18.8446V4.02191L8.08512 10.8843L0 18.8446Z"/>
<path d="M27.8014 4.02191V18.8446L19.7163 10.8843L27.8014 4.02191Z" />
<path d="M9.71943 12.2489L1.48935 20.197L26.4539 20.334L18.361 12.2489L15.6121 14.4949C15.1174 14.8997 14.4938 15.1141 13.8545 15.0993C13.2151 15.0845 12.6022 14.8414 12.1267 14.414L9.71943 12.2489Z" />
</svg>

