
<svg id="icon-phone" viewBox="0 0 20 20" xmlns="http://www.w3.org/2000/svg">
<path id="phone__icon" d="M0.132559 2.5728C0.132559 2.5728 0.707386 1.28594 2.56286 0.462348C2.62802 0.434267 2.69035 0.400082 2.74901 0.360257C2.98486 0.195571 3.2511 0.0789454 3.5324 0.017093C3.67764 -0.00948543 3.82689 -0.0050258 3.97027 0.0301758C4.11365 0.0653773 4.24787 0.130516 4.36404 0.221275C4.77427 0.537843 5.61539 1.35372 6.60475 3.2557C6.62495 3.2946 6.6477 3.33215 6.67283 3.36809C6.84519 3.62546 7.601 4.8008 7.17268 5.67243C7.08402 5.84663 6.94743 5.99212 6.77884 6.09195C6.4772 6.27469 5.83084 6.68477 5.66538 6.96616C5.66538 6.96616 5.21637 7.33849 5.81533 8.45549C5.81533 8.45549 5.88859 8.61163 6.02044 8.86643C7.03817 10.8372 8.59621 12.4804 10.5139 13.6055C11.0276 13.914 11.561 14.1885 12.1109 14.4274C12.3474 14.5251 12.6116 14.534 12.8543 14.4524C13.0969 14.3708 13.3016 14.2043 13.4303 13.9839L13.4423 13.9633C13.4423 13.9633 14.0404 12.7725 14.5627 12.6979C14.5627 12.6979 15.5874 12.5529 17.3472 13.7745C17.3832 13.7995 17.4206 13.8224 17.4592 13.8432C17.7436 13.9924 19.0657 14.7174 19.7861 15.6774C19.8944 15.8211 19.9644 15.9898 19.9896 16.1677C20.0147 16.3456 19.9942 16.5269 19.93 16.6949C19.6715 17.3649 19.095 18.5823 18.0117 19.5483C17.9707 19.5846 17.9324 19.6239 17.897 19.6658C17.7721 19.8176 17.2283 20.2663 15.4193 19.779C15.3969 19.773 15.3737 19.7662 15.3513 19.7584C14.8816 19.598 9.74001 17.7853 5.88945 13.6673C5.88945 13.6673 1.25377 8.90332 0.131697 4.28862C0.132558 4.28519 -0.165627 3.16819 0.132559 2.5728Z" />
</svg>