
<svg id="icon-user" viewBox="0 0 28 21" xmlns="http://www.w3.org/2000/svg">
<path id="Union" fill-rule="evenodd" clip-rule="evenodd" d="M17.6492 6.46249C17.6492 9.51466 15.175 11.9889 12.1228 11.9889C9.07061 11.9889 6.59633 9.51466 6.59633 6.46249C6.59633 3.41031 9.07061 0.936035 12.1228 0.936035C15.175 0.936035 17.6492 3.41031 17.6492 6.46249ZM20.3087 14.416C21.4256 15.1391 22.3613 16.1093 23.0435 17.2517L23.5699 20.0146C23.4385 20.8038 22.517 20.936 22.517 20.936H1.46573C1.46573 20.936 0.544252 20.8038 0.412842 20.0146L0.944092 17.2517C1.62623 16.1093 2.56193 15.1391 3.67887 14.416C4.78464 13.7029 6.27503 12.9673 7.91766 12.7782L7.95853 12.7686C8.3373 12.6903 8.73129 12.7381 9.08032 12.9048C9.99007 13.3395 10.9855 13.5651 11.9938 13.5651C13.002 13.5651 13.9975 13.3395 14.9073 12.9048C15.2563 12.7381 15.6503 12.6903 16.0291 12.7686L16.0699 12.7782C17.7125 12.9673 19.2029 13.7029 20.3087 14.416Z" />
</svg>
