<svg width="198" height="41" viewBox="0 0 198 41" fill="none" xmlns="http://www.w3.org/2000/svg">
<path d="M6.47656 40.3281C4.21094 40.3281 2.21875 39.6172 0.5 38.1953C0.328125 38.0391 0.164062 37.8906 0.0078125 37.75L2.04688 35.2891C3.32812 36.4766 4.71094 37.125 6.19531 37.2344C6.33594 37.25 6.46094 37.2578 6.57031 37.2578C8.11719 37.2578 9.03125 36.7656 9.3125 35.7812C9.35938 35.6094 9.38281 35.4219 9.38281 35.2188C9.38281 34.5156 9.00781 33.9531 8.25781 33.5312C7.99219 33.3906 7.48438 33.1562 6.73438 32.8281L4.34375 31.8203C1.96875 30.8047 0.773438 29.2109 0.757812 27.0391C0.757812 25.4453 1.42188 24.1484 2.75 23.1484C3.89062 22.3203 5.27344 21.9062 6.89844 21.9062C8.85156 21.9062 10.5547 22.5234 12.0078 23.7578C12.1641 23.8984 12.3125 24.0391 12.4531 24.1797L10.6719 26.4062C9.5 25.4375 8.24219 24.9531 6.89844 24.9531C5.60156 24.9531 4.78125 25.3516 4.4375 26.1484C4.35938 26.3672 4.32031 26.5938 4.32031 26.8281C4.32031 27.5156 4.76562 28.0859 5.65625 28.5391C5.92188 28.6641 6.40625 28.8672 7.10938 29.1484L9.42969 30.1328C11.3828 30.9453 12.5391 32.1406 12.8984 33.7188C12.9766 34.1094 13.0156 34.5234 13.0156 34.9609C13.0156 36.6016 12.3516 37.9297 11.0234 38.9453C9.82031 39.8672 8.30469 40.3281 6.47656 40.3281Z
M6.47656 20C4.21094 20 2.21875 19.2891 0.5 17.8672C0.328125 17.7109 0.164062 17.5625 0.0078125 17.4219L2.04688 14.9609C3.32812 16.1484 4.71094 16.7969 6.19531 16.9062C6.33594 16.9219 6.46094 16.9297 6.57031 16.9297C8.11719 16.9297 9.03125 16.4375 9.3125 15.4531C9.35938 15.2812 9.38281 15.0938 9.38281 14.8906C9.38281 14.1875 9.00781 13.625 8.25781 13.2031C7.99219 13.0625 7.48438 12.8281 6.73438 12.5L4.34375 11.4922C1.96875 10.4766 0.773438 8.88281 0.757812 6.71094C0.757812 5.11719 1.42188 3.82031 2.75 2.82031C3.89062 1.99219 5.27344 1.57812 6.89844 1.57812C8.85156 1.57812 10.5547 2.19531 12.0078 3.42969C12.1641 3.57031 12.3125 3.71094 12.4531 3.85156L10.6719 6.07812C9.5 5.10938 8.24219 4.625 6.89844 4.625C5.60156 4.625 4.78125 5.02344 4.4375 5.82031C4.35938 6.03906 4.32031 6.26562 4.32031 6.5C4.32031 7.1875 4.76562 7.75781 5.65625 8.21094C5.92188 8.33594 6.40625 8.53906 7.10938 8.82031L9.42969 9.80469C11.3828 10.6172 12.5391 11.8125 12.8984 13.3906C12.9766 13.7812 13.0156 14.1953 13.0156 14.6328C13.0156 16.2734 12.3516 17.6016 11.0234 18.6172C9.82031 19.5391 8.30469 20 6.47656 20Z
" fill="#F15A24"/>
<path d="M16.1328 40V22.2344H19.6953V29.2188H26.3984V22.2344H29.9375V40H26.3984V32.3125H19.6953V40H16.1328Z
M16.1328 19.6719V1.90625H19.6953V8.89062H26.3984V1.90625H29.9375V19.6719H26.3984V11.9844H19.6953V19.6719H16.1328Z
" fill="#F15A24"/>
<path d="M41.1172 40.3281C36.5234 40.2969 34.2188 37.5234 34.2031 32.0078V22.2344H37.7656V32.3125C37.7656 35.1406 38.5625 36.75 40.1562 37.1406C40.4531 37.2188 40.7734 37.2578 41.1172 37.2578C42.9609 37.2578 44.0625 36.2266 44.4219 34.1641C44.5156 33.6172 44.5625 33 44.5625 32.3125V22.2344H47.9844V32.0078C47.9844 37.3828 45.8359 40.1562 41.5391 40.3281C41.3984 40.3281 41.2578 40.3281 41.1172 40.3281Z
M41.1172 20C36.5234 19.9688 34.2188 17.1953 34.2031 11.6797V1.90625H37.7656V11.9844C37.7656 14.8125 38.5625 16.4219 40.1562 16.8125C40.4531 16.8906 40.7734 16.9297 41.1172 16.9297C42.9609 16.9297 44.0625 15.8984 44.4219 13.8359C44.5156 13.2891 44.5625 12.6719 44.5625 11.9844V1.90625H47.9844V11.6797C47.9844 17.0547 45.8359 19.8281 41.5391 20C41.3984 20 41.2578 20 41.1172 20Z
" fill="#F15A24"/>
<path d="M52.2266 40V22.2344H55.8594L61.0156 31.7031L62.7969 35.5469H62.9141C62.6016 32.4531 62.4453 30.375 62.4453 29.3125V22.2344H65.8203V40H62.2109L57.0781 30.4844L55.2734 26.6875H55.1562C55.1875 27 55.2344 27.5 55.2969 28.1875C55.5 30.2969 55.6016 31.8594 55.6016 32.875V40H52.2266Z
M52.2266 19.6719V1.90625H55.8594L61.0156 11.375L62.7969 15.2188H62.9141C62.6016 12.125 62.4453 10.0469 62.4453 8.98438V1.90625H65.8203V19.6719H62.2109L57.0781 10.1562L55.2734 6.35938H55.1562C55.1875 6.67188 55.2344 7.17188 55.2969 7.85938C55.5 9.96875 55.6016 11.5312 55.6016 12.5469V19.6719H52.2266Z
" fill="#F15A24"/>
<path d="M74.0469 40.3281C71.625 40.3281 69.8125 39.3203 68.6094 37.3047C68.5781 37.2734 68.5547 37.2422 68.5391 37.2109L70.9766 35.4062C71.6641 36.625 72.5469 37.2422 73.625 37.2578C74.7969 37.2578 75.5312 36.7109 75.8281 35.6172C75.9375 35.1641 75.9922 34.6172 75.9922 33.9766V22.2344H79.5547V34.2578C79.5547 36.5703 78.8438 38.2578 77.4219 39.3203C76.5 39.9922 75.375 40.3281 74.0469 40.3281Z
M74.0469 20C71.625 20 69.8125 18.9922 68.6094 16.9766C68.5781 16.9453 68.5547 16.9141 68.5391 16.8828L70.9766 15.0781C71.6641 16.2969 72.5469 16.9141 73.625 16.9297C74.7969 16.9297 75.5312 16.3828 75.8281 15.2891C75.9375 14.8359 75.9922 14.2891 75.9922 13.6484V1.90625H79.5547V13.9297C79.5547 16.2422 78.8438 17.9297 77.4219 18.9922C76.5 19.6641 75.375 20 74.0469 20Z
" fill="#F15A24"/>
<path d="M83.7969 40V22.2344H87.3594V29.2188H94.0625V22.2344H97.6016V40H94.0625V32.3125H87.3594V40H83.7969Z
M83.7969 19.6719V1.90625H87.3594V8.89062H94.0625V1.90625H97.6016V19.6719H94.0625V11.9844H87.3594V19.6719H83.7969Z
" fill="#F15A24"/>
<path d="M101.961 40V22.2344H105.523V40H101.961Z
M101.961 19.6719V1.90625H105.523V19.6719H101.961Z
" fill="#F15A24"/>
<path d="M109.859 40V22.2344H113.492L118.648 31.7031L120.43 35.5469H120.547C120.234 32.4531 120.078 30.375 120.078 29.3125V22.2344H123.453V40H119.844L114.711 30.4844L112.906 26.6875H112.789C112.82 27 112.867 27.5 112.93 28.1875C113.133 30.2969 113.234 31.8594 113.234 32.875V40H109.859Z
M109.859 19.6719V1.90625H113.492L118.648 11.375L120.43 15.2188H120.547C120.234 12.125 120.078 10.0469 120.078 8.98438V1.90625H123.453V19.6719H119.844L114.711 10.1562L112.906 6.35938H112.789C112.82 6.67188 112.867 7.17188 112.93 7.85938C113.133 9.96875 113.234 11.5312 113.234 12.5469V19.6719H109.859Z
" fill="#F15A24"/>
<path d="M138.688 40.3281C136.547 40.3281 134.867 39.5781 133.648 38.0781C132.633 36.8125 132.125 35.2188 132.125 33.2969C132.125 30.9062 132.953 29.0469 134.609 27.7188C135.859 26.7188 137.32 26.2188 138.992 26.2188C140.445 26.2344 141.75 26.7344 142.906 27.7188L141.219 29.9922C140.516 29.3984 139.828 29.1016 139.156 29.1016C137.844 29.1016 136.883 29.6953 136.273 30.8828C135.914 31.5703 135.734 32.375 135.734 33.2969C135.734 34.9844 136.258 36.1875 137.305 36.9062C137.836 37.2656 138.422 37.4453 139.062 37.4453C139.969 37.4297 140.844 37.0703 141.688 36.3672L143.07 38.7109C141.852 39.7891 140.391 40.3281 138.688 40.3281Z
M138.688 20C136.547 20 134.867 19.25 133.648 17.75C132.633 16.4844 132.125 14.8906 132.125 12.9688C132.125 10.5781 132.953 8.71875 134.609 7.39062C135.859 6.39062 137.32 5.89062 138.992 5.89062C140.445 5.90625 141.75 6.40625 142.906 7.39062L141.219 9.66406C140.516 9.07031 139.828 8.77344 139.156 8.77344C137.844 8.77344 136.883 9.36719 136.273 10.5547C135.914 11.2422 135.734 12.0469 135.734 12.9688C135.734 14.6562 136.258 15.8594 137.305 16.5781C137.836 16.9375 138.422 17.1172 139.062 17.1172C139.969 17.1016 140.844 16.7422 141.688 16.0391L143.07 18.3828C141.852 19.4609 140.391 20 138.688 20Z
" fill="#F15A24"/>
<path d="M151.227 40.3281C149.414 40.3281 147.883 39.6797 146.633 38.3828C145.383 37.0547 144.758 35.3594 144.758 33.2969C144.758 30.9219 145.547 29.0625 147.125 27.7188C148.312 26.7188 149.68 26.2188 151.227 26.2188C153.039 26.2188 154.562 26.875 155.797 28.1875C157.047 29.5156 157.672 31.2188 157.672 33.2969C157.672 35.6562 156.883 37.5078 155.305 38.8516C154.133 39.8359 152.773 40.3281 151.227 40.3281ZM151.227 37.4453C152.508 37.4453 153.367 36.7188 153.805 35.2656C153.977 34.6875 154.062 34.0312 154.062 33.2969C154.062 31.2812 153.516 29.9766 152.422 29.3828C152.062 29.1953 151.664 29.1016 151.227 29.1016C149.961 29.1016 149.102 29.8047 148.648 31.2109C148.461 31.8203 148.367 32.5156 148.367 33.2969C148.367 35.2656 148.906 36.5469 149.984 37.1406C150.359 37.3438 150.773 37.4453 151.227 37.4453Z
M151.227 20C149.414 20 147.883 19.3516 146.633 18.0547C145.383 16.7266 144.758 15.0312 144.758 12.9688C144.758 10.5938 145.547 8.73438 147.125 7.39062C148.312 6.39062 149.68 5.89062 151.227 5.89062C153.039 5.89062 154.562 6.54688 155.797 7.85938C157.047 9.1875 157.672 10.8906 157.672 12.9688C157.672 15.3281 156.883 17.1797 155.305 18.5234C154.133 19.5078 152.773 20 151.227 20ZM151.227 17.1172C152.508 17.1172 153.367 16.3906 153.805 14.9375C153.977 14.3594 154.062 13.7031 154.062 12.9688C154.062 10.9531 153.516 9.64844 152.422 9.05469C152.062 8.86719 151.664 8.77344 151.227 8.77344C149.961 8.77344 149.102 9.47656 148.648 10.8828C148.461 11.4922 148.367 12.1875 148.367 12.9688C148.367 14.9375 148.906 16.2188 149.984 16.8125C150.359 17.0156 150.773 17.1172 151.227 17.1172Z
" fill="#F15A24"/>
<path d="M162.617 40.3281C161.773 40.3281 161.148 39.9531 160.742 39.2031C160.539 38.8438 160.438 38.4531 160.438 38.0312C160.438 37.1406 160.789 36.4766 161.492 36.0391C161.836 35.8359 162.211 35.7344 162.617 35.7344C163.477 35.7344 164.109 36.1094 164.516 36.8594C164.719 37.2188 164.82 37.6094 164.82 38.0312C164.82 38.9219 164.469 39.5859 163.766 40.0234C163.406 40.2266 163.023 40.3281 162.617 40.3281Z
M162.617 20C161.773 20 161.148 19.625 160.742 18.875C160.539 18.5156 160.438 18.125 160.438 17.7031C160.438 16.8125 160.789 16.1484 161.492 15.7109C161.836 15.5078 162.211 15.4062 162.617 15.4062C163.477 15.4062 164.109 15.7812 164.516 16.5312C164.719 16.8906 164.82 17.2812 164.82 17.7031C164.82 18.5938 164.469 19.2578 163.766 19.6953C163.406 19.8984 163.023 20 162.617 20Z
" fill="#F15A24"/>
<path d="M171.711 40.3281C169.523 40.2969 168.422 38.9297 168.406 36.2266V20.8516H171.898V36.3906C171.961 37.0312 172.203 37.3828 172.625 37.4453C172.812 37.4453 172.977 37.4297 173.117 37.3984L173.539 40.0234C173.039 40.2266 172.43 40.3281 171.711 40.3281Z
M171.711 20C169.523 19.9688 168.422 18.6016 168.406 15.8984V0.523438H171.898V16.0625C171.961 16.7031 172.203 17.0547 172.625 17.1172C172.812 17.1172 172.977 17.1016 173.117 17.0703L173.539 19.6953C173.039 19.8984 172.43 20 171.711 20Z
" fill="#F15A24"/>
<path d="M180.875 40.3281C177.938 40.2969 176.461 38.6172 176.445 35.2891V29.3359H174.57V26.7344L176.633 26.5703L177.031 22.9609H179.984V26.5703H183.289V29.3359H179.984V35.2891C180.016 36.7891 180.625 37.5469 181.812 37.5625C182.188 37.5625 182.625 37.4609 183.125 37.2578L183.711 39.8359C182.68 40.1641 181.734 40.3281 180.875 40.3281Z
M180.875 20C177.938 19.9688 176.461 18.2891 176.445 14.9609V9.00781H174.57V6.40625L176.633 6.24219L177.031 2.63281H179.984V6.24219H183.289V9.00781H179.984V14.9609C180.016 16.4609 180.625 17.2188 181.812 17.2344C182.188 17.2344 182.625 17.1328 183.125 16.9297L183.711 19.5078C182.68 19.8359 181.734 20 180.875 20Z
" fill="#F15A24"/>
<path d="M190.766 40.3281C188.781 40.3281 187.297 39.4766 186.312 37.7734C185.609 36.5703 185.258 35.0781 185.258 33.2969C185.258 30.9375 185.969 29.0703 187.391 27.6953C188.422 26.7109 189.594 26.2188 190.906 26.2188C192.047 26.2188 193.086 26.625 194.023 27.4375C194.117 27.5312 194.211 27.6172 194.305 27.6953L194.164 25.5859V20.8516H197.703V40H194.844L194.539 38.6172H194.469C193.297 39.7422 192.062 40.3125 190.766 40.3281ZM191.68 37.4219C192.633 37.4062 193.461 36.9453 194.164 36.0391V30.1328C193.414 29.4609 192.586 29.125 191.68 29.125C190.664 29.125 189.898 29.6641 189.383 30.7422C189.055 31.4297 188.891 32.2656 188.891 33.25C188.891 35.875 189.727 37.2578 191.398 37.3984C191.492 37.4141 191.586 37.4219 191.68 37.4219Z
M190.766 20C188.781 20 187.297 19.1484 186.312 17.4453C185.609 16.2422 185.258 14.75 185.258 12.9688C185.258 10.6094 185.969 8.74219 187.391 7.36719C188.422 6.38281 189.594 5.89062 190.906 5.89062C192.047 5.89062 193.086 6.29688 194.023 7.10938C194.117 7.20312 194.211 7.28906 194.305 7.36719L194.164 5.25781V0.523438H197.703V19.6719H194.844L194.539 18.2891H194.469C193.297 19.4141 192.062 19.9844 190.766 20ZM191.68 17.0938C192.633 17.0781 193.461 16.6172 194.164 15.7109V9.80469C193.414 9.13281 192.586 8.79688 191.68 8.79688C190.664 8.79688 189.898 9.33594 189.383 10.4141C189.055 11.1016 188.891 11.9375 188.891 12.9219C188.891 15.5469 189.727 16.9297 191.398 17.0703C191.492 17.0859 191.586 17.0938 191.68 17.0938Z
" fill="#F15A24"/>
</svg>
