<?xml version="1.0" encoding="utf-8"?>
<!-- Generator: Adobe Illustrator 24.2.0, SVG Export Plug-In . SVG Version: 6.00 Build 0)  -->
<svg version="1.1" id="圖層_1" xmlns="http://www.w3.org/2000/svg" xmlns:xlink="http://www.w3.org/1999/xlink" x="0px" y="0px"
	 viewBox="0 0 500 500" xml:space="preserve">
<style type="text/css">
	.st0{fill:#ffffff;}
</style>
<g>
	<path class="st0" d="M151,130.88l-24.37,29.99c0,0-9.37-11.25-13.12-15l-9.37,7.5c0,0,11.27,15.03,18.46,27.68
		c1.97,3.47,5.57,1.88,7.78-1.44l29.99-41.24L151,130.88z"/>
	<rect x="177.24" y="146.63" class="st0" width="140.58" height="20.62"/>
	<path class="st0" d="M151,194.61l-24.37,29.99c0,0-9.37-11.25-13.12-15l-9.37,7.5c0,0,11.27,15.03,18.46,27.68
		c1.97,3.47,5.57,1.88,7.78-1.44l29.99-41.24L151,194.61z"/>
	<polygon class="st0" points="297.21,210.36 177.24,210.36 177.24,230.98 274.71,230.98 	"/>
	<path class="st0" d="M151,265.84l-24.37,29.99c0,0-9.37-11.25-13.12-15l-9.37,7.5c0,0,11.27,15.03,18.46,27.68
		c1.97,3.47,5.57,1.88,7.78-1.44l29.99-41.24L151,265.84z"/>
	<polygon class="st0" points="177.24,302.21 240.97,302.21 250.35,281.59 177.24,281.59 	"/>
	<path class="st0" d="M113.51,361.43l-9.37,7.5c0,0,11.27,15.03,18.46,27.68c1.97,3.47,5.57,1.88,7.78-1.44l29.99-41.24l-9.37-7.5
		l-24.37,29.99C126.63,376.43,117.26,365.18,113.51,361.43z"/>
	<path class="st0" d="M274.51,243.02l-30.04,65.15l1.71,2.03L319.22,292l127.91-109.43l-43.15-49.51L274.51,243.02z M264.52,299.18
		c1.95-3.65-1.12-7.96-5.21-7.3l-0.83,0.13l20.45-36.82l26.56,31.54L264.52,299.18z M424.22,174.55l3.57,4.24
		c1.35,1.6,1.14,3.99-0.46,5.34l-110.34,92.91c-1.6,1.35-3.99,1.14-5.34-0.46l-3.57-4.24c-1.35-1.6-1.14-3.99,0.46-5.34
		l110.34-92.91C420.49,172.75,422.88,172.95,424.22,174.55z M409.68,157.29c1.35,1.6,1.14,3.99-0.46,5.34l-110.34,92.91
		c-1.6,1.35-3.99,1.14-5.34-0.46l-3.57-4.24c-1.35-1.6-1.14-3.99,0.46-5.34l110.34-92.91c1.6-1.35,3.99-1.14,5.34,0.46
		L409.68,157.29z"/>
	<path class="st0" d="M467.19,144.1l-21.95-26.07c-5.45-6.48-15.13-7.31-21.6-1.85l-11.21,9.44l42.26,50.18l10.55-8.88
		C472.08,161.16,472.95,150.94,467.19,144.1z"/>
	<path class="st0" d="M343.13,348.13c-22.81,0-45.61,0-68.42,0c-5.07,0-9.37,4.29-9.37,9.37c0,1.56,0,3.12,0,4.69h-88.1v20.62h88.1
		c0,15.93,0,31.87,0,47.8c-54.22,0-108.44,0-162.65,0c-8.57,0-17.15,0-25.72,0c0-37.53,0-75.07,0-112.6c0-64.9,0-129.8,0-194.71
		c0-11.9,0-23.81,0-35.71c80.15,0,160.3,0,240.44,0c8.57,0,17.15,0,25.72,0c0,28.5,0,57.01,0,85.51l18.74-16.96c0-0.4,0-0.8,0-1.19
		c0-10.55,0-21.1,0-31.65V78.21c0-5.15-4.22-9.37-9.37-9.37H102.69h-35.1c-5.15,0-9.37,4.22-9.37,9.37v121.98
		c0,64.9,0,129.8,0,194.71v45.08c0,5.15,4.22,9.37,9.37,9.37h208.53c1.36,0,2.67-0.57,3.59-1.58l15.78-17.17c-0.02,0-0.04,0-0.05,0
		c21.16-22.69,42.67-46.2,63.62-68.42c0.93-0.99,1.55-2.05,1.93-3.13c0.56-1,0.88-2.13,0.88-3.3V318c0-17.45,0-34.9,0-52.35
		l-18.74,14.58C343.13,302.87,343.13,325.5,343.13,348.13z M329.86,366.87c-15.26,16.19-30.51,32.38-45.77,48.56
		c0-16.19,0-32.38,0-48.56C299.34,366.87,314.6,366.87,329.86,366.87z"/>
</g>
</svg>
