<svg id="圖層_1" data-name="圖層 1" xmlns="http://www.w3.org/2000/svg" xmlns:xlink="http://www.w3.org/1999/xlink" viewBox="0 0 235 213"><defs><style>.cls-1{fill:none;}.cls-2{fill:#f4f4f4;}.cls-3{fill:#afafaf;}.cls-4{opacity:0.33;}.cls-5{clip-path:url(#clip-path);}.cls-6{fill:#d3d3d3;}.cls-7{fill:#e0e0e0;}.cls-8{fill:#d6d6d6;}</style><clipPath id="clip-path"><rect class="cls-1" width="235" height="213"/></clipPath></defs><rect class="cls-2" x="0.02" width="235" height="213"/><rect class="cls-3" x="29.17" y="24" width="0.94" height="160.04"/><rect class="cls-3" x="31.57" y="24" width="0.94" height="160.04"/><rect class="cls-3" x="33.97" y="24" width="0.94" height="160.04"/><rect class="cls-3" x="36.36" y="24" width="0.94" height="160.04"/><rect class="cls-3" x="38.76" y="24" width="0.94" height="160.04"/><rect class="cls-3" x="41.15" y="24" width="0.94" height="160.04"/><rect class="cls-3" x="43.55" y="24" width="0.94" height="160.04"/><rect class="cls-3" x="45.95" y="24" width="0.94" height="160.04"/><rect class="cls-3" x="48.34" y="24" width="0.94" height="160.04"/><rect class="cls-3" x="50.74" y="24" width="0.94" height="160.04"/><rect class="cls-3" x="53.13" y="24" width="0.94" height="160.04"/><rect class="cls-3" x="55.53" y="24" width="0.94" height="160.04"/><rect class="cls-3" x="57.93" y="24" width="0.94" height="160.04"/><rect class="cls-3" x="60.32" y="24" width="0.94" height="160.04"/><rect class="cls-3" x="62.72" y="24" width="0.94" height="160.04"/><rect class="cls-3" x="65.11" y="24" width="0.94" height="160.04"/><rect class="cls-3" x="67.51" y="24" width="0.94" height="160.04"/><rect class="cls-3" x="69.91" y="24" width="0.94" height="160.04"/><rect class="cls-3" x="72.3" y="24" width="0.94" height="160.04"/><rect class="cls-3" x="74.7" y="24" width="0.94" height="160.04"/><rect class="cls-3" x="77.09" y="24" width="0.94" height="160.04"/><rect class="cls-3" x="79.49" y="24" width="0.94" height="160.04"/><rect class="cls-3" x="81.89" y="24" width="0.94" height="160.04"/><rect class="cls-3" x="82.19" y="24" width="0.94" height="160.04"/><rect class="cls-3" x="84.58" y="24" width="0.94" height="160.04"/><rect class="cls-3" x="86.98" y="24" width="0.94" height="160.04"/><rect class="cls-3" x="89.37" y="24" width="0.94" height="160.04"/><rect class="cls-3" x="91.77" y="24" width="0.94" height="160.04"/><rect class="cls-3" x="94.17" y="24" width="0.94" height="160.04"/><rect class="cls-3" x="96.56" y="24" width="0.94" height="160.04"/><rect class="cls-3" x="98.96" y="24" width="0.94" height="160.04"/><rect class="cls-3" x="101.35" y="24" width="0.94" height="160.04"/><rect class="cls-3" x="103.75" y="24" width="0.94" height="160.04"/><rect class="cls-3" x="106.15" y="24" width="0.94" height="160.04"/><rect class="cls-3" x="108.54" y="24" width="0.94" height="160.04"/><rect class="cls-3" x="110.94" y="24" width="0.94" height="160.04"/><rect class="cls-3" x="113.33" y="24" width="0.94" height="160.04"/><rect class="cls-3" x="115.73" y="24" width="0.94" height="160.04"/><rect class="cls-3" x="118.13" y="24" width="0.94" height="160.04"/><rect class="cls-3" x="120.52" y="24" width="0.94" height="160.04"/><rect class="cls-3" x="122.92" y="24" width="0.94" height="160.04"/><rect class="cls-3" x="125.31" y="24" width="0.94" height="160.04"/><rect class="cls-3" x="127.71" y="24" width="0.94" height="160.04"/><rect class="cls-3" x="130.11" y="24" width="0.94" height="160.04"/><rect class="cls-3" x="132.5" y="24" width="0.94" height="160.04"/><rect class="cls-3" x="134.9" y="24" width="0.94" height="160.04"/><rect class="cls-3" x="135.2" y="24" width="0.94" height="160.04"/><rect class="cls-3" x="137.59" y="24" width="0.94" height="160.04"/><rect class="cls-3" x="139.99" y="24" width="0.94" height="160.04"/><rect class="cls-3" x="142.39" y="24" width="0.94" height="160.04"/><rect class="cls-3" x="144.78" y="24" width="0.94" height="160.04"/><rect class="cls-3" x="147.18" y="24" width="0.94" height="160.04"/><rect class="cls-3" x="149.57" y="24" width="0.94" height="160.04"/><rect class="cls-3" x="151.97" y="24" width="0.94" height="160.04"/><rect class="cls-3" x="154.37" y="24" width="0.94" height="160.04"/><rect class="cls-3" x="156.76" y="24" width="0.94" height="160.04"/><rect class="cls-3" x="159.16" y="24" width="0.94" height="160.04"/><rect class="cls-3" x="161.55" y="24" width="0.94" height="160.04"/><rect class="cls-3" x="163.95" y="24" width="0.94" height="160.04"/><rect class="cls-3" x="166.35" y="24" width="0.94" height="160.04"/><rect class="cls-3" x="168.74" y="24" width="0.94" height="160.04"/><rect class="cls-3" x="171.14" y="24" width="0.94" height="160.04"/><rect class="cls-3" x="173.53" y="24" width="0.94" height="160.04"/><rect class="cls-3" x="175.93" y="24" width="0.94" height="160.04"/><rect class="cls-3" x="178.33" y="24" width="0.94" height="160.04"/><rect class="cls-3" x="180.72" y="24" width="0.94" height="160.04"/><rect class="cls-3" x="183.12" y="24" width="0.94" height="160.04"/><rect class="cls-3" x="185.51" y="24" width="0.94" height="160.04"/><rect class="cls-3" x="187.91" y="24" width="0.94" height="160.04"/><rect class="cls-3" x="188.21" y="24" width="0.94" height="160.04"/><rect class="cls-3" x="190.61" y="24" width="0.94" height="160.04"/><rect class="cls-3" x="193" y="24" width="0.94" height="160.04"/><rect class="cls-3" x="195.4" y="24" width="0.94" height="160.04"/><rect class="cls-3" x="197.8" y="24" width="0.94" height="160.04"/><rect class="cls-3" x="200.19" y="24" width="0.94" height="160.04"/><rect class="cls-3" x="202.59" y="24" width="0.94" height="160.04"/><rect class="cls-3" x="204.98" y="24" width="0.94" height="160.04"/><path class="cls-2" d="M166.09,107.69,140,115.21a5.74,5.74,0,1,0,3.19,11l26-7.52a5.73,5.73,0,1,0-3.18-11Zm-13.52,8L155,115l1,3.33-2.44.7Zm-2.89,4.43-2.44.71-1-3.33,2.44-.7Zm9.18-6.25,2.45-.71,1,3.33-2.45.71ZM140,121.18a1.73,1.73,0,0,1,1.19-2.14l1.28-.38,1,3.33-1.28.37A1.73,1.73,0,0,1,140,121.18Zm28.19-6.34-2,.59-1-3.33,2-.59a1.73,1.73,0,1,1,1,3.33Z"/><path class="cls-2" d="M187.19,92c-1.19-4.12-6-19.58-14.14-26.42-.12-.49-.29-1.12-.52-1.81a8.77,8.77,0,0,1,2.59-8c4.12-3.77,3.89-7.34,2.44-9.24-1.64-2.18-4.81-2.45-7.69-.65-3.62,2.27-4.35,6.73-3.72,11.12a4.08,4.08,0,0,0-2.23.79c-2.09,1.44-2.87,4.42-3.79,7.88-.84,3.19-1.77,6.76-3.77,8.86a1.93,1.93,0,0,0-.33.31l0,0a5.9,5.9,0,0,1-.62.5c-8.84,6.1-18.63,1.11-26.46-2.91l-.29-.15c-.23-3.67-1.76-9.86-4.33-11.92a3.46,3.46,0,0,0-3.11-.77c-2.69.73-3.52,3.56-4.25,6.06a14,14,0,0,1-1.49,3.81c-.36.38-.89,1-1.79,2.09-2.62,3.13-9.34,11.16-12.13,13.26-7.08-.06-17,8.66-28.53,18.7l-3.79,3.3a1.8,1.8,0,0,0-.39.29,1.83,1.83,0,0,0-.13.16c-8.62,7.46-17.91,15.08-26.3,18.89-3.09,1.41-4.94,3.45-5.48,6.1-.84,4.14,1.89,8.19,3.21,9.85a7.64,7.64,0,0,0,2.13,6.3c4.6,4.65,16,5.17,36.84,1.69,10.14-1.68,31-7.39,46.68-11.88l4.35-1.25c8.29-2.4,14.84-4.36,18.29-5.38,5.54-1.67,8.24-2.49,9.59-3.07v0c33.57-9.11,38.45-20.28,40.12-23.95a2,2,0,0,0,.14-1.19C196.93,96.69,189.87,93.12,187.19,92Zm-4.14.24c-5,1.77-19.67,7-36.29,13-2.35.85-4.66,1.77-6.94,2.74a182,182,0,0,1,31.42-38.61C177.48,75.27,181.66,87.64,183.05,92.23ZM172,49.35a4.18,4.18,0,0,1,1.05-.49,1.27,1.27,0,0,1,1.34.11c.31.44.24,1.91-1.94,3.9a12.67,12.67,0,0,0-2.4,3C169.78,53.19,170.09,50.53,172,49.35Zm-8,17.39c.58-2.26,1.31-5,2.17-5.63l.15-.09c.38.09.89.77,1.37,1.67l0,.06a17.56,17.56,0,0,1,.95,2.2c.07.38.15.75.24,1.12q-3.62,3.39-6.83,6.71A46.56,46.56,0,0,0,164,66.74Zm-43.24.11A11.68,11.68,0,0,1,122,63.72c.81.9,1.85,3.81,2.35,6.54a20.53,20.53,0,0,0-4.15-1.46A16.81,16.81,0,0,0,120.77,66.85Zm-4,7.37,1.35-1.61c2-.12,5.54,1.71,9,3.49,5.77,3,13,6.66,20.53,6.18-11.76,7.29-25.43,5.23-36,3.61-1.53-.28-3.07-.5-4.61-.67C109.87,82.32,113.42,78.16,116.72,74.22ZM75.61,106.57c10.17-8.89,20.66-18.07,26.11-17.69h.17a.89.89,0,0,0,.23,0,60.58,60.58,0,0,1,8.91,1c8.23,1.25,19.07,2.9,29.58-.13a37.09,37.09,0,0,0,11-5.29c-10.91,13.19-16.49,23.53-17.84,26.16-4,1.86-8,3.85-12.18,5.89q-3.52,1.76-7.11,3.5c-16.35-11.22-26.81-10.93-33.77-10.74-3.41.1-5.56.1-7.32-.78ZM40.8,133.13c.29-1.34,1.34-2.41,3.23-3.26,8.51-3.88,17.65-11.27,26.2-18.63,3.12,2.24,6.62,2.15,10.59,2,6.52-.15,15.31-.39,29.42,8.76a164.42,164.42,0,0,1-26.81,10.18A241.29,241.29,0,0,1,44,139.35l-.92.08h0C41.94,138,40.37,135.28,40.8,133.13Zm114.9-7.4h0Zm1.25-1a2.38,2.38,0,0,0-.38.11c-2.91,1.07-59.85,18.27-78.16,21.32-18.67,3.12-29.89,2.93-33.33-.55a3.33,3.33,0,0,1-1-2.3h.29a246.36,246.36,0,0,0,40.13-7.25c14.71-4,27-10.1,38.89-16,8.41-4.16,16.32-8.08,24.74-11.13,18.08-6.53,33.9-12.11,37.36-13.33,1.85.78,7.36,3.41,8.69,8C190,112.13,177.5,119.21,157,124.78Z"/><polygon class="cls-2" points="29.17 59.72 68.45 24 29.17 24 29.17 59.72"/><g class="cls-4"><g class="cls-5"><circle class="cls-6" cx="-2.57" r="92.81"/><circle class="cls-7" cx="262.77" cy="103.79" r="92.81"/><circle class="cls-8" cx="66.05" cy="219.23" r="92.81"/></g></g></svg>