<svg id="type-static" viewBox="0 0 188 138" fill="none" xmlns="http://www.w3.org/2000/svg">
<g id="type-1" clip-path="url(#clip0_2_3)">
<rect width="187.71" height="137.08" fill="white"/>
<path id="desktop" d="M181.37 136.58H6.34C3.11 136.58 0.5 133.96 0.5 130.74V6.34C0.5 3.11 3.12 0.5 6.34 0.5H181.36C184.59 0.5 187.2 3.12 187.2 6.34V130.74C187.21 133.97 184.59 136.58 181.37 136.58Z" stroke="#F0EEEE" stroke-miterlimit="10"/>
<path id="tatble" d="M187.21 24.75H0.5V6.98C0.5 3.4 3.4 0.5 6.98 0.5H179.82C183.9 0.5 187.21 3.81 187.21 7.89V24.75V24.75Z" fill="#EBEBEB"/>
<path id="search" d="M132.13 17.97H54.85C52.2 17.97 50.06 15.82 50.06 13.18C50.06 10.53 52.21 8.39 54.85 8.39H132.13C134.78 8.39 136.92 10.54 136.92 13.18C136.93 15.82 134.78 17.97 132.13 17.97Z" fill="white"/>
<path id="button" d="M168.52 17.97H146.41C145.31 17.97 144.42 17.08 144.42 15.98V10.37C144.42 9.27 145.31 8.38 146.41 8.38H168.52C169.62 8.38 170.51 9.27 170.51 10.37V15.98C170.51 17.08 169.62 17.97 168.52 17.97Z" fill="#D8D8D8"/>
<g id="LOGO">
<path id="Vector" d="M33.23 9.94H7.60001V13.07H33.23V9.94Z" fill="#D8D8D8"/>
<path id="Vector_2" d="M26.9 14.62H7.60001V17.75H26.9V14.62Z" fill="#D8D8D8"/>
</g>
<g id="content">
<rect id="Rectangle 1" x="8" y="41" width="89" height="8" fill="#D8D8D8"/>
<rect id="Rectangle 2" x="8" y="59" width="113" height="8" fill="#F0EEEE"/>
<rect id="Rectangle 3" x="8" y="77" width="113" height="8" fill="#F0EEEE"/>
<rect id="Rectangle 4" x="8" y="95" width="82" height="8" fill="#F0EEEE"/>
</g>
<rect id="ads" x="132" y="39" width="44" height="59" fill="#F0EEEE"/>
<g id="Group 2">
<path id="Vector 1" d="M146.547 59.9245H152.509V58.9245H146.547V59.9245Z" fill="#B9B9B9"/>
<rect id="Rectangle 5" x="144.066" y="55.4528" width="21.3585" height="22.8491" rx="1.5" stroke="#B9B9B9"/>
<path id="Vector 2" d="M146.547 62.9057H152.509V61.9057H146.547V62.9057Z" fill="#B9B9B9"/>
<path id="Vector 3" d="M146.547 72.8396H151.019L154 75.8207L155.491 68.3679L158.472 72.8396H162.198" stroke="#B9B9B9" stroke-width="0.8"/>
<path id="Rectangle 7" d="M148.271 78.5H161.729C162.052 78.5 162.291 78.8031 162.215 79.1178L160.518 86.1178C160.463 86.3421 160.262 86.5 160.032 86.5H149.968C149.738 86.5 149.537 86.3421 149.482 86.1178L147.785 79.1178C147.709 78.8031 147.948 78.5 148.271 78.5Z" stroke="#B9B9B9"/>
<path id="Rectangle 8" d="M161.729 55.5L148.271 55.5C147.948 55.5 147.709 55.1969 147.785 54.8822L149.482 47.8822C149.537 47.6579 149.738 47.5 149.968 47.5L160.032 47.5C160.262 47.5 160.463 47.6579 160.518 47.8822L162.215 54.8822C162.291 55.1969 162.052 55.5 161.729 55.5Z" stroke="#B9B9B9"/>
<rect id="Rectangle 9" x="142.4" y="59.4" width="1.2" height="2.2" stroke="#B9B9B9" stroke-width="0.8"/>
<rect id="Rectangle 10" x="142.4" y="64.4" width="1.2" height="2.2" stroke="#B9B9B9" stroke-width="0.8"/>
</g>
</g>
<defs>
<clipPath id="clip0_2_3">
<rect width="187.71" height="137.08" fill="white"/>
</clipPath>
</defs>
</svg>
