<svg width="64" height="58" viewBox="0 0 64 58" fill="none" xmlns="http://www.w3.org/2000/svg">
<path d="M32.2473 0H19.112C18.7432 14.1108 15.9434 27.8158 9.91644 40.966C14.9962 39.4754 20.143 38.3492 25.3402 37.5874C29.7577 25.6379 32.0629 12.9929 32.2473 0Z" fill="url(#paint0_linear_18_2)"/>
<path d="M15.2896 58C16.5637 55.9712 17.7624 53.9175 18.8857 51.8307C12.6072 53.2384 6.31198 55.2673 0 58H15.2896Z" fill="url(#paint1_linear_18_2)"/>
<path d="M64 38.4569C57.0677 37.1485 50.1103 36.4529 43.178 36.3784C44.9718 40.8749 47.1261 45.3135 49.6744 49.6776C53.5722 49.9757 57.4701 50.4726 61.3595 51.1599L64 38.4569Z" fill="url(#paint2_linear_18_2)"/>
<path d="M25.3401 37.5874C20.1514 38.3492 14.9962 39.4754 9.91644 40.966C7.61965 41.6368 5.33962 42.3821 3.07636 43.2102L0 58C6.32037 55.2673 12.6156 53.2384 18.8857 51.8307C24.2588 50.6299 29.6236 49.8846 34.9716 49.5617C32.8927 45.4874 31.0737 41.3138 29.523 37.0574C28.1231 37.2065 26.7316 37.3804 25.3401 37.5874Z" fill="url(#paint3_linear_18_2)"/>
<path d="M49.6744 49.6859C47.1261 45.3135 44.9718 40.8832 43.178 36.3866C38.4922 24.6442 36.2709 12.4794 35.9439 0H22.8086C22.9847 12.8024 25.2312 25.257 29.523 37.0491C31.0737 41.3138 32.8927 45.4874 34.9716 49.5534C36.4385 52.4186 38.0395 55.2342 39.7663 57.9917H55.0559C53.0944 55.259 51.3006 52.4849 49.6744 49.6859Z" fill="#EFA250"/>
<defs>
<linearGradient id="paint0_linear_18_2" x1="21.0192" y1="19.7106" x2="26.4628" y2="19.0494" gradientUnits="userSpaceOnUse">
<stop offset="0.1924" stop-color="#E34843"/>
<stop offset="1" stop-color="#A2452F"/>
</linearGradient>
<linearGradient id="paint1_linear_18_2" x1="12.8031" y1="66.5307" x2="8.54375" y2="51.4402" gradientUnits="userSpaceOnUse">
<stop offset="0.7208" stop-color="#E34843"/>
<stop offset="0.7261" stop-color="#DD4841"/>
<stop offset="0.7502" stop-color="#C7473A"/>
<stop offset="0.7786" stop-color="#B64635"/>
<stop offset="0.8137" stop-color="#AB4532"/>
<stop offset="0.8631" stop-color="#A44530"/>
<stop offset="1" stop-color="#A2452F"/>
</linearGradient>
<linearGradient id="paint2_linear_18_2" x1="68.3399" y1="35.6249" x2="46.4352" y2="47.007" gradientUnits="userSpaceOnUse">
<stop offset="0.8893" stop-color="#E55E39"/>
<stop offset="1" stop-color="#B64E30"/>
</linearGradient>
<linearGradient id="paint3_linear_18_2" x1="0.633462" y1="52.5345" x2="31.4297" y2="41.9454" gradientUnits="userSpaceOnUse">
<stop offset="0.9405" stop-color="#E55E39"/>
<stop offset="1" stop-color="#C85434"/>
</linearGradient>
</defs>
</svg>
