<svg width="276" height="312" viewBox="0 0 276 312" fill="none" xmlns="http://www.w3.org/2000/svg"><g id="Group"><g id="Group_2"><path id="Vector" d="M203.6 72.6a.8.8 0 0 1-1.5.2h-.7v.1a.8.8 0 0 1-1.6.2h-.6a.8.8 0 0 1-1.6.3v-.1h-.6v.1a.8.8 0 0 1-1.6.2h-.7a.8.8 0 0 1-1.5.3h-.7a.8.8 0 0 1-1.5.2h-.7v.1a.8.8 0 0 1-1.5.2h-.7a.8.8 0 0 1-1.5.3v-.1h-.7v.1a.8.8 0 0 1-1.6.2h-.6a.8.8 0 0 1-1.6.3h-.6a.8.8 0 0 1-1.6.2h-.7v.1a.8.8 0 0 1-1.5.2h-.7a.8.8 0 0 1-1.5.3v-.1h-1l3.4 29.7 29.6-3.4-3.3-29.6h-.6Z" fill="#FFF200"/><path id="Vector_2" d="M241.2 68.3a.8.8 0 0 1-1.6.3v-.1h-.7v.1a.8.8 0 0 1-1.5.2h-.7v.1a.8.8 0 0 1-1.5.2h-.7a.8.8 0 0 1-1.5.2h-.7v.1a.8.8 0 0 1-1.5.2h-.7a.8.8 0 0 1-1.5.3v-.1h-.7v.1a.8.8 0 0 1-1.6.2h-.6v.1a.8.8 0 0 1-1.6.2h-.6a.8.8 0 0 1-1.6.2h-.7v.1a.8.8 0 0 1-1.5.2h-.7a.8.8 0 0 1-1.5.3V71h-.7v.1a.8.8 0 0 1-1.5.2h-.7v.1a.8.8 0 0 1-1.5.2h-1l3.4 29.6 29.6-3.3-3.3-29.6h-.6Z" fill="#8DC63F"/><path id="Vector_3" d="M207.6 107.8a.8.8 0 0 1-1.5.2h-.7a.8.8 0 0 1-1.6.3v-.1h-.6v.1a.8.8 0 0 1-1.6.2h-.6v.1a.8.8 0 0 1-1.6.2h-.7a.8.8 0 0 1-1.5.2h-.7v.1a.8.8 0 0 1-1.5.2h-.7a.8.8 0 0 1-1.5.3v-.1h-.7v.1a.8.8 0 0 1-1.5.2h-.7v.1a.8.8 0 0 1-1.6.2h-.6a.8.8 0 0 1-1.6.2h-.7v.1a.8.8 0 0 1-1.5.2h-.7a.8.8 0 0 1-1.5.3v-.1h-.7v.1a.8.8 0 0 1-1.5.2h-1l3.4 29.7 29.6-3.4-3.3-29.6h-.6Z" fill="#F9558C"/><path id="Vector_4" d="M245.2 103.5a.8.8 0 0 1-1.6.2h-.7v.1a.8.8 0 0 1-1.5.2h-.7a.8.8 0 0 1-1.5.2h-.7v.1a.8.8 0 0 1-1.5.2h-.7a.8.8 0 0 1-1.5.3v-.1h-.7v.1a.8.8 0 0 1-1.5.2h-.7v.1a.8.8 0 0 1-1.6.2h-.6a.8.8 0 0 1-1.6.2h-.6v.1a.8.8 0 0 1-1.6.2h-.7a.8.8 0 0 1-1.5.3v-.1h-.7v.1a.8.8 0 0 1-1.5.2h-.7v.1a.8.8 0 0 1-1.5.2h-.7a.8.8 0 0 1-1.5.2h-1l3.4 29.7 29.6-3.4-3.4-29.6h-.5Z" fill="#fff"/><g id="Group_3" fill="#000"><path id="Vector_5" opacity=".1" d="m206.3 91.7-8 11.5 9.2-1-1.2-10.5Z"/><path id="Vector_6" opacity=".1" d="m206.3 91.7-8 11.5 8.3-9.3-.3-2.2Z"/></g><g id="Group_4" fill="#000"><path id="Vector_7" opacity=".1" d="m244 87.5-8.2 11.4 9.3-1-1.2-10.4Z"/><path id="Vector_8" opacity=".1" d="m244 87.5-8.2 11.4 8.4-9.3-.3-2.1Z"/></g><g id="Group_5" fill="#000"><path id="Vector_9" opacity=".1" d="m248 122.6-8.2 11.5 9.3-1-1.2-10.5Z"/><path id="Vector_10" opacity=".1" d="m248 122.6-8.2 11.5 8.3-9.3-.2-2.2Z"/></g><g id="Group_6" fill="#000"><path id="Vector_11" opacity=".1" d="m210.3 127-8.2 11.3 9.4-1-1.2-10.4Z"/><path id="Vector_12" opacity=".1" d="m210.3 127-8.2 11.3 8.4-9.3-.2-2Z"/></g></g><g id="Group_7"><g id="Group_8"><g id="Group_9"><g id="Group_10"><path id="Vector_13" d="M225.5 126H142a4.2 4.2 0 0 0-4.2 4.1v117.4c0 2.3 2 4.2 4.2 4.2h83.5c2.4 0 4.2-1.8 4.2-4.2V130.1c0-2.3-1.8-4.2-4.2-4.2Z" fill="#F59817"/><path id="Vector_14" d="M156.1 126h-14a4.2 4.2 0 0 0-4.3 4.1v117.4c0 2.3 2 4.2 4.2 4.2h14.1V126Z" fill="#C77B13"/></g><g id="Group_11"><path id="Vector_15" d="M47.5 126H131c2.3 0 4.2 1.8 4.2 4.1v117.4c0 2.3-1.8 4.2-4.2 4.2H47.5a4.2 4.2 0 0 1-4.2-4.2V130.1c0-2.3 2-4.2 4.2-4.2Z" fill="#F59817"/><path id="Vector_16" d="M117 126h14c2.3 0 4.2 1.8 4.2 4.1v117.4c0 2.3-1.8 4.2-4.2 4.2h-14V126Z" fill="#C77B13"/></g></g><g id="Group_12"><path id="Vector_17" d="M224 129.4h-84v118.4h84V129.4Z" fill="#fff"/><path id="Vector_18" d="M215.5 138.2h-67.8a.7.7 0 0 1 0-1.3h67.8c.4 0 .7.3.7.6 0 .4-.3.7-.7.7Z" fill="#E6E7E8"/><path id="Vector_19" d="M215.5 149h-67.8a.7.7 0 0 1 0-1.3h67.8c.4 0 .7.3.7.7 0 .3-.3.6-.7.6Z" fill="#E6E7E8"/><path id="Vector_20" d="M150.8 140.1a2.7 2.7 0 1 0 0 5.3 2.7 2.7 0 0 0 0-5.3Zm0 4.5a1.9 1.9 0 0 1 0-3.7c1 0 1.9.9 1.9 1.9 0 1-.9 1.8-1.9 1.8Z" fill="#E6E7E8"/><path id="Vector_21" d="M215.5 160.2h-67.8a.7.7 0 0 1 0-1.3h67.8c.4 0 .7.3.7.6 0 .4-.3.7-.7.7Z" fill="#E6E7E8"/><path id="Vector_22" d="M150.8 151.3a2.7 2.7 0 1 0 0 5.3 2.7 2.7 0 0 0 0-5.3Zm0 4.5a1.9 1.9 0 0 1 0-3.7c1 0 1.9.8 1.9 1.8s-.9 2-1.9 2Z" fill="#E6E7E8"/><path id="Vector_23" d="M215.5 171.4h-67.8a.7.7 0 0 1 0-1.4h67.8c.4 0 .7.3.7.7 0 .4-.3.7-.7.7Z" fill="#E6E7E8"/><path id="Vector_24" d="M150.8 162.4a2.7 2.7 0 1 0 0 5.4 2.7 2.7 0 0 0 0-5.4Zm0 4.6a1.9 1.9 0 0 1 0-3.7c1 0 1.9.8 1.9 1.8s-.9 1.9-1.9 1.9Z" fill="#E6E7E8"/><path id="Vector_25" d="M215.5 182.6h-67.8a.7.7 0 0 1 0-1.4h67.8c.4 0 .7.3.7.7 0 .3-.3.7-.7.7Z" fill="#E6E7E8"/><path id="Vector_26" d="M150.8 173.6a2.7 2.7 0 1 0 0 5.4 2.7 2.7 0 0 0 0-5.4Zm0 4.6a1.9 1.9 0 0 1 0-3.8c1 0 1.9.9 1.9 2 0 1-.9 1.8-1.9 1.8Z" fill="#E6E7E8"/><path id="Vector_27" d="M215.5 193.7h-67.8a.7.7 0 0 1 0-1.3h67.8c.4 0 .7.3.7.7 0 .3-.3.6-.7.6Z" fill="#E6E7E8"/><path id="Vector_28" d="M150.8 184.8a2.7 2.7 0 1 0 0 5.3 2.7 2.7 0 0 0 0-5.3Zm0 4.5a1.9 1.9 0 0 1 0-3.7c1 0 1.9.9 1.9 1.9 0 1-.9 1.8-1.9 1.8Z" fill="#E6E7E8"/><path id="Vector_29" d="M215.5 205h-67.8a.7.7 0 0 1 0-1.4h67.8c.4 0 .7.3.7.6 0 .4-.3.7-.7.7Z" fill="#E6E7E8"/><path id="Vector_30" d="M150.8 196a2.7 2.7 0 1 0 0 5.3 2.7 2.7 0 0 0 0-5.3Zm0 4.5a1.9 1.9 0 0 1 0-3.7c1 0 1.9.8 1.9 1.9 0 1-.9 1.8-1.9 1.8Z" fill="#E6E7E8"/><path id="Vector_31" d="M215.5 216h-67.8a.7.7 0 0 1 0-1.3h67.8c.4 0 .7.4.7.7 0 .4-.3.7-.7.7Z" fill="#E6E7E8"/><path id="Vector_32" d="M150.8 207.2a2.7 2.7 0 1 0 0 5.3 2.7 2.7 0 0 0 0-5.3Zm0 4.5a1.9 1.9 0 0 1 0-3.7c1 0 1.9.8 1.9 1.8s-.9 1.9-1.9 1.9Z" fill="#E6E7E8"/><path id="Vector_33" d="M215.5 227.3h-67.8a.7.7 0 0 1 0-1.4h67.8c.4 0 .7.3.7.7 0 .4-.3.7-.7.7Z" fill="#E6E7E8"/><path id="Vector_34" d="M150.8 218.3a2.7 2.7 0 1 0 0 5.4 2.7 2.7 0 0 0 0-5.4Zm0 4.6a1.9 1.9 0 0 1 0-3.7c1 0 1.9.8 1.9 1.8s-.9 1.9-1.9 1.9Z" fill="#E6E7E8"/><path id="Vector_35" d="M215.5 238.4h-67.8a.7.7 0 0 1 0-1.3h67.8c.4 0 .7.3.7.7 0 .3-.3.6-.7.6Z" fill="#E6E7E8"/><path id="Vector_36" d="M150.8 229.5a2.7 2.7 0 1 0 0 5.4 2.7 2.7 0 0 0 0-5.4Zm0 4.6a1.9 1.9 0 0 1 0-3.8c1 0 1.9.9 1.9 1.9 0 1-.9 1.9-1.9 1.9Z" fill="#E6E7E8"/></g><g id="Group_13"><path id="Vector_37" d="M132.8 129.4H48.6v118.4h84.2V129.4Z" fill="#fff"/><path id="Vector_38" d="M124.3 138.2h-68a.7.7 0 0 1 0-1.3h68c.3 0 .6.3.6.6 0 .4-.3.7-.7.7Z" fill="#E6E7E8"/><path id="Vector_39" d="M124.3 149h-68a.7.7 0 0 1 0-1.3h68c.3 0 .6.3.6.7 0 .3-.3.6-.7.6Z" fill="#E6E7E8"/><path id="Vector_40" d="M59.5 140.1a2.7 2.7 0 1 0 0 5.3 2.7 2.7 0 0 0 0-5.3Zm0 4.5a1.9 1.9 0 1 1 0-3.7 1.9 1.9 0 0 1 0 3.7Z" fill="#E6E7E8"/><path id="Vector_41" d="M124.3 160.2h-68a.7.7 0 0 1 0-1.3h68c.3 0 .6.3.6.6 0 .4-.3.7-.7.7Z" fill="#E6E7E8"/><path id="Vector_42" d="M59.5 151.3a2.7 2.7 0 1 0 0 5.3 2.7 2.7 0 0 0 0-5.3Zm0 4.5a1.9 1.9 0 1 1 0-3.7 1.9 1.9 0 0 1 0 3.7Z" fill="#E6E7E8"/><path id="Vector_43" d="M124.3 171.4h-68a.7.7 0 0 1 0-1.4h68c.3 0 .6.3.6.7 0 .4-.3.7-.7.7Z" fill="#E6E7E8"/><path id="Vector_44" d="M59.5 162.4a2.7 2.7 0 1 0 0 5.4 2.7 2.7 0 0 0 0-5.4Zm0 4.6a1.9 1.9 0 1 1 0-3.7 1.9 1.9 0 0 1 0 3.7Z" fill="#E6E7E8"/><path id="Vector_45" d="M124.3 182.6h-68a.7.7 0 0 1 0-1.4h68c.3 0 .6.3.6.7 0 .3-.3.7-.7.7Z" fill="#E6E7E8"/><path id="Vector_46" d="M59.5 173.6a2.7 2.7 0 1 0 0 5.4 2.7 2.7 0 0 0 0-5.4Zm0 4.6a1.9 1.9 0 1 1 0-3.8 1.9 1.9 0 0 1 0 3.8Z" fill="#E6E7E8"/><path id="Vector_47" d="M124.3 193.7h-68a.7.7 0 0 1 0-1.3h68c.3 0 .6.3.6.7 0 .3-.3.6-.7.6Z" fill="#E6E7E8"/><path id="Vector_48" d="M59.5 184.8a2.7 2.7 0 1 0 0 5.3 2.7 2.7 0 0 0 0-5.3Zm0 4.5a1.9 1.9 0 1 1 0-3.7 1.9 1.9 0 0 1 0 3.7Z" fill="#E6E7E8"/><path id="Vector_49" d="M124.3 205h-68a.7.7 0 0 1 0-1.4h68c.3 0 .6.3.6.6 0 .4-.3.7-.7.7Z" fill="#E6E7E8"/><path id="Vector_50" d="M59.5 196a2.7 2.7 0 1 0 0 5.3 2.7 2.7 0 0 0 0-5.3Zm0 4.5a1.9 1.9 0 1 1 0-3.7 1.9 1.9 0 0 1 0 3.7Z" fill="#E6E7E8"/><path id="Vector_51" d="M124.3 216h-68a.7.7 0 0 1 0-1.3h68c.3 0 .6.4.6.7 0 .4-.3.7-.7.7Z" fill="#E6E7E8"/><path id="Vector_52" d="M59.5 207.2a2.7 2.7 0 1 0 0 5.3 2.7 2.7 0 0 0 0-5.3Zm0 4.5a1.9 1.9 0 1 1 0-3.7 1.9 1.9 0 0 1 0 3.7Z" fill="#E6E7E8"/><path id="Vector_53" d="M124.3 227.3h-68a.7.7 0 0 1 0-1.4h68c.3 0 .6.3.6.7 0 .4-.3.7-.7.7Z" fill="#E6E7E8"/><path id="Vector_54" d="M59.5 218.3a2.7 2.7 0 1 0 0 5.4 2.7 2.7 0 0 0 0-5.4Zm0 4.6a1.9 1.9 0 1 1 0-3.7 1.9 1.9 0 0 1 0 3.7Z" fill="#E6E7E8"/><path id="Vector_55" d="M124.3 238.4h-68a.7.7 0 0 1 0-1.3h68c.3 0 .6.3.6.7 0 .3-.3.6-.7.6Z" fill="#E6E7E8"/><path id="Vector_56" d="M59.5 229.5a2.7 2.7 0 1 0 0 5.4 2.7 2.7 0 0 0 0-5.4Zm0 4.6a1.9 1.9 0 1 1 0-3.8 1.9 1.9 0 0 1 0 3.8Z" fill="#E6E7E8"/></g><g id="Group_14"><g id="Group_15"><path id="Vector_57" d="M140.5 133.5h-7.8c-.7 0-1.3-.6-1.3-1.3 0-.7.6-1.3 1.3-1.3h7.8c.7 0 1.3.6 1.3 1.3 0 .7-.6 1.3-1.3 1.3Z" fill="#D1D3D4"/><path id="Vector_58" opacity=".1" d="M140.5 131h-4v2.5h4c.7 0 1.3-.6 1.3-1.3 0-.7-.6-1.3-1.3-1.3Z" fill="#231F20" fill-opacity=".1"/></g><g id="Group_16"><path id="Vector_59" d="M140.5 140.1h-7.8c-.7 0-1.3-.6-1.3-1.3 0-.7.6-1.3 1.3-1.3h7.8c.7 0 1.3.6 1.3 1.3 0 .7-.6 1.3-1.3 1.3Z" fill="#D1D3D4"/><path id="Vector_60" opacity=".1" d="M140.5 137.5h-4v2.6h4c.7 0 1.3-.6 1.3-1.3 0-.7-.6-1.3-1.3-1.3Z" fill="#231F20" fill-opacity=".1"/></g><g id="Group_17"><path id="Vector_61" d="M140.5 146.7h-7.8c-.7 0-1.3-.6-1.3-1.3 0-.7.6-1.3 1.3-1.3h7.8c.7 0 1.3.6 1.3 1.3 0 .7-.6 1.3-1.3 1.3Z" fill="#D1D3D4"/><path id="Vector_62" opacity=".1" d="M140.5 144.1h-4v2.6h4c.7 0 1.3-.6 1.3-1.3 0-.7-.6-1.3-1.3-1.3Z" fill="#231F20" fill-opacity=".1"/></g><g id="Group_18"><path id="Vector_63" d="M140.5 153.3h-7.8c-.7 0-1.3-.6-1.3-1.3 0-.7.6-1.3 1.3-1.3h7.8c.7 0 1.3.6 1.3 1.3 0 .7-.6 1.3-1.3 1.3Z" fill="#D1D3D4"/><path id="Vector_64" opacity=".1" d="M140.5 150.7h-4v2.6h4c.7 0 1.3-.6 1.3-1.3 0-.7-.6-1.3-1.3-1.3Z" fill="#231F20" fill-opacity=".1"/></g><g id="Group_19"><path id="Vector_65" d="M140.5 159.9h-7.8c-.7 0-1.3-.6-1.3-1.3 0-.7.6-1.3 1.3-1.3h7.8c.7 0 1.3.6 1.3 1.3 0 .7-.6 1.3-1.3 1.3Z" fill="#D1D3D4"/><path id="Vector_66" opacity=".1" d="M140.5 157.3h-4v2.6h4c.7 0 1.3-.6 1.3-1.3 0-.7-.6-1.3-1.3-1.3Z" fill="#231F20" fill-opacity=".1"/></g><g id="Group_20"><path id="Vector_67" d="M140.5 166.5h-7.8c-.7 0-1.3-.6-1.3-1.3 0-.7.6-1.3 1.3-1.3h7.8c.7 0 1.3.6 1.3 1.3 0 .7-.6 1.3-1.3 1.3Z" fill="#D1D3D4"/><path id="Vector_68" opacity=".1" d="M140.5 164h-4v2.5h4c.7 0 1.3-.6 1.3-1.3 0-.7-.6-1.3-1.3-1.3Z" fill="#231F20" fill-opacity=".1"/></g><g id="Group_21"><path id="Vector_69" d="M140.5 173h-7.8c-.7 0-1.3-.5-1.3-1.2s.6-1.3 1.3-1.3h7.8c.7 0 1.3.6 1.3 1.3 0 .7-.6 1.3-1.3 1.3Z" fill="#D1D3D4"/><path id="Vector_70" opacity=".1" d="M140.5 170.5h-4v2.6h4c.7 0 1.3-.6 1.3-1.3 0-.7-.6-1.3-1.3-1.3Z" fill="#231F20" fill-opacity=".1"/></g><g id="Group_22"><path id="Vector_71" d="M140.5 179.7h-7.8c-.7 0-1.3-.6-1.3-1.3 0-.7.6-1.3 1.3-1.3h7.8c.7 0 1.3.6 1.3 1.3 0 .7-.6 1.3-1.3 1.3Z" fill="#D1D3D4"/><path id="Vector_72" opacity=".1" d="M140.5 177.1h-4v2.6h4c.7 0 1.3-.6 1.3-1.3 0-.7-.6-1.3-1.3-1.3Z" fill="#231F20" fill-opacity=".1"/></g><g id="Group_23"><path id="Vector_73" d="M140.5 186.3h-7.8c-.7 0-1.3-.6-1.3-1.3 0-.7.6-1.3 1.3-1.3h7.8c.7 0 1.3.6 1.3 1.3 0 .7-.6 1.3-1.3 1.3Z" fill="#D1D3D4"/><path id="Vector_74" opacity=".1" d="M140.5 183.7h-4v2.6h4c.7 0 1.3-.6 1.3-1.3 0-.7-.6-1.3-1.3-1.3Z" fill="#231F20" fill-opacity=".1"/></g><g id="Group_24"><path id="Vector_75" d="M140.5 192.8h-7.8c-.7 0-1.3-.5-1.3-1.2s.6-1.3 1.3-1.3h7.8c.7 0 1.3.6 1.3 1.3 0 .7-.6 1.3-1.3 1.3Z" fill="#D1D3D4"/><path id="Vector_76" opacity=".1" d="M140.5 190.3h-4v2.5h4c.7 0 1.3-.5 1.3-1.2s-.6-1.3-1.3-1.3Z" fill="#231F20" fill-opacity=".1"/></g><g id="Group_25"><path id="Vector_77" d="M140.5 199.4h-7.8c-.7 0-1.3-.5-1.3-1.2 0-.8.6-1.3 1.3-1.3h7.8c.7 0 1.3.5 1.3 1.3 0 .7-.6 1.2-1.3 1.2Z" fill="#D1D3D4"/><path id="Vector_78" opacity=".1" d="M140.5 196.9h-4v2.5h4c.7 0 1.3-.5 1.3-1.2 0-.8-.6-1.3-1.3-1.3Z" fill="#231F20" fill-opacity=".1"/></g><g id="Group_26"><path id="Vector_79" d="M140.5 206h-7.8c-.7 0-1.3-.5-1.3-1.3 0-.7.6-1.2 1.3-1.2h7.8c.7 0 1.3.5 1.3 1.3 0 .7-.6 1.2-1.3 1.2Z" fill="#D1D3D4"/><path id="Vector_80" opacity=".1" d="M140.5 203.5h-4v2.5h4c.7 0 1.3-.5 1.3-1.3 0-.7-.6-1.2-1.3-1.2Z" fill="#231F20" fill-opacity=".1"/></g><g id="Group_27"><path id="Vector_81" d="M140.5 212.6h-7.8c-.7 0-1.3-.5-1.3-1.3 0-.7.6-1.2 1.3-1.2h7.8c.7 0 1.3.5 1.3 1.3 0 .7-.6 1.2-1.3 1.2Z" fill="#D1D3D4"/><path id="Vector_82" opacity=".1" d="M140.5 210h-4v2.6h4c.7 0 1.3-.5 1.3-1.3 0-.7-.6-1.2-1.3-1.2Z" fill="#231F20" fill-opacity=".1"/></g><g id="Group_28"><path id="Vector_83" d="M140.5 219.2h-7.8c-.7 0-1.3-.5-1.3-1.3 0-.7.6-1.2 1.3-1.2h7.8c.7 0 1.3.5 1.3 1.2 0 .8-.6 1.3-1.3 1.3Z" fill="#D1D3D4"/><path id="Vector_84" opacity=".1" d="M140.5 216.7h-4v2.5h4c.7 0 1.3-.5 1.3-1.3 0-.7-.6-1.2-1.3-1.2Z" fill="#231F20" fill-opacity=".1"/></g><g id="Group_29"><path id="Vector_85" d="M140.5 225.8h-7.8c-.7 0-1.3-.6-1.3-1.3 0-.7.6-1.3 1.3-1.3h7.8c.7 0 1.3.6 1.3 1.3 0 .7-.6 1.3-1.3 1.3Z" fill="#D1D3D4"/><path id="Vector_86" opacity=".1" d="M140.5 223.3h-4v2.5h4c.7 0 1.3-.6 1.3-1.3 0-.7-.6-1.3-1.3-1.3Z" fill="#231F20" fill-opacity=".1"/></g><g id="Group_30"><path id="Vector_87" d="M140.5 232.4h-7.8c-.7 0-1.3-.6-1.3-1.3 0-.7.6-1.3 1.3-1.3h7.8c.7 0 1.3.6 1.3 1.3 0 .7-.6 1.3-1.3 1.3Z" fill="#D1D3D4"/><path id="Vector_88" opacity=".1" d="M140.5 229.8h-4v2.6h4c.7 0 1.3-.6 1.3-1.3 0-.7-.6-1.3-1.3-1.3Z" fill="#231F20" fill-opacity=".1"/></g><g id="Group_31"><path id="Vector_89" d="M140.5 239h-7.8c-.7 0-1.3-.6-1.3-1.3 0-.7.6-1.3 1.3-1.3h7.8c.7 0 1.3.6 1.3 1.3 0 .7-.6 1.3-1.3 1.3Z" fill="#D1D3D4"/><path id="Vector_90" opacity=".1" d="M140.5 236.4h-4v2.6h4c.7 0 1.3-.6 1.3-1.3 0-.7-.6-1.3-1.3-1.3Z" fill="#231F20" fill-opacity=".1"/></g><g id="Group_32"><path id="Vector_91" d="M140.5 245.6h-7.8c-.7 0-1.3-.6-1.3-1.3 0-.7.6-1.3 1.3-1.3h7.8c.7 0 1.3.6 1.3 1.3 0 .7-.6 1.3-1.3 1.3Z" fill="#D1D3D4"/><path id="Vector_92" opacity=".1" d="M140.5 243h-4v2.6h4c.7 0 1.3-.6 1.3-1.3 0-.7-.6-1.3-1.3-1.3Z" fill="#231F20" fill-opacity=".1"/></g></g></g></g><g id="hand"><g id="left_hand"><path id="Vector_93" d="M111.3 221.8c-3.6.3-7 2.2-9 5.2l-2 2.8a1 1 0 0 1-1.6-.4v-.4l6.4-28.9c.3-1.5-.7-3-2.3-3.2-1.3-.3-2.6.6-3 2l-5.7 22.4c-.1.5-.6.8-1 .6h-.2a.8.8 0 0 1-.6-1l4.3-26.6a3 3 0 0 0-6-1L86 219.6c0 .5-.6.8-1 .6h-.1a.8.8 0 0 1-.7-.9l1.8-21.1a2.6 2.6 0 0 0-5.2-.6l-3 21.4a.8.8 0 0 1-1.7-.2l.8-15a2 2 0 0 0-4-.4l-2.2 15.8c-.2 1-.3 2-.2 3.1l.6 24.9-3 13.8 20.7 5.3 2.3-14.9 9.3-6.4c.8-.5 1.4-1.2 1.8-2l10.2-19.6c.3-.8-.3-1.6-1-1.6Z" fill="#FFD1A6"/><g id="Group_33"><path id="Vector_94" d="M91.6 253.3 69.2 249c-1.6-.2-3 .8-3.3 2.3L57.1 284l25.5 14 11.2-41.5c.3-1.5-.7-3-2.2-3.2Z" fill="#91CF61"/><path id="Vector_95" d="m92 266.6-28-5.2-.9 4.6 28 5.3.8-4.7Z" fill="#7FA86B"/></g></g><g id="right_hand"><g id="Group_34"><path id="Vector_96" d="M212 185.6c-1-4.4-2.9-8.4-5.4-12.1a6.2 6.2 0 0 0-5.3-2.7l-5.5-4.4a5.8 5.8 0 0 0-6.5-.6l-1 .6-5.6-.4c-.7-.1-1.5 0-2.2.2v-.1l-.3.2c-.9.2-1.7.7-2.4 1.4l-12.5 7.5c-1 .5-1.6 1.3-2 2.3l-4.7 10.3c-.6 1.2.4 2.5 1.6 2.3 3-.3 5.5-2 7-4.5l2-3.2 8.1-3.1 7.3 11.4a5.2 5.2 0 0 1-8.1 6.5l-4.6-5.7a3.6 3.6 0 0 0-5.7 4.6l9.4 13c3 4.4 8.1 7 13.5 7.1l8.2.2 2.9 7.3 19.5-8.4-7.6-29.7Z" fill="#FFD1A6"/><path id="Vector_97" d="M185.8 187.7 181 180a5.5 5.5 0 0 0-6.8-2.2c-1.3.5-2.7 1.1-3.7 1.7a4.7 4.7 0 0 0-2.2 4.4l.8-1.4 8.2-3.1 7.3 11.4a5.2 5.2 0 0 1-1.7 7.7c2.5-.5 3.6-2.4 4-4.2.6-2.2.1-4.5-1-6.5Z" fill="#FFC187"/><g id="Group_35"><path id="Vector_98" d="M222.4 211.7c-.5-1.5-2-2.2-3.5-1.7l-21.6 7.5c-1.4.5-2.2 2-1.7 3.5l21 65.7 24-21.2-18.2-53.8Z" fill="#91CF61"/><path id="Vector_99" d="m225.8 221.4-26.8 9.3 1.6 4.5 26.8-9.3-1.6-4.5Z" fill="#7FA86B"/></g><g id="Group_36"><g id="Group_37"><path id="Vector_100" d="M162.8 201.8a1.2 1.2 0 1 1-2.2-1.2 1.2 1.2 0 0 1 2.2 1.2Z" fill="#414042"/><g id="Group_38"><path id="Vector_101" d="m183.5 165-4-2-15.6 29.3 4 2 15.6-29.2Z" fill="#D1D3D4"/><path id="Vector_102" d="m182.3 164.4-1.6-.9L165 193l1.6.8 15.6-29.3Z" fill="#BCBEC0"/><path id="Vector_103" d="m181.8 164.1-.6-.3-15.6 29.4.6.3 15.6-29.4Z" fill="#808285"/></g><path id="Vector_104" d="m164 192.3 4 2-5.2 7.5-2.2-1.2 3.3-8.3Z" fill="#808285"/><path id="Vector_105" opacity=".1" d="m161.7 201.2 1.1.6 5.1-7.4-2-1-4.2 7.8Z" fill="#231F20" fill-opacity=".1"/></g><path id="Vector_106" d="m179 163.4 4.4 2.4 7-13.3c.6-1.2.2-2.8-1-3.4a2.5 2.5 0 0 0-3.4 1l-7 13.3Z" fill="#F3B027"/><path id="Vector_107" opacity=".1" d="m189.4 149.1-.3-.1-8.2 15.4 2.5 1.4 7-13.3c.6-1.2.2-2.8-1-3.4Z" fill="#231F20" fill-opacity=".1"/></g></g><path id="Vector_108" d="m176.5 197.2-4.6-5.7a3.6 3.6 0 0 0-5.7 4.6l9.3 13 1-11.9Z" fill="#FFD1A6"/></g></g><path id="Vector_109" d="M138 312a137 137 0 0 0 97.4-40.4 137 137 0 0 0 40.4-97.5 137 137 0 0 0-40.4-97.5A137 137 0 0 0 138 36.1a137 137 0 0 0-97.5 40.3A137 137 0 0 0 0 174.1a137 137 0 0 0 40.4 97.5 137 137 0 0 0 97.5 40.4ZM138 41a133 133 0 1 1 0 266 133 133 0 0 1 0-266Z" fill="#F3FBFF"/><g id="Group 4"><g id="Group_39"><path id="Vector_110" d="M98.9 54.9c13.5 0 24.4-4.6 24.4-10.1 0-5.6-11-10.1-24.4-10.1-13.5 0-24.4 4.5-24.4 10 0 5.6 11 10.2 24.4 10.2Z" fill="#FFC5BD"/><path id="Vector_111" d="M120 44.8c0 4.8-9.4 8.7-21.1 8.7-11.7 0-21.1-3.9-21.1-8.7 0-4.9 9.4-8.8 21-8.8 11.8 0 21.2 4 21.2 8.8Z" fill="#F1533E"/><path id="Vector_112" d="M80.4 49A33.2 33.2 0 0 0 99 53.5c8 0 14.8-1.8 18.4-4.5A33.1 33.1 0 0 0 99 44.5c-8 0-14.9 1.8-18.5 4.5Z" fill="#513C2A"/><path id="Vector_113" d="M74.5 92.5c0 5.5 11 10 24.4 10 13.4 0 24.4-4.5 24.4-10V44.7c0 5.6-11 10-24.4 10-13.5 0-24.4-4.4-24.4-10v47.8Z" fill="#F1533E"/><path id="Vector_114" d="M121.8 89.6v-5.1c3.6 0 4.4-1.2 6.4-3.6 4.6-5.6 3.7-20.5 3.3-21.2H123V54h11.6c.7 0 1.3.5 1.4 1.2.2.6 2.8 22-3.7 29.8a13 13 0 0 1-10.6 4.6Z" fill="#EB5036"/><path id="Vector_115" opacity=".1" d="M106 54.4V102c10-1.2 17.3-5 17.3-9.6V44.7c0 4.5-7.3 8.4-17.3 9.6Z" fill="#000"/><path id="Vector_116" d="M78.2 97.8c3.1 2 8 3.6 13.6 4.3V54.4A33 33 0 0 1 78.2 50v47.8Z" fill="#FF8A7A"/><path id="Vector_117" d="M81 51.5c-1-.4-2-1-2.8-1.5v47.8c.8.6 1.8 1 2.8 1.5V51.5Z" fill="#fff"/></g><path id="Vector_118" d="M98.6 41.5a3 3 0 0 1-3-3v-9.8c0-1.7-1.5-3.1-3.2-3.1a9.3 9.3 0 0 1-9.3-9.3V3a3 3 0 1 1 6.1 0v13.2c0 1.7 1.4 3.1 3.2 3.1 5.1 0 9.3 4.2 9.3 9.3v9.8a3 3 0 0 1-3 3Z" fill="#fff"/></g></g></svg>