<svg width="283" height="276" viewBox="0 0 283 276" fill="none" xmlns="http://www.w3.org/2000/svg"><g id="Group"><g id="Group_2"><g id="Group_3"><g id="Group_4"><path id="Vector" d="m159 197-29.6-3.4c-1.3-.2-2.4.8-2.6 2l-4.3 37c-.1 1.3.8 2.5 2.1 2.6l29.6 3.5c1.3.1 2.5-.8 2.6-2.1l4.3-37c.2-1.3-.8-2.4-2-2.6Z" fill="#fff"/><path id="Vector_2" d="M122.5 232.6c-.1 1.3.8 2.5 2.1 2.6l13.2 1.6-13.6-18.4-1.7 14.2Z" fill="#F1F2F2"/></g><g id="Group_5"><path id="Vector_3" d="M207.6 118.3H80.7c-3 0-5.4 2.5-5.4 5.4v46c0 2.9 2.5 5.3 5.4 5.3h126.9c3 0 5.4-2.4 5.4-5.4v-45.9c0-3-2.5-5.4-5.4-5.4Z" fill="#D1D3D4"/><path id="Vector_4" d="M207.6 116.3H80.7c-3 0-5.4 2.5-5.4 5.4v46c0 2.9 2.5 5.3 5.4 5.3h126.9c3 0 5.4-2.4 5.4-5.4v-45.9c0-3-2.5-5.4-5.4-5.4Z" fill="#fff"/><g id="Group_6" fill="#E6E7E8"><path id="Vector_5" d="M90.5 141.2h-7c-.8 0-1.4.6-1.4 1.3v4.7c0 .7.6 1.3 1.3 1.3h7.1c.7 0 1.3-.6 1.3-1.3v-4.7c0-.7-.6-1.3-1.3-1.3Z"/><path id="Vector_6" d="M102.1 141.2h-7c-.8 0-1.3.6-1.3 1.3v4.7c0 .7.5 1.3 1.2 1.3h7.1c.7 0 1.3-.6 1.3-1.3v-4.7c0-.7-.6-1.3-1.3-1.3Z"/><path id="Vector_7" d="M113.8 141.2h-7.1c-.7 0-1.3.6-1.3 1.3v4.7c0 .7.6 1.3 1.3 1.3h7c.8 0 1.3-.6 1.3-1.3v-4.7c0-.7-.5-1.3-1.2-1.3Z"/><path id="Vector_8" d="M125.4 141.2h-7c-.8 0-1.4.6-1.4 1.3v4.7c0 .7.6 1.3 1.3 1.3h7.1c.7 0 1.3-.6 1.3-1.3v-4.7c0-.7-.6-1.3-1.3-1.3Z"/><path id="Vector_9" d="M137 141.2h-7c-.8 0-1.3.6-1.3 1.3v4.7c0 .7.5 1.3 1.2 1.3h7.1c.7 0 1.3-.6 1.3-1.3v-4.7c0-.7-.6-1.3-1.3-1.3Z"/><path id="Vector_10" d="M148.7 141.2h-7.1c-.7 0-1.3.6-1.3 1.3v4.7c0 .7.6 1.3 1.3 1.3h7c.8 0 1.3-.6 1.3-1.3v-4.7c0-.7-.5-1.3-1.2-1.3Z"/><path id="Vector_11" d="M160.3 141.2h-7.1c-.7 0-1.3.6-1.3 1.3v4.7c0 .7.6 1.3 1.3 1.3h7c.8 0 1.4-.6 1.4-1.3v-4.7c0-.7-.6-1.3-1.3-1.3Z"/><path id="Vector_12" d="M172 141.2h-7.2c-.7 0-1.3.6-1.3 1.3v4.7c0 .7.6 1.3 1.3 1.3h7.1c.7 0 1.3-.6 1.3-1.3v-4.7c0-.7-.6-1.3-1.3-1.3Z"/><path id="Vector_13" d="M183.6 141.2h-7.1c-.7 0-1.3.6-1.3 1.3v4.7c0 .7.6 1.3 1.3 1.3h7c.8 0 1.3-.6 1.3-1.3v-4.7c0-.7-.5-1.3-1.2-1.3Z"/><path id="Vector_14" d="M195.2 141.2H188c-.7 0-1.3.6-1.3 1.3v4.7c0 .7.6 1.3 1.3 1.3h7c.8 0 1.4-.6 1.4-1.3v-4.7c0-.7-.6-1.3-1.3-1.3Z"/><path id="Vector_15" d="M206.8 141.2h-7c-.8 0-1.4.6-1.4 1.3v4.7c0 .7.6 1.3 1.3 1.3h7.1c.7 0 1.3-.6 1.3-1.3v-4.7c0-.7-.6-1.3-1.3-1.3Z"/></g><g id="Group_7" fill="#E6E7E8"><path id="Vector_16" d="M96.7 149.7H83.1c-.7 0-1.3.6-1.3 1.3v4.7c0 .7.6 1.3 1.3 1.3h13.6c.7 0 1.3-.6 1.3-1.3V151c0-.7-.6-1.3-1.3-1.3Z"/><path id="Vector_17" d="M108.3 149.7h-7c-.8 0-1.3.6-1.3 1.3v4.7c0 .7.5 1.3 1.3 1.3h7c.8 0 1.3-.6 1.3-1.3V151c0-.7-.5-1.3-1.3-1.3Z"/><path id="Vector_18" d="M120 149.7h-7.1c-.7 0-1.3.6-1.3 1.3v4.7c0 .7.6 1.3 1.3 1.3h7c.8 0 1.4-.6 1.4-1.3V151c0-.7-.6-1.3-1.3-1.3Z"/><path id="Vector_19" d="M131.6 149.7h-7c-.8 0-1.4.6-1.4 1.3v4.7c0 .7.6 1.3 1.3 1.3h7.1c.7 0 1.3-.6 1.3-1.3V151c0-.7-.6-1.3-1.3-1.3Z"/><path id="Vector_20" d="M143.2 149.7h-7c-.8 0-1.3.6-1.3 1.3v4.7c0 .7.5 1.3 1.3 1.3h7c.8 0 1.3-.6 1.3-1.3V151c0-.7-.6-1.3-1.3-1.3Z"/><path id="Vector_21" d="M154.9 149.7h-7.1c-.7 0-1.3.6-1.3 1.3v4.7c0 .7.6 1.3 1.3 1.3h7c.8 0 1.4-.6 1.4-1.3V151c0-.7-.6-1.3-1.3-1.3Z"/><path id="Vector_22" d="M166.5 149.7h-7c-.8 0-1.4.6-1.4 1.3v4.7c0 .7.6 1.3 1.3 1.3h7.1c.7 0 1.3-.6 1.3-1.3V151c0-.7-.6-1.3-1.3-1.3Z"/><path id="Vector_23" d="M178.1 149.7h-7c-.8 0-1.3.6-1.3 1.3v4.7c0 .7.5 1.3 1.3 1.3h7c.8 0 1.3-.6 1.3-1.3V151c0-.7-.6-1.3-1.3-1.3Z"/><path id="Vector_24" d="M189.8 149.7h-7.1c-.7 0-1.3.6-1.3 1.3v4.7c0 .7.6 1.3 1.3 1.3h7c.8 0 1.4-.6 1.4-1.3V151c0-.7-.6-1.3-1.3-1.3Z"/><path id="Vector_25" d="M201.4 149.7h-7c-.8 0-1.4.6-1.4 1.3v4.7c0 .7.6 1.3 1.3 1.3h7.1c.7 0 1.3-.6 1.3-1.3V151c0-.7-.6-1.3-1.3-1.3Z"/><path id="Vector_26" d="M206.7 149.7h-.8c-.7 0-1.2.6-1.2 1.3v4.7c0 .7.5 1.3 1.2 1.3h.8c.7 0 1.2-.6 1.2-1.3V151c0-.7-.5-1.3-1.2-1.3Z"/></g><g id="Group_8" fill="#E6E7E8"><path id="Vector_27" d="M90.5 123.7h-7c-.8 0-1.4.5-1.4 1.2v4.7c0 .7.6 1.3 1.3 1.3h7.1c.7 0 1.3-.6 1.3-1.3V125c0-.7-.6-1.3-1.3-1.3Z"/><path id="Vector_28" d="M102.1 123.7h-7c-.8 0-1.3.5-1.3 1.2v4.7c0 .7.5 1.3 1.2 1.3h7.1c.7 0 1.3-.6 1.3-1.3V125c0-.7-.6-1.3-1.3-1.3Z"/><path id="Vector_29" d="M113.8 123.7h-7.1c-.7 0-1.3.5-1.3 1.2v4.7c0 .7.6 1.3 1.3 1.3h7c.8 0 1.3-.6 1.3-1.3V125c0-.7-.5-1.3-1.2-1.3Z"/><path id="Vector_30" d="M125.4 123.7h-7c-.8 0-1.4.5-1.4 1.2v4.7c0 .7.6 1.3 1.3 1.3h7.1c.7 0 1.3-.6 1.3-1.3V125c0-.7-.6-1.3-1.3-1.3Z"/><path id="Vector_31" d="M137 123.7h-7c-.8 0-1.3.5-1.3 1.2v4.7c0 .7.5 1.3 1.2 1.3h7.1c.7 0 1.3-.6 1.3-1.3V125c0-.7-.6-1.3-1.3-1.3Z"/><path id="Vector_32" d="M148.7 123.7h-7.1c-.7 0-1.3.5-1.3 1.2v4.7c0 .7.6 1.3 1.3 1.3h7c.8 0 1.3-.6 1.3-1.3V125c0-.7-.5-1.3-1.2-1.3Z"/><path id="Vector_33" d="M160.3 123.7h-7.1c-.7 0-1.3.5-1.3 1.2v4.7c0 .7.6 1.3 1.3 1.3h7c.8 0 1.4-.6 1.4-1.3V125c0-.7-.6-1.3-1.3-1.3Z"/><path id="Vector_34" d="M172 123.7h-7.2c-.7 0-1.3.5-1.3 1.2v4.7c0 .7.6 1.3 1.3 1.3h7.1c.7 0 1.3-.6 1.3-1.3V125c0-.7-.6-1.3-1.3-1.3Z"/><path id="Vector_35" d="M183.6 123.7h-7.1c-.7 0-1.3.5-1.3 1.2v4.7c0 .7.6 1.3 1.3 1.3h7c.8 0 1.3-.6 1.3-1.3V125c0-.7-.5-1.3-1.2-1.3Z"/><path id="Vector_36" d="M195.2 123.7H188c-.7 0-1.3.5-1.3 1.2v4.7c0 .7.6 1.3 1.3 1.3h7c.8 0 1.4-.6 1.4-1.3V125c0-.7-.6-1.3-1.3-1.3Z"/><path id="Vector_37" d="M206.8 123.7h-7c-.8 0-1.4.5-1.4 1.2v4.7c0 .7.6 1.3 1.3 1.3h7.1c.7 0 1.3-.6 1.3-1.3V125c0-.7-.6-1.3-1.3-1.3Z"/></g><g id="Group_9" fill="#E6E7E8"><path id="Vector_38" d="M96.7 132.2H83.1c-.7 0-1.3.6-1.3 1.3v4.6c0 .7.6 1.3 1.3 1.3h13.6c.7 0 1.3-.6 1.3-1.3v-4.6c0-.8-.6-1.3-1.3-1.3Z"/><path id="Vector_39" d="M108.3 132.2h-7c-.8 0-1.3.6-1.3 1.3v4.6c0 .7.5 1.3 1.3 1.3h7c.8 0 1.3-.6 1.3-1.3v-4.6c0-.8-.5-1.3-1.3-1.3Z"/><path id="Vector_40" d="M120 132.2h-7.1c-.7 0-1.3.6-1.3 1.3v4.6c0 .7.6 1.3 1.3 1.3h7c.8 0 1.4-.6 1.4-1.3v-4.6c0-.8-.6-1.3-1.3-1.3Z"/><path id="Vector_41" d="M131.6 132.2h-7c-.8 0-1.4.6-1.4 1.3v4.6c0 .7.6 1.3 1.3 1.3h7.1c.7 0 1.3-.6 1.3-1.3v-4.6c0-.8-.6-1.3-1.3-1.3Z"/><path id="Vector_42" d="M143.2 132.2h-7c-.8 0-1.3.6-1.3 1.3v4.6c0 .7.5 1.3 1.3 1.3h7c.8 0 1.3-.6 1.3-1.3v-4.6c0-.8-.6-1.3-1.3-1.3Z"/><path id="Vector_43" d="M154.9 132.2h-7.1c-.7 0-1.3.6-1.3 1.3v4.6c0 .7.6 1.3 1.3 1.3h7c.8 0 1.4-.6 1.4-1.3v-4.6c0-.8-.6-1.3-1.3-1.3Z"/><path id="Vector_44" d="M166.5 132.2h-7c-.8 0-1.4.6-1.4 1.3v4.6c0 .7.6 1.3 1.3 1.3h7.1c.7 0 1.3-.6 1.3-1.3v-4.6c0-.8-.6-1.3-1.3-1.3Z"/><path id="Vector_45" d="M178.1 132.2h-7c-.8 0-1.3.6-1.3 1.3v4.6c0 .7.5 1.3 1.3 1.3h7c.8 0 1.3-.6 1.3-1.3v-4.6c0-.8-.6-1.3-1.3-1.3Z"/><path id="Vector_46" d="M189.8 132.2h-7.1c-.7 0-1.3.6-1.3 1.3v4.6c0 .7.6 1.3 1.3 1.3h7c.8 0 1.4-.6 1.4-1.3v-4.6c0-.8-.6-1.3-1.3-1.3Z"/><path id="Vector_47" d="M201.4 132.2h-7c-.8 0-1.4.6-1.4 1.3v4.6c0 .7.6 1.3 1.3 1.3h7.1c.7 0 1.3-.6 1.3-1.3v-4.6c0-.8-.6-1.3-1.3-1.3Z"/><path id="Vector_48" d="M206.7 132.2h-.8c-.7 0-1.2.6-1.2 1.3v4.6c0 .7.5 1.3 1.2 1.3h.8c.7 0 1.2-.6 1.2-1.3v-4.6c0-.8-.5-1.3-1.2-1.3Z"/></g><g id="Group_10" fill="#E6E7E8"><path id="Vector_49" d="M90.5 159.3h-7c-.8 0-1.4.6-1.4 1.3v4.6c0 .8.6 1.3 1.3 1.3h7.1c.7 0 1.3-.6 1.3-1.3v-4.6c0-.7-.6-1.3-1.3-1.3Z"/><path id="Vector_50" d="M102.1 159.3h-7c-.8 0-1.3.6-1.3 1.3v4.6c0 .8.5 1.3 1.2 1.3h7.1c.7 0 1.3-.6 1.3-1.3v-4.6c0-.7-.6-1.3-1.3-1.3Z"/><path id="Vector_51" d="M113.8 159.3h-7.1c-.7 0-1.3.6-1.3 1.3v4.6c0 .8.6 1.3 1.3 1.3h7c.8 0 1.3-.6 1.3-1.3v-4.6c0-.7-.5-1.3-1.2-1.3Z"/><path id="Vector_52" d="M171.8 159.3h-53.5c-.7 0-1.3.6-1.3 1.3v4.6c0 .8.6 1.3 1.3 1.3h53.5c.7 0 1.3-.6 1.3-1.3v-4.6c0-.7-.6-1.3-1.3-1.3Z"/><path id="Vector_53" d="M183.6 159.3h-7.1c-.7 0-1.3.6-1.3 1.3v4.6c0 .8.6 1.3 1.3 1.3h7c.8 0 1.3-.6 1.3-1.3v-4.6c0-.7-.5-1.3-1.2-1.3Z"/><path id="Vector_54" d="M195.2 159.3H188c-.7 0-1.3.6-1.3 1.3v4.6c0 .8.6 1.3 1.3 1.3h7c.8 0 1.4-.6 1.4-1.3v-4.6c0-.7-.6-1.3-1.3-1.3Z"/><path id="Vector_55" d="M206.8 159.3h-7c-.8 0-1.4.6-1.4 1.3v4.6c0 .8.6 1.3 1.3 1.3h7.1c.7 0 1.3-.6 1.3-1.3v-4.6c0-.7-.6-1.3-1.3-1.3Z"/></g></g><g id="Group_11"><path id="Vector_56" d="m158 187.3-8.1 3 11 30.8 8.1-3-11-30.8Z" fill="#91CF61"/><path id="Vector_57" d="m158 187.3-8.1 3 .3 1 8.2-3-.4-1Z" fill="#D1D3D4"/><path id="Vector_58" d="m153.7 183.6-2.8 1a2.8 2.8 0 0 0-1.8 3.6l.8 2 8.1-2.9-.7-2a2.8 2.8 0 0 0-3.6-1.7Z" fill="#E6E7E8"/><path id="Vector_59" d="M165.4 225c.8.7 2 .3 2.2-.7l1.4-6.1-8.1 2.9 4.5 4Z" fill="#F9BB70"/><path id="Vector_60" d="M165.4 225c.8.7 2 .3 2.2-.7l.4-1.7-3.8 1.4 1.2 1Z" fill="#3A322E"/><path id="Vector_61" d="m157.3 185.4-8.1 2.9.3 1 8.2-2.9-.4-1Z" fill="#D1D3D4"/><path id="Vector_62" opacity=".1" d="m158 187.3-.3-1-.4-1-.3-.8a2 2 0 0 0-2.6-1.2l-2.3.9 14.6 41c.5 0 .8-.4 1-.9l.3-1.7 1-4.4-10.6-29.8-.4-1Z" fill="#231F20"/></g><g id="Group_12"><path id="Vector_63" d="M244.8 105.9a6.9 6.9 0 0 0-8.8-4.3l-9 3.2a6.9 6.9 0 0 0-4.3 8.7l7.4 21.4a6.9 6.9 0 0 0 8.8 4.2l9-3.1a6.9 6.9 0 0 0 4.3-8.8l-7.4-21.3Z" fill="#fff"/><path id="Vector_64" d="M234.6 111a2 2 0 0 0-1.3 2.5 2 2 0 0 0 2.6 1.2 2 2 0 1 0-1.3-3.7Z" fill="#BCBEC0"/><path id="Vector_65" opacity=".1" d="M244.8 105.9a6.9 6.9 0 0 0-8.8-4.3l-4.5 1.6 12 34.4 4.4-1.6a6.9 6.9 0 0 0 4.3-8.8l-7.4-21.3Z" fill="#231F20"/></g></g></g><g id="left_hand"><path id="Vector_66" d="M114.7 137.4c-1.8-.7-3.9.1-4.8 1.8-2 3.5-7.3 16-7.3 16-.1.3-.5.4-.8.3l-.6-.2a.6.6 0 0 1-.3-.9l1.2-2.8a4 4 0 1 0-7.4-3.2l-2.9 6.8a1 1 0 0 1-1.3.5.6.6 0 0 1-.3-.8l2.1-5.1c.6-1.2 0-2.6-1.2-3.1l-.9-.4c-1.2-.5-2.6 0-3.1 1.3l-2.3 5.4c-.2.3-.5.5-.8.4l-.3-.2a.6.6 0 0 1-.4-.8l1.5-3.5c.3-.8 0-1.6-.8-2-2-.8-4.2.1-5 2.1l-9.3 21.8-.2.5a7 7 0 0 0-.2 3.2l2 16.5 20.3 8.6 10.2-2.6c3.4-1 6.2-3.3 7.5-6.5l6.2-14.6a4.1 4.1 0 0 0-7.6-3.2l-2.8 6.6c-.1.4-.5.5-.8.4l-.8-.3a.6.6 0 0 1-.4-.9l14.4-34.8c1.2-3.3-.4-5.2-2.8-6.3Z" fill="#FFD1A6"/><path id="Vector_67" d="m50 233 19.5 18.5L94.7 200l-25.2-10.7L50 233Z" fill="#F59817"/><path id="Vector_68" d="M92.7 200a.7.7 0 0 0-.9.4l-1.5 3.6a.7.7 0 1 0 1.3.5L93 201c.1-.4 0-.8-.4-1Z" fill="#9E620F"/><path id="Vector_69" d="M89.3 198.6a.7.7 0 0 0-.9.4l-1.5 3.6a.7.7 0 1 0 1.3.5l1.5-3.6c.1-.3 0-.7-.4-.9Z" fill="#9E620F"/><path id="Vector_70" d="M86 197.2a.7.7 0 0 0-1 .4l-1.5 3.5a.7.7 0 1 0 1.3.6l1.5-3.6c.1-.4 0-.8-.4-1Z" fill="#9E620F"/><path id="Vector_71" d="M82.5 195.8a.7.7 0 0 0-.9.3l-1.5 3.6a.7.7 0 1 0 1.3.5l1.5-3.5c.1-.4 0-.8-.4-1Z" fill="#9E620F"/><path id="Vector_72" d="M79.1 194.3a.7.7 0 0 0-.9.4l-1.5 3.6a.7.7 0 1 0 1.3.5l1.5-3.6c.1-.3 0-.7-.4-.9Z" fill="#9E620F"/><path id="Vector_73" d="M75.7 192.9a.7.7 0 0 0-.9.3l-1.5 3.6a.7.7 0 1 0 1.3.6l1.5-3.6c.2-.4 0-.8-.4-1Z" fill="#9E620F"/><path id="Vector_74" d="M72.3 191.4a.7.7 0 0 0-.9.4l-1.5 3.6a.7.7 0 1 0 1.3.5l1.5-3.6c.2-.3 0-.7-.4-.9Z" fill="#9E620F"/><path id="Vector_75" d="M112.8 172.3c-1.2-.5-2.6 0-3 1.3l-.6 1.1a2.4 2.4 0 0 0 4.4 1.9l.5-1.2c.5-1.2 0-2.6-1.3-3Z" fill="#FFE8E0"/><path id="Vector_76" d="M114.4 139.4c-1.2-.5-2.6 0-3.1 1.3l-.5 1.2a2.4 2.4 0 0 0 4.3 1.8l.5-1.2c.5-1.2 0-2.6-1.2-3Z" fill="#FFE8E0"/></g><g id="rigth_hand"><path id="Vector_77" d="m224.7 161.2-9-22c-.8-2-3-2.9-5-2.1-.8.3-1.1 1.2-.8 2l1.4 3.5c.1.3 0 .7-.3.8l-.3.1c-.4.2-.7 0-.9-.3l-2.2-5.5a2.4 2.4 0 0 0-3.1-1.3l-.9.3a2.4 2.4 0 0 0-1.3 3.1l2.1 5.2c.1.3 0 .7-.3.8-.5.2-1.1 0-1.3-.5l-2.8-6.8a4 4 0 0 0-5.2-2.2 4 4 0 0 0-2.2 5.3l1.1 2.8c.2.3 0 .7-.3.8l-.6.3c-.3.1-.7 0-.8-.4 0 0-1-2.6-3-6-1-1.8-3-2.7-4.8-2-2.5 1-4 3-2.9 6.3l9.9 25c.1.4 0 .7-.4.9l-.8.3c-.3.1-.7 0-.8-.4l-2.7-6.6a4.1 4.1 0 0 0-7.6 3.1l6 14.6c1.3 3.3 4 5.7 7.4 6.6l10.2 2.8 20.4-8.4 2.2-16.5a7.3 7.3 0 0 0-.4-3.6Z" fill="#FFD1A6"/><path id="Vector_78" d="m199.4 190 21.1 58.5 24.5-18-20.3-50.8-25.3 10.3Z" fill="#F59817"/><path id="Vector_79" d="M202.3 190.5a.7.7 0 0 0-1-.4c-.3.2-.4.6-.3 1l1.5 3.5c.1.4.5.6.9.4.3-.1.5-.5.3-.9l-1.4-3.6Z" fill="#9E620F"/><path id="Vector_80" d="M205.7 189.1a.7.7 0 0 0-1-.3c-.3 0-.4.5-.3.8l1.5 3.7c.1.3.5.5.9.3.3-.1.5-.5.4-.9l-1.5-3.6Z" fill="#9E620F"/><path id="Vector_81" d="M209.1 187.7a.7.7 0 0 0-.9-.3c-.3 0-.5.5-.4.8l1.5 3.7c.1.3.5.5.9.3.3-.1.5-.5.4-.9l-1.5-3.6Z" fill="#9E620F"/><path id="Vector_82" d="M212.5 186.3a.7.7 0 0 0-.9-.3c-.3.1-.5.5-.4.9l1.5 3.6c.1.3.6.5.9.3.3-.1.5-.5.4-.9l-1.5-3.6Z" fill="#9E620F"/><path id="Vector_83" d="M216 185a.7.7 0 0 0-1-.4c-.3.1-.5.5-.4.9l1.5 3.6c.1.3.6.5 1 .3.3-.1.4-.5.3-.9l-1.5-3.6Z" fill="#9E620F"/><path id="Vector_84" d="M219.3 183.6a.7.7 0 0 0-.9-.4c-.3.1-.5.5-.4.9l1.5 3.6c.2.3.6.5 1 .4.3-.2.4-.6.3-1l-1.5-3.5Z" fill="#9E620F"/><path id="Vector_85" d="M222.7 182.2a.7.7 0 0 0-.9-.4c-.3.1-.5.5-.3.9l1.4 3.6c.2.3.6.5 1 .3.3 0 .4-.5.3-.8l-1.5-3.7Z" fill="#9E620F"/><path id="Vector_86" d="M184.7 163.4a2.4 2.4 0 0 0-4.4 1.8l.5 1.2a2.4 2.4 0 0 0 4.4-1.8l-.5-1.2Z" fill="#FFE8E0"/></g><path id="Vector_87" d="M46.6 40.4a137 137 0 0 0-40.4 97.5 137 137 0 0 0 40.4 97.5 137 137 0 0 0 97.6 40.4 137 137 0 0 0 97.5-40.4A137 137 0 0 0 282 138a137 137 0 0 0-40.4-97.5A137 137 0 0 0 144.2 0a137 137 0 0 0-97.6 40.4Zm230.5 97.5a133 133 0 1 1-265.9 0 133 133 0 0 1 266 0Z" fill="#F3FBFF"/><g id="Group_13"><g id="Group_14"><g id="Group_15"><g id="Group_16"><g id="Group_17"><path id="Vector_88" d="m120.4 74.7-2 19.1c0 1.6 1.3 2.9 2.9 2.9h34.5c1.6 0 2.9-1.3 2.9-2.9l-2-19h-36.3Z" fill="#fff"/><path id="Vector_89" d="m120.4 74.7-1 9.3h38.3l-1-9.3h-36.3Z" fill="#D1D3D4"/><g id="Group_18"><path id="Vector_90" d="M56.7 76.7a5 5 0 0 0 4.1 2h161.6a5 5 0 0 0 4-2l36.7-48.3h-242l35.6 48.3Z" fill="#F1F2F2"/><path id="Vector_91" d="M256 22H27c-1.6 0-3.1.9-3.9 2.3l-2.2 4h242.1l-3.7-4.6c-.8-1-2.1-1.7-3.4-1.7Z" fill="#D1D3D4"/><path id="Vector_92" d="M55.2 74.7H228L263 28.4h-242l34.1 46.3Z" fill="#414042"/><path id="Vector_93" opacity=".1" d="M56.3 70.5h171.1L257.5 31h-230l28.8 39.4Z" fill="#231F20"/></g><path id="Vector_94" d="M22.8 25.2 21 28.4h242.1l-2.5-3.2H22.8Z" fill="#E6E7E8"/></g><path id="Vector_95" d="M228.7 56.5H57.1a1 1 0 1 0 0 2.1h171.6c.4 0 .7-.2.9-.4a1 1 0 0 0-.9-1.7Z" fill="#414042"/><path id="Vector_96" d="M231.7 52.1H54a1 1 0 1 0 0 2.1h177.7c.4 0 .7-.2.9-.4a1 1 0 0 0-.9-1.7Z" fill="#414042"/><path id="Vector_97" d="M225.7 61H60.2a1 1 0 1 0 0 2h165.5c.4 0 .7-.2.9-.4a1 1 0 0 0-.9-1.7Z" fill="#414042"/><path id="Vector_98" d="M222.7 65.3H63.2a1 1 0 1 0 0 2.1h159.5c.4 0 .7-.2.9-.4a1 1 0 0 0-.9-1.7Z" fill="#414042"/><path id="Vector_99" d="M234.7 47.8H51a1 1 0 1 0 0 2h183.7c.4 0 .7-.1.9-.4a1 1 0 0 0-.9-1.6Z" fill="#414042"/><path id="Vector_100" d="M243.7 34.5h-202a1 1 0 1 0 0 2.1h202c.4 0 .7-.1.9-.4a1 1 0 0 0-.9-1.7Z" fill="#414042"/><path id="Vector_101" d="M240.7 39H44.8a1 1 0 1 0 0 2h196c.3 0 .6-.1.8-.4a1 1 0 0 0-.9-1.6Z" fill="#414042"/><path id="Vector_102" d="M237.7 43.4H48a1 1 0 1 0 0 2h189.8c.4 0 .7-.1.9-.4a1 1 0 0 0-.9-1.6Z" fill="#414042"/><path id="Vector_103" d="M51.5 34.5H40.8c-.5 0-1 .5-1 1v.2c0 .5.5 1 1 1h10.7c.5 0 1-.5 1-1v-.3c0-.4-.5-.9-1-.9Z" fill="#00A14B"/><path id="Vector_104" d="M67.3 34.5H56.5c-.5 0-1 .5-1 1v.2c0 .5.5 1 1 1h10.8c.5 0 .9-.5.9-1v-.3c0-.4-.4-.9-1-.9Z" fill="#00A14B"/><path id="Vector_105" d="M75.4 43.4H64.7c-.5 0-1 .4-1 .9v.3c0 .4.5.9 1 .9h10.7c.5 0 1-.5 1-1v-.2c0-.5-.5-1-1-1Z" fill="#EF4136"/><path id="Vector_106" d="M95 34.5H84.2c-.5 0-1 .5-1 1v.2c0 .5.5 1 1 1H95c.5 0 .9-.5.9-1v-.3c0-.4-.4-.9-1-.9Z" fill="#EF4136"/><path id="Vector_107" d="M102.2 43.4H91.4c-.5 0-1 .4-1 .9v.3c0 .4.5.9 1 .9h10.8c.5 0 .9-.5.9-1v-.2a1 1 0 0 0-1-1Z" fill="#EF4136"/><path id="Vector_108" d="M218.4 43.4H178c-.5 0-1 .4-1 .9v.3c0 .4.5.9 1 .9h40.5c.5 0 1-.5 1-1v-.2a1 1 0 0 0-1-1Z" fill="#EF4136"/><path id="Vector_109" d="M156.3 52.1h-40.5c-.5 0-1 .4-1 1v.2c0 .5.5.9 1 .9h40.5c.5 0 1-.4 1-1V53c0-.5-.5-.9-1-.9Z" fill="#00A14B"/><path id="Vector_110" d="M145.8 43.4h-40.5c-.5 0-1 .4-1 .9v.3c0 .4.5.9 1 .9h40.5c.5 0 1-.5 1-1v-.2c0-.5-.5-1-1-1Z" fill="#27AAE1"/><path id="Vector_111" d="M122 65.3H81.6c-.5 0-1 .4-1 1v.2c0 .5.5 1 1 1H122c.5 0 .9-.5.9-1v-.3c0-.5-.4-.9-1-.9Z" fill="#27AAE1"/><path id="Vector_112" d="M149.3 61h-40.6c-.5 0-.9.3-.9.8v.3c0 .5.4.9.9.9h40.6c.5 0 .9-.4.9-.9v-.3c0-.5-.4-.9-1-.9Z" fill="#BCBEC0"/><path id="Vector_113" d="M139.5 34.5H98.9c-.5 0-1 .5-1 1v.2c0 .5.5 1 1 1h40.6c.5 0 .9-.5.9-1v-.3c0-.4-.4-.9-1-.9Z" fill="#BCBEC0"/><path id="Vector_114" d="M180 61h-10.8c-.5 0-1 .3-1 .8v.3c0 .5.5.9 1 .9h10.7c.5 0 1-.4 1-.9v-.3c0-.5-.5-.9-1-.9Z" fill="#EF4136"/><path id="Vector_115" d="M185.2 52.1h-10.8c-.5 0-.9.4-.9 1v.2c0 .5.4.9.9.9h10.8c.5 0 .9-.4.9-1V53c0-.5-.4-.9-1-.9Z" fill="#EDA826"/><path id="Vector_116" d="M195 61h-10.8c-.5 0-1 .3-1 .8v.3c0 .5.5.9 1 .9H195c.5 0 .9-.4.9-.9v-.3a1 1 0 0 0-1-.9Z" fill="#EDA826"/><path id="Vector_117" d="M136.5 65.3h-10.8c-.5 0-.9.4-.9 1v.2c0 .5.4 1 .9 1h10.8c.5 0 .9-.5.9-1v-.3c0-.5-.4-.9-1-.9Z" fill="#00A14B"/><path id="Vector_118" d="M87 52.1H76.1c-.5 0-1 .4-1 1v.2c0 .5.5.9 1 .9h10.7c.5 0 1-.4 1-1V53c0-.5-.5-.9-1-.9Z" fill="#EF4136"/><path id="Vector_119" d="M112.5 52.1h-10.8c-.5 0-.9.4-.9 1v.2c0 .5.4.9 1 .9h10.7c.5 0 1-.4 1-1V53c0-.5-.5-.9-1-.9Z" fill="#EDA826"/><path id="Vector_120" d="M105.7 61H94.9c-.5 0-1 .3-1 .8v.3c0 .5.5.9 1 .9h10.8c.5 0 .9-.4.9-.9v-.3c0-.5-.4-.9-1-.9Z" fill="#EDA826"/><path id="Vector_121" d="M173.1 43.4h-10.8c-.5 0-.9.4-.9.9v.3c0 .4.4.9 1 .9H173c.5 0 1-.5 1-1v-.2c0-.5-.5-1-1-1Z" fill="#00A14B"/></g></g><g id="Group_19"><path id="Vector_122" opacity=".4" d="M28.3 145.4a18.5 18.5 0 1 0 30.5 21 18.5 18.5 0 0 0-30.5-21Z" fill="#F2F2F2"/><path id="Vector_123" d="M25.4 143.8A21.5 21.5 0 1 0 60.8 168a21.5 21.5 0 0 0-35.4-24.3Zm31.7 21.7a17 17 0 1 1-28-19.2 17 17 0 0 1 28 19.2Z" fill="#365466"/><path id="Vector_124" d="m28.3 157.2 29.2-4c-2.5-12.7-15.2-10.9-15.2-10.9-14.3 2.7-14 14.9-14 14.9Z" fill="#F2F2F2"/><path id="Vector_125" d="m30 170.7-19.2 28 4.7 3.1L34.7 174l-4.7-3.2Z" fill="#365466"/><path id="Vector_126" d="M24 177 9.4 197.7c-.7 1.1-.5 2.7.7 3.5l3 2c1.1.8 2.6.5 3.4-.6l14.4-21c.8-1 .5-2.6-.6-3.4l-3-2a2.5 2.5 0 0 0-3.5.6Z" fill="#EE365B"/></g><g id="Group_20"><g id="Group_21"><path id="Vector_127" d="m49.2 109.6-4.1-7.7a22 22 0 0 0-17.7-34A22 22 0 1 0 39 108l9.3 2.7c.7.2 1.3-.5 1-1.1Z" fill="#F59817"/><g id="Group_22"><g id="Group_23" opacity=".3" fill="#000"><path id="Vector_138" opacity=".1" d="M19.5 114a17 17 0 1 0 0-34 17 17 0 0 0 0 34Z"/><path id="Vector_139" opacity=".1" d="M19.6 114a17 17 0 1 0 0-34 17 17 0 0 0 0 34Z"/><path id="Vector_140" opacity=".1" d="M19.6 113.9a17 17 0 1 0 0-33.9 17 17 0 0 0 0 33.9Z"/><path id="Vector_141" opacity=".1" d="M19.6 113.8a17 17 0 1 0 0-33.8 17 17 0 0 0 0 33.8Z"/><path id="Vector_142" opacity=".1" d="M19.7 113.8a17 17 0 1 0 0-33.9 17 17 0 0 0 0 33.9Z"/><path id="Vector_143" opacity=".1" d="M19.7 113.8a17 17 0 1 0 0-33.9 17 17 0 0 0 0 33.9Z"/><path id="Vector_144" opacity=".1" d="M19.8 113.7a17 17 0 1 0 0-33.8 17 17 0 0 0 0 33.8Z"/><path id="Vector_145" opacity=".1" d="M19.8 113.7a17 17 0 1 0 0-33.9 17 17 0 0 0 0 33.9Z"/><path id="Vector_146" opacity=".1" d="M19.8 113.7a17 17 0 1 0 0-33.9 17 17 0 0 0 0 33.9Z"/><path id="Vector_147" opacity=".1" d="M19.9 113.6a17 17 0 1 0 0-33.8 17 17 0 0 0 0 33.8Z"/><path id="Vector_148" opacity=".1" d="M19.9 113.6a17 17 0 1 0 0-33.9 17 17 0 0 0 0 33.9Z"/><path id="Vector_149" opacity=".1" d="M20 113.5a17 17 0 1 0 0-33.8 17 17 0 0 0 0 33.8Z"/><path id="Vector_150" opacity=".1" d="M20 113.5a17 17 0 1 0 0-33.9 17 17 0 0 0 0 34Z"/><path id="Vector_151" opacity=".1" d="M20 113.5a17 17 0 1 0 0-33.9 17 17 0 0 0 0 33.9Z"/><path id="Vector_152" opacity=".1" d="M20 113.4a17 17 0 1 0 0-33.8 17 17 0 0 0 0 33.8Z"/><path id="Vector_153" opacity=".1" d="M20 113.4a17 17 0 1 0 0-33.9 17 17 0 0 0 0 33.9Z"/><path id="Vector_154" opacity=".1" d="M20.1 113.4a17 17 0 1 0 0-33.9 17 17 0 0 0 0 33.9Z"/><path id="Vector_155" opacity=".1" d="M20.2 113.3a17 17 0 1 0 0-33.8 17 17 0 0 0 0 33.8Z"/><path id="Vector_156" opacity=".1" d="M20.2 113.3a17 17 0 1 0 0-33.9 17 17 0 0 0 0 33.9Z"/><path id="Vector_157" opacity=".1" d="M20.2 113.3a17 17 0 1 0 0-34 17 17 0 0 0 0 34Z"/><path id="Vector_158" opacity=".2" d="M20.3 113.2a17 17 0 1 0 0-33.9 17 17 0 0 0 0 34Z"/><path id="Vector_159" opacity=".2" d="M20.3 113.2a17 17 0 1 0 0-33.9 17 17 0 0 0 0 33.9Z"/><path id="Vector_160" opacity=".2" d="M20.3 113.1a17 17 0 1 0 0-33.8 17 17 0 0 0 0 33.8Z"/><path id="Vector_161" opacity=".2" d="M20.4 113.1a17 17 0 1 0 0-33.9 17 17 0 0 0 0 33.9Z"/><path id="Vector_162" opacity=".2" d="M20.4 113a17 17 0 1 0 0-33.8 17 17 0 0 0 0 33.9Z"/><path id="Vector_163" opacity=".2" d="M20.5 113a17 17 0 1 0 0-33.8 17 17 0 0 0 0 33.8Z"/><path id="Vector_164" opacity=".2" d="M20.5 113a17 17 0 1 0 0-33.9 17 17 0 0 0 0 33.9Z"/><path id="Vector_165" opacity=".2" d="M20.5 113a17 17 0 1 0 0-33.9 17 17 0 0 0 0 33.9Z"/><path id="Vector_166" opacity=".2" d="M20.6 113a17 17 0 1 0 0-34 17 17 0 0 0 0 34Z"/><path id="Vector_167" opacity=".2" d="M20.6 112.9a17 17 0 1 0 0-33.9 17 17 0 0 0 0 33.9Z"/><path id="Vector_168" opacity=".2" d="M20.6 112.8a17 17 0 1 0 0-33.8 17 17 0 0 0 0 33.8Z"/><path id="Vector_169" opacity=".2" d="M20.7 112.8a17 17 0 1 0 0-33.9 17 17 0 0 0 0 34Z"/><path id="Vector_170" opacity=".2" d="M20.7 112.8a17 17 0 1 0 0-33.9 17 17 0 0 0 0 33.9Z"/><path id="Vector_171" opacity=".2" d="M20.7 112.7a17 17 0 1 0 0-33.8 17 17 0 0 0 0 33.8Z"/><path id="Vector_172" opacity=".2" d="M20.8 112.7a17 17 0 1 0 0-33.9 17 17 0 0 0 0 33.9Z"/><path id="Vector_173" opacity=".2" d="M20.8 112.7a17 17 0 1 0 0-33.9 17 17 0 0 0 0 33.9Z"/><path id="Vector_174" opacity=".2" d="M20.9 112.6a17 17 0 1 0 0-33.8 17 17 0 0 0 0 33.8Z"/><path id="Vector_175" opacity=".2" d="M20.9 112.6a17 17 0 1 0 0-33.9 17 17 0 0 0 0 33.9Z"/><path id="Vector_176" opacity=".2" d="M21 112.5a17 17 0 1 0 0-33.8 17 17 0 0 0 0 33.8Z"/><path id="Vector_177" opacity=".2" d="M21 112.5a17 17 0 1 0 0-33.9 17 17 0 0 0 0 34Z"/><path id="Vector_178" opacity=".3" d="M21 112.5a17 17 0 1 0 0-33.9 17 17 0 0 0 0 33.9Z"/><path id="Vector_179" opacity=".3" d="M21 112.4a17 17 0 1 0 0-33.8 17 17 0 0 0 0 33.8Z"/><path id="Vector_180" opacity=".3" d="M21 112.4a17 17 0 1 0 0-33.9 17 17 0 0 0 0 33.9Z"/><path id="Vector_181" opacity=".3" d="M21.1 112.4a17 17 0 1 0 0-33.9 17 17 0 0 0 0 33.9Z"/><path id="Vector_182" opacity=".3" d="M21.2 112.3a17 17 0 1 0 0-33.8 17 17 0 0 0 0 33.8Z"/><path id="Vector_183" opacity=".3" d="M21.2 112.3a17 17 0 1 0 0-33.9 17 17 0 0 0 0 33.9Z"/><path id="Vector_184" opacity=".3" d="M21.2 112.3a17 17 0 1 0 0-33.9 17 17 0 0 0 0 33.9Z"/><path id="Vector_185" opacity=".3" d="M21.3 112.2a17 17 0 1 0 0-33.8 17 17 0 0 0 0 33.8Z"/><path id="Vector_186" opacity=".3" d="M21.3 112.2a17 17 0 1 0 0-33.9 17 17 0 0 0 0 33.9Z"/><path id="Vector_187" opacity=".3" d="M21.3 112.1a17 17 0 1 0 0-33.8 17 17 0 0 0 0 33.8Z"/><path id="Vector_188" opacity=".3" d="M21.4 112.1a17 17 0 1 0 0-33.9 17 17 0 0 0 0 34Z"/><path id="Vector_189" opacity=".3" d="M21.4 112a17 17 0 1 0 0-33.8 17 17 0 0 0 0 33.9Z"/><path id="Vector_190" opacity=".3" d="M21.4 112a17 17 0 1 0 0-33.8 17 17 0 0 0 0 33.8Z"/><path id="Vector_191" opacity=".3" d="M21.5 112a17 17 0 1 0 0-33.9 17 17 0 0 0 0 33.9Z"/><path id="Vector_192" opacity=".3" d="M21.5 112a17 17 0 1 0 0-33.9 17 17 0 0 0 0 33.9Z"/><path id="Vector_193" opacity=".3" d="M21.6 112a17 17 0 1 0 0-34 17 17 0 0 0 0 34Z"/><path id="Vector_194" opacity=".3" d="M21.6 111.9a17 17 0 1 0 0-33.9 17 17 0 0 0 0 33.9Z"/><path id="Vector_195" opacity=".3" d="M21.6 111.8a17 17 0 1 0 0-33.8 17 17 0 0 0 0 33.8Z"/><path id="Vector_196" opacity=".3" d="M21.7 111.8a17 17 0 1 0 0-33.9 17 17 0 0 0 0 34Z"/><path id="Vector_197" opacity=".3" d="M21.7 111.8a17 17 0 1 0 0-33.9 17 17 0 0 0 0 33.9Z"/><path id="Vector_198" opacity=".4" d="M21.7 111.7a17 17 0 1 0 0-33.8 17 17 0 0 0 0 33.8Z"/><path id="Vector_199" opacity=".4" d="M21.8 111.7a17 17 0 1 0 0-33.9 17 17 0 0 0 0 33.9Z"/><path id="Vector_200" opacity=".4" d="M21.8 111.7a17 17 0 1 0 0-33.9 17 17 0 0 0 0 33.9Z"/><path id="Vector_201" opacity=".4" d="M21.9 111.6a17 17 0 1 0 0-33.8 17 17 0 0 0 0 33.8Z"/><path id="Vector_202" opacity=".4" d="M21.9 111.6a17 17 0 1 0 0-33.9 17 17 0 0 0 0 33.9Z"/><path id="Vector_203" opacity=".4" d="M22 111.6a17 17 0 1 0 0-33.9 17 17 0 0 0 0 33.9Z"/><path id="Vector_204" opacity=".4" d="M22 111.5a17 17 0 1 0 0-33.8 17 17 0 0 0 0 33.8Z"/><path id="Vector_205" opacity=".4" d="M22 111.5a17 17 0 1 0 0-33.9 17 17 0 0 0 0 33.9Z"/><path id="Vector_206" opacity=".4" d="M22 111.4a17 17 0 1 0 0-33.8 17 17 0 0 0 0 33.8Z"/><path id="Vector_207" opacity=".4" d="M22 111.4a17 17 0 1 0 0-33.9 17 17 0 0 0 0 34Z"/><path id="Vector_208" opacity=".4" d="M22.1 111.4a17 17 0 1 0 0-33.9 17 17 0 0 0 0 33.9Z"/><path id="Vector_209" opacity=".4" d="M22.1 111.3a17 17 0 1 0 0-33.8 17 17 0 0 0 0 33.8Z"/><path id="Vector_210" opacity=".4" d="M22.2 111.3a17 17 0 1 0 0-33.9 17 17 0 0 0 0 33.9Z"/><path id="Vector_211" opacity=".4" d="M22.2 111.3a17 17 0 1 0 0-33.9 17 17 0 0 0 0 33.9Z"/><path id="Vector_212" opacity=".4" d="M22.3 111.2a17 17 0 1 0 0-33.8 17 17 0 0 0 0 33.8Z"/><path id="Vector_213" opacity=".4" d="M22.3 111.2a17 17 0 1 0 0-33.9 17 17 0 0 0 0 33.9Z"/><path id="Vector_214" opacity=".4" d="M22.3 111.2a17 17 0 1 0 0-34 17 17 0 0 0 0 34Z"/><path id="Vector_215" opacity=".4" d="M22.4 111.1a17 17 0 1 0 0-33.9 17 17 0 0 0 0 34Z"/><path id="Vector_216" opacity=".4" d="M22.4 111a17 17 0 1 0 0-33.8 17 17 0 0 0 0 33.9Z"/><path id="Vector_217" opacity=".4" d="M22.4 111a17 17 0 1 0 0-33.8 17 17 0 0 0 0 33.8Z"/><path id="Vector_218" opacity=".5" d="M22.5 111a17 17 0 1 0 0-33.9 17 17 0 0 0 0 33.9Z"/><path id="Vector_219" opacity=".5" d="M22.5 111a17 17 0 1 0 0-33.9 17 17 0 0 0 0 33.9Z"/><path id="Vector_220" opacity=".5" d="M22.6 111a17 17 0 1 0 0-34 17 17 0 0 0 0 34Z"/><path id="Vector_221" opacity=".5" d="M22.6 110.9a17 17 0 1 0 0-33.9 17 17 0 0 0 0 33.9Z"/><path id="Vector_222" opacity=".5" d="M22.6 110.9a17 17 0 1 0 0-33.9 17 17 0 0 0 0 33.9Z"/><path id="Vector_223" opacity=".5" d="M22.7 110.8a17 17 0 1 0 0-33.8 17 17 0 0 0 0 33.8Z"/><path id="Vector_224" opacity=".5" d="M22.7 110.8a17 17 0 1 0 0-33.9 17 17 0 0 0 0 33.9Z"/><path id="Vector_225" opacity=".5" d="M22.7 110.7a17 17 0 1 0 0-33.8 17 17 0 0 0 0 33.8Z"/><path id="Vector_226" opacity=".5" d="M22.8 110.7a17 17 0 1 0 0-33.9 17 17 0 0 0 0 34Z"/><path id="Vector_227" opacity=".5" d="M22.8 110.7a17 17 0 1 0 0-33.9 17 17 0 0 0 0 33.9Z"/><path id="Vector_228" opacity=".5" d="M22.8 110.6a17 17 0 1 0 0-33.8 17 17 0 0 0 0 33.8Z"/><path id="Vector_229" opacity=".5" d="M22.9 110.6a17 17 0 1 0 0-33.9 17 17 0 0 0 0 33.9Z"/><path id="Vector_230" opacity=".5" d="M23 110.6a17 17 0 1 0 0-33.9 17 17 0 0 0 0 33.9Z"/><path id="Vector_231" opacity=".5" d="M23 110.5a17 17 0 1 0 0-33.8 17 17 0 0 0 0 33.8Z"/><path id="Vector_232" opacity=".5" d="M23 110.5a17 17 0 1 0 0-33.9 17 17 0 0 0 0 33.9Z"/><path id="Vector_233" opacity=".5" d="M23 110.5a17 17 0 1 0 0-34 17 17 0 0 0 0 34Z"/><path id="Vector_234" opacity=".5" d="M23 110.4a17 17 0 1 0 0-33.9 17 17 0 0 0 0 34Z"/><path id="Vector_235" opacity=".5" d="M23.1 110.4a17 17 0 1 0 0-33.9 17 17 0 0 0 0 33.9Z"/><path id="Vector_236" opacity=".5" d="M23.1 110.3a17 17 0 1 0 0-33.8 17 17 0 0 0 0 33.8Z"/><path id="Vector_237" opacity=".5" d="M23.2 110.3a17 17 0 1 0 0-33.9 17 17 0 0 0 0 33.9Z"/><path id="Vector_238" opacity=".6" d="M23.2 110.3a17 17 0 1 0 0-33.9 17 17 0 0 0 0 33.9Z"/><path id="Vector_239" opacity=".6" d="M23.3 110.2a17 17 0 1 0 0-33.8 17 17 0 0 0 0 33.8Z"/><path id="Vector_240" opacity=".6" d="M23.3 110.2a17 17 0 1 0 0-33.9 17 17 0 0 0 0 33.9Z"/><path id="Vector_241" opacity=".6" d="M23.3 110.2a17 17 0 1 0 0-33.9 17 17 0 0 0 0 33.9Z"/><path id="Vector_242" opacity=".6" d="M23.4 110.1a17 17 0 1 0 0-33.8 17 17 0 0 0 0 33.8Z"/><path id="Vector_243" opacity=".6" d="M23.4 110a17 17 0 1 0 0-33.8 17 17 0 0 0 0 33.9Z"/><path id="Vector_244" opacity=".6" d="M23.4 110a17 17 0 1 0 0-33.8 17 17 0 0 0 0 33.8Z"/><path id="Vector_245" opacity=".6" d="M23.5 110a17 17 0 1 0 0-33.9 17 17 0 0 0 0 34Z"/><path id="Vector_246" opacity=".6" d="M23.5 110a17 17 0 1 0 0-33.9 17 17 0 0 0 0 33.9Z"/><path id="Vector_247" opacity=".6" d="M23.5 110a17 17 0 1 0 0-34 17 17 0 0 0 0 34Z"/><path id="Vector_248" opacity=".6" d="M23.6 109.9a17 17 0 1 0 0-33.9 17 17 0 0 0 0 33.9Z"/><path id="Vector_249" opacity=".6" d="M23.6 109.9a17 17 0 1 0 0-33.9 17 17 0 0 0 0 33.9Z"/><path id="Vector_250" opacity=".6" d="M23.7 109.8a17 17 0 1 0 0-33.8 17 17 0 0 0 0 33.8Z"/><path id="Vector_251" opacity=".6" d="M23.7 109.8a17 17 0 1 0 0-33.9 17 17 0 0 0 0 33.9Z"/><path id="Vector_252" opacity=".6" d="M23.7 109.8a17 17 0 1 0 0-34 17 17 0 0 0 0 34Z"/><path id="Vector_253" opacity=".6" d="M23.8 109.7a17 17 0 1 0 0-33.9 17 17 0 0 0 0 34Z"/><path id="Vector_254" opacity=".6" d="M23.8 109.7a17 17 0 1 0 0-33.9 17 17 0 0 0 0 33.9Z"/><path id="Vector_255" opacity=".6" d="M23.8 109.6a17 17 0 1 0 0-33.8 17 17 0 0 0 0 33.8Z"/><path id="Vector_256" opacity=".6" d="M23.9 109.6a17 17 0 1 0 0-33.9 17 17 0 0 0 0 33.9Z"/><path id="Vector_257" opacity=".6" d="M24 109.6a17 17 0 1 0 0-33.9 17 17 0 0 0 0 33.9Z"/><path id="Vector_258" opacity=".7" d="M24 109.5a17 17 0 1 0 0-33.8 17 17 0 0 0 0 33.8Z"/><path id="Vector_259" opacity=".7" d="M24 109.5a17 17 0 1 0 0-33.9 17 17 0 0 0 0 33.9Z"/><path id="Vector_260" opacity=".7" d="M24 109.5a17 17 0 1 0 0-33.9 17 17 0 0 0 0 33.9Z"/><path id="Vector_261" opacity=".7" d="M24 109.4a17 17 0 1 0 0-33.8 17 17 0 0 0 0 33.8Z"/><path id="Vector_262" opacity=".7" d="M24.1 109.4a17 17 0 1 0 0-33.9 17 17 0 0 0 0 33.9Z"/><path id="Vector_263" opacity=".7" d="M24.1 109.3a17 17 0 1 0 0-33.8 17 17 0 0 0 0 33.8Z"/><path id="Vector_264" opacity=".7" d="M24.2 109.3a17 17 0 1 0 0-33.9 17 17 0 0 0 0 34Z"/><path id="Vector_265" opacity=".7" d="M24.2 109.3a17 17 0 1 0 0-33.9 17 17 0 0 0 0 33.9Z"/><path id="Vector_266" opacity=".7" d="M24.2 109.2a17 17 0 1 0 0-33.8 17 17 0 0 0 0 33.8Z"/><path id="Vector_267" opacity=".7" d="M24.3 109.2a17 17 0 1 0 0-33.9 17 17 0 0 0 0 33.9Z"/><path id="Vector_268" opacity=".7" d="M24.3 109.2a17 17 0 1 0 0-33.9 17 17 0 0 0 0 33.9Z"/><path id="Vector_269" opacity=".7" d="M24.4 109.1a17 17 0 1 0 0-33.8 17 17 0 0 0 0 33.8Z"/><path id="Vector_270" opacity=".7" d="M24.4 109a17 17 0 1 0 0-33.8 17 17 0 0 0 0 33.9Z"/><path id="Vector_271" opacity=".7" d="M24.4 109a17 17 0 1 0 0-33.8 17 17 0 0 0 0 33.8Z"/><path id="Vector_272" opacity=".7" d="M24.5 109a17 17 0 1 0 0-33.9 17 17 0 0 0 0 34Z"/><path id="Vector_273" opacity=".7" d="M24.5 109a17 17 0 1 0 0-33.9 17 17 0 0 0 0 33.9Z"/><path id="Vector_274" opacity=".7" d="M24.5 109a17 17 0 1 0 0-34 17 17 0 0 0 0 34Z"/><path id="Vector_275" opacity=".7" d="M24.6 108.9a17 17 0 1 0 0-33.9 17 17 0 0 0 0 33.9Z"/><path id="Vector_276" opacity=".7" d="M24.6 108.9a17 17 0 1 0 0-33.9 17 17 0 0 0 0 33.9Z"/><path id="Vector_277" opacity=".7" d="M24.7 108.8a17 17 0 1 0 0-33.8 17 17 0 0 0 0 33.8Z"/><path id="Vector_278" opacity=".8" d="M24.7 108.8a17 17 0 1 0 0-33.9 17 17 0 0 0 0 33.9Z"/><path id="Vector_279" opacity=".8" d="M24.7 108.8a17 17 0 1 0 0-33.9 17 17 0 0 0 0 33.9Z"/><path id="Vector_280" opacity=".8" d="M24.8 108.7a17 17 0 1 0 0-33.8 17 17 0 0 0 0 33.8Z"/><path id="Vector_281" opacity=".8" d="M24.8 108.7a17 17 0 1 0 0-33.9 17 17 0 0 0 0 33.9Z"/><path id="Vector_282" opacity=".8" d="M24.8 108.6a17 17 0 1 0 0-33.8 17 17 0 0 0 0 33.8Z"/><path id="Vector_283" opacity=".8" d="M24.9 108.6a17 17 0 1 0 0-33.9 17 17 0 0 0 0 34Z"/><path id="Vector_284" opacity=".8" d="M25 108.6a17 17 0 1 0 0-33.9 17 17 0 0 0 0 33.9Z"/><path id="Vector_285" opacity=".8" d="M25 108.5a17 17 0 1 0 0-33.8 17 17 0 0 0 0 33.8Z"/><path id="Vector_286" opacity=".8" d="M25 108.5a17 17 0 1 0 0-33.9 17 17 0 0 0 0 33.9Z"/><path id="Vector_287" opacity=".8" d="M25 108.5a17 17 0 1 0 0-33.9 17 17 0 0 0 0 33.9Z"/><path id="Vector_288" opacity=".8" d="M25 108.4a17 17 0 1 0 0-33.8 17 17 0 0 0 0 33.8Z"/><path id="Vector_289" opacity=".8" d="M25 108.4a17 17 0 1 0 0-33.9 17 17 0 0 0 0 33.9Z"/><path id="Vector_290" opacity=".8" d="M25.1 108.3a17 17 0 1 0 0-33.8 17 17 0 0 0 0 33.8Z"/><path id="Vector_291" opacity=".8" d="M25.2 108.3a17 17 0 1 0 0-33.9 17 17 0 0 0 0 34Z"/><path id="Vector_292" opacity=".8" d="M25.2 108.3a17 17 0 1 0 0-33.9 17 17 0 0 0 0 33.9Z"/><path id="Vector_293" opacity=".8" d="M25.2 108.2a17 17 0 1 0 0-33.8 17 17 0 0 0 0 33.8Z"/><path id="Vector_294" opacity=".8" d="M25.3 108.2a17 17 0 1 0 0-33.9 17 17 0 0 0 0 33.9Z"/><path id="Vector_295" opacity=".8" d="M25.3 108.2a17 17 0 1 0 0-33.9 17 17 0 0 0 0 33.9Z"/><path id="Vector_296" opacity=".8" d="M25.4 108.1a17 17 0 1 0 0-33.8 17 17 0 0 0 0 33.8Z"/><path id="Vector_297" opacity=".8" d="M25.4 108a17 17 0 1 0 0-33.8 17 17 0 0 0 0 33.9Z"/><path id="Vector_298" opacity=".9" d="M25.4 108a17 17 0 1 0 0-33.8 17 17 0 0 0 0 33.9Z"/><path id="Vector_299" opacity=".9" d="M25.5 108a17 17 0 1 0 0-33.8 17 17 0 0 0 0 33.8Z"/><path id="Vector_300" opacity=".9" d="M25.5 108a17 17 0 1 0 0-33.9 17 17 0 0 0 0 33.9Z"/><path id="Vector_301" opacity=".9" d="M25.5 108a17 17 0 1 0 0-34 17 17 0 0 0 0 34Z"/><path id="Vector_302" opacity=".9" d="M25.6 108a17 17 0 1 0 0-34 17 17 0 0 0 0 34Z"/><path id="Vector_303" opacity=".9" d="M25.6 107.9a17 17 0 1 0 0-33.9 17 17 0 0 0 0 33.9Z"/><path id="Vector_304" opacity=".9" d="M25.6 107.8a17 17 0 1 0 0-33.8 17 17 0 0 0 0 33.8Z"/><path id="Vector_305" opacity=".9" d="M25.7 107.8a17 17 0 1 0 0-33.9 17 17 0 0 0 0 33.9Z"/><path id="Vector_306" opacity=".9" d="M25.7 107.8a17 17 0 1 0 0-33.9 17 17 0 0 0 0 33.9Z"/><path id="Vector_307" opacity=".9" d="M25.8 107.7a17 17 0 1 0 0-33.8 17 17 0 0 0 0 33.8Z"/><path id="Vector_308" opacity=".9" d="M25.8 107.7a17 17 0 1 0 0-33.9 17 17 0 0 0 0 33.9Z"/><path id="Vector_309" opacity=".9" d="M25.8 107.7a17 17 0 1 0 0-34 17 17 0 0 0 0 34Z"/><path id="Vector_310" opacity=".9" d="M25.9 107.6a17 17 0 1 0 0-33.9 17 17 0 0 0 0 34Z"/><path id="Vector_311" opacity=".9" d="M25.9 107.6a17 17 0 1 0 0-33.9 17 17 0 0 0 0 33.9Z"/><path id="Vector_312" opacity=".9" d="M26 107.5a17 17 0 1 0 0-33.8 17 17 0 0 0 0 33.8Z"/><path id="Vector_313" opacity=".9" d="M26 107.5a17 17 0 1 0 0-33.9 17 17 0 0 0 0 33.9Z"/><path id="Vector_314" opacity=".9" d="M26 107.5a17 17 0 1 0 0-33.9 17 17 0 0 0 0 33.9Z"/><path id="Vector_315" opacity=".9" d="M26 107.4a17 17 0 1 0 0-33.8 17 17 0 0 0 0 33.8Z"/><path id="Vector_316" opacity=".9" d="M26 107.4a17 17 0 1 0 0-33.9 17 17 0 0 0 0 33.9Z"/><path id="Vector_317" opacity=".9" d="M26.1 107.4a17 17 0 1 0 0-33.9 17 17 0 0 0 0 33.9Z"/><path id="Vector_318" opacity="1" d="M26.2 107.3a17 17 0 1 0 0-33.8 17 17 0 0 0 0 33.8Z"/><path id="Vector_319" opacity="1" d="M26.2 107.3a17 17 0 1 0 0-33.9 17 17 0 0 0 0 33.9Z"/><path id="Vector_320" opacity="1" d="M26.2 107.2a17 17 0 1 0 0-33.8 17 17 0 0 0 0 33.8Z"/><path id="Vector_321" opacity="1" d="M26.3 107.2a17 17 0 1 0 0-33.8 17 17 0 0 0 0 33.8Z"/><path id="Vector_322" opacity="1" d="M26.3 107.2a17 17 0 1 0 0-33.9 17 17 0 0 0 0 33.9Z"/><path id="Vector_323" opacity="1" d="M26.3 107.1a17 17 0 1 0 0-33.8 17 17 0 0 0 0 33.8Z"/><path id="Vector_324" opacity="1" d="M26.4 107.1a17 17 0 1 0 0-33.9 17 17 0 0 0 0 33.9Z"/><path id="Vector_325" opacity="1" d="M26.4 107a17 17 0 1 0 0-33.8 17 17 0 0 0 0 33.9Z"/><path id="Vector_326" opacity="1" d="M26.5 107a17 17 0 1 0 0-33.8 17 17 0 0 0 0 33.8Z"/><path id="Vector_327" opacity="1" d="M26.5 107a17 17 0 1 0 0-33.9 17 17 0 0 0 0 33.9Z"/><path id="Vector_328" opacity=".3" d="M26.5 107a17 17 0 1 0 0-34 17 17 0 0 0 0 34Z"/></g><path id="Vector_329" d="M26.5 73a17 17 0 1 0 0 34 17 17 0 0 0 0-34Z" fill="#EAD075"/></g><g id="Group_24"><g id="Group_25" opacity=".3" fill="#000"><path id="Vector_340" opacity=".1" d="M25.5 97.3a4 4 0 1 0 0 7.9 4 4 0 0 0 0-7.9Zm-10.4 0a4 4 0 1 0 0 7.9 4 4 0 0 0 0-7.9Zm-10.5 0a4 4 0 1 0 0 7.9 4 4 0 0 0 0-7.9Z"/><path id="Vector_341" opacity=".1" d="M25.6 97.2a4 4 0 1 0 0 7.9 4 4 0 0 0 0-7.9Zm-10.5 0a4 4 0 1 0 0 7.9 4 4 0 0 0 0-7.9Zm-10.5 0a4 4 0 1 0 0 7.9 4 4 0 0 0 0-7.9Z"/><path id="Vector_342" opacity=".1" d="M25.6 97.2a4 4 0 1 0 0 7.8 4 4 0 0 0 0-7.8Zm-10.4 0a4 4 0 1 0 0 7.8 4 4 0 0 0 0-7.8Zm-10.5 0a4 4 0 1 0 0 7.8 4 4 0 0 0 0-7.8Z"/><path id="Vector_343" opacity=".1" d="M25.7 97.1a4 4 0 1 0 0 7.9 4 4 0 0 0 0-7.9Zm-10.5 0a4 4 0 1 0 0 7.9 4 4 0 0 0 0-7.9Zm-10.4 0a4 4 0 1 0 0 7.9 4 4 0 0 0 0-7.9Z"/><path id="Vector_344" opacity=".1" d="M25.8 97a4 4 0 1 0 0 8 4 4 0 0 0 0-8Zm-10.5 0a4 4 0 1 0 0 8 4 4 0 0 0 0-8ZM4.8 97a4 4 0 1 0 0 8 4 4 0 0 0 0-8Z"/><path id="Vector_345" opacity=".1" d="M25.8 97a4 4 0 1 0 0 7.9 4 4 0 0 0 0-7.9Zm-10.4 0a4 4 0 1 0 0 7.9 4 4 0 0 0 0-7.9ZM4.9 97a4 4 0 1 0 0 7.9 4 4 0 0 0 0-7.9Z"/><path id="Vector_346" opacity=".1" d="M25.9 97a4 4 0 1 0 0 7.8 4 4 0 0 0 0-7.9Zm-10.5 0a4 4 0 1 0 0 7.8 4 4 0 0 0 0-7.9ZM5 97a4 4 0 1 0 0 7.8 4 4 0 0 0 0-7.9Z"/><path id="Vector_347" opacity=".1" d="M26 96.9a4 4 0 1 0 0 7.8 4 4 0 0 0 0-7.8Zm-10.5 0a4 4 0 1 0 0 7.8 4 4 0 0 0 0-7.8ZM5 96.9a4 4 0 1 0 0 7.8A4 4 0 0 0 5 97Z"/><path id="Vector_348" opacity=".1" d="M26 96.8a4 4 0 1 0 0 7.9 4 4 0 0 0 0-7.9Zm-10.5 0a4 4 0 1 0 0 7.9 4 4 0 0 0 0-7.9Zm-10.4 0a4 4 0 1 0 0 7.9 4 4 0 0 0 0-7.9Z"/><path id="Vector_349" opacity=".1" d="M26 96.8a4 4 0 1 0 0 7.8 4 4 0 0 0 0-7.8Zm-10.4 0a4 4 0 1 0 0 7.8 4 4 0 0 0 0-7.8Zm-10.5 0a4 4 0 1 0 0 7.8 4 4 0 0 0 0-7.8Z"/><path id="Vector_350" opacity=".1" d="M26.1 96.7a4 4 0 1 0 0 7.9 4 4 0 0 0 0-7.9Zm-10.4 0a4 4 0 1 0 0 7.9 4 4 0 0 0 0-7.9Zm-10.5 0a4 4 0 1 0 0 7.9 4 4 0 0 0 0-7.9Z"/><path id="Vector_351" opacity=".1" d="M26.2 96.6a4 4 0 1 0 0 7.9 4 4 0 0 0 0-7.9Zm-10.5 0a4 4 0 1 0 0 7.9 4 4 0 0 0 0-7.9Zm-10.4 0a4 4 0 1 0 0 7.9 4 4 0 0 0 0-7.9Z"/><path id="Vector_352" opacity=".1" d="M26.2 96.6a4 4 0 1 0 0 7.8 4 4 0 0 0 0-7.8Zm-10.4 0a4 4 0 1 0 0 7.8 4 4 0 0 0 0-7.8Zm-10.5 0a4 4 0 1 0 0 7.8 4 4 0 0 0 0-7.8Z"/><path id="Vector_353" opacity=".1" d="M26.3 96.5a4 4 0 1 0 0 7.9 4 4 0 0 0 0-7.9Zm-10.5 0a4 4 0 1 0 0 7.9 4 4 0 0 0 0-7.9Zm-10.4 0a4 4 0 1 0 0 7.9 4 4 0 0 0 0-7.9Z"/><path id="Vector_354" opacity=".1" d="M26.4 96.5a4 4 0 1 0 0 7.8 4 4 0 0 0 0-7.8Zm-10.5 0a4 4 0 1 0 0 7.8 4 4 0 0 0 0-7.8Zm-10.5 0a4 4 0 1 0 0 7.8 4 4 0 0 0 0-7.8Z"/><path id="Vector_355" opacity=".1" d="M26.4 96.4a4 4 0 1 0 0 7.9 4 4 0 0 0 0-7.9Zm-10.4 0a4 4 0 1 0 0 7.9 4 4 0 0 0 0-7.9Zm-10.5 0a4 4 0 1 0 0 7.9 4 4 0 0 0 0-7.9Z"/><path id="Vector_356" opacity=".1" d="M26.5 96.3a4 4 0 1 0 0 7.9 4 4 0 0 0 0-7.9Zm-10.5 0a4 4 0 1 0 0 7.9 4 4 0 0 0 0-7.9Zm-10.4 0a4 4 0 1 0 0 7.9 4 4 0 0 0 0-7.9Z"/><path id="Vector_357" opacity=".1" d="M26.5 96.3a4 4 0 1 0 0 7.8 4 4 0 0 0 0-7.8Zm-10.4 0a4 4 0 1 0 0 7.8 4 4 0 0 0 0-7.8Zm-10.5 0a4 4 0 1 0 0 7.8 4 4 0 0 0 0-7.8Z"/><path id="Vector_358" opacity=".1" d="M26.6 96.2a4 4 0 1 0 0 7.9 4 4 0 0 0 0-7.9Zm-10.5 0a4 4 0 1 0 0 7.9 4 4 0 0 0 0-7.9Zm-10.4 0a4 4 0 1 0 0 7.9 4 4 0 0 0 0-7.9Z"/><path id="Vector_359" opacity=".1" d="M26.7 96.2a4 4 0 1 0 0 7.8 4 4 0 0 0 0-7.8Zm-10.5 0a4 4 0 1 0 0 7.8 4 4 0 0 0 0-7.8Zm-10.5 0a4 4 0 1 0 0 7.8 4 4 0 0 0 0-7.8Z"/><path id="Vector_360" opacity=".2" d="M26.7 96.1a4 4 0 1 0 0 7.9 4 4 0 0 0 0-7.9Zm-10.4 0a4 4 0 1 0 0 7.9 4 4 0 0 0 0-7.9Zm-10.5 0a4 4 0 1 0 0 7.9 4 4 0 0 0 0-7.9Z"/><path id="Vector_361" opacity=".2" d="M26.8 96a4 4 0 1 0 0 7.9 4 4 0 0 0 0-7.9Zm-10.5 0a4 4 0 1 0 0 7.9 4 4 0 0 0 0-7.9ZM5.8 96a4 4 0 1 0 0 7.9 4 4 0 0 0 0-7.9Z"/><path id="Vector_362" opacity=".2" d="M26.8 96a4 4 0 1 0 0 7.8 4 4 0 0 0 0-7.8Zm-10.4 0a4 4 0 1 0 0 7.8 4 4 0 0 0 0-7.8ZM5.9 96a4 4 0 1 0 0 7.8A4 4 0 0 0 6 96Z"/><path id="Vector_363" opacity=".2" d="M26.9 96a4 4 0 1 0 0 7.8 4 4 0 0 0 0-7.9Zm-10.5 0a4 4 0 1 0 0 7.8 4 4 0 0 0 0-7.9ZM6 96a4 4 0 1 0 0 7.8 4 4 0 0 0 0-7.9Z"/><path id="Vector_364" opacity=".2" d="M27 95.9a4 4 0 1 0 0 7.8 4 4 0 0 0 0-7.8Zm-10.5 0a4 4 0 1 0 0 7.8 4 4 0 0 0 0-7.8ZM6 95.9a4 4 0 1 0 0 7.8A4 4 0 0 0 6 96Z"/><path id="Vector_365" opacity=".2" d="M27 95.8a4 4 0 1 0 0 7.9 4 4 0 0 0 0-7.9Zm-10.4 0a4 4 0 1 0 0 7.9 4 4 0 0 0 0-7.9ZM6 95.8a4 4 0 1 0 0 7.9 4 4 0 0 0 0-7.9Z"/><path id="Vector_366" opacity=".2" d="M27 95.7a4 4 0 1 0 0 7.9 4 4 0 0 0 0-7.9Zm-10.4 0a4 4 0 1 0 0 7.9 4 4 0 0 0 0-7.9Zm-10.5 0a4 4 0 1 0 0 7.9 4 4 0 0 0 0-7.9Z"/><path id="Vector_367" opacity=".2" d="M27.1 95.7a4 4 0 1 0 0 7.8 4 4 0 0 0 0-7.8Zm-10.4 0a4 4 0 1 0 0 7.8 4 4 0 0 0 0-7.8Zm-10.5 0a4 4 0 1 0 0 7.8 4 4 0 0 0 0-7.8Z"/><path id="Vector_368" opacity=".2" d="M27.2 95.6a4 4 0 1 0 0 7.9 4 4 0 0 0 0-7.9Zm-10.5 0a4 4 0 1 0 0 7.9 4 4 0 0 0 0-7.9Zm-10.4 0a4 4 0 1 0 0 7.9 4 4 0 0 0 0-7.9Z"/><path id="Vector_369" opacity=".2" d="M27.3 95.5a4 4 0 1 0 0 8 4 4 0 0 0 0-8Zm-10.5 0a4 4 0 1 0 0 8 4 4 0 0 0 0-8Zm-10.5 0a4 4 0 1 0 0 8 4 4 0 0 0 0-8Z"/><path id="Vector_370" opacity=".2" d="M27.3 95.5a4 4 0 1 0 0 7.9 4 4 0 0 0 0-8Zm-10.4 0a4 4 0 1 0 0 7.9 4 4 0 0 0 0-8Zm-10.5 0a4 4 0 1 0 0 7.9 4 4 0 0 0 0-8Z"/><path id="Vector_371" opacity=".2" d="M27.4 95.4a4 4 0 1 0 0 7.9 4 4 0 0 0 0-7.9Zm-10.5 0a4 4 0 1 0 0 7.9 4 4 0 0 0 0-7.9Zm-10.5 0a4 4 0 1 0 0 7.9 4 4 0 0 0 0-7.9Z"/><path id="Vector_372" opacity=".2" d="M27.4 95.4a4 4 0 1 0 0 7.8 4 4 0 0 0 0-7.8Zm-10.4 0a4 4 0 1 0 0 7.8 4 4 0 0 0 0-7.8Zm-10.5 0a4 4 0 1 0 0 7.8 4 4 0 0 0 0-7.8Z"/><path id="Vector_373" opacity=".2" d="M27.5 95.3a4 4 0 1 0 0 7.9 4 4 0 0 0 0-7.9Zm-10.5 0a4 4 0 1 0 0 7.9 4 4 0 0 0 0-7.9Zm-10.4 0a4 4 0 1 0 0 7.9 4 4 0 0 0 0-7.9Z"/><path id="Vector_374" opacity=".2" d="M27.6 95.3a4 4 0 1 0 0 7.8 4 4 0 0 0 0-7.8Zm-10.5 0a4 4 0 1 0 0 7.8 4 4 0 0 0 0-7.8Zm-10.5 0a4 4 0 1 0 0 7.8 4 4 0 0 0 0-7.8Z"/><path id="Vector_375" opacity=".2" d="M27.6 95.2a4 4 0 1 0 0 7.9 4 4 0 0 0 0-8Zm-10.4 0a4 4 0 1 0 0 7.9 4 4 0 0 0 0-8Zm-10.5 0a4 4 0 1 0 0 7.9 4 4 0 0 0 0-8Z"/><path id="Vector_376" opacity=".2" d="M27.7 95.1a4 4 0 1 0 0 7.9 4 4 0 0 0 0-7.9Zm-10.5 0a4 4 0 1 0 0 7.9 4 4 0 0 0 0-7.9Zm-10.4 0a4 4 0 1 0 0 7.9 4 4 0 0 0 0-7.9Z"/><path id="Vector_377" opacity=".2" d="M27.7 95a4 4 0 1 0 0 8 4 4 0 0 0 0-8Zm-10.4 0a4 4 0 1 0 0 8 4 4 0 0 0 0-8ZM6.8 95a4 4 0 1 0 0 8 4 4 0 0 0 0-8Z"/><path id="Vector_378" opacity=".2" d="M27.8 95a4 4 0 1 0 0 7.9 4 4 0 0 0 0-7.9Zm-10.5 0a4 4 0 1 0 0 7.9 4 4 0 0 0 0-7.9ZM7 95a4 4 0 1 0 0 7.9 4 4 0 0 0 0-7.9Z"/><path id="Vector_379" opacity=".2" d="M27.9 95a4 4 0 1 0 0 7.8 4 4 0 0 0 0-7.8Zm-10.5 0a4 4 0 1 0 0 7.8 4 4 0 0 0 0-7.8ZM6.9 95a4 4 0 1 0 0 7.8A4 4 0 0 0 7 95Z"/><path id="Vector_380" opacity=".3" d="M28 94.9a4 4 0 1 0 0 7.9 4 4 0 0 0 0-8Zm-10.5 0a4 4 0 1 0 0 7.9 4 4 0 0 0 0-8ZM7 94.9a4 4 0 1 0 0 7.9 4 4 0 0 0 0-8Z"/><path id="Vector_381" opacity=".3" d="M28 94.8a4 4 0 1 0 0 7.9 4 4 0 0 0 0-7.9Zm-10.5 0a4 4 0 1 0 0 7.9 4 4 0 0 0 0-7.9Zm-10.4 0a4 4 0 1 0 0 7.9 4 4 0 0 0 0-7.9Z"/><path id="Vector_382" opacity=".3" d="M28 94.8a4 4 0 1 0 0 7.8 4 4 0 0 0 0-7.8Zm-10.4 0a4 4 0 1 0 0 7.8 4 4 0 0 0 0-7.8ZM7 94.8a4 4 0 1 0 0 7.8 4 4 0 0 0 0-7.8Z"/><path id="Vector_383" opacity=".3" d="M28.1 94.7a4 4 0 1 0 0 7.9 4 4 0 0 0 0-7.9Zm-10.5 0a4 4 0 1 0 0 7.9 4 4 0 0 0 0-7.9Zm-10.4 0a4 4 0 1 0 0 7.9 4 4 0 0 0 0-7.9Z"/><path id="Vector_384" opacity=".3" d="M28.2 94.7a4 4 0 1 0 0 7.8 4 4 0 0 0 0-7.8Zm-10.5 0a4 4 0 1 0 0 7.8 4 4 0 0 0 0-7.8Zm-10.5 0a4 4 0 1 0 0 7.8 4 4 0 0 0 0-7.8Z"/><path id="Vector_385" opacity=".3" d="M28.2 94.6a4 4 0 1 0 0 7.9 4 4 0 0 0 0-8Zm-10.4 0a4 4 0 1 0 0 7.9 4 4 0 0 0 0-8Zm-10.5 0a4 4 0 1 0 0 7.9 4 4 0 0 0 0-8Z"/><path id="Vector_386" opacity=".3" d="M28.3 94.5a4 4 0 1 0 0 7.9 4 4 0 0 0 0-7.9Zm-10.5 0a4 4 0 1 0 0 7.9 4 4 0 0 0 0-7.9Zm-10.5 0a4 4 0 1 0 0 7.9 4 4 0 0 0 0-7.9Z"/><path id="Vector_387" opacity=".3" d="M28.3 94.5a4 4 0 1 0 0 7.8 4 4 0 0 0 0-7.8Zm-10.4 0a4 4 0 1 0 0 7.8 4 4 0 0 0 0-7.8Zm-10.5 0a4 4 0 1 0 0 7.8 4 4 0 0 0 0-7.8Z"/><path id="Vector_388" opacity=".3" d="M28.4 94.4a4 4 0 1 0 0 7.9 4 4 0 0 0 0-7.9Zm-10.5 0a4 4 0 1 0 0 7.9 4 4 0 0 0 0-7.9Zm-10.4 0a4 4 0 1 0 0 7.9 4 4 0 0 0 0-7.9Z"/><path id="Vector_389" opacity=".3" d="M28.5 94.3a4 4 0 1 0 0 8 4 4 0 0 0 0-8Zm-10.5 0a4 4 0 1 0 0 8 4 4 0 0 0 0-8Zm-10.5 0a4 4 0 1 0 0 8 4 4 0 0 0 0-8Z"/><path id="Vector_390" opacity=".3" d="M28.5 94.3a4 4 0 1 0 0 7.9 4 4 0 0 0 0-8Zm-10.4 0a4 4 0 1 0 0 7.9 4 4 0 0 0 0-8Zm-10.5 0a4 4 0 1 0 0 7.9 4 4 0 0 0 0-8Z"/><path id="Vector_391" opacity=".3" d="M28.6 94.2a4 4 0 1 0 0 7.9 4 4 0 0 0 0-7.9Zm-10.5 0a4 4 0 1 0 0 7.9 4 4 0 0 0 0-7.9Zm-10.5 0a4 4 0 1 0 0 7.9 4 4 0 0 0 0-7.9Z"/><path id="Vector_392" opacity=".3" d="M28.6 94.2a4 4 0 1 0 0 7.8 4 4 0 0 0 0-7.8Zm-10.4 0a4 4 0 1 0 0 7.8 4 4 0 0 0 0-7.8Zm-10.5 0a4 4 0 1 0 0 7.8 4 4 0 0 0 0-7.8Z"/><path id="Vector_393" opacity=".3" d="M28.7 94.1a4 4 0 1 0 0 7.9 4 4 0 0 0 0-7.9Zm-10.5 0a4 4 0 1 0 0 7.9 4 4 0 0 0 0-7.9Zm-10.4 0a4 4 0 1 0 0 7.9 4 4 0 0 0 0-7.9Z"/><path id="Vector_394" opacity=".3" d="M28.8 94a4 4 0 1 0 0 8 4 4 0 0 0 0-8Zm-10.5 0a4 4 0 1 0 0 8 4 4 0 0 0 0-8ZM7.8 94a4 4 0 1 0 0 8 4 4 0 0 0 0-8Z"/><path id="Vector_395" opacity=".3" d="M28.8 94a4 4 0 1 0 0 7.9 4 4 0 0 0 0-8Zm-10.4 0a4 4 0 1 0 0 7.9 4 4 0 0 0 0-8ZM7.9 94a4 4 0 1 0 0 7.9 4 4 0 0 0 0-8Z"/><path id="Vector_396" opacity=".3" d="M28.9 94a4 4 0 1 0 0 7.8 4 4 0 0 0 0-7.9Zm-10.5 0a4 4 0 1 0 0 7.8 4 4 0 0 0 0-7.9ZM8 94a4 4 0 1 0 0 7.8 4 4 0 0 0 0-7.9Z"/><path id="Vector_397" opacity=".3" d="M29 93.9a4 4 0 1 0 0 7.8 4 4 0 0 0 0-7.8Zm-10.5 0a4 4 0 1 0 0 7.8 4 4 0 0 0 0-7.8ZM8 93.9a4 4 0 1 0 0 7.8A4 4 0 0 0 8 94Z"/><path id="Vector_398" opacity=".3" d="M29 93.8a4 4 0 1 0 0 7.9 4 4 0 0 0 0-7.9Zm-10.5 0a4 4 0 1 0 0 7.9 4 4 0 0 0 0-7.9Zm-10.4 0a4 4 0 1 0 0 7.9 4 4 0 0 0 0-7.9Z"/><path id="Vector_399" opacity=".3" d="M29 93.8a4 4 0 1 0 0 7.8 4 4 0 0 0 0-7.8Zm-10.4 0a4 4 0 1 0 0 7.8 4 4 0 0 0 0-7.8Zm-10.5 0a4 4 0 1 0 0 7.8 4 4 0 0 0 0-7.8Z"/><path id="Vector_400" opacity=".4" d="M29.1 93.7a4 4 0 1 0 0 7.9 4 4 0 0 0 0-8Zm-10.4 0a4 4 0 1 0 0 7.9 4 4 0 0 0 0-8Zm-10.5 0a4 4 0 1 0 0 7.9 4 4 0 0 0 0-8Z"/><path id="Vector_401" opacity=".4" d="M29.2 93.6a4 4 0 1 0 0 7.9 4 4 0 0 0 0-7.9Zm-10.5 0a4 4 0 1 0 0 7.9 4 4 0 0 0 0-7.9Zm-10.4 0a4 4 0 1 0 0 7.9 4 4 0 0 0 0-7.9Z"/><path id="Vector_402" opacity=".4" d="M29.2 93.6a4 4 0 1 0 0 7.8 4 4 0 0 0 0-7.8Zm-10.4 0a4 4 0 1 0 0 7.8 4 4 0 0 0 0-7.8Zm-10.5 0a4 4 0 1 0 0 7.8 4 4 0 0 0 0-7.8Z"/><path id="Vector_403" opacity=".4" d="M29.3 93.5a4 4 0 1 0 0 7.9 4 4 0 0 0 0-7.9Zm-10.5 0a4 4 0 1 0 0 7.9 4 4 0 0 0 0-7.9Zm-10.4 0a4 4 0 1 0 0 7.9 4 4 0 0 0 0-7.9Z"/><path id="Vector_404" opacity=".4" d="M29.4 93.5a4 4 0 1 0 0 7.8 4 4 0 0 0 0-7.8Zm-10.5 0a4 4 0 1 0 0 7.8 4 4 0 0 0 0-7.8Zm-10.5 0a4 4 0 1 0 0 7.8 4 4 0 0 0 0-7.8Z"/><path id="Vector_405" opacity=".4" d="M29.4 93.4a4 4 0 1 0 0 7.9 4 4 0 0 0 0-8Zm-10.4 0a4 4 0 1 0 0 7.9 4 4 0 0 0 0-8Zm-10.5 0a4 4 0 1 0 0 7.9 4 4 0 0 0 0-8Z"/><path id="Vector_406" opacity=".4" d="M29.5 93.3a4 4 0 1 0 0 7.9 4 4 0 0 0 0-7.9Zm-10.5 0a4 4 0 1 0 0 7.9 4 4 0 0 0 0-7.9Zm-10.4 0a4 4 0 1 0 0 7.9 4 4 0 0 0 0-7.9Z"/><path id="Vector_407" opacity=".4" d="M29.5 93.3a4 4 0 1 0 0 7.8 4 4 0 0 0 0-7.8Zm-10.4 0a4 4 0 1 0 0 7.8 4 4 0 0 0 0-7.8Zm-10.5 0a4 4 0 1 0 0 7.8 4 4 0 0 0 0-7.8Z"/><path id="Vector_408" opacity=".4" d="M29.6 93.2a4 4 0 1 0 0 7.9 4 4 0 0 0 0-7.9Zm-10.5 0a4 4 0 1 0 0 7.9 4 4 0 0 0 0-7.9Zm-10.4 0a4 4 0 1 0 0 7.9 4 4 0 0 0 0-7.9Z"/><path id="Vector_409" opacity=".4" d="M29.7 93.2a4 4 0 1 0 0 7.8 4 4 0 0 0 0-7.8Zm-10.5 0a4 4 0 1 0 0 7.8 4 4 0 0 0 0-7.8Zm-10.5 0a4 4 0 1 0 0 7.8 4 4 0 0 0 0-7.8Z"/><path id="Vector_410" opacity=".4" d="M29.7 93a4 4 0 1 0 0 8 4 4 0 0 0 0-8Zm-10.4 0a4 4 0 1 0 0 8 4 4 0 0 0 0-8ZM8.8 93a4 4 0 1 0 0 8 4 4 0 0 0 0-8Z"/><path id="Vector_411" opacity=".4" d="M29.8 93a4 4 0 1 0 0 7.9 4 4 0 0 0 0-7.9Zm-10.5 0a4 4 0 1 0 0 7.9 4 4 0 0 0 0-7.9ZM8.8 93a4 4 0 1 0 0 7.9 4 4 0 0 0 0-7.9Z"/><path id="Vector_412" opacity=".4" d="M29.8 93a4 4 0 1 0 0 7.8 4 4 0 0 0 0-7.8Zm-10.4 0a4 4 0 1 0 0 7.8 4 4 0 0 0 0-7.8ZM8.9 93a4 4 0 1 0 0 7.8A4 4 0 0 0 9 93Z"/><path id="Vector_413" opacity=".4" d="M29.9 93a4 4 0 1 0 0 7.8 4 4 0 0 0 0-7.9Zm-10.5 0a4 4 0 1 0 0 7.8 4 4 0 0 0 0-7.9ZM9 93a4 4 0 1 0 0 7.8 4 4 0 0 0 0-7.9Z"/><path id="Vector_414" opacity=".4" d="M30 92.8a4 4 0 1 0 0 8 4 4 0 0 0 0-8Zm-10.5 0a4 4 0 1 0 0 8 4 4 0 0 0 0-8ZM9 92.8a4 4 0 1 0 0 8 4 4 0 0 0 0-8Z"/><path id="Vector_415" opacity=".4" d="M30 92.8a4 4 0 1 0 0 7.9 4 4 0 0 0 0-8Zm-10.4 0a4 4 0 1 0 0 7.9 4 4 0 0 0 0-8ZM9 92.8a4 4 0 1 0 0 7.9 4 4 0 0 0 0-8Z"/><path id="Vector_416" opacity=".4" d="M30 92.7a4 4 0 1 0 0 7.9 4 4 0 0 0 0-7.9Zm-10.4 0a4 4 0 1 0 0 7.9 4 4 0 0 0 0-7.9Zm-10.5 0a4 4 0 1 0 0 7.9 4 4 0 0 0 0-7.9Z"/><path id="Vector_417" opacity=".4" d="M30.1 92.7a4 4 0 1 0 0 7.8 4 4 0 0 0 0-7.8Zm-10.4 0a4 4 0 1 0 0 7.8 4 4 0 0 0 0-7.8Zm-10.5 0a4 4 0 1 0 0 7.8 4 4 0 0 0 0-7.8Z"/><path id="Vector_418" opacity=".4" d="M30.2 92.6a4 4 0 1 0 0 7.9 4 4 0 0 0 0-7.9Zm-10.5 0a4 4 0 1 0 0 7.9 4 4 0 0 0 0-7.9Zm-10.4 0a4 4 0 1 0 0 7.9 4 4 0 0 0 0-7.9Z"/><path id="Vector_419" opacity=".4" d="M30.3 92.5a4 4 0 1 0 0 8 4 4 0 0 0 0-8Zm-10.5 0a4 4 0 1 0 0 8 4 4 0 0 0 0-8Zm-10.5 0a4 4 0 1 0 0 8 4 4 0 0 0 0-8Z"/><path id="Vector_420" opacity=".5" d="M30.3 92.5a4 4 0 1 0 0 7.9 4 4 0 0 0 0-8Zm-10.4 0a4 4 0 1 0 0 7.9 4 4 0 0 0 0-8Zm-10.5 0a4 4 0 1 0 0 7.9 4 4 0 0 0 0-8Z"/><path id="Vector_421" opacity=".5" d="M30.4 92.4a4 4 0 1 0 0 7.9 4 4 0 0 0 0-7.9Zm-10.5 0a4 4 0 1 0 0 7.9 4 4 0 0 0 0-7.9Zm-10.5 0a4 4 0 1 0 0 7.9 4 4 0 0 0 0-7.9Z"/><path id="Vector_422" opacity=".5" d="M30.4 92.4a4 4 0 1 0 0 7.8 4 4 0 0 0 0-7.8Zm-10.4 0a4 4 0 1 0 0 7.8 4 4 0 0 0 0-7.8Zm-10.5 0a4 4 0 1 0 0 7.8 4 4 0 0 0 0-7.8Z"/><path id="Vector_423" opacity=".5" d="M30.5 92.3a4 4 0 1 0 0 7.9 4 4 0 0 0 0-7.9Zm-10.5 0a4 4 0 1 0 0 7.9 4 4 0 0 0 0-7.9Zm-10.4 0a4 4 0 1 0 0 7.9 4 4 0 0 0 0-7.9Z"/><path id="Vector_424" opacity=".5" d="M30.6 92.3a4 4 0 1 0 0 7.8 4 4 0 0 0 0-7.8Zm-10.5 0a4 4 0 1 0 0 7.8 4 4 0 0 0 0-7.8Zm-10.5 0a4 4 0 1 0 0 7.8 4 4 0 0 0 0-7.8Z"/><path id="Vector_425" opacity=".5" d="M30.6 92.2a4 4 0 1 0 0 7.9 4 4 0 0 0 0-8Zm-10.4 0a4 4 0 1 0 0 7.9 4 4 0 0 0 0-8Zm-10.5 0a4 4 0 1 0 0 7.9 4 4 0 0 0 0-8Z"/><path id="Vector_426" opacity=".5" d="M30.7 92.1a4 4 0 1 0 0 7.9 4 4 0 0 0 0-7.9Zm-10.5 0a4 4 0 1 0 0 7.9 4 4 0 0 0 0-7.9Zm-10.4 0a4 4 0 1 0 0 7.9 4 4 0 0 0 0-7.9Z"/><path id="Vector_427" opacity=".5" d="M30.7 92a4 4 0 1 0 0 8 4 4 0 0 0 0-8Zm-10.4 0a4 4 0 1 0 0 8 4 4 0 0 0 0-8ZM9.8 92a4 4 0 1 0 0 8 4 4 0 0 0 0-8Z"/><path id="Vector_428" opacity=".5" d="M30.8 92a4 4 0 1 0 0 7.9 4 4 0 0 0 0-7.9Zm-10.5 0a4 4 0 1 0 0 7.9 4 4 0 0 0 0-7.9ZM10 92a4 4 0 1 0 0 7.9 4 4 0 0 0 0-7.9Z"/><path id="Vector_429" opacity=".5" d="M30.9 92a4 4 0 1 0 0 7.8 4 4 0 0 0 0-7.8Zm-10.5 0a4 4 0 1 0 0 7.8 4 4 0 0 0 0-7.8ZM9.9 92a4 4 0 1 0 0 7.8 4 4 0 0 0 0-7.8Z"/><path id="Vector_430" opacity=".5" d="M31 91.9a4 4 0 1 0 0 7.9 4 4 0 0 0 0-8Zm-10.5 0a4 4 0 1 0 0 7.9 4 4 0 0 0 0-8Zm-10.5 0a4 4 0 1 0 0 7.9 4 4 0 0 0 0-8Z"/><path id="Vector_431" opacity=".5" d="M31 91.8a4 4 0 1 0 0 7.9 4 4 0 0 0 0-7.9Zm-10.5 0a4 4 0 1 0 0 7.9 4 4 0 0 0 0-7.9Zm-10.4 0a4 4 0 1 0 0 7.9 4 4 0 0 0 0-7.9Z"/><path id="Vector_432" opacity=".5" d="M31 91.8a4 4 0 1 0 0 7.8 4 4 0 0 0 0-7.8Zm-10.4 0a4 4 0 1 0 0 7.8 4 4 0 0 0 0-7.8Zm-10.5 0a4 4 0 1 0 0 7.8 4 4 0 0 0 0-7.8Z"/><path id="Vector_433" opacity=".5" d="M31.1 91.7a4 4 0 1 0 0 7.9 4 4 0 0 0 0-7.9Zm-10.5 0a4 4 0 1 0 0 7.9 4 4 0 0 0 0-7.9Zm-10.4 0a4 4 0 1 0 0 7.9 4 4 0 0 0 0-7.9Z"/><path id="Vector_434" opacity=".5" d="M31.2 91.7a4 4 0 1 0 0 7.8 4 4 0 0 0 0-7.8Zm-10.5 0a4 4 0 1 0 0 7.8 4 4 0 0 0 0-7.8Zm-10.5 0a4 4 0 1 0 0 7.8 4 4 0 0 0 0-7.8Z"/><path id="Vector_435" opacity=".5" d="M31.2 91.6a4 4 0 1 0 0 7.9 4 4 0 0 0 0-8Zm-10.4 0a4 4 0 1 0 0 7.9 4 4 0 0 0 0-8Zm-10.5 0a4 4 0 1 0 0 7.9 4 4 0 0 0 0-8Z"/><path id="Vector_436" opacity=".5" d="M31.3 91.5a4 4 0 1 0 0 7.9 4 4 0 0 0 0-7.9Zm-10.5 0a4 4 0 1 0 0 7.9 4 4 0 0 0 0-7.9Zm-10.5 0a4 4 0 1 0 0 7.9 4 4 0 0 0 0-7.9Z"/><path id="Vector_437" opacity=".5" d="M31.3 91.5a4 4 0 1 0 0 7.8 4 4 0 0 0 0-7.8Zm-10.4 0a4 4 0 1 0 0 7.8 4 4 0 0 0 0-7.8Zm-10.5 0a4 4 0 1 0 0 7.8 4 4 0 0 0 0-7.8Z"/><path id="Vector_438" opacity=".5" d="M31.4 91.4a4 4 0 1 0 0 7.9 4 4 0 0 0 0-7.9Zm-10.5 0a4 4 0 1 0 0 7.9 4 4 0 0 0 0-7.9Zm-10.4 0a4 4 0 1 0 0 7.9 4 4 0 0 0 0-7.9Z"/><path id="Vector_439" opacity=".5" d="M31.5 91.3a4 4 0 1 0 0 8 4 4 0 0 0 0-8Zm-10.5 0a4 4 0 1 0 0 8 4 4 0 0 0 0-8Zm-10.5 0a4 4 0 1 0 0 8 4 4 0 0 0 0-8Z"/><path id="Vector_440" opacity=".6" d="M31.5 91.3a4 4 0 1 0 0 7.9 4 4 0 0 0 0-8Zm-10.4 0a4 4 0 1 0 0 7.9 4 4 0 0 0 0-8Zm-10.5 0a4 4 0 1 0 0 7.9 4 4 0 0 0 0-8Z"/><path id="Vector_441" opacity=".6" d="M31.6 91.2a4 4 0 1 0 0 7.9 4 4 0 0 0 0-7.9Zm-10.5 0a4 4 0 1 0 0 7.9 4 4 0 0 0 0-7.9Zm-10.5 0a4 4 0 1 0 0 7.9 4 4 0 0 0 0-7.9Z"/><path id="Vector_442" opacity=".6" d="M31.6 91.2a4 4 0 1 0 0 7.8 4 4 0 0 0 0-7.8Zm-10.4 0a4 4 0 1 0 0 7.8 4 4 0 0 0 0-7.8Zm-10.5 0a4 4 0 1 0 0 7.8 4 4 0 0 0 0-7.8Z"/><path id="Vector_443" opacity=".6" d="M31.7 91.1a4 4 0 1 0 0 7.9 4 4 0 0 0 0-7.9Zm-10.5 0a4 4 0 1 0 0 7.9 4 4 0 0 0 0-7.9Zm-10.4 0a4 4 0 1 0 0 7.9 4 4 0 0 0 0-7.9Z"/><path id="Vector_444" opacity=".6" d="M31.8 91a4 4 0 1 0 0 8 4 4 0 0 0 0-8Zm-10.5 0a4 4 0 1 0 0 8 4 4 0 0 0 0-8Zm-10.5 0a4 4 0 1 0 0 8 4 4 0 0 0 0-8Z"/><path id="Vector_445" opacity=".6" d="M31.8 91a4 4 0 1 0 0 7.9 4 4 0 0 0 0-8Zm-10.4 0a4 4 0 1 0 0 7.9 4 4 0 0 0 0-8Zm-10.5 0a4 4 0 1 0 0 7.9 4 4 0 0 0 0-8Z"/><path id="Vector_446" opacity=".6" d="M31.9 91a4 4 0 1 0 0 7.8 4 4 0 0 0 0-7.9Zm-10.5 0a4 4 0 1 0 0 7.8 4 4 0 0 0 0-7.9ZM11 91a4 4 0 1 0 0 7.8 4 4 0 0 0 0-7.9Z"/><path id="Vector_447" opacity=".6" d="M32 90.9a4 4 0 1 0 0 7.8 4 4 0 0 0 0-7.8Zm-10.5 0a4 4 0 1 0 0 7.8 4 4 0 0 0 0-7.8Zm-10.5 0a4 4 0 1 0 0 7.8 4 4 0 0 0 0-7.8Z"/><path id="Vector_448" opacity=".6" d="M32 90.8a4 4 0 1 0 0 7.9 4 4 0 0 0 0-7.9Zm-10.5 0a4 4 0 1 0 0 7.9 4 4 0 0 0 0-7.9Zm-10.4 0a4 4 0 1 0 0 7.9 4 4 0 0 0 0-7.9Z"/><path id="Vector_449" opacity=".6" d="M32 90.8a4 4 0 1 0 0 7.8 4 4 0 0 0 0-7.8Zm-10.4 0a4 4 0 1 0 0 7.8 4 4 0 0 0 0-7.8Zm-10.5 0a4 4 0 1 0 0 7.8 4 4 0 0 0 0-7.8Z"/><path id="Vector_450" opacity=".6" d="M32.1 90.7a4 4 0 1 0 0 7.9 4 4 0 0 0 0-8Zm-10.4 0a4 4 0 1 0 0 7.9 4 4 0 0 0 0-8Zm-10.5 0a4 4 0 1 0 0 7.9 4 4 0 0 0 0-8Z"/><path id="Vector_451" opacity=".6" d="M32.2 90.6a4 4 0 1 0 0 7.9 4 4 0 0 0 0-7.9Zm-10.5 0a4 4 0 1 0 0 7.9 4 4 0 0 0 0-7.9Zm-10.4 0a4 4 0 1 0 0 7.9 4 4 0 0 0 0-7.9Z"/><path id="Vector_452" opacity=".6" d="M32.2 90.6a4 4 0 1 0 0 7.8 4 4 0 0 0 0-7.8Zm-10.4 0a4 4 0 1 0 0 7.8 4 4 0 0 0 0-7.8Zm-10.5 0a4 4 0 1 0 0 7.8 4 4 0 0 0 0-7.8Z"/><path id="Vector_453" opacity=".6" d="M32.3 90.5a4 4 0 1 0 0 7.9 4 4 0 0 0 0-7.9Zm-10.5 0a4 4 0 1 0 0 7.9 4 4 0 0 0 0-7.9Zm-10.4 0a4 4 0 1 0 0 7.9 4 4 0 0 0 0-7.9Z"/><path id="Vector_454" opacity=".6" d="M32.4 90.5a4 4 0 1 0 0 7.8 4 4 0 0 0 0-7.8Zm-10.5 0a4 4 0 1 0 0 7.8 4 4 0 0 0 0-7.8Zm-10.5 0a4 4 0 1 0 0 7.8 4 4 0 0 0 0-7.8Z"/><path id="Vector_455" opacity=".6" d="M32.4 90.4a4 4 0 1 0 0 7.9 4 4 0 0 0 0-8Zm-10.4 0a4 4 0 1 0 0 7.9 4 4 0 0 0 0-8Zm-10.5 0a4 4 0 1 0 0 7.9 4 4 0 0 0 0-8Z"/><path id="Vector_456" opacity=".6" d="M32.5 90.3a4 4 0 1 0 0 7.9 4 4 0 0 0 0-7.9Zm-10.5 0a4 4 0 1 0 0 7.9 4 4 0 0 0 0-7.9Zm-10.4 0a4 4 0 1 0 0 7.9 4 4 0 0 0 0-7.9Z"/><path id="Vector_457" opacity=".6" d="M32.5 90.3a4 4 0 1 0 0 7.8 4 4 0 0 0 0-7.8Zm-10.4 0a4 4 0 1 0 0 7.8 4 4 0 0 0 0-7.8Zm-10.5 0a4 4 0 1 0 0 7.8 4 4 0 0 0 0-7.8Z"/><path id="Vector_458" opacity=".6" d="M32.6 90.2a4 4 0 1 0 0 7.9 4 4 0 0 0 0-7.9Zm-10.5 0a4 4 0 1 0 0 7.9 4 4 0 0 0 0-7.9Zm-10.4 0a4 4 0 1 0 0 7.9 4 4 0 0 0 0-7.9Z"/><path id="Vector_459" opacity=".6" d="M32.7 90.2a4 4 0 1 0 0 7.8 4 4 0 0 0 0-7.8Zm-10.5 0a4 4 0 1 0 0 7.8 4 4 0 0 0 0-7.8Zm-10.5 0a4 4 0 1 0 0 7.8 4 4 0 0 0 0-7.8Z"/><path id="Vector_460" opacity=".7" d="M32.7 90a4 4 0 1 0 0 8 4 4 0 0 0 0-8Zm-10.4 0a4 4 0 1 0 0 8 4 4 0 0 0 0-8Zm-10.5 0a4 4 0 1 0 0 8 4 4 0 0 0 0-8Z"/><path id="Vector_461" opacity=".7" d="M32.8 90a4 4 0 1 0 0 7.9 4 4 0 0 0 0-7.9Zm-10.5 0a4 4 0 1 0 0 7.9 4 4 0 0 0 0-7.9ZM12 90a4 4 0 1 0 0 7.9 4 4 0 0 0 0-7.9Z"/><path id="Vector_462" opacity=".7" d="M32.8 90a4 4 0 1 0 0 7.8 4 4 0 0 0 0-7.8Zm-10.4 0a4 4 0 1 0 0 7.8 4 4 0 0 0 0-7.8Zm-10.5 0a4 4 0 1 0 0 7.8 4 4 0 0 0 0-7.8Z"/><path id="Vector_463" opacity=".7" d="M32.9 90a4 4 0 1 0 0 7.8 4 4 0 0 0 0-7.9Zm-10.5 0a4 4 0 1 0 0 7.8 4 4 0 0 0 0-7.9ZM12 90a4 4 0 1 0 0 7.8 4 4 0 0 0 0-7.9Z"/><path id="Vector_464" opacity=".7" d="M33 89.8a4 4 0 1 0 0 8 4 4 0 0 0 0-8Zm-10.5 0a4 4 0 1 0 0 8 4 4 0 0 0 0-8Zm-10.5 0a4 4 0 1 0 0 8 4 4 0 0 0 0-8Z"/><path id="Vector_465" opacity=".7" d="M33 89.8a4 4 0 1 0 0 7.9 4 4 0 0 0 0-8Zm-10.4 0a4 4 0 1 0 0 7.9 4 4 0 0 0 0-8Zm-10.5 0a4 4 0 1 0 0 7.9 4 4 0 0 0 0-8Z"/><path id="Vector_466" opacity=".7" d="M33 89.7a4 4 0 1 0 0 7.9 4 4 0 0 0 0-7.9Zm-10.4 0a4 4 0 1 0 0 7.9 4 4 0 0 0 0-7.9Zm-10.4 0a4 4 0 1 0 0 7.9 4 4 0 0 0 0-7.9Z"/><path id="Vector_467" opacity=".7" d="M33.1 89.7a4 4 0 1 0 0 7.8 4 4 0 0 0 0-7.8Zm-10.4 0a4 4 0 1 0 0 7.8 4 4 0 0 0 0-7.8Zm-10.5 0a4 4 0 1 0 0 7.8 4 4 0 0 0 0-7.8Z"/><path id="Vector_468" opacity=".7" d="M33.2 89.6a4 4 0 1 0 0 7.9 4 4 0 0 0 0-7.9Zm-10.5 0a4 4 0 1 0 0 7.9 4 4 0 0 0 0-7.9Zm-10.4 0a4 4 0 1 0 0 7.9 4 4 0 0 0 0-7.9Z"/><path id="Vector_469" opacity=".7" d="M33.3 89.5a4 4 0 1 0 0 8 4 4 0 0 0 0-8Zm-10.5 0a4 4 0 1 0 0 8 4 4 0 0 0 0-8Zm-10.5 0a4 4 0 1 0 0 8 4 4 0 0 0 0-8Z"/><path id="Vector_470" opacity=".7" d="M33.3 89.5a4 4 0 1 0 0 7.9 4 4 0 0 0 0-8Zm-10.4 0a4 4 0 1 0 0 7.9 4 4 0 0 0 0-8Zm-10.5 0a4 4 0 1 0 0 7.9 4 4 0 0 0 0-8Z"/><path id="Vector_471" opacity=".7" d="M33.4 89.4a4 4 0 1 0 0 7.9 4 4 0 0 0 0-7.9Zm-10.5 0a4 4 0 1 0 0 7.9 4 4 0 0 0 0-7.9Zm-10.4 0a4 4 0 1 0 0 7.9 4 4 0 0 0 0-7.9Z"/><path id="Vector_472" opacity=".7" d="M33.4 89.4a4 4 0 1 0 0 7.8 4 4 0 0 0 0-7.8Zm-10.4 0a4 4 0 1 0 0 7.8 4 4 0 0 0 0-7.8Zm-10.5 0a4 4 0 1 0 0 7.8 4 4 0 0 0 0-7.8Z"/><path id="Vector_473" opacity=".7" d="M33.5 89.3a4 4 0 1 0 0 7.9 4 4 0 0 0 0-7.9Zm-10.5 0a4 4 0 1 0 0 7.9 4 4 0 0 0 0-7.9Zm-10.4 0a4 4 0 1 0 0 7.9 4 4 0 0 0 0-7.9Z"/><path id="Vector_474" opacity=".7" d="M33.6 89.3a4 4 0 1 0 0 7.8 4 4 0 0 0 0-7.8Zm-10.5 0a4 4 0 1 0 0 7.8 4 4 0 0 0 0-7.8Zm-10.5 0a4 4 0 1 0 0 7.8 4 4 0 0 0 0-7.8Z"/><path id="Vector_475" opacity=".7" d="M33.6 89.2a4 4 0 1 0 0 7.9 4 4 0 0 0 0-8Zm-10.4 0a4 4 0 1 0 0 7.9 4 4 0 0 0 0-8Zm-10.5 0a4 4 0 1 0 0 7.9 4 4 0 0 0 0-8Z"/><path id="Vector_476" opacity=".7" d="M33.7 89.1a4 4 0 1 0 0 7.9 4 4 0 0 0 0-7.9Zm-10.5 0a4 4 0 1 0 0 7.9 4 4 0 0 0 0-7.9Zm-10.4 0a4 4 0 1 0 0 7.9 4 4 0 0 0 0-7.9Z"/><path id="Vector_477" opacity=".7" d="M33.7 89a4 4 0 1 0 0 8 4 4 0 0 0 0-8Zm-10.4 0a4 4 0 1 0 0 8 4 4 0 0 0 0-8Zm-10.5 0a4 4 0 1 0 0 8 4 4 0 0 0 0-8Z"/><path id="Vector_478" opacity=".7" d="M33.8 89a4 4 0 1 0 0 7.9 4 4 0 0 0 0-7.9Zm-10.5 0a4 4 0 1 0 0 7.9 4 4 0 0 0 0-7.9ZM13 89a4 4 0 1 0 0 7.9 4 4 0 0 0 0-7.9Z"/><path id="Vector_479" opacity=".7" d="M33.9 89a4 4 0 1 0 0 7.8 4 4 0 0 0 0-7.8Zm-10.5 0a4 4 0 1 0 0 7.8 4 4 0 0 0 0-7.8Zm-10.5 0a4 4 0 1 0 0 7.8 4 4 0 0 0 0-7.8Z"/><path id="Vector_480" opacity=".8" d="M34 88.9a4 4 0 1 0 0 7.9 4 4 0 0 0 0-8Zm-10.5 0a4 4 0 1 0 0 7.9 4 4 0 0 0 0-8Zm-10.5 0a4 4 0 1 0 0 7.9 4 4 0 0 0 0-8Z"/><path id="Vector_481" opacity=".8" d="M34 88.8a4 4 0 1 0 0 7.9 4 4 0 0 0 0-7.9Zm-10.5 0a4 4 0 1 0 0 7.9 4 4 0 0 0 0-7.9Zm-10.4 0a4 4 0 1 0 0 7.9 4 4 0 0 0 0-7.9Z"/><path id="Vector_482" opacity=".8" d="M34 88.8a4 4 0 1 0 0 7.8 4 4 0 0 0 0-7.8Zm-10.4 0a4 4 0 1 0 0 7.8 4 4 0 0 0 0-7.8Zm-10.5 0a4 4 0 1 0 0 7.8 4 4 0 0 0 0-7.8Z"/><path id="Vector_483" opacity=".8" d="M34.1 88.7a4 4 0 1 0 0 7.9 4 4 0 0 0 0-7.9Zm-10.5 0a4 4 0 1 0 0 7.9 4 4 0 0 0 0-7.9Zm-10.4 0a4 4 0 1 0 0 7.9 4 4 0 0 0 0-7.9Z"/><path id="Vector_484" opacity=".8" d="M34.2 88.7a4 4 0 1 0 0 7.8 4 4 0 0 0 0-7.8Zm-10.5 0a4 4 0 1 0 0 7.8 4 4 0 0 0 0-7.8Zm-10.5 0a4 4 0 1 0 0 7.8 4 4 0 0 0 0-7.8Z"/><path id="Vector_485" opacity=".8" d="M34.2 88.6a4 4 0 1 0 0 7.9 4 4 0 0 0 0-8Zm-10.4 0a4 4 0 1 0 0 7.9 4 4 0 0 0 0-8Zm-10.5 0a4 4 0 1 0 0 7.9 4 4 0 0 0 0-8Z"/><path id="Vector_486" opacity=".8" d="M34.3 88.5a4 4 0 1 0 0 7.9 4 4 0 0 0 0-7.9Zm-10.5 0a4 4 0 1 0 0 7.9 4 4 0 0 0 0-7.9Zm-10.4 0a4 4 0 1 0 0 7.9 4 4 0 0 0 0-7.9Z"/><path id="Vector_487" opacity=".8" d="M34.3 88.5a4 4 0 1 0 0 7.8 4 4 0 0 0 0-7.8Zm-10.4 0a4 4 0 1 0 0 7.8 4 4 0 0 0 0-7.8Zm-10.5 0a4 4 0 1 0 0 7.8 4 4 0 0 0 0-7.8Z"/><path id="Vector_488" opacity=".8" d="M34.4 88.4a4 4 0 1 0 0 7.9 4 4 0 0 0 0-7.9Zm-10.5 0a4 4 0 1 0 0 7.9 4 4 0 0 0 0-7.9Zm-10.4 0a4 4 0 1 0 0 7.9 4 4 0 0 0 0-7.9Z"/><path id="Vector_489" opacity=".8" d="M34.5 88.3a4 4 0 1 0 0 8 4 4 0 0 0 0-8Zm-10.5 0a4 4 0 1 0 0 8 4 4 0 0 0 0-8Zm-10.5 0a4 4 0 1 0 0 8 4 4 0 0 0 0-8Z"/><path id="Vector_490" opacity=".8" d="M34.5 88.3a4 4 0 1 0 0 7.9 4 4 0 0 0 0-8Zm-10.4 0a4 4 0 1 0 0 7.9 4 4 0 0 0 0-8Zm-10.5 0a4 4 0 1 0 0 7.9 4 4 0 0 0 0-8Z"/><path id="Vector_491" opacity=".8" d="M34.6 88.2a4 4 0 1 0 0 7.9 4 4 0 0 0 0-7.9Zm-10.5 0a4 4 0 1 0 0 7.9 4 4 0 0 0 0-7.9Zm-10.4 0a4 4 0 1 0 0 7.9 4 4 0 0 0 0-7.9Z"/><path id="Vector_492" opacity=".8" d="M34.6 88.2a4 4 0 1 0 0 7.8 4 4 0 0 0 0-7.8Zm-10.4 0a4 4 0 1 0 0 7.8 4 4 0 0 0 0-7.8Zm-10.5 0a4 4 0 1 0 0 7.8 4 4 0 0 0 0-7.8Z"/><path id="Vector_493" opacity=".8" d="M34.7 88.1a4 4 0 1 0 0 7.9 4 4 0 0 0 0-7.9Zm-10.5 0a4 4 0 1 0 0 7.9 4 4 0 0 0 0-7.9Zm-10.4 0a4 4 0 1 0 0 7.9 4 4 0 0 0 0-7.9Z"/><path id="Vector_494" opacity=".8" d="M34.8 88a4 4 0 1 0 0 8 4 4 0 0 0 0-8Zm-10.5 0a4 4 0 1 0 0 8 4 4 0 0 0 0-8Zm-10.5 0a4 4 0 1 0 0 8 4 4 0 0 0 0-8Z"/><path id="Vector_495" opacity=".8" d="M34.8 88a4 4 0 1 0 0 7.9 4 4 0 0 0 0-8Zm-10.4 0a4 4 0 1 0 0 7.9 4 4 0 0 0 0-8Zm-10.5 0a4 4 0 1 0 0 7.9 4 4 0 0 0 0-8Z"/><path id="Vector_496" opacity=".8" d="M34.9 88a4 4 0 1 0 0 7.8 4 4 0 0 0 0-7.9Zm-10.5 0a4 4 0 1 0 0 7.8 4 4 0 0 0 0-7.9ZM14 88a4 4 0 1 0 0 7.8 4 4 0 0 0 0-7.9Z"/><path id="Vector_497" opacity=".8" d="M35 87.9a4 4 0 1 0 0 7.8 4 4 0 0 0 0-7.8Zm-10.5 0a4 4 0 1 0 0 7.8 4 4 0 0 0 0-7.8Zm-10.5 0a4 4 0 1 0 0 7.8 4 4 0 0 0 0-7.8Z"/><path id="Vector_498" opacity=".8" d="M35 87.8a4 4 0 1 0 0 7.9 4 4 0 0 0 0-7.9Zm-10.5 0a4 4 0 1 0 0 7.9 4 4 0 0 0 0-7.9Zm-10.4 0a4 4 0 1 0 0 7.9 4 4 0 0 0 0-7.9Z"/><path id="Vector_499" opacity=".8" d="M35 87.8a4 4 0 1 0 0 7.8 4 4 0 0 0 0-7.8Zm-10.4 0a4 4 0 1 0 0 7.8 4 4 0 0 0 0-7.8Zm-10.5 0a4 4 0 1 0 0 7.8 4 4 0 0 0 0-7.8Z"/><path id="Vector_500" opacity=".9" d="M35.1 87.7a4 4 0 1 0 0 7.9 4 4 0 0 0 0-8Zm-10.4 0a4 4 0 1 0 0 7.9 4 4 0 0 0 0-8Zm-10.5 0a4 4 0 1 0 0 7.9 4 4 0 0 0 0-8Z"/><path id="Vector_501" opacity=".9" d="M35.2 87.6a4 4 0 1 0 0 7.9 4 4 0 0 0 0-7.9Zm-10.5 0a4 4 0 1 0 0 7.9 4 4 0 0 0 0-7.9Zm-10.4 0a4 4 0 1 0 0 7.9 4 4 0 0 0 0-7.9Z"/><path id="Vector_502" opacity=".9" d="M35.2 87.6a4 4 0 1 0 0 7.8 4 4 0 0 0 0-7.8Zm-10.4 0a4 4 0 1 0 0 7.8 4 4 0 0 0 0-7.8Zm-10.5 0a4 4 0 1 0 0 7.8 4 4 0 0 0 0-7.8Z"/><path id="Vector_503" opacity=".9" d="M35.3 87.5a4 4 0 1 0 0 7.9 4 4 0 0 0 0-7.9Zm-10.5 0a4 4 0 1 0 0 7.9 4 4 0 0 0 0-7.9Zm-10.4 0a4 4 0 1 0 0 7.9 4 4 0 0 0 0-7.9Z"/><path id="Vector_504" opacity=".9" d="M35.4 87.5a4 4 0 1 0 0 7.8 4 4 0 0 0 0-7.8Zm-10.5 0a4 4 0 1 0 0 7.8 4 4 0 0 0 0-7.8Zm-10.5 0a4 4 0 1 0 0 7.8 4 4 0 0 0 0-7.8Z"/><path id="Vector_505" opacity=".9" d="M35.4 87.4a4 4 0 1 0 0 7.9 4 4 0 0 0 0-8Zm-10.4 0a4 4 0 1 0 0 7.9 4 4 0 0 0 0-8Zm-10.5 0a4 4 0 1 0 0 7.9 4 4 0 0 0 0-8Z"/><path id="Vector_506" opacity=".9" d="M35.5 87.3a4 4 0 1 0 0 7.9 4 4 0 0 0 0-7.9Zm-10.5 0a4 4 0 1 0 0 7.9 4 4 0 0 0 0-7.9Zm-10.4 0a4 4 0 1 0 0 7.9 4 4 0 0 0 0-7.9Z"/><path id="Vector_507" opacity=".9" d="M35.5 87.3a4 4 0 1 0 0 7.8 4 4 0 0 0 0-7.8Zm-10.4 0a4 4 0 1 0 0 7.8 4 4 0 0 0 0-7.8Zm-10.5 0a4 4 0 1 0 0 7.8 4 4 0 0 0 0-7.8Z"/><path id="Vector_508" opacity=".9" d="M35.6 87.2a4 4 0 1 0 0 7.9 4 4 0 0 0 0-7.9Zm-10.5 0a4 4 0 1 0 0 7.9 4 4 0 0 0 0-7.9Zm-10.4 0a4 4 0 1 0 0 7.9 4 4 0 0 0 0-7.9Z"/><path id="Vector_509" opacity=".9" d="M35.7 87.2a4 4 0 1 0 0 7.8 4 4 0 0 0 0-7.8Zm-10.5 0a4 4 0 1 0 0 7.8 4 4 0 0 0 0-7.8Zm-10.5 0a4 4 0 1 0 0 7.8 4 4 0 0 0 0-7.8Z"/><path id="Vector_510" opacity=".9" d="M35.7 87a4 4 0 1 0 0 8 4 4 0 0 0 0-8Zm-10.4 0a4 4 0 1 0 0 8 4 4 0 0 0 0-8Zm-10.5 0a4 4 0 1 0 0 8 4 4 0 0 0 0-8Z"/><path id="Vector_511" opacity=".9" d="M35.8 87a4 4 0 1 0 0 7.9 4 4 0 0 0 0-7.9Zm-10.5 0a4 4 0 1 0 0 7.9 4 4 0 0 0 0-7.9ZM15 87a4 4 0 1 0 0 7.9 4 4 0 0 0 0-7.9Z"/><path id="Vector_512" opacity=".9" d="M35.8 87a4 4 0 1 0 0 7.8 4 4 0 0 0 0-7.8Zm-10.4 0a4 4 0 1 0 0 7.8 4 4 0 0 0 0-7.8Zm-10.5 0a4 4 0 1 0 0 7.8 4 4 0 0 0 0-7.8Z"/><path id="Vector_513" opacity=".9" d="M35.9 87a4 4 0 1 0 0 7.8 4 4 0 0 0 0-7.9Zm-10.5 0a4 4 0 1 0 0 7.8 4 4 0 0 0 0-7.9ZM15 87a4 4 0 1 0 0 7.8 4 4 0 0 0 0-7.9Z"/><path id="Vector_514" opacity=".9" d="M36 86.8a4 4 0 1 0 0 8 4 4 0 0 0 0-8Zm-10.5 0a4 4 0 1 0 0 8 4 4 0 0 0 0-8Zm-10.5 0a4 4 0 1 0 0 8 4 4 0 0 0 0-8Z"/><path id="Vector_515" opacity=".9" d="M36 86.8a4 4 0 1 0 0 7.9 4 4 0 0 0 0-8Zm-10.4 0a4 4 0 1 0 0 7.9 4 4 0 0 0 0-8Zm-10.5 0a4 4 0 1 0 0 7.9 4 4 0 0 0 0-8Z"/><path id="Vector_516" opacity=".9" d="M36 86.7a4 4 0 1 0 0 7.9 4 4 0 0 0 0-7.9Zm-10.4 0a4 4 0 1 0 0 7.9 4 4 0 0 0 0-7.9Zm-10.4 0a4 4 0 1 0 0 7.9 4 4 0 0 0 0-7.9Z"/><path id="Vector_517" opacity=".9" d="M36.1 86.7a4 4 0 1 0 0 7.8 4 4 0 0 0 0-7.8Zm-10.4 0a4 4 0 1 0 0 7.8 4 4 0 0 0 0-7.8Zm-10.5 0a4 4 0 1 0 0 7.8 4 4 0 0 0 0-7.8Z"/><path id="Vector_518" opacity=".9" d="M36.2 86.6a4 4 0 1 0 0 7.9 4 4 0 0 0 0-7.9Zm-10.5 0a4 4 0 1 0 0 7.9 4 4 0 0 0 0-7.9Zm-10.4 0a4 4 0 1 0 0 7.9 4 4 0 0 0 0-7.9Z"/><path id="Vector_519" opacity=".9" d="M36.3 86.5a4 4 0 1 0 0 8 4 4 0 0 0 0-8Zm-10.5 0a4 4 0 1 0 0 8 4 4 0 0 0 0-8Zm-10.5 0a4 4 0 1 0 0 8 4 4 0 0 0 0-8Z"/><path id="Vector_520" opacity="1" d="M36.3 86.5a4 4 0 1 0 0 7.9 4 4 0 0 0 0-8Zm-10.4 0a4 4 0 1 0 0 7.9 4 4 0 0 0 0-8Zm-10.5 0a4 4 0 1 0 0 7.9 4 4 0 0 0 0-8Z"/><path id="Vector_521" opacity="1" d="M36.4 86.4a4 4 0 1 0 0 7.9 4 4 0 0 0 0-7.9Zm-10.5 0a4 4 0 1 0 0 7.9 4 4 0 0 0 0-7.9Zm-10.4 0a4 4 0 1 0 0 7.9 4 4 0 0 0 0-7.9Z"/><path id="Vector_522" opacity="1" d="M36.4 86.4a4 4 0 1 0 0 7.8 4 4 0 0 0 0-7.8Zm-10.4 0a4 4 0 1 0 0 7.8 4 4 0 0 0 0-7.8Zm-10.5 0a4 4 0 1 0 0 7.8 4 4 0 0 0 0-7.8Z"/><path id="Vector_523" opacity="1" d="M36.5 86.3a4 4 0 1 0 0 7.9 4 4 0 0 0 0-7.9Zm-10.5 0a4 4 0 1 0 0 7.9 4 4 0 0 0 0-7.9Zm-10.4 0a4 4 0 1 0 0 7.9 4 4 0 0 0 0-7.9Z"/><path id="Vector_524" opacity="1" d="M36.6 86.3a4 4 0 1 0 0 7.8 4 4 0 0 0 0-7.8Zm-10.5 0a4 4 0 1 0 0 7.8 4 4 0 0 0 0-7.8Zm-10.5 0a4 4 0 1 0 0 7.8 4 4 0 0 0 0-7.8Z"/><path id="Vector_525" opacity="1" d="M36.6 86.2a4 4 0 1 0 0 7.9 4 4 0 0 0 0-8Zm-10.4 0a4 4 0 1 0 0 7.9 4 4 0 0 0 0-8Zm-10.5 0a4 4 0 1 0 0 7.9 4 4 0 0 0 0-8Z"/><path id="Vector_526" opacity="1" d="M36.7 86.1a4 4 0 1 0 0 7.9 4 4 0 0 0 0-7.9Zm-10.5 0a4 4 0 1 0 0 7.9 4 4 0 0 0 0-7.9Zm-10.4 0a4 4 0 1 0 0 7.9 4 4 0 0 0 0-7.9Z"/><path id="Vector_527" opacity="1" d="M36.7 86a4 4 0 1 0 0 8 4 4 0 0 0 0-8Zm-10.4 0a4 4 0 1 0 0 8 4 4 0 0 0 0-8Zm-10.5 0a4 4 0 1 0 0 8 4 4 0 0 0 0-8Z"/><path id="Vector_528" opacity="1" d="M36.8 86a4 4 0 1 0 0 7.9 4 4 0 0 0 0-7.9Zm-10.5 0a4 4 0 1 0 0 7.9 4 4 0 0 0 0-7.9ZM16 86a4 4 0 1 0 0 7.9 4 4 0 0 0 0-7.9Z"/><path id="Vector_529" opacity="1" d="M36.9 86a4 4 0 1 0 0 7.8 4 4 0 0 0 0-7.8Zm-10.5 0a4 4 0 1 0 0 7.8 4 4 0 0 0 0-7.8Zm-10.5 0a4 4 0 1 0 0 7.8 4 4 0 0 0 0-7.8Z"/><path id="Vector_530" opacity=".3" d="M37 85.9a4 4 0 1 0 0 7.9 4 4 0 0 0 0-8Zm-10.5 0a4 4 0 1 0 0 7.9 4 4 0 0 0 0-8Zm-10.5 0a4 4 0 1 0 0 7.9 4 4 0 0 0 0-8Z"/></g></g><path id="Vector_531" d="M26.5 85.9a4 4 0 1 0 0 7.9 4 4 0 0 0 0-8Zm-10.5 0a4 4 0 1 0 0 7.9 4 4 0 0 0 0-8Zm21 0a4 4 0 1 0 0 7.9 4 4 0 0 0 0-8Z" fill="#fff"/></g></g></g></g></g></svg>