<svg width="290" height="277" viewBox="0 0 290 277" fill="none" xmlns="http://www.w3.org/2000/svg"><g id="Group 6"><g id="Group"><g id="Group_2"><path id="Vector" d="M189 .1H52.2A4.1 4.1 0 0 0 48 4.2v84c0 2.2 1.8 4 4 4H189c2.3 0 4.1-1.8 4.1-4v-84c0-2.2-1.8-4-4.1-4Z" fill="#F1F2F2"/><path id="Vector_2" d="M189 93.8H52.2A4.1 4.1 0 0 0 48 98v83.9c0 2.3 1.8 4.1 4 4.1H189c2.3 0 4.1-1.8 4.1-4.1v-84c0-2.2-1.8-4-4.1-4Z" fill="#F1F2F2"/><path id="Vector_3" d="M136.5 160h-24.7a3.3 3.3 0 0 0-3.2 3.2v11.4c0 1.8 1.4 3.3 3.2 3.3h24.7c1.8 0 3.3-1.5 3.3-3.3v-11.4c0-1.8-1.5-3.3-3.3-3.3Z" fill="#D1D3D4"/><path id="Vector_4" d="M181.1 8.5h-121a3.2 3.2 0 0 0-3.3 3.2V80c0 1.8 1.5 3.3 3.3 3.3h121c1.8 0 3.2-1.5 3.2-3.3V11.7c0-1.8-1.4-3.2-3.2-3.2Z" fill="#fff"/><g id="Group_3"><path id="Vector_5" d="M178.2 13H63.5v6.7h114.7V13Z" fill="#F59817"/><path id="Vector_6" d="M160.6 23.1h-97v28.8h97V23.1Z" fill="#1095A3"/><g id="Group_4"><path id="Vector_7" d="M81.6 63.7a8 8 0 1 1-16.1 0 8 8 0 0 1 16 0Z" fill="#3B6C8A"/><path id="Vector_8" d="M81.4 75.3H65.6V77h15.8v-1.8Z" fill="#D1D3D4"/></g><g id="Group_5"><path id="Vector_9" d="M107.4 63.7a8 8 0 1 1-16 0 8 8 0 0 1 16 0Z" fill="#3B6C8A"/><path id="Vector_10" d="M107.3 75.3H91.5V77h15.8v-1.8Z" fill="#D1D3D4"/></g><g id="Group_6"><path id="Vector_11" d="M133.3 63.7a8 8 0 1 1-16.1 0 8 8 0 0 1 16 0Z" fill="#3B6C8A"/><path id="Vector_12" d="M133.1 75.3h-15.8V77h15.8v-1.8Z" fill="#D1D3D4"/></g><g id="Group_7"><path id="Vector_13" d="M159.1 63.7a8 8 0 1 1-16 0 8 8 0 0 1 16 0Z" fill="#3B6C8A"/><path id="Vector_14" d="M159 75.3h-15.8V77H159v-1.8Z" fill="#D1D3D4"/></g><path id="Vector_15" d="M178.3 23h-14.4v54.8h14.4V23Z" fill="#91CF61"/><g id="Group_8"><g id="Group_9"><path id="Vector_16" d="M92 45.7 90.4 42h-8.3l-1.5 3.7h-2.4L85 29h2.6l6.7 16.7H92ZM86.2 31l-3.5 9h7l-3.5-9Z" fill="#fff"/></g></g><g id="Group_10"><g id="Group_11"><path id="Vector_17" d="M130 45.7V29h7.5c3 0 4.7 1.7 4.7 4.2 0 2.1-1.4 3.5-3 3.9 1.9.2 3.3 2 3.3 4 0 2.7-1.8 4.6-4.8 4.6H130Zm10-12.2c0-1.5-1-2.7-2.8-2.7h-5v5.4h5c1.8 0 2.8-1.1 2.8-2.7Zm.4 7.4c0-1.5-1-2.8-3.1-2.8h-5.1v5.7h5c2 0 3.2-1 3.2-2.9Z" fill="#fff"/></g></g><path id="Vector_18" d="M111.6 23.3h-.8V52h.8V23.3Z" fill="#065C60"/></g><g id="Group_12"><path id="Vector_19" d="M177.2 101.3H64a4.9 4.9 0 0 0-4.8 4.9v41c0 2.6 2.2 4.8 4.8 4.8h113.3c2.7 0 4.9-2.2 4.9-4.8v-41c0-2.7-2.2-4.9-4.9-4.9Z" fill="#D1D3D4"/><g id="Group_13" fill="#58595B"><path id="Vector_20" d="M72.7 123.6h-6.4c-.6 0-1.1.5-1.1 1.1v4.2c0 .6.5 1.2 1.1 1.2h6.4c.6 0 1.1-.6 1.1-1.2v-4.2c0-.6-.5-1.1-1.1-1.1Z"/><path id="Vector_21" d="M83 123.6h-6.3c-.6 0-1.1.5-1.1 1.1v4.2c0 .6.5 1.2 1.1 1.2h6.4c.6 0 1.1-.6 1.1-1.2v-4.2c0-.6-.5-1.1-1.1-1.1Z"/><path id="Vector_22" d="M93.4 123.6h-6.3c-.6 0-1.1.5-1.1 1.1v4.2c0 .6.5 1.2 1.1 1.2h6.3c.7 0 1.2-.6 1.2-1.2v-4.2c0-.6-.5-1.1-1.2-1.1Z"/><path id="Vector_23" d="M103.8 123.6h-6.3c-.6 0-1.1.5-1.1 1.1v4.2c0 .6.5 1.2 1.1 1.2h6.3c.7 0 1.2-.6 1.2-1.2v-4.2c0-.6-.5-1.1-1.2-1.1Z"/><path id="Vector_24" d="M114.2 123.6H108c-.6 0-1.2.5-1.2 1.1v4.2c0 .6.6 1.2 1.2 1.2h6.3c.6 0 1.2-.6 1.2-1.2v-4.2c0-.6-.5-1.1-1.2-1.1Z"/><path id="Vector_25" d="M124.6 123.6h-6.3c-.6 0-1.2.5-1.2 1.1v4.2c0 .6.6 1.2 1.2 1.2h6.3c.7 0 1.2-.6 1.2-1.2v-4.2c0-.6-.5-1.1-1.2-1.1Z"/><path id="Vector_26" d="M135 123.6h-6.3c-.6 0-1.2.5-1.2 1.1v4.2c0 .6.6 1.2 1.2 1.2h6.3c.6 0 1.2-.6 1.2-1.2v-4.2c0-.6-.6-1.1-1.2-1.1Z"/><path id="Vector_27" d="M145.4 123.6h-6.3c-.7 0-1.2.5-1.2 1.1v4.2c0 .6.5 1.2 1.2 1.2h6.3c.6 0 1.2-.6 1.2-1.2v-4.2c0-.6-.6-1.1-1.2-1.1Z"/><path id="Vector_28" d="M155.8 123.6h-6.3c-.7 0-1.2.5-1.2 1.1v4.2c0 .6.5 1.2 1.2 1.2h6.3c.6 0 1.1-.6 1.1-1.2v-4.2c0-.6-.5-1.1-1.1-1.1Z"/><path id="Vector_29" d="M166.2 123.6h-6.3c-.7 0-1.2.5-1.2 1.1v4.2c0 .6.5 1.2 1.2 1.2h6.3c.6 0 1.1-.6 1.1-1.2v-4.2c0-.6-.5-1.1-1.1-1.1Z"/><path id="Vector_30" d="M176.6 123.6h-6.4c-.6 0-1.1.5-1.1 1.1v4.2c0 .6.5 1.2 1.1 1.2h6.4c.6 0 1.1-.6 1.1-1.2v-4.2c0-.6-.5-1.1-1.1-1.1Z"/></g><g id="Group_14" fill="#58595B"><path id="Vector_31" d="M78.2 131.2H66.1c-.6 0-1.2.5-1.2 1.1v4.2c0 .6.6 1.2 1.2 1.2h12.1c.7 0 1.2-.6 1.2-1.2v-4.2c0-.6-.5-1.1-1.2-1.1Z"/><path id="Vector_32" d="M88.6 131.2h-6.3c-.6 0-1.2.5-1.2 1.1v4.2c0 .6.6 1.2 1.2 1.2h6.3c.6 0 1.2-.6 1.2-1.2v-4.2c0-.6-.6-1.1-1.2-1.1Z"/><path id="Vector_33" d="M99 131.2h-6.3c-.7 0-1.2.5-1.2 1.1v4.2c0 .6.5 1.2 1.2 1.2H99c.6 0 1.2-.6 1.2-1.2v-4.2c0-.6-.6-1.1-1.2-1.1Z"/><path id="Vector_34" d="M109.4 131.2H103c-.7 0-1.2.5-1.2 1.1v4.2c0 .6.5 1.2 1.2 1.2h6.3c.6 0 1.1-.6 1.1-1.2v-4.2c0-.6-.5-1.1-1.1-1.1Z"/><path id="Vector_35" d="M119.8 131.2h-6.3c-.7 0-1.2.5-1.2 1.1v4.2c0 .6.5 1.2 1.2 1.2h6.3c.6 0 1.1-.6 1.1-1.2v-4.2c0-.6-.5-1.1-1.1-1.1Z"/><path id="Vector_36" d="M130.2 131.2h-6.4c-.6 0-1.1.5-1.1 1.1v4.2c0 .6.5 1.2 1.1 1.2h6.4c.6 0 1.1-.6 1.1-1.2v-4.2c0-.6-.5-1.1-1.1-1.1Z"/><path id="Vector_37" d="M140.6 131.2h-6.4c-.6 0-1.1.5-1.1 1.1v4.2c0 .6.5 1.2 1.1 1.2h6.4c.6 0 1.1-.6 1.1-1.2v-4.2c0-.6-.5-1.1-1.1-1.1Z"/><path id="Vector_38" d="M151 131.2h-6.4c-.6 0-1.1.5-1.1 1.1v4.2c0 .6.5 1.2 1.1 1.2h6.4c.6 0 1.1-.6 1.1-1.2v-4.2c0-.6-.5-1.1-1.1-1.1Z"/><path id="Vector_39" d="M161.3 131.2H155c-.6 0-1.1.5-1.1 1.1v4.2c0 .6.5 1.2 1.1 1.2h6.3c.7 0 1.2-.6 1.2-1.2v-4.2c0-.6-.5-1.1-1.2-1.1Z"/><path id="Vector_40" d="M171.7 131.2h-6.3c-.6 0-1.2.5-1.2 1.1v4.2c0 .6.6 1.2 1.2 1.2h6.3c.7 0 1.2-.6 1.2-1.2v-4.2c0-.6-.5-1.1-1.2-1.1Z"/><path id="Vector_41" d="M176.4 131.2h-.6c-.6 0-1.2.5-1.2 1.1v4.2c0 .6.6 1.2 1.2 1.2h.6c.7 0 1.2-.6 1.2-1.2v-4.2c0-.6-.5-1.1-1.2-1.1Z"/></g><g id="Group_15" fill="#58595B"><path id="Vector_42" d="M72.7 107.9h-6.4c-.6 0-1.1.5-1.1 1.1v4.2c0 .6.5 1.1 1.1 1.1h6.4c.6 0 1.1-.5 1.1-1.1V109c0-.6-.5-1.1-1.1-1.1Z"/><path id="Vector_43" d="M83 107.9h-6.3c-.6 0-1.1.5-1.1 1.1v4.2c0 .6.5 1.1 1.1 1.1h6.4c.6 0 1.1-.5 1.1-1.1V109c0-.6-.5-1.1-1.1-1.1Z"/><path id="Vector_44" d="M93.4 107.9h-6.3c-.6 0-1.1.5-1.1 1.1v4.2c0 .6.5 1.1 1.1 1.1h6.3c.7 0 1.2-.5 1.2-1.1V109c0-.6-.5-1.1-1.2-1.1Z"/><path id="Vector_45" d="M103.8 107.9h-6.3c-.6 0-1.1.5-1.1 1.1v4.2c0 .6.5 1.1 1.1 1.1h6.3c.7 0 1.2-.5 1.2-1.1V109c0-.6-.5-1.1-1.2-1.1Z"/><path id="Vector_46" d="M114.2 107.9H108c-.6 0-1.2.5-1.2 1.1v4.2c0 .6.6 1.1 1.2 1.1h6.3c.6 0 1.2-.5 1.2-1.1V109c0-.6-.5-1.1-1.2-1.1Z"/><path id="Vector_47" d="M124.6 107.9h-6.3c-.6 0-1.2.5-1.2 1.1v4.2c0 .6.6 1.1 1.2 1.1h6.3c.7 0 1.2-.5 1.2-1.1V109c0-.6-.5-1.1-1.2-1.1Z"/><path id="Vector_48" d="M135 107.9h-6.3c-.6 0-1.2.5-1.2 1.1v4.2c0 .6.6 1.1 1.2 1.1h6.3c.6 0 1.2-.5 1.2-1.1V109c0-.6-.6-1.1-1.2-1.1Z"/><path id="Vector_49" d="M145.4 107.9h-6.3c-.7 0-1.2.5-1.2 1.1v4.2c0 .6.5 1.1 1.2 1.1h6.3c.6 0 1.2-.5 1.2-1.1V109c0-.6-.6-1.1-1.2-1.1Z"/><path id="Vector_50" d="M155.8 107.9h-6.3c-.7 0-1.2.5-1.2 1.1v4.2c0 .6.5 1.1 1.2 1.1h6.3c.6 0 1.1-.5 1.1-1.1V109c0-.6-.5-1.1-1.1-1.1Z"/><path id="Vector_51" d="M166.2 107.9h-6.3c-.7 0-1.2.5-1.2 1.1v4.2c0 .6.5 1.1 1.2 1.1h6.3c.6 0 1.1-.5 1.1-1.1V109c0-.6-.5-1.1-1.1-1.1Z"/><path id="Vector_52" d="M176.6 107.9h-6.4c-.6 0-1.1.5-1.1 1.1v4.2c0 .6.5 1.1 1.1 1.1h6.4c.6 0 1.1-.5 1.1-1.1V109c0-.6-.5-1.1-1.1-1.1Z"/></g><g id="Group_16" fill="#58595B"><path id="Vector_53" d="M78.2 115.5H66.1c-.6 0-1.2.5-1.2 1.1v4.2c0 .6.6 1.2 1.2 1.2h12.1c.7 0 1.2-.6 1.2-1.2v-4.2c0-.6-.5-1.1-1.2-1.1Z"/><path id="Vector_54" d="M88.6 115.5h-6.3c-.6 0-1.2.5-1.2 1.1v4.2c0 .6.6 1.2 1.2 1.2h6.3c.6 0 1.2-.6 1.2-1.2v-4.2c0-.6-.6-1.1-1.2-1.1Z"/><path id="Vector_55" d="M99 115.5h-6.3c-.7 0-1.2.5-1.2 1.1v4.2c0 .6.5 1.2 1.2 1.2H99c.6 0 1.2-.6 1.2-1.2v-4.2c0-.6-.6-1.1-1.2-1.1Z"/><path id="Vector_56" d="M109.4 115.5H103c-.7 0-1.2.5-1.2 1.1v4.2c0 .6.5 1.2 1.2 1.2h6.3c.6 0 1.1-.6 1.1-1.2v-4.2c0-.6-.5-1.1-1.1-1.1Z"/><path id="Vector_57" d="M119.8 115.5h-6.3c-.7 0-1.2.5-1.2 1.1v4.2c0 .6.5 1.2 1.2 1.2h6.3c.6 0 1.1-.6 1.1-1.2v-4.2c0-.6-.5-1.1-1.1-1.1Z"/><path id="Vector_58" d="M130.2 115.5h-6.4c-.6 0-1.1.5-1.1 1.1v4.2c0 .6.5 1.2 1.1 1.2h6.4c.6 0 1.1-.6 1.1-1.2v-4.2c0-.6-.5-1.1-1.1-1.1Z"/><path id="Vector_59" d="M140.6 115.5h-6.4c-.6 0-1.1.5-1.1 1.1v4.2c0 .6.5 1.2 1.1 1.2h6.4c.6 0 1.1-.6 1.1-1.2v-4.2c0-.6-.5-1.1-1.1-1.1Z"/><path id="Vector_60" d="M151 115.5h-6.4c-.6 0-1.1.5-1.1 1.1v4.2c0 .6.5 1.2 1.1 1.2h6.4c.6 0 1.1-.6 1.1-1.2v-4.2c0-.6-.5-1.1-1.1-1.1Z"/><path id="Vector_61" d="M161.3 115.5H155c-.6 0-1.1.5-1.1 1.1v4.2c0 .6.5 1.2 1.1 1.2h6.3c.7 0 1.2-.6 1.2-1.2v-4.2c0-.6-.5-1.1-1.2-1.1Z"/><path id="Vector_62" d="M171.7 115.5h-6.3c-.6 0-1.2.5-1.2 1.1v4.2c0 .6.6 1.2 1.2 1.2h6.3c.7 0 1.2-.6 1.2-1.2v-4.2c0-.6-.5-1.1-1.2-1.1Z"/><path id="Vector_63" d="M176.4 115.5h-.6c-.6 0-1.2.5-1.2 1.1v4.2c0 .6.6 1.2 1.2 1.2h.6c.7 0 1.2-.6 1.2-1.2v-4.2c0-.6-.5-1.1-1.2-1.1Z"/></g><g id="Group_17" fill="#58595B"><path id="Vector_64" d="M72.7 139.7h-6.4c-.6 0-1.1.5-1.1 1.1v4.2c0 .7.5 1.2 1.1 1.2h6.4c.6 0 1.1-.5 1.1-1.2v-4.2c0-.6-.5-1.1-1.1-1.1Z"/><path id="Vector_65" d="M83 139.7h-6.3c-.6 0-1.1.5-1.1 1.1v4.2c0 .7.5 1.2 1.1 1.2h6.4c.6 0 1.1-.5 1.1-1.2v-4.2c0-.6-.5-1.1-1.1-1.1Z"/><path id="Vector_66" d="M93.4 139.7h-6.3c-.6 0-1.1.5-1.1 1.1v4.2c0 .7.5 1.2 1.1 1.2h6.3c.7 0 1.2-.5 1.2-1.2v-4.2c0-.6-.5-1.1-1.2-1.1Z"/><path id="Vector_67" d="M145.3 139.7H97.5c-.6 0-1.1.5-1.1 1.1v4.2c0 .7.5 1.2 1.1 1.2h47.8c.6 0 1.1-.5 1.1-1.2v-4.2c0-.6-.5-1.1-1.1-1.1Z"/><path id="Vector_68" d="M155.8 139.7h-6.3c-.7 0-1.2.5-1.2 1.1v4.2c0 .7.5 1.2 1.2 1.2h6.3c.6 0 1.1-.5 1.1-1.2v-4.2c0-.6-.5-1.1-1.1-1.1Z"/><path id="Vector_69" d="M166.2 139.7h-6.3c-.7 0-1.2.5-1.2 1.1v4.2c0 .7.5 1.2 1.2 1.2h6.3c.6 0 1.1-.5 1.1-1.2v-4.2c0-.6-.5-1.1-1.1-1.1Z"/><path id="Vector_70" d="M176.6 139.7h-6.4c-.6 0-1.1.5-1.1 1.1v4.2c0 .7.5 1.2 1.1 1.2h6.4c.6 0 1.1-.5 1.1-1.2v-4.2c0-.6-.5-1.1-1.1-1.1Z"/></g></g><path id="Vector_71" d="M180.8 89.6H60.4a3.6 3.6 0 0 0 0 7h120.4a3.6 3.6 0 1 0 0-7Z" fill="#D1D3D4"/><path id="Vector_72" d="M56.8 93.2c0 2 1.6 3.5 3.6 3.5h120.4c2 0 3.5-1.6 3.5-3.5H56.8Z" fill="#BCBEC0"/></g><g id="Group_18"><g id="Group_19"><g id="Group_20"><path id="Vector_73" d="m189.9 236.4-49.4 2.7a3 3 0 0 1-3-2.8l-3.8-68.3a3 3 0 0 1 2.7-3.1l49.4-2.7a3 3 0 0 1 3.1 2.7l3.8 68.4a3 3 0 0 1-2.8 3Z" fill="#fff"/><path id="Vector_74" d="m137.5 237-3.9-69.7c0-1.3.9-2.3 2.1-2.4l3.2-.2 4 74.3-3.1.1c-1.2.1-2.3-.8-2.3-2Z" fill="#F1F2F2"/><path id="Vector_75" d="m138.7 235.1-2.2.2a.7.7 0 0 1-.7-.7c0-.3.2-.7.6-.7l2.2-.1c.4 0 .7.3.7.6 0 .4-.3.7-.6.7Z" fill="#808285"/><path id="Vector_76" d="M138.4 231h-2.2a.7.7 0 0 1-.7-.6c0-.4.3-.7.7-.7l2.2-.1c.3 0 .7.2.7.6 0 .4-.3.7-.7.7Z" fill="#808285"/><path id="Vector_77" d="m138.2 226.7-2.2.1a.7.7 0 0 1-.7-.6c0-.4.3-.7.6-.8h2.2c.4-.1.7.2.7.6 0 .3-.2.7-.6.7Z" fill="#808285"/><path id="Vector_78" d="m138 222.4-2.2.2a.7.7 0 0 1-.7-.7c0-.3.2-.7.6-.7l2.2-.1c.4 0 .7.3.7.6 0 .4-.3.7-.6.8Z" fill="#808285"/><path id="Vector_79" d="m137.7 218.2-2.2.1a.7.7 0 0 1-.7-.6c0-.4.3-.7.7-.7l2.2-.1c.3 0 .7.2.7.6 0 .4-.3.7-.7.7Z" fill="#808285"/><path id="Vector_80" d="m137.5 214-2.2.1a.7.7 0 0 1-.7-.6c0-.4.3-.7.6-.8h2.2c.4 0 .7.2.7.6 0 .3-.2.7-.6.7Z" fill="#808285"/><path id="Vector_81" d="M137.3 209.8H135a.7.7 0 0 1-.7-.6c0-.3.2-.7.6-.7l2.2-.1c.4 0 .7.3.7.6 0 .4-.3.7-.6.8Z" fill="#808285"/><path id="Vector_82" d="m137 205.5-2.1.2a.7.7 0 0 1-.8-.7c0-.4.3-.7.7-.7l2.2-.1c.3 0 .7.2.7.6 0 .4-.3.7-.7.7Z" fill="#808285"/><path id="Vector_83" d="m136.8 201.3-2.2.1a.7.7 0 0 1-.7-.6c0-.4.3-.7.6-.7l2.2-.2c.4 0 .7.3.7.7 0 .4-.2.7-.6.7Z" fill="#808285"/><path id="Vector_84" d="m136.6 197-2.2.2a.7.7 0 0 1-.7-.6c0-.4.2-.8.6-.8h2.2c.4-.1.7.2.7.5 0 .4-.3.8-.6.8Z" fill="#808285"/><path id="Vector_85" d="m136.3 192.8-2.1.2a.7.7 0 0 1-.8-.7c0-.4.3-.7.7-.7l2.2-.1c.3 0 .7.3.7.6 0 .4-.3.7-.7.7Z" fill="#808285"/><path id="Vector_86" d="m136.1 188.6-2.2.1a.7.7 0 0 1-.7-.6c0-.4.3-.7.6-.7l2.2-.2c.4 0 .7.3.8.7 0 .4-.3.7-.7.7Z" fill="#808285"/><path id="Vector_87" d="m135.9 184.4-2.2.1a.7.7 0 0 1-.7-.6c0-.4.2-.7.6-.8h2.2c.4-.1.7.2.7.6 0 .3-.2.7-.6.7Z" fill="#808285"/><path id="Vector_88" d="M135.6 180.2h-2.2a.7.7 0 0 1-.7-.6c0-.3.3-.7.7-.7l2.2-.1c.3 0 .7.3.7.6 0 .4-.3.7-.7.8Z" fill="#808285"/><path id="Vector_89" d="M135.4 176h-2.2a.7.7 0 0 1-.7-.6c0-.4.3-.7.6-.7l2.2-.1c.4 0 .7.2.8.6 0 .4-.3.7-.7.7Z" fill="#808285"/><path id="Vector_90" d="m135.2 171.7-2.2.1a.7.7 0 0 1-.7-.6c0-.4.2-.7.6-.7l2.2-.2c.4 0 .7.3.7.7 0 .3-.3.7-.6.7Z" fill="#808285"/><path id="Vector_91" d="m186.7 230.1-40.4 2.2-.2-.1.2-.2 40.3-2.2.2.1-.1.2Z" fill="#F1F2F2"/><path id="Vector_92" d="m186.3 223.5-40.3 2.3-.2-.2c0-.1 0-.2.2-.2l40.3-2.2s.2 0 .2.2l-.2.1Z" fill="#F1F2F2"/><path id="Vector_93" d="m186 217-40.4 2.2-.2-.2c0-.1 0-.2.2-.2l40.3-2.2c.1 0 .2 0 .2.2l-.2.1Z" fill="#F1F2F2"/><path id="Vector_94" d="m185.6 210.4-40.3 2.2c-.2 0-.2-.1-.2-.2l.1-.2 40.4-2.2s.2 0 .2.2l-.2.2Z" fill="#F1F2F2"/><path id="Vector_95" d="M185.2 203.8 145 206c-.1 0-.2 0-.2-.2 0 0 0-.2.2-.2l40.3-2.2c.1 0 .2 0 .2.2 0 0 0 .2-.2.2Z" fill="#F1F2F2"/><path id="Vector_96" d="m184.9 197.2-40.4 2.2s-.2 0-.2-.2l.2-.2 40.3-2.2c.1 0 .2 0 .2.2l-.1.2Z" fill="#F1F2F2"/><path id="Vector_97" d="m184.5 190.6-40.3 2.2c-.1 0-.2 0-.2-.2 0 0 0-.2.2-.2l40.3-2.2s.2 0 .2.2l-.2.2Z" fill="#F1F2F2"/><path id="Vector_98" d="m184.1 184-40.3 2.2s-.2 0-.2-.2c0 0 0-.2.2-.2l40.3-2.2.2.2c0 .1 0 .2-.2.2Z" fill="#F1F2F2"/><path id="Vector_99" d="m183.8 177.4-40.4 2.2-.1-.2.1-.2 40.4-2.2.1.2-.1.2Z" fill="#F1F2F2"/><path id="Vector_100" d="m183.4 170.8-40.3 2.2c-.1 0-.2 0-.2-.2l.2-.1 40.3-2.3.2.2c0 .1 0 .2-.2.2Z" fill="#F1F2F2"/></g></g></g><g id="right_hand"><g id="Group_21"><g id="Group_22"><path id="Vector_101" d="M248 129.9a16.3 16.3 0 0 0-17.7-14.7l-3 .3c-9 .9-15.5 8.8-14.7 17.7l2.2 22.8c.8 8.9 8.8 15.5 17.7 14.6l3-.3c9-.8 15.5-8.8 14.7-17.7L248 130Z" fill="#fff"/><path id="Vector_102" d="M230.5 128a3 3 0 0 0 .6 6 3 3 0 0 0-.6-6Z" fill="#BCBEC0"/><path id="Vector_103" opacity=".1" d="M250.2 152.6 248 130c-.8-8.5-8-14.8-16.3-14.7-1.6.4-2.8 2-2.6 3.8l4.6 47.8a3.7 3.7 0 0 0 3.3 3.3c8.1-1.5 14-9 13.2-17.5Z" fill="#231F20"/></g><g id="Group_23" fill="#fff"><path id="Vector_104" d="M204.4 118c0 .8.6 1.6 1.4 1.6l4.9.4a1.5 1.5 0 0 0 .2-3l-4.8-.4c-.9 0-1.6.6-1.7 1.4Z"/><path id="Vector_105" d="M208.2 109.2c-.6.6-.6 1.6 0 2.2l3.5 3.3a1.5 1.5 0 1 0 2.1-2.1l-3.5-3.4c-.6-.6-1.5-.6-2.1 0Z"/><path id="Vector_106" d="M216.7 104.9c-.8 0-1.4.8-1.3 1.7l.5 4.8a1.5 1.5 0 0 0 3-.3l-.6-4.9c0-.8-.8-1.4-1.6-1.3Z"/></g></g><path id="Vector_107" d="M212.3 152.9a4 4 0 0 1 4.4 3.6l.7 7c0 .3.3.5.7.5h.8c.3-.1.6-.4.5-.8 0 0-2.8-30-2.9-32.5-.1-3.4 2-4.8 4.5-5 1.9-.2 3.5 1.2 4 3 .8 3.8 2 17 2 17 0 .3.3.6.7.6l.6-.1c.3 0 .6-.3.5-.7l-.2-3a4 4 0 1 1 7.8-.8l.7 7.1c0 .6.5 1 1 1 .4-.1.6-.4.6-.8l-.5-5.3c-.2-1.3.8-2.4 2-2.6h1c1.2-.2 2.4.8 2.5 2l.5 5.8c0 .3.4.6.7.5h.3c.4 0 .6-.3.6-.7l-.4-3.7c0-.8.5-1.5 1.3-1.6 2.1-.2 4 1.4 4.2 3.4l2 19v.5a7 7 0 0 1-.7 3l-6.7 14.9-21.4 2-8.7-5.4a11 11 0 0 1-5.1-8.3l-1.5-15.3a4 4 0 0 1 3.5-4.3Z" fill="#FFD1A6"/><path id="Vector_108" d="m247.8 185.3 2.2 45.2-25.1 22.6-3.7-65.2c0-1.2.8-2.3 2-2.4l22.1-2.1c1.3-.2 2.4.7 2.5 2Z" fill="#1095A3"/><path id="Vector_109" d="M224.2 187.7c.4 0 .7.3.7.6l.4 3.8c0 .3-.2.7-.6.7a.7.7 0 0 1-.7-.6l-.4-3.8c0-.3.2-.7.6-.7Z" fill="#373238"/><path id="Vector_110" d="M227.8 187.4c.3 0 .7.2.7.6l.4 3.7c0 .4-.3.7-.6.8a.7.7 0 0 1-.8-.6l-.3-3.8c0-.4.2-.7.6-.7Z" fill="#373238"/><path id="Vector_111" d="M231.3 187c.4 0 .7.3.8.6l.3 3.8c0 .4-.2.7-.6.7a.7.7 0 0 1-.7-.6l-.4-3.8c0-.3.3-.6.6-.7Z" fill="#373238"/><path id="Vector_112" d="M235 186.7c.3 0 .6.2.6.6l.4 3.8c0 .3-.2.7-.6.7a.7.7 0 0 1-.7-.6l-.4-3.8c0-.4.2-.7.6-.7Z" fill="#373238"/><path id="Vector_113" d="M238.5 186.3c.4 0 .7.3.7.6l.4 3.8c0 .4-.3.7-.6.7a.7.7 0 0 1-.7-.6l-.4-3.7c0-.4.2-.7.6-.8Z" fill="#373238"/><path id="Vector_114" d="M242 186c.4 0 .8.2.8.6l.4 3.8c0 .3-.3.7-.6.7a.7.7 0 0 1-.8-.6l-.3-3.8c0-.3.2-.7.6-.7Z" fill="#373238"/><path id="Vector_115" d="M245.6 185.6c.4 0 .7.3.8.6l.3 3.8c0 .4-.2.7-.6.7a.7.7 0 0 1-.7-.6l-.4-3.7c0-.4.3-.7.6-.8Z" fill="#373238"/><path id="Vector_116" d="M212.3 154.7c1.2-.1 2.3.8 2.5 2l.1 1.3c.1 1.3-.8 2.4-2 2.5-1.3.1-2.5-.8-2.6-2l-.1-1.3c-.1-1.3.8-2.4 2-2.5Z" fill="#FFE8E0"/><path id="Vector_117" d="M220.7 127.6c1.2 0 2.4.8 2.5 2.1l.1 1.2c.1 1.3-.8 2.4-2 2.5-1.3.2-2.5-.8-2.6-2l-.1-1.2c-.1-1.3.8-2.4 2-2.6Z" fill="#FFE8E0"/></g><g id="left_hand"><path id="Vector_118" d="m122.6 216.8-6.6 52.7-29.5-11 11.5-47 24.6 5.3Z" fill="#1095A3"/><path id="Vector_119" d="M105 170.7a2 2 0 0 1 3 .2 2 2 0 0 0 2.3.5l8.2-3.4a2 2 0 0 1 2.7 1.1l.4 1a2 2 0 0 0 2.5 1.3l13.7-3.6c1-.2 2 .3 2.4 1.3l6.2 15.8a3.8 3.8 0 0 1-7 3l-1.5-3.3a2 2 0 0 0-2.9-1l-7.7 4.4a3 3 0 0 0-1.2 3.9l1.2 2.3c1 2.1 3.7 3 5.9 1.9l4-2.1c1.6-.8 3.4-.2 4.3 1.2l1.7 3c.8 1.4.5 3.2-.9 4.2l-19.7 14.4-24.6-5.4-2-31.8c0-.7.2-1.3.7-1.8l8.3-7.1Z" fill="#FFD1A6"/><path id="Vector_120" d="m125.4 180.7 6.2-3.3c4-2 8.9-.3 10.7 3.8l3.4 7.5a3.6 3.6 0 0 1-1 1l-2.6.3c-1.2-.2-2.2-1-2.8-2.2l-1.4-3.2a2 2 0 0 0-2.9-1l-7.7 4.4a3 3 0 0 0-1.2 3.9l1.2 2.3c1 2.1 3.7 3 5.9 1.9l1.9-1c-1.8 1.1-3.7 1.9-5.5 1.5-2.7-.5-5.2-4.2-7-7.6-1.5-3-.3-6.7 2.8-8.3Z" fill="#E69055"/><g id="Group_24"><path id="Vector_121" d="m113.4 158.8-7 8 1.2 1 6.9-8-1.1-1Z" fill="#54463C"/><path id="Vector_122" d="M110.5 158.3c.2-.2.4-.2.6-.2l2.3.7-7 8-1-2.1a.6.6 0 0 1 .1-.7l5-5.7Z" fill="#352C26"/><g id="Group_25"><path id="Vector_123" d="M161 201.6c.8 0 1.5.7 1.5 1.6-.1 1.7.5 4.4 3.7 7.6l-.3.3-4.9-4.3c.2-.3.2-.7-.1-1a.7.7 0 0 0-1 .1c-.3.3-.3.8 0 1 .3.3.7.3 1 0l5 4.3-.4.3c-3.5-2.8-6.3-3-8-2.6-.8.1-1.7-.5-1.8-1.3-.3-2.6-1.8-4.5-1.8-4.5l.4-2 2-.7s2 1.3 4.6 1.2Z" fill="#E6E7E8"/><path id="Vector_124" d="m114 160.4-6 6.8 39.3 34.1 6-6.8-39.3-34.1Z" fill="#3D2F27"/><path id="Vector_125" d="M157.3 199.2c.3.4.3 1 0 1.4l-3.3 3.8a1 1 0 0 1-1.3.2l-5.4-3.3 6-6.8 4 4.7Z" fill="#352C26"/><path id="Vector_126" d="m154.7 196.2-5.5 6.3-1.9-1.2 6-6.8 1.4 1.7Z" fill="#54463C"/><path id="Vector_127" opacity=".1" d="m108.1 161.1 51.7 45c-.2.2-.1.6.1.8.3.3.7.3 1 0l4.9 4.3-.3.3c-3.5-2.8-6.3-3-8-2.6-.8.1-1.7-.5-1.8-1.3a9.3 9.3 0 0 0-1.3-3.7l-.4.5a1 1 0 0 1-1.3.2l-5.4-3.3-39.2-34.1-.5.6-1.2-1-1-2.1a.6.6 0 0 1 .1-.6l2.6-3Z" fill="#231F20"/></g></g><path id="Vector_128" d="m144 193.9.4.1c1.3.3 2 1.7 1.6 3-.8 2.7-2.6 5-5 6.6l-3.6 2.4-3.3-10.4 1.6-.8c2.6-1.3 5.5-1.7 8.3-1Z" fill="#FFD1C2"/><path id="Vector_129" d="M120.8 217.2c.4 0 .6.4.5.8l-.7 3.5c-.1.3-.4.5-.8.5a.6.6 0 0 1-.5-.8l.8-3.5c0-.3.4-.6.7-.5Z" fill="#373238"/><path id="Vector_130" d="M117.5 216.5c.4 0 .6.4.5.8l-.8 3.5c0 .3-.4.5-.7.4a.6.6 0 0 1-.5-.7l.8-3.5c0-.4.4-.6.7-.5Z" fill="#373238"/><path id="Vector_131" d="M114.2 215.8c.3 0 .5.4.5.7l-.8 3.5c0 .4-.4.6-.7.5a.6.6 0 0 1-.5-.7l.7-3.5c.1-.4.4-.6.8-.5Z" fill="#373238"/><path id="Vector_132" d="M110.9 215c.3.1.5.5.4.8l-.7 3.5c0 .4-.4.6-.8.5a.6.6 0 0 1-.5-.8l.8-3.4c0-.4.4-.6.8-.5Z" fill="#373238"/><path id="Vector_133" d="M107.5 214.3c.4.1.6.4.5.8l-.7 3.5c-.1.3-.4.6-.8.5a.6.6 0 0 1-.5-.8l.8-3.5c0-.3.4-.5.7-.5Z" fill="#373238"/><path id="Vector_134" d="M104.2 213.6c.4 0 .6.4.5.8l-.8 3.5c0 .3-.4.5-.7.5a.6.6 0 0 1-.5-.8l.8-3.5c0-.3.4-.6.7-.5Z" fill="#373238"/><path id="Vector_135" d="M100.9 212.9c.3 0 .6.4.5.8l-.8 3.5c0 .3-.4.5-.7.4a.6.6 0 0 1-.5-.7l.7-3.5c.1-.4.5-.6.8-.5Z" fill="#373238"/></g><path id="Vector_136" d="M151 0c-36.8 0-71.5 14.4-97.5 40.4C27.4 66.5 13 101.2 13 138c0 37 14.4 71.6 40.5 97.7 26 26 60.7 40.4 97.6 40.4 36.8 0 71.5-14.4 97.6-40.5 26-26 40.4-60.7 40.4-97.6 0-36.8-14.3-71.5-40.4-97.6C222.7 14.4 187.9 0 151 0Zm0 271.1A133 133 0 1 1 151 5a133 133 0 0 1 0 266.1Z" fill="#F3FBFF"/></g><g id="Group_26"><g id="Group_27"><g id="Group_28"><path id="Vector_137" d="M20 86.4a20.1 20.1 0 0 1 16 32.4 17 17 0 0 0 8.6 6.4s-2.4 1-6.3 1c-2.5 0-5.6-.4-9.1-1.7a20.1 20.1 0 1 1-9-38.1Z" fill="#FF3951"/><g id="Group_29"><path id="Vector_138" d="M0 106.5a20.1 20.1 0 0 0 29.2 18c3.5 1.3 6.6 1.7 9.1 1.7 4 0 6.3-1 6.3-1a17 17 0 0 1-8.6-6.4 20.1 20.1 0 1 0-36-12.3Zm2 0a18.1 18.1 0 1 1 32.5 11l-.9 1.2.8 1.2a16 16 0 0 0 4.1 4.3h-.2c-2.7 0-5.6-.5-8.4-1.6l-.9-.3-.7.4A18.1 18.1 0 0 1 2 106.5Z" fill="#fff"/><g id="Group_30"><path id="Vector_139" d="M11.4 104.8H27a1.9 1.9 0 1 1 0 3.7H11.4a1.9 1.9 0 1 1 0-3.8Z" fill="#fff"/></g></g></g><g id="Group_31"><path id="Vector_140" d="M224.2 12.8a21 21 0 0 0-16.6 33.8c-1.5 2.2-4.1 4.8-9 6.7 0 0 2.5 1 6.6 1 2.6 0 5.9-.4 9.6-1.8a21 21 0 1 0 9.5-39.8Z" fill="#94C435"/><g id="Group_32" fill="#fff"><path id="Vector_141" d="M224.2 12.8a21 21 0 0 0-16.6 33.8c-1.5 2.2-4.1 4.8-9 6.7 0 0 2.5 1 6.6 1 2.6 0 5.9-.4 9.6-1.8a21 21 0 1 0 9.5-39.8Zm0 40c-3 0-5.8-.8-8.5-2.1l-.8-.4-.9.3c-3 1.1-6 1.7-8.8 1.7h-.2c1.8-1.3 3.3-2.9 4.3-4.6l.8-1.2-.9-1.2a19 19 0 0 1 15-30.5 19 19 0 0 1 0 38Z"/><g id="Group_33"><path id="Vector_142" d="M225.2 23.8c-1 0-2 .8-2 2V42a2 2 0 0 0 4 0V25.7c0-1-1-2-2-2Z"/><path id="Vector_143" d="M233.3 32h-16.2a2 2 0 0 0 0 3.8h16.2a2 2 0 0 0 0-3.9Z"/></g></g></g></g></g></g></svg>