<svg width="279" height="296" viewBox="0 0 279 296" fill="none" xmlns="http://www.w3.org/2000/svg"><g id="Group"><path id="Vector" d="M83 89c-.5-.6-1.6-.7-2.3 0-.6.6-.7 1.6 0 2.3l6.3 6.8a1.7 1.7 0 0 0 2.3.1c.7-.6.8-1.6.1-2.3L83.1 89Z" fill="#D1DFE5"/><path id="Vector_2" d="M87.1 77.7c-.6-.7-1.6-.7-2.3-.1-.7.6-.7 1.7-.1 2.3l6.3 6.9a1.7 1.7 0 0 0 2.4 0c.7-.6.7-1.6 0-2.3l-6.3-6.8Z" fill="#D1DFE5"/><path id="Vector_3" d="M101.8 76.4c-.6-.7-1.7-.7-2.3 0-.7.5-.7 1.6-.1 2.3l6.3 6.8a1.7 1.7 0 0 0 2.4 0c.6-.5.7-1.6 0-2.3l-6.3-6.8Z" fill="#D1DFE5"/><path id="Vector_4" d="M98 99c-.6-.8-1.7-.8-2.3-.2-.7.7-.8 1.7-.1 2.4l6.3 6.8a1.7 1.7 0 0 0 2.4.1c.6-.6.7-1.7 0-2.3L98 98.9Z" fill="#D1DFE5"/><g id="Group_2"><g id="Group_3"><g id="Group_4"><path id="Vector_5" d="M225.7 217.4a3 3 0 0 1-3 3H84a3 3 0 0 1-3-3V119a3 3 0 0 1 3-2.9h138.9a3 3 0 0 1 2.9 3v98.4Z" fill="#fff"/></g><g id="Group_5"><path id="Vector_6" d="M71.2 221.5c0 2.4 1.9 4.3 4.2 4.3h155.8c2.4 0 4.3-2 4.3-4.3v-5H71.1v5Z" fill="#fff"/><path id="Vector_7" d="M71.2 221.5c0 2.4 1.9 4.3 4.2 4.3h155.8c2.4 0 4.3-2 4.3-4.3v-5H71.1v5Zm.8-4h162.6v4c0 2-1.5 3.4-3.4 3.4H75.4a3.4 3.4 0 0 1-3.4-3.4v-4Z" fill="#D1D3D4"/></g><path id="Vector_8" d="M163.4 219h-20.2a2.2 2.2 0 0 0 0 4.4h20.2c1.3 0 2.2-1 2.2-2.2 0-1.2-1-2.2-2.2-2.2Z" fill="#D1D3D4"/><g id="Group_6"><path id="Vector_9" d="M218.7 122.8H88v88.6h130.7v-88.6Z" fill="#fff"/><path id="Vector_10" d="M88 211.4h130.7v-88.6H88v88.6Zm.8-87.8h129v87h-129v-87Z" fill="#D1D3D4"/></g><path id="Vector_11" d="M211.7 127.9H95v8.1h116.6v-8.1Z" fill="#F59817"/><path id="Vector_12" d="M211.7 140H95v34.7h116.6V140Z" fill="#1095A3"/><g id="Group_7"><path id="Vector_13" d="M107 181.1a9.7 9.7 0 1 0 0 19.3 9.7 9.7 0 0 0 0-19.3Z" fill="#91CF61"/><path id="Vector_14" d="M116.6 202.7h-19v2.3h19v-2.3Z" fill="#D8E7E4"/></g><g id="Group_8"><path id="Vector_15" d="M138.2 181.1a9.7 9.7 0 1 0 0 19.3 9.7 9.7 0 0 0 0-19.3Z" fill="#91CF61"/><path id="Vector_16" d="M147.6 202.7h-19v2.3h19v-2.3Z" fill="#D8E7E4"/></g><g id="Group_9"><path id="Vector_17" d="M169.2 181.1a9.7 9.7 0 1 0 0 19.3 9.7 9.7 0 0 0 0-19.3Z" fill="#91CF61"/><path id="Vector_18" d="M178.7 202.7h-19v2.3h19v-2.3Z" fill="#D8E7E4"/></g><g id="Group_10"><path id="Vector_19" d="M200.3 181.1a9.7 9.7 0 1 0 0 19.3 9.7 9.7 0 0 0 0-19.3Z" fill="#91CF61"/><path id="Vector_20" d="M209.8 202.7h-19v2.3h19v-2.3Z" fill="#D8E7E4"/></g></g><g id="Group_11"><g id="Group_12"><g id="Group_13"><path id="Vector_21" d="m80.4 150-40-.2a4 4 0 0 0-4 4l-.4 75.4a4 4 0 0 0 4 4l40 .2a4 4 0 0 0 4-4l.4-75.4a4 4 0 0 0-4-4Z" fill="#fff"/><path id="Vector_22" d="m80.4 150-40-.2v.8l40 .2c1.7 0 3.1 1.5 3.1 3.2l-.4 75.4c0 1.8-1.4 3.2-3.2 3.2l-39.9-.2a3.2 3.2 0 0 1-3.1-3.2l.4-75.4c0-1.8 1.4-3.2 3.2-3.2v-.8a4 4 0 0 0-4 4l-.5 75.4a4 4 0 0 0 4 4l39.9.2a4 4 0 0 0 4-4l.4-75.4a4 4 0 0 0-4-4Z" fill="#D1D3D4"/></g><g id="Group_14"><g id="Group_15"><path id="Vector_23" d="m41 155.6-.4 65.8 38 .2.3-65.7-37.9-.3Zm37.2 65.7L41 221l.3-65.1 37.3.2-.4 65Z" fill="#D1D3D4"/></g></g><path id="Vector_24" d="M59.6 151.6c-.7 0-1.2.5-1.2 1.1 0 .7.5 1.2 1.1 1.2a1.1 1.1 0 0 0 0-2.3Z" fill="#D1D3D4"/><path id="Vector_25" d="M56.3 152.2h-3.9c-.3 0-.6.3-.6.6 0 .4.3.6.6.7h3.8c.4 0 .7-.3.7-.7 0-.3-.3-.6-.6-.6Z" fill="#E6E7E8"/><path id="Vector_26" d="M59.5 223.4a3.9 3.9 0 1 0 0 7.7 3.9 3.9 0 0 0 0-7.7Z" fill="#BCBEC0"/><path id="Vector_27" d="M59.5 224a3.3 3.3 0 1 0 0 6.6 3.3 3.3 0 0 0 0-6.6Z" fill="#F1F2F2"/><path id="Vector_28" d="M49 226.2h-4a.7.7 0 1 0 0 1.5h4c.3 0 .7-.3.7-.7 0-.4-.4-.8-.8-.8Z" fill="#F1F2F2"/><path id="Vector_29" d="M73.6 226.4h-4c-.3 0-.7.3-.7.7 0 .4.3.7.8.7h4c.3 0 .7-.3.7-.7 0-.4-.4-.7-.8-.7Z" fill="#F1F2F2"/><path id="Vector_30" d="M74.4 159.7H45.3v6.4h29v-6.4Z" fill="#F59817"/><path id="Vector_31" d="M74.4 169.4H45.3v21.1h29v-21.1Z" fill="#1095A3"/><g id="Group_16"><path id="Vector_32" d="M59.7 193.5a9.6 9.6 0 1 0 0 19.3 9.6 9.6 0 0 0 0-19.3Z" fill="#91CF61"/><path id="Vector_33" d="M69.2 215.1h-19v2.3h19V215Z" fill="#D8E7E4"/></g></g></g></g><g id="hand"><g id="Group_17"><path id="Vector_34" d="m159.9 214.2-.1-.2a6.8 6.8 0 0 0-9.6-1 6.8 6.8 0 0 0-9 0v-22.3c0-1.1-.5-2.3-1.3-3.2-2-2-5.2-2-7 .1l-.8 1c-.8.9-1.2 2-1.2 3.1v33.5s-7.3-1.1-7.3 7.2v19.7c0 2 .8 4 2.3 5.5l8.9 8.8v10.4c1 5.8 28.5 1.5 28.5 1.5v-13.2l3.7-8.1c1-1.5 1.7-3.2 1.7-5v-34.6l-1.4-2c-1.7-2.3-5-3-7.4-1.2Z" fill="#FFD1A6"/><g id="Group_18" fill="#E5A76A"><path id="Vector_35" d="m159.8 214-.7-.6v10.5a.5.5 0 1 0 1 0V214l-.2.1-.2-.2Z"/><path id="Vector_36" d="M150.2 213V224a.5.5 0 1 0 .9 0v-11.4l-1 .6Z"/><path id="Vector_37" d="M130 240a.5.5 0 1 0 .8 0v-14.8h-.9V240Z"/><path id="Vector_38" d="M141.3 223.9a.5.5 0 1 0 1 0v-11.6a6 6 0 0 0-1 .7v10.9Z"/></g><path id="Vector_39" d="M136.3 189.2a2.6 2.6 0 0 0-2.7 2.6v3.8c0 1.4 1.2 2.6 2.7 2.6 1.4 0 2.6-1.2 2.6-2.6v-3.8c0-1.5-1.2-2.6-2.6-2.6Z" fill="#FFE2C0"/><g id="Group_19"><path id="Vector_40" d="M164.7 272.1h-32.4V293h32.4v-20.9Z" fill="#3B6C8A"/><path id="Vector_41" d="M164.7 269.7h-32.4v2.4h32.4v-2.4Z" fill="#fff"/><path id="Vector_42" opacity=".1" d="M152 272.1V293h12.7v-23.3h-12.6v2.4Z" fill="#000"/></g></g></g><path id="Vector_43" d="M139.1 17.6c-37.1 0-72 14.4-98.3 40.7A138.2 138.2 0 0 0 0 156.7c0 37.2 14.5 72.1 40.8 98.4a138.2 138.2 0 0 0 98.3 40.7c37.2 0 72.2-14.4 98.4-40.7a138.2 138.2 0 0 0 40.8-98.4c0-37.2-14.5-72.1-40.8-98.4a138.2 138.2 0 0 0-98.4-40.7Zm0 273.2a134.1 134.1 0 1 1 0-268.3 134.1 134.1 0 0 1 0 268.3Z" fill="#F3FBFF"/><path id="Vector_44" d="M98.8 88.8c-.6-.7-1.7-.7-2.4 0-.7.5-.7 1.6 0 2.3l6.3 6.8a1.7 1.7 0 0 0 2.3 0c.7-.5.7-1.6.1-2.3l-6.3-6.8Z" fill="#D1DFE5"/><path id="Vector_45" d="M113 93.4a1.7 1.7 0 1 0-2.5 2.2l6.3 6.9a1.7 1.7 0 0 0 2.4 0c.7-.6.7-1.6 0-2.3l-6.3-6.8Z" fill="#D1DFE5"/><g id="Group_20"><g id="Group_21"><g id="Group_22"><g id="Group_23"><path id="Vector_46" d="M228.8 196.2v6.5l21.5.2v-6.5l-21.5-.2Z" fill="#EAD075"/><path id="Vector_47" d="M228.8 196.2v6.5h1l.1-6.4h-1Z" fill="#F59817"/><path id="Vector_48" d="M231.7 196.3v6.5h1l.1-6.5h-1Z" fill="#F59817"/><path id="Vector_49" d="M234.6 196.3v6.5h1.1v-6.5h-1Z" fill="#F59817"/><path id="Vector_50" d="M237.6 196.3v6.5h1v-6.5h-1Z" fill="#F59817"/><path id="Vector_51" d="M240.5 196.3v6.5h1l.1-6.5h-1Z" fill="#F59817"/><path id="Vector_52" d="M243.4 196.3v6.5h1l.1-6.4h-1Z" fill="#F59817"/><path id="Vector_53" d="M246.4 196.4v6.5h1v-6.5h-1Z" fill="#F59817"/><path id="Vector_54" d="M249.3 196.4v6.5h1v-6.5h-1Z" fill="#F59817"/><path id="Vector_55" d="m226.8 198.9 26.3.2 5.5-56-35.8-.3 4 56.1Z" fill="#EE365B"/><path id="Vector_56" d="M223.7 137.2v4.6l34 .3.1-4.6-34.1-.3Z" fill="#EAD075"/><path id="Vector_57" d="M220.4 140.6v4.2l40.6.2V141l-40.6-.3Z" fill="#fff"/><path id="Vector_58" d="M239.8 159a9.3 9.3 0 1 0 0 18.6 9.3 9.3 0 0 0 0-18.6Z" fill="#fff"/><path id="Vector_59" d="m241.3 166.8-1.4-2.9-1.4 2.9-3.2.4 2.3 2.3-.5 3.1 2.8-1.5 2.8 1.5-.5-3.1 2.3-2.3-3.2-.4Z" fill="#EE365B"/></g><path id="Vector_60" d="M240.5 128.9c1.4 0 2.5-1.1 2.5-2.5v-8c0-1.5 1.2-2.7 2.7-2.7 4.2 0 7.6-3.4 7.6-7.7V97.1a2.5 2.5 0 1 0-5 0v11c0 1.4-1.2 2.6-2.7 2.6a7.7 7.7 0 0 0-7.6 7.6v8c0 1.5 1.1 2.6 2.5 2.6Z" fill="#D8C9BF"/></g><g id="Group_24" fill="#365466"><path id="Vector_61" d="M57.6 133.5c-2.1 0-4 .9-5.4 2.4l2.3 2.3a4 4 0 0 1 6.6.4l2.5-2.2a7.4 7.4 0 0 0-6-3Z"/><path id="Vector_62" d="M57.7 122c-5.3 0-10.1 2.3-13.5 5.8l2.3 2.3a15.4 15.4 0 0 1 23.1 1l2.5-2.2a18.7 18.7 0 0 0-14.4-6.8Z"/><path id="Vector_63" d="M57.7 127.4c-3.9 0-7.3 1.6-9.8 4.2l2.3 2.3a10.1 10.1 0 0 1 15.5.7l2.4-2.2c-2.5-3-6.2-5-10.4-5Z"/><path id="Vector_64" d="M58 142.2a1.8 1.8 0 1 0 0-3.6 1.8 1.8 0 0 0 0 3.6Z"/></g><g id="Group_25"><path id="Vector_65" d="M178 74.6c-1.4 1.3 2.6 11 2.6 11l3.8-2.5-2.5-9.8-4 1.3Z" fill="#fff"/><path id="Vector_66" d="M183.8 91.2c.6-1.2.8-2.8.2-4.2a5.3 5.3 0 0 0-2.9-3c.7-1.3.8-2.8.2-4.3a5.3 5.3 0 0 0-2.9-3c.7-1.3.8-2.8.2-4.2a5.2 5.2 0 0 0-3.2-3.2V69c.7-1.3.8-3 .3-4.5a5.2 5.2 0 0 0-3.4-3.2 4.8 4.8 0 0 0-5.6-1.9l-7.6 2.9a4.8 4.8 0 0 0-2.8 6l12.3 33c.9 2.5 3.6 3.8 6.1 2.9l7.6-2.9.9-.4a4 4 0 0 0 .9-.3c2.4-.9 3.6-3.7 2.6-6.4a5.3 5.3 0 0 0-2.9-3Z" fill="#C45B00"/><g id="Group_26"><g id="Group_27" opacity=".2" fill="#000"><path id="Vector_67" opacity=".2" d="m176.2 58.3-22.6-10.7c-1.3-.6-2.8-.1-3.4 1.2-.6 1.2 0 2.7 1.2 3.3L174 63a2.5 2.5 0 1 0 2.2-4.6Z"/><path id="Vector_68" opacity="1" d="m176 58.4-22.5-10.7c-1.3-.6-2.8 0-3.4 1.2-.6 1.3 0 2.8 1.2 3.4L173.9 63a2.5 2.5 0 1 0 2.2-4.6Z"/><path id="Vector_69" opacity="1" d="m176 58.6-22.6-10.7c-1.3-.6-2.8-.1-3.4 1.2-.6 1.2 0 2.7 1.2 3.3l22.6 10.8a2.5 2.5 0 1 0 2.2-4.6Z"/><path id="Vector_70" opacity="1" d="M175.9 58.7 153.3 48c-1.3-.6-2.8 0-3.4 1.2-.6 1.3 0 2.8 1.2 3.4l22.6 10.7a2.5 2.5 0 1 0 2.2-4.6Z"/><path id="Vector_71" opacity="1" d="M175.8 58.9 153.2 48c-1.3-.6-2.8 0-3.4 1.2-.6 1.3 0 2.8 1.2 3.4l22.6 10.8a2.5 2.5 0 1 0 2.2-4.6Z"/><path id="Vector_72" opacity="1" d="m175.7 59-22.6-10.7c-1.3-.6-2.8 0-3.4 1.2-.6 1.2 0 2.8 1.2 3.4l22.6 10.7a2.5 2.5 0 1 0 2.2-4.6Z"/><path id="Vector_73" opacity="1" d="M175.6 59.2 153 48.4c-1.3-.6-2.8 0-3.4 1.2-.6 1.3 0 2.8 1.2 3.4l22.6 10.7a2.5 2.5 0 1 0 2.2-4.5Z"/><path id="Vector_74" opacity="1" d="M175.5 59.3 153 48.6c-1.3-.6-2.8 0-3.4 1.2-.6 1.2 0 2.8 1.2 3.3L173.3 64a2.5 2.5 0 1 0 2.2-4.6Z"/><path id="Vector_75" opacity="1" d="m175.4 59.5-22.6-10.8c-1.3-.6-2.8 0-3.4 1.2-.6 1.3 0 2.8 1.2 3.4L173.3 64a2.5 2.5 0 1 0 2.1-4.5Z"/><path id="Vector_76" opacity="1" d="m175.3 59.6-22.6-10.7c-1.3-.6-2.8-.1-3.4 1.2-.6 1.2 0 2.7 1.2 3.3l22.7 10.8a2.5 2.5 0 1 0 2.1-4.6Z"/><path id="Vector_77" opacity="1" d="M175.2 59.7 152.6 49c-1.2-.6-2.8 0-3.3 1.2-.7 1.3-.1 2.8 1.1 3.4l22.7 10.7a2.5 2.5 0 1 0 2.1-4.6Z"/><path id="Vector_78" opacity=".9" d="m175.2 59.9-22.7-10.7c-1.2-.6-2.7-.1-3.3 1.2-.6 1.2-.1 2.7 1.2 3.3L173 64.5a2.5 2.5 0 1 0 2.2-4.6Z"/><path id="Vector_79" opacity=".9" d="m175 60-22.6-10.7c-1.2-.6-2.7 0-3.3 1.2-.6 1.3 0 2.8 1.2 3.4l22.6 10.7A2.5 2.5 0 1 0 175 60Z"/><path id="Vector_80" opacity=".9" d="m175 60.2-22.6-10.8c-1.3-.6-2.8 0-3.4 1.2-.6 1.3 0 2.8 1.2 3.4l22.6 10.8a2.5 2.5 0 1 0 2.2-4.6Z"/><path id="Vector_81" opacity=".9" d="m174.9 60.3-22.6-10.7c-1.3-.6-2.8 0-3.4 1.2-.6 1.2 0 2.8 1.2 3.4l22.6 10.7a2.5 2.5 0 1 0 2.2-4.6Z"/><path id="Vector_82" opacity=".9" d="m174.8 60.5-22.6-10.8c-1.3-.6-2.8 0-3.4 1.2-.6 1.3 0 2.8 1.2 3.4L172.6 65a2.5 2.5 0 1 0 2.2-4.5Z"/><path id="Vector_83" opacity=".9" d="M174.7 60.6 152 50c-1.3-.6-2.8 0-3.4 1.2-.6 1.2 0 2.8 1.2 3.3l22.6 10.8a2.5 2.5 0 1 0 2.2-4.6Z"/><path id="Vector_84" opacity=".9" d="M174.6 60.8 152 50c-1.3-.6-2.8 0-3.4 1.2-.6 1.3 0 2.8 1.2 3.4l22.6 10.7a2.5 2.5 0 1 0 2.2-4.5Z"/><path id="Vector_85" opacity=".9" d="M174.5 60.9 152 50.2c-1.3-.6-2.8-.1-3.4 1.2-.6 1.2 0 2.7 1.2 3.3l22.6 10.8a2.5 2.5 0 1 0 2.2-4.6Z"/><path id="Vector_86" opacity=".9" d="m174.4 61-22.6-10.7c-1.3-.6-2.8 0-3.4 1.2-.6 1.3 0 2.8 1.2 3.4l22.6 10.7a2.5 2.5 0 1 0 2.2-4.5Z"/><path id="Vector_87" opacity=".9" d="m174.3 61.2-22.6-10.7c-1.3-.6-2.8-.1-3.4 1.2-.6 1.2 0 2.7 1.2 3.3l22.7 10.8a2.5 2.5 0 1 0 2.1-4.6Z"/><path id="Vector_88" opacity=".9" d="m174.2 61.3-22.6-10.7c-1.2-.6-2.8 0-3.3 1.2-.7 1.3-.1 2.8 1.1 3.4l22.7 10.7a2.5 2.5 0 1 0 2.1-4.6Z"/><path id="Vector_89" opacity=".9" d="m174.1 61.5-22.6-10.8c-1.2-.6-2.8 0-3.3 1.2-.6 1.3-.1 2.8 1.2 3.4L172 66.1a2.5 2.5 0 1 0 2.1-4.6Z"/><path id="Vector_90" opacity=".9" d="M174 61.6 151.5 51c-1.2-.6-2.7 0-3.3 1.2-.6 1.3 0 2.8 1.2 3.4l22.6 10.7a2.5 2.5 0 1 0 2.2-4.6Z"/><path id="Vector_91" opacity=".9" d="M174 61.8 151.3 51c-1.2-.6-2.7 0-3.3 1.2-.6 1.3 0 2.8 1.2 3.4l22.6 10.7a2.5 2.5 0 1 0 2.2-4.5Z"/><path id="Vector_92" opacity=".9" d="m173.9 62-22.6-10.8c-1.3-.6-2.8 0-3.4 1.2-.6 1.2 0 2.8 1.2 3.4l22.6 10.7a2.5 2.5 0 1 0 2.2-4.6Z"/><path id="Vector_93" opacity=".9" d="m173.8 62-22.6-10.7c-1.3-.6-2.8 0-3.4 1.2-.6 1.3 0 2.8 1.2 3.4l22.6 10.7a2.5 2.5 0 1 0 2.2-4.5Z"/><path id="Vector_94" opacity=".9" d="M173.7 62.2 151 51.5c-1.3-.6-2.8-.1-3.4 1.2-.6 1.2 0 2.7 1.2 3.3l22.6 10.8a2.5 2.5 0 1 0 2.2-4.6Z"/><path id="Vector_95" opacity=".9" d="M173.6 62.4 151 51.6c-1.3-.6-2.8 0-3.4 1.2-.6 1.3 0 2.8 1.2 3.4l22.6 10.7a2.5 2.5 0 1 0 2.2-4.5Z"/><path id="Vector_96" opacity=".9" d="m173.5 62.5-22.6-10.7a2.5 2.5 0 0 0-2.2 4.5l22.6 10.8a2.5 2.5 0 1 0 2.2-4.6Z"/><path id="Vector_97" opacity=".9" d="M173.4 62.6 150.8 52a2.5 2.5 0 0 0-2.2 4.6l22.6 10.7a2.5 2.5 0 1 0 2.2-4.6Z"/><path id="Vector_98" opacity=".8" d="M173.3 62.8 150.7 52a2.5 2.5 0 0 0-2.2 4.6l22.6 10.8a2.5 2.5 0 1 0 2.2-4.6Z"/><path id="Vector_99" opacity=".8" d="m173.2 63-22.6-10.8a2.5 2.5 0 0 0-2.2 4.6l22.7 10.7a2.5 2.5 0 1 0 2.1-4.6Z"/><path id="Vector_100" opacity=".8" d="m173.1 63-22.6-10.7a2.5 2.5 0 0 0-2.2 4.6L171 67.7A2.5 2.5 0 1 0 173 63Z"/><path id="Vector_101" opacity=".8" d="m173 63.2-22.6-10.7a2.5 2.5 0 0 0-2.2 4.6L171 67.8a2.5 2.5 0 1 0 2.1-4.6Z"/><path id="Vector_102" opacity=".8" d="m173 63.4-22.7-10.8a2.5 2.5 0 0 0-2.1 4.6l22.6 10.7a2.5 2.5 0 1 0 2.1-4.5Z"/><path id="Vector_103" opacity=".8" d="m172.9 63.5-22.7-10.7a2.5 2.5 0 0 0-2.1 4.6L170.7 68a2.5 2.5 0 1 0 2.2-4.6Z"/><path id="Vector_104" opacity=".8" d="m172.8 63.7-22.6-10.8a2.5 2.5 0 0 0-2.2 4.6l22.6 10.7a2.5 2.5 0 1 0 2.2-4.5Z"/><path id="Vector_105" opacity=".8" d="M172.7 63.8 150 53.1a2.5 2.5 0 0 0-2.2 4.5l22.6 10.8a2.5 2.5 0 1 0 2.2-4.6Z"/><path id="Vector_106" opacity=".8" d="M172.6 64 150 53.1a2.5 2.5 0 0 0-2.2 4.6l22.6 10.7a2.5 2.5 0 1 0 2.2-4.6Z"/><path id="Vector_107" opacity=".8" d="m172.5 64-22.6-10.6a2.5 2.5 0 0 0-2.2 4.5l22.6 10.8a2.5 2.5 0 1 0 2.2-4.6Z"/><path id="Vector_108" opacity=".8" d="m172.4 64.2-22.6-10.7a2.5 2.5 0 0 0-2.2 4.6l22.6 10.7a2.5 2.5 0 1 0 2.2-4.6Z"/><path id="Vector_109" opacity=".8" d="m172.3 64.4-22.6-10.8a2.5 2.5 0 0 0-2.2 4.6L170.1 69a2.5 2.5 0 1 0 2.2-4.6Z"/><path id="Vector_110" opacity=".8" d="m172.2 64.5-22.6-10.7a2.5 2.5 0 0 0-2.2 4.6L170 69a2.5 2.5 0 1 0 2.2-4.6Z"/><path id="Vector_111" opacity=".8" d="m172.1 64.7-22.6-10.8a2.5 2.5 0 0 0-2.2 4.6L170 69.3a2.5 2.5 0 1 0 2.2-4.6Z"/><path id="Vector_112" opacity=".8" d="m172 64.8-22.6-10.7a2.5 2.5 0 0 0-2.2 4.6L170 69.4a2.5 2.5 0 1 0 2.1-4.6Z"/><path id="Vector_113" opacity=".8" d="m172 65-22.7-10.8a2.5 2.5 0 0 0-2.2 4.6l22.7 10.7a2.5 2.5 0 1 0 2.1-4.5Z"/><path id="Vector_114" opacity=".8" d="m171.8 65.1-22.6-10.7a2.5 2.5 0 0 0-2.1 4.5l22.6 10.8a2.5 2.5 0 1 0 2.2-4.6Z"/><path id="Vector_115" opacity=".8" d="M171.8 65.3 149 54.5a2.5 2.5 0 0 0-2.1 4.6l22.6 10.7a2.5 2.5 0 1 0 2.2-4.5Z"/><path id="Vector_116" opacity=".8" d="M171.7 65.4 149 54.7a2.5 2.5 0 0 0-2.2 4.5L169.5 70a2.5 2.5 0 1 0 2.2-4.6Z"/><path id="Vector_117" opacity=".8" d="M171.6 65.5 149 54.8a2.5 2.5 0 0 0-2.2 4.6L169.4 70c1.3.6 2.8 0 3.4-1.2.6-1.2 0-2.8-1.2-3.4Z"/><path id="Vector_118" opacity=".7" d="m171.5 65.7-22.6-10.8a2.5 2.5 0 0 0-2.2 4.6l22.6 10.8a2.5 2.5 0 1 0 2.2-4.6Z"/><path id="Vector_119" opacity=".7" d="m171.4 65.8-22.6-10.7a2.5 2.5 0 0 0-2.2 4.6l22.6 10.7a2.5 2.5 0 1 0 2.2-4.6Z"/><path id="Vector_120" opacity=".7" d="m171.3 66-22.6-10.8a2.5 2.5 0 0 0-2.2 4.6l22.6 10.8a2.5 2.5 0 1 0 2.2-4.6Z"/><path id="Vector_121" opacity=".7" d="m171.2 66.1-22.6-10.7a2.5 2.5 0 0 0-2.2 4.6L169 70.7a2.5 2.5 0 1 0 2.2-4.6Z"/><path id="Vector_122" opacity=".7" d="m171.1 66.3-22.6-10.8a2.5 2.5 0 0 0-2.2 4.6L169 70.8a2.5 2.5 0 1 0 2.2-4.5Z"/><path id="Vector_123" opacity=".7" d="m171 66.4-22.6-10.7a2.5 2.5 0 0 0-2.2 4.5L169 71a2.5 2.5 0 1 0 2.1-4.6Z"/><path id="Vector_124" opacity=".7" d="m171 66.6-22.7-10.8a2.5 2.5 0 0 0-2.2 4.6L168.8 71a2.5 2.5 0 1 0 2.1-4.5Z"/><path id="Vector_125" opacity=".7" d="M170.8 66.7 148.3 56a2.5 2.5 0 0 0-2.1 4.5l22.6 10.8a2.5 2.5 0 1 0 2.2-4.6Z"/><path id="Vector_126" opacity=".7" d="M170.8 66.8 148 56.1a2.5 2.5 0 0 0-2.1 4.6l22.6 10.7a2.5 2.5 0 1 0 2.2-4.6Z"/><path id="Vector_127" opacity=".7" d="M170.7 67 148 56.2a2.5 2.5 0 0 0-2.2 4.6l22.6 10.8a2.5 2.5 0 1 0 2.2-4.6Z"/><path id="Vector_128" opacity=".7" d="M170.6 67.1 148 56.4a2.5 2.5 0 0 0-2.2 4.6l22.6 10.7a2.5 2.5 0 1 0 2.2-4.6Z"/><path id="Vector_129" opacity=".7" d="m170.5 67.3-22.6-10.8a2.5 2.5 0 0 0-2.2 4.6L168.3 72a2.5 2.5 0 1 0 2.2-4.6Z"/><path id="Vector_130" opacity=".7" d="m170.4 67.4-22.6-10.7a2.5 2.5 0 0 0-2.2 4.6L168.2 72a2.5 2.5 0 1 0 2.2-4.6Z"/><path id="Vector_131" opacity=".7" d="m170.3 67.6-22.6-10.8a2.5 2.5 0 0 0-2.2 4.6l22.6 10.7a2.5 2.5 0 1 0 2.2-4.5Z"/><path id="Vector_132" opacity=".7" d="M170.2 67.7 147.6 57a2.5 2.5 0 0 0-2.2 4.6L168 72.3a2.5 2.5 0 1 0 2.2-4.6Z"/><path id="Vector_133" opacity=".7" d="M170.1 67.9 147.5 57a2.5 2.5 0 0 0-2.2 4.6L168 72.4a2.5 2.5 0 1 0 2.2-4.5Z"/><path id="Vector_134" opacity=".7" d="m170 68-22.6-10.7a2.5 2.5 0 0 0-2.2 4.5L168 72.6A2.5 2.5 0 1 0 170 68Z"/><path id="Vector_135" opacity=".7" d="m170 68.1-22.7-10.7a2.5 2.5 0 0 0-2.2 4.6l22.7 10.7a2.5 2.5 0 1 0 2.1-4.6Z"/><path id="Vector_136" opacity=".7" d="m169.8 68.3-22.6-10.7a2.5 2.5 0 0 0-2.1 4.5L167.7 73a2.5 2.5 0 1 0 2.1-4.6Z"/><path id="Vector_137" opacity=".7" d="M169.8 68.4 147 57.7a2.5 2.5 0 0 0-2.1 4.6L167.6 73a2.5 2.5 0 1 0 2.2-4.6Z"/><path id="Vector_138" opacity=".6" d="M169.7 68.6 147 57.8a2.5 2.5 0 0 0-2.2 4.6l22.6 10.8c1.3.6 2.8 0 3.4-1.2.6-1.3 0-2.8-1.3-3.4Z"/><path id="Vector_139" opacity=".6" d="M169.6 68.7 146.9 58a2.5 2.5 0 0 0-2.1 4.6l22.6 10.7a2.5 2.5 0 1 0 2.2-4.6Z"/><path id="Vector_140" opacity=".6" d="M169.5 68.9 146.9 58a2.5 2.5 0 0 0-2.2 4.6l22.6 10.7a2.5 2.5 0 1 0 2.2-4.5Z"/><path id="Vector_141" opacity=".6" d="m169.4 69-22.6-10.7a2.5 2.5 0 0 0-2.2 4.6l22.6 10.7a2.5 2.5 0 1 0 2.2-4.6Z"/><path id="Vector_142" opacity=".6" d="m169.3 69.2-22.6-10.8a2.5 2.5 0 0 0-2.2 4.6l22.6 10.7a2.5 2.5 0 1 0 2.2-4.5Z"/><path id="Vector_143" opacity=".6" d="m169.2 69.3-22.6-10.7a2.5 2.5 0 0 0-2.2 4.5L167 74a2.5 2.5 0 1 0 2.2-4.6Z"/><path id="Vector_144" opacity=".6" d="m169.1 69.4-22.6-10.7a2.5 2.5 0 0 0-2.2 4.6L167 74a2.5 2.5 0 1 0 2.2-4.6Z"/><path id="Vector_145" opacity=".6" d="m169 69.6-22.6-10.7a2.5 2.5 0 0 0-2.2 4.5l22.6 10.8a2.5 2.5 0 1 0 2.2-4.6Z"/><path id="Vector_146" opacity=".6" d="M169 69.7 146.2 59a2.5 2.5 0 0 0-2.2 4.6l22.6 10.7a2.5 2.5 0 1 0 2.2-4.6Z"/><path id="Vector_147" opacity=".6" d="M168.8 69.9 146.2 59a2.5 2.5 0 0 0-2.2 4.6l22.7 10.8a2.5 2.5 0 1 0 2.1-4.6Z"/><path id="Vector_148" opacity=".6" d="m168.7 70-22.6-10.7a2.5 2.5 0 0 0-2.2 4.6l22.7 10.7a2.5 2.5 0 1 0 2.1-4.6Z"/><path id="Vector_149" opacity=".6" d="M168.7 70.2 146 59.4A2.5 2.5 0 0 0 144 64l22.6 10.8a2.5 2.5 0 1 0 2.2-4.6Z"/><path id="Vector_150" opacity=".6" d="m168.6 70.3-22.7-10.7a2.5 2.5 0 0 0-2.1 4.6l22.6 10.7a2.5 2.5 0 1 0 2.2-4.6Z"/><path id="Vector_151" opacity=".6" d="m168.5 70.5-22.7-10.8a2.5 2.5 0 0 0-2.1 4.6L166.3 75a2.5 2.5 0 1 0 2.2-4.5Z"/><path id="Vector_152" opacity=".6" d="m168.4 70.6-22.6-10.7a2.5 2.5 0 0 0-2.2 4.5l22.6 10.8a2.5 2.5 0 1 0 2.2-4.6Z"/><path id="Vector_153" opacity=".6" d="M168.3 70.8 145.7 60a2.5 2.5 0 0 0-2.2 4.6L166 75.3a2.5 2.5 0 1 0 2.2-4.5Z"/><path id="Vector_154" opacity=".6" d="m168.2 70.9-22.6-10.7a2.5 2.5 0 0 0-2.2 4.5L166 75.5a2.5 2.5 0 1 0 2.2-4.6Z"/><path id="Vector_155" opacity=".6" d="m168.1 71-22.6-10.7a2.5 2.5 0 0 0-2.2 4.6L166 75.6a2.5 2.5 0 1 0 2.2-4.6Z"/><path id="Vector_156" opacity=".6" d="m168 71.2-22.6-10.8a2.5 2.5 0 0 0-2.2 4.6l22.6 10.8a2.5 2.5 0 1 0 2.2-4.6Z"/><path id="Vector_157" opacity=".6" d="m168 71.3-22.7-10.7a2.5 2.5 0 0 0-2.2 4.6l22.6 10.7c1.3.6 2.8 0 3.4-1.2.6-1.3 0-2.8-1.2-3.4Z"/><path id="Vector_158" opacity=".5" d="m167.8 71.5-22.6-10.8a2.5 2.5 0 0 0-2.2 4.6l22.6 10.8a2.5 2.5 0 1 0 2.2-4.6Z"/><path id="Vector_159" opacity=".5" d="M167.7 71.6 145.1 61a2.5 2.5 0 0 0-2.2 4.6l22.7 10.7a2.5 2.5 0 1 0 2.1-4.6Z"/><path id="Vector_160" opacity=".5" d="M167.6 71.8 145 61a2.5 2.5 0 0 0-2.2 4.6l22.7 10.7a2.5 2.5 0 1 0 2.1-4.5Z"/><path id="Vector_161" opacity=".5" d="m167.6 71.9-22.7-10.7a2.5 2.5 0 0 0-2.1 4.5l22.6 10.8a2.5 2.5 0 1 0 2.2-4.6Z"/><path id="Vector_162" opacity=".5" d="m167.5 72-22.7-10.7a2.5 2.5 0 0 0-2.1 4.6l22.6 10.7a2.5 2.5 0 1 0 2.2-4.5Z"/><path id="Vector_163" opacity=".5" d="m167.4 72.2-22.7-10.7a2.5 2.5 0 0 0-2.1 4.5l22.6 10.8a2.5 2.5 0 1 0 2.2-4.6Z"/><path id="Vector_164" opacity=".5" d="m167.3 72.3-22.6-10.7a2.5 2.5 0 0 0-2.2 4.6L165 76.9a2.5 2.5 0 1 0 2.2-4.6Z"/><path id="Vector_165" opacity=".5" d="m167.2 72.5-22.6-10.8a2.5 2.5 0 0 0-2.2 4.6L165 77.1a2.5 2.5 0 1 0 2.2-4.6Z"/><path id="Vector_166" opacity=".5" d="M167 72.6 144.6 62a2.5 2.5 0 0 0-2.2 4.6l22.6 10.7a2.5 2.5 0 1 0 2.2-4.6Z"/><path id="Vector_167" opacity=".5" d="M167 72.8 144.4 62a2.5 2.5 0 0 0-2.2 4.6l22.6 10.8a2.5 2.5 0 1 0 2.2-4.6Z"/><path id="Vector_168" opacity=".5" d="m167 73-22.7-10.8a2.5 2.5 0 0 0-2.2 4.6l22.6 10.7a2.5 2.5 0 1 0 2.2-4.6Z"/><path id="Vector_169" opacity=".5" d="m166.8 73-22.6-10.7A2.5 2.5 0 0 0 142 67l22.6 10.7a2.5 2.5 0 1 0 2.2-4.5Z"/><path id="Vector_170" opacity=".5" d="m166.7 73.2-22.6-10.7A2.5 2.5 0 0 0 142 67l22.6 10.7a2.5 2.5 0 1 0 2.2-4.6Z"/><path id="Vector_171" opacity=".5" d="M166.6 73.4 144 62.6a2.5 2.5 0 0 0-2.2 4.6l22.6 10.7a2.5 2.5 0 1 0 2.2-4.5Z"/><path id="Vector_172" opacity=".5" d="M166.5 73.5 144 62.8a2.5 2.5 0 0 0-2.2 4.5l22.7 10.8a2.5 2.5 0 1 0 2.1-4.6Z"/><path id="Vector_173" opacity=".5" d="M166.4 73.6 143.8 63a2.5 2.5 0 0 0-2.1 4.6l22.6 10.7a2.5 2.5 0 1 0 2.1-4.6Z"/><path id="Vector_174" opacity=".5" d="M166.4 73.8 143.7 63a2.5 2.5 0 0 0-2.1 4.5l22.6 10.8a2.5 2.5 0 1 0 2.2-4.6Z"/><path id="Vector_175" opacity=".5" d="m166.3 74-22.6-10.8a2.5 2.5 0 0 0-2.2 4.6L164 78.5a2.5 2.5 0 1 0 2.2-4.6Z"/><path id="Vector_176" opacity=".5" d="m166.2 74-22.6-10.7a2.5 2.5 0 0 0-2.2 4.6L164 78.7c1.3.6 2.8 0 3.4-1.2.6-1.3 0-2.8-1.2-3.4Z"/><path id="Vector_177" opacity=".5" d="m166 74.2-22.5-10.7a2.5 2.5 0 0 0-2.2 4.6l22.6 10.7a2.5 2.5 0 1 0 2.2-4.6Z"/><path id="Vector_178" opacity=".4" d="m166 74.4-22.6-10.8a2.5 2.5 0 0 0-2.2 4.6L163.8 79c1.3.6 2.8 0 3.4-1.2.6-1.3 0-2.8-1.2-3.4Z"/><path id="Vector_179" opacity=".4" d="m165.9 74.5-22.6-10.7a2.5 2.5 0 0 0-2.2 4.6L163.7 79a2.5 2.5 0 1 0 2.2-4.6Z"/><path id="Vector_180" opacity=".4" d="m165.8 74.7-22.6-10.8a2.5 2.5 0 0 0-2.2 4.6l22.6 10.7a2.5 2.5 0 1 0 2.2-4.5Z"/><path id="Vector_181" opacity=".4" d="m165.7 74.8-22.6-10.7a2.5 2.5 0 0 0-2.2 4.5l22.6 10.8a2.5 2.5 0 1 0 2.2-4.6Z"/><path id="Vector_182" opacity=".4" d="M165.6 75 143 64.1a2.5 2.5 0 0 0-2.2 4.6l22.6 10.7a2.5 2.5 0 1 0 2.2-4.6Z"/><path id="Vector_183" opacity=".4" d="M165.5 75 143 64.5a2.5 2.5 0 0 0-2.2 4.5l22.7 10.8a2.5 2.5 0 1 0 2.1-4.6Z"/><path id="Vector_184" opacity=".4" d="m165.4 75.2-22.6-10.7a2.5 2.5 0 0 0-2.2 4.6l22.7 10.7a2.5 2.5 0 1 0 2.1-4.6Z"/><path id="Vector_185" opacity=".4" d="m165.3 75.4-22.6-10.8a2.5 2.5 0 0 0-2.1 4.6L163.2 80a2.5 2.5 0 1 0 2.2-4.6Z"/><path id="Vector_186" opacity=".4" d="m165.3 75.5-22.7-10.7a2.5 2.5 0 0 0-2.1 4.6L163 80a2.5 2.5 0 1 0 2.2-4.6Z"/><path id="Vector_187" opacity=".4" d="m165.2 75.7-22.6-10.8a2.5 2.5 0 0 0-2.2 4.6L163 80.3a2.5 2.5 0 1 0 2.2-4.6Z"/><path id="Vector_188" opacity=".4" d="m165 75.8-22.5-10.7a2.5 2.5 0 0 0-2.2 4.6l22.6 10.7a2.5 2.5 0 1 0 2.2-4.6Z"/><path id="Vector_189" opacity=".4" d="m165 76-22.6-10.8a2.5 2.5 0 0 0-2.2 4.6l22.6 10.7A2.5 2.5 0 1 0 165 76Z"/><path id="Vector_190" opacity=".4" d="m164.9 76.1-22.6-10.7a2.5 2.5 0 0 0-2.2 4.5l22.6 10.8A2.5 2.5 0 1 0 165 76Z"/><path id="Vector_191" opacity=".4" d="m164.8 76.3-22.6-10.8a2.5 2.5 0 0 0-2.2 4.6l22.6 10.7a2.5 2.5 0 1 0 2.2-4.5Z"/><path id="Vector_192" opacity=".4" d="m164.7 76.4-22.6-10.7a2.5 2.5 0 0 0-2.2 4.5L162.5 81a2.5 2.5 0 1 0 2.2-4.6Z"/><path id="Vector_193" opacity=".4" d="M164.6 76.5 142 65.8a2.5 2.5 0 0 0-2.2 4.6L162.4 81a2.5 2.5 0 1 0 2.2-4.6Z"/><path id="Vector_194" opacity=".4" d="M164.5 76.7 142 65.9a2.5 2.5 0 0 0-2.2 4.6l22.6 10.8a2.5 2.5 0 1 0 2.2-4.6Z"/><path id="Vector_195" opacity=".4" d="m164.4 76.8-22.6-10.7a2.5 2.5 0 0 0-2.2 4.6l22.7 10.7c1.2.6 2.7 0 3.3-1.2.6-1.3.1-2.8-1.2-3.4Z"/><path id="Vector_196" opacity=".4" d="m164.3 77-22.6-10.8a2.5 2.5 0 0 0-2.1 4.6l22.6 10.8a2.5 2.5 0 1 0 2.1-4.6Z"/><path id="Vector_197" opacity=".4" d="m164.3 77.1-22.7-10.7a2.5 2.5 0 0 0-2.1 4.6L162 81.7c1.2.6 2.8 0 3.3-1.2.7-1.3.1-2.8-1.2-3.4Z"/><path id="Vector_198" opacity=".3" d="m164.2 77.3-22.6-10.8a2.5 2.5 0 0 0-2.2 4.6L162 81.8a2.5 2.5 0 1 0 2.2-4.5Z"/><path id="Vector_199" opacity=".3" d="m164 77.4-22.5-10.7a2.5 2.5 0 0 0-2.2 4.6L161.9 82a2.5 2.5 0 1 0 2.2-4.6Z"/><path id="Vector_200" opacity=".3" d="m164 77.6-22.6-10.8a2.5 2.5 0 0 0-2.2 4.6L161.8 82a2.5 2.5 0 1 0 2.2-4.5Z"/><path id="Vector_201" opacity=".3" d="M163.9 77.7 141.3 67a2.5 2.5 0 0 0-2.2 4.5l22.6 10.8a2.5 2.5 0 1 0 2.2-4.6Z"/><path id="Vector_202" opacity=".3" d="m163.8 77.8-22.6-10.7a2.5 2.5 0 0 0-2.2 4.6l22.6 10.7a2.5 2.5 0 1 0 2.2-4.6Z"/><path id="Vector_203" opacity=".3" d="m163.7 78-22.6-10.8a2.5 2.5 0 0 0-2.2 4.6l22.6 10.8a2.5 2.5 0 1 0 2.2-4.6Z"/><path id="Vector_204" opacity=".3" d="M163.6 78.1 141 67.4a2.5 2.5 0 0 0-2.2 4.6l22.6 10.7a2.5 2.5 0 1 0 2.2-4.6Z"/><path id="Vector_205" opacity=".3" d="M163.5 78.3 141 67.5a2.5 2.5 0 0 0-2.2 4.6L161.3 83a2.5 2.5 0 1 0 2.2-4.6Z"/><path id="Vector_206" opacity=".3" d="m163.4 78.4-22.6-10.7a2.5 2.5 0 0 0-2.2 4.6L161.3 83a2.5 2.5 0 1 0 2.1-4.6Z"/><path id="Vector_207" opacity=".3" d="m163.3 78.6-22.6-10.8a2.5 2.5 0 0 0-2.2 4.6l22.7 10.7a2.5 2.5 0 1 0 2.1-4.5Z"/><path id="Vector_208" opacity=".3" d="M163.2 78.7 140.6 68a2.5 2.5 0 0 0-2.2 4.6l22.7 10.7a2.5 2.5 0 1 0 2.1-4.6Z"/><path id="Vector_209" opacity=".3" d="M163.2 78.9 140.5 68a2.5 2.5 0 0 0-2.1 4.6L161 83.4a2.5 2.5 0 1 0 2.2-4.5Z"/><path id="Vector_210" opacity=".3" d="m163 79-22.6-10.7a2.5 2.5 0 0 0-2.1 4.5l22.6 10.8A2.5 2.5 0 1 0 163 79Z"/><path id="Vector_211" opacity=".3" d="m163 79.1-22.6-10.7a2.5 2.5 0 0 0-2.2 4.6l22.6 10.7a2.5 2.5 0 1 0 2.2-4.6Z"/><path id="Vector_212" opacity=".3" d="m162.9 79.3-22.6-10.7A2.5 2.5 0 0 0 138 73L160.7 84a2.5 2.5 0 1 0 2.2-4.6Z"/><path id="Vector_213" opacity=".3" d="m162.8 79.4-22.6-10.7a2.5 2.5 0 0 0-2.2 4.6L160.6 84a2.5 2.5 0 1 0 2.2-4.6Z"/><path id="Vector_214" opacity=".3" d="M162.7 79.6 140 68.8a2.5 2.5 0 0 0-2.2 4.6l22.6 10.8a2.5 2.5 0 1 0 2.2-4.6Z"/><path id="Vector_215" opacity=".3" d="M162.6 79.7 140 69a2.5 2.5 0 0 0-2.2 4.6l22.6 10.7a2.5 2.5 0 1 0 2.2-4.6Z"/><path id="Vector_216" opacity=".3" d="M162.5 79.9 140 69a2.5 2.5 0 0 0-2.2 4.6l22.6 10.8a2.5 2.5 0 1 0 2.2-4.6Z"/><path id="Vector_217" opacity=".3" d="m162.4 80-22.6-10.7a2.5 2.5 0 0 0-2.2 4.6l22.6 10.7a2.5 2.5 0 1 0 2.2-4.6Z"/><path id="Vector_218" opacity=".2" d="m162.3 80.2-22.6-10.8a2.5 2.5 0 0 0-2.2 4.6l22.7 10.7a2.5 2.5 0 1 0 2.1-4.5Z"/><path id="Vector_219" opacity=".2" d="m162.2 80.3-22.6-10.7a2.5 2.5 0 0 0-2.2 4.5L160.1 85a2.5 2.5 0 1 0 2.1-4.6Z"/><path id="Vector_220" opacity=".2" d="m162.1 80.5-22.6-10.8a2.5 2.5 0 0 0-2.2 4.6L160 85a2.5 2.5 0 1 0 2.1-4.5Z"/><path id="Vector_221" opacity=".2" d="m162 80.6-22.6-10.7a2.5 2.5 0 0 0-2.1 4.5l22.6 10.8a2.5 2.5 0 1 0 2.2-4.6Z"/><path id="Vector_222" opacity=".2" d="M162 80.7 139.3 70a2.5 2.5 0 0 0-2.1 4.6l22.6 10.7a2.5 2.5 0 1 0 2.2-4.6Z"/><path id="Vector_223" opacity=".2" d="M161.9 80.9 139.3 70a2.5 2.5 0 0 0-2.2 4.6l22.6 10.8a2.5 2.5 0 1 0 2.2-4.6Z"/><path id="Vector_224" opacity=".2" d="m161.8 81-22.6-10.7a2.5 2.5 0 0 0-2.2 4.6l22.6 10.7a2.5 2.5 0 1 0 2.2-4.6Z"/><path id="Vector_225" opacity=".2" d="M161.7 81.2 139 70.4a2.5 2.5 0 0 0-2.2 4.6l22.6 10.8a2.5 2.5 0 1 0 2.2-4.6Z"/><path id="Vector_226" opacity=".2" d="M161.6 81.3 139 70.6a2.5 2.5 0 0 0-2.2 4.6l22.6 10.7a2.5 2.5 0 1 0 2.2-4.6Z"/><path id="Vector_227" opacity=".2" d="m161.5 81.5-22.6-10.8a2.5 2.5 0 0 0-2.2 4.6L159.3 86a2.5 2.5 0 1 0 2.2-4.5Z"/><path id="Vector_228" opacity=".2" d="m161.4 81.6-22.6-10.7a2.5 2.5 0 0 0-2.2 4.5l22.6 10.8a2.5 2.5 0 1 0 2.2-4.6Z"/><path id="Vector_229" opacity=".2" d="M161.3 81.8 138.7 71a2.5 2.5 0 0 0-2.2 4.6l22.6 10.7a2.5 2.5 0 1 0 2.2-4.5Z"/><path id="Vector_230" opacity=".2" d="m161.2 81.9-22.6-10.7a2.5 2.5 0 0 0-2.2 4.5l22.7 10.8a2.5 2.5 0 1 0 2.1-4.6Z"/><path id="Vector_231" opacity=".2" d="m161.1 82-22.6-10.7a2.5 2.5 0 0 0-2.2 4.6L159 86.6A2.5 2.5 0 1 0 161 82Z"/><path id="Vector_232" opacity=".2" d="m161 82.2-22.6-10.8a2.5 2.5 0 0 0-2.2 4.6L159 86.8a2.5 2.5 0 1 0 2.1-4.6Z"/><path id="Vector_233" opacity=".2" d="m161 82.3-22.7-10.7a2.5 2.5 0 0 0-2.1 4.6l22.6 10.7a2.5 2.5 0 1 0 2.1-4.6Z"/><path id="Vector_234" opacity=".2" d="m160.9 82.5-22.7-10.8a2.5 2.5 0 0 0-2.1 4.6l22.6 10.8a2.5 2.5 0 1 0 2.2-4.6Z"/><path id="Vector_235" opacity=".2" d="M160.8 82.6 138.2 72a2.5 2.5 0 0 0-2.2 4.6l22.6 10.7a2.5 2.5 0 1 0 2.2-4.6Z"/><path id="Vector_236" opacity=".2" d="M160.7 82.8 138 72a2.5 2.5 0 0 0-2.2 4.6l22.6 10.7a2.5 2.5 0 1 0 2.2-4.5Z"/><path id="Vector_237" opacity=".2" d="M160.6 83 138 72.1a2.5 2.5 0 0 0-2.2 4.6l22.6 10.7a2.5 2.5 0 1 0 2.2-4.6Z"/><path id="Vector_238" opacity=".1" d="m160.5 83-22.6-10.7a2.5 2.5 0 0 0-2.2 4.6l22.6 10.7a2.5 2.5 0 1 0 2.2-4.5Z"/><path id="Vector_239" opacity=".1" d="m160.4 83.2-22.6-10.7a2.5 2.5 0 0 0-2.2 4.5l22.6 10.8c1.3.6 2.8 0 3.4-1.2.6-1.3 0-2.8-1.2-3.4Z"/><path id="Vector_240" opacity=".1" d="m160.3 83.3-22.6-10.7a2.5 2.5 0 0 0-2.2 4.6l22.6 10.7a2.5 2.5 0 1 0 2.2-4.6Z"/><path id="Vector_241" opacity=".1" d="m160.2 83.5-22.6-10.7a2.5 2.5 0 0 0-2.2 4.5L158 88.1a2.5 2.5 0 1 0 2.2-4.6Z"/><path id="Vector_242" opacity=".1" d="M160.1 83.6 137.5 73a2.5 2.5 0 0 0-2.2 4.6L158 88.2a2.5 2.5 0 1 0 2.2-4.6Z"/><path id="Vector_243" opacity=".1" d="M160 83.8 137.4 73a2.5 2.5 0 0 0-2.2 4.6L158 88.4a2.5 2.5 0 1 0 2.1-4.6Z"/><path id="Vector_244" opacity=".1" d="m160 84-22.7-10.8a2.5 2.5 0 0 0-2.2 4.6l22.7 10.7a2.5 2.5 0 1 0 2.1-4.6Z"/><path id="Vector_245" opacity=".1" d="m159.8 84-22.6-10.7a2.5 2.5 0 0 0-2.1 4.6l22.6 10.7a2.5 2.5 0 1 0 2.2-4.5Z"/><path id="Vector_246" opacity=".1" d="M159.8 84.2 137 73.5A2.5 2.5 0 0 0 135 78l22.6 10.7a2.5 2.5 0 1 0 2.2-4.6Z"/><path id="Vector_247" opacity=".1" d="M159.7 84.4 137 73.6a2.5 2.5 0 0 0-2.2 4.6l22.6 10.7a2.5 2.5 0 1 0 2.2-4.5Z"/><path id="Vector_248" opacity=".1" d="M159.6 84.5 137 73.8a2.5 2.5 0 0 0-2.2 4.5l22.6 10.8a2.5 2.5 0 1 0 2.2-4.6Z"/><path id="Vector_249" opacity=".1" d="M159.5 84.6 136.9 74a2.5 2.5 0 0 0-2.2 4.6l22.6 10.7a2.5 2.5 0 1 0 2.2-4.6Z"/><path id="Vector_250" opacity=".1" d="M159.4 84.8 136.8 74a2.5 2.5 0 0 0-2.2 4.5l22.6 10.8a2.5 2.5 0 1 0 2.2-4.6Z"/><path id="Vector_251" opacity=".1" d="m159.3 85-22.6-10.8a2.5 2.5 0 0 0-2.2 4.6l22.6 10.7a2.5 2.5 0 1 0 2.2-4.6Z"/><path id="Vector_252" opacity=".1" d="m159.2 85-22.6-10.7a2.5 2.5 0 0 0-2.2 4.6L157 89.7a2.5 2.5 0 1 0 2.2-4.6Z"/><path id="Vector_253" opacity=".1" d="m159.1 85.2-22.6-10.7a2.5 2.5 0 0 0-2.2 4.6L157 89.8a2.5 2.5 0 1 0 2.2-4.6Z"/><path id="Vector_254" opacity=".1" d="m159 85.4-22.6-10.8a2.5 2.5 0 0 0-2.2 4.6L157 90a2.5 2.5 0 1 0 2.1-4.5Z"/><path id="Vector_255" opacity=".1" d="m159 85.5-22.7-10.7a2.5 2.5 0 0 0-2.2 4.6L156.8 90a2.5 2.5 0 1 0 2.1-4.6Z"/><path id="Vector_256" opacity=".1" d="m158.8 85.7-22.6-10.8a2.5 2.5 0 0 0-2.1 4.6l22.6 10.7a2.5 2.5 0 1 0 2.2-4.5Z"/><path id="Vector_257" opacity=".1" d="M158.8 85.8 136 75.1a2.5 2.5 0 0 0-2.1 4.5l22.6 10.8a2.5 2.5 0 1 0 2.2-4.6Z"/></g></g><path id="Vector_268" d="m146.6 45.8-6.7 1.3 2 10.4 6.6-1.3-2-10.4Z" fill="#fff"/><path id="Vector_269" d="M219.9 25.5c-5.4 1-8.8 7.2-7.5 14 1.3 6.6 6.7 11.2 12.1 10.2 5.4-1 8.8-7.3 7.5-14-1.3-6.7-6.7-11.3-12.1-10.2Z" fill="#fff"/><path id="Vector_270" d="m153.6 33.7 3.1 16.4 3.2 16.4s52.8-15.6 68 9l-7.1-37.7L213.6.2c-9.4 23.7-60 33.5-60 33.5Z" fill="#F59817"/><path id="Vector_271" d="M159.9 66.5s52.8-15.6 68 9L221 39.3l-64 12.2 2.9 15Z" fill="#DE7315"/><path id="Vector_272" d="m141.6 46 2.5 13.4a12.4 12.4 0 0 0 14.5 9.8l17.7-3.3-7.2-37.7-17.7 3.4a12.4 12.4 0 0 0-9.8 14.5Z" fill="#C45B00"/><path id="Vector_273" d="m213.6.2 14.3 75.2s7-.6 5.8-6.3l-12.6-66S220-1 213.6.1Z" fill="#C45B00"/><path id="Vector_274" opacity=".2" d="M144.1 59.4a12.4 12.4 0 0 0 14.5 9.8l17.7-3.3-3.4-17.7L143 54l1 5.5Z" fill="#000"/><path id="Vector_275" opacity=".1" d="M172.9 48.2 143 54l.5 2.6 29.8-5.7-.5-2.6Z" fill="#000"/><g id="Group_28"><g id="Group_29" opacity=".2" fill="#000"><path id="Vector_286" opacity=".1" d="M146.9 59.7a2.4 2.4 0 0 0-2 2.9l2.6 13.6a2.4 2.4 0 0 0 4.8-1l-2.6-13.5a2.4 2.4 0 0 0-2.8-2Z"/><path id="Vector_287" opacity=".1" d="M147 59.6a2.4 2.4 0 0 0-2 2.9l2.6 13.6a2.4 2.4 0 0 0 4.8-1l-2.6-13.5a2.4 2.4 0 0 0-2.9-2Z"/><path id="Vector_288" opacity=".1" d="M147 59.5a2.4 2.4 0 0 0-2 2.9l2.7 13.6a2.4 2.4 0 0 0 4.8-1l-2.7-13.6a2.4 2.4 0 0 0-2.8-1.9Z"/><path id="Vector_289" opacity=".1" d="M147 59.4a2.4 2.4 0 0 0-1.9 2.8l2.6 13.7a2.4 2.4 0 0 0 4.8-1L150 61.4a2.4 2.4 0 0 0-2.8-2Z"/><path id="Vector_290" opacity=".1" d="M147.2 59.3a2.4 2.4 0 0 0-2 2.8l2.6 13.7a2.4 2.4 0 0 0 4.8-1L150 61.3a2.4 2.4 0 0 0-2.8-2Z"/><path id="Vector_291" opacity=".1" d="M147.2 59.2a2.4 2.4 0 0 0-2 2.8l2.7 13.7a2.4 2.4 0 0 0 4.8-1L150 61.1a2.4 2.4 0 0 0-2.9-2Z"/><path id="Vector_292" opacity=".1" d="M147.3 59a2.4 2.4 0 0 0-2 3l2.7 13.5a2.4 2.4 0 0 0 4.8-.9L150 61a2.4 2.4 0 0 0-2.8-2Z"/><path id="Vector_293" opacity=".1" d="M147.4 59a2.4 2.4 0 0 0-2 2.8l2.6 13.6a2.4 2.4 0 0 0 4.8-.9L150.2 61a2.4 2.4 0 0 0-2.8-2Z"/><path id="Vector_294" opacity=".1" d="M147.4 58.8a2.4 2.4 0 0 0-1.9 2.9l2.6 13.6a2.4 2.4 0 0 0 4.8-.9l-2.6-13.6a2.4 2.4 0 0 0-2.9-2Z"/><path id="Vector_295" opacity=".1" d="M147.5 58.7a2.4 2.4 0 0 0-2 2.9l2.7 13.6a2.4 2.4 0 0 0 4.8-.9l-2.6-13.6a2.4 2.4 0 0 0-2.9-2Z"/><path id="Vector_296" opacity=".1" d="M147.6 58.6a2.4 2.4 0 0 0-2 2.9l2.7 13.6a2.4 2.4 0 0 0 4.8-1l-2.7-13.5a2.4 2.4 0 0 0-2.8-2Z"/><path id="Vector_297" opacity=".1" d="M147.7 58.5a2.4 2.4 0 0 0-2 2.9l2.6 13.6a2.4 2.4 0 0 0 4.8-1l-2.6-13.5a2.4 2.4 0 0 0-2.8-2Z"/><path id="Vector_298" opacity=".1" d="M147.8 58.4a2.4 2.4 0 0 0-2 2.9l2.6 13.6a2.4 2.4 0 0 0 4.8-1l-2.6-13.6a2.4 2.4 0 0 0-2.8-1.9Z"/><path id="Vector_299" opacity=".1" d="M147.8 58.3a2.4 2.4 0 0 0-2 2.8l2.7 13.7a2.4 2.4 0 0 0 4.8-1l-2.6-13.6a2.4 2.4 0 0 0-2.9-2Z"/><path id="Vector_300" opacity=".1" d="M147.9 58.2a2.4 2.4 0 0 0-2 2.8l2.7 13.7a2.4 2.4 0 0 0 4.8-1l-2.7-13.6a2.4 2.4 0 0 0-2.8-2Z"/><path id="Vector_301" opacity=".1" d="M148 58a2.4 2.4 0 0 0-2 3l2.6 13.6a2.4 2.4 0 0 0 4.8-1L150.8 60a2.4 2.4 0 0 0-2.8-2Z"/><path id="Vector_302" opacity=".1" d="M148 58a2.4 2.4 0 0 0-1.9 2.8l2.6 13.7a2.4 2.4 0 0 0 4.8-1L150.9 60a2.4 2.4 0 0 0-2.9-2Z"/><path id="Vector_303" opacity=".1" d="M148.1 57.9a2.4 2.4 0 0 0-2 2.8l2.7 13.6a2.4 2.4 0 0 0 4.8-.9L151 59.8a2.4 2.4 0 0 0-2.9-2Z"/><path id="Vector_304" opacity=".1" d="M148.2 57.8a2.4 2.4 0 0 0-2 2.8l2.7 13.6a2.4 2.4 0 0 0 4.7-.9L151 59.7a2.4 2.4 0 0 0-2.8-2Z"/><path id="Vector_305" opacity=".1" d="M148.3 57.6a2.4 2.4 0 0 0-2 2.9L149 74a2.4 2.4 0 0 0 4.8-.9l-2.6-13.6a2.4 2.4 0 0 0-2.8-2Z"/><path id="Vector_306" opacity=".2" d="M148.3 57.5a2.4 2.4 0 0 0-1.9 2.9L149 74a2.4 2.4 0 0 0 4.8-.9l-2.6-13.6a2.4 2.4 0 0 0-2.9-2Z"/><path id="Vector_307" opacity=".2" d="M148.4 57.4a2.4 2.4 0 0 0-2 2.9l2.7 13.6a2.4 2.4 0 0 0 4.8-1l-2.6-13.5a2.4 2.4 0 0 0-2.9-2Z"/><path id="Vector_308" opacity=".2" d="M148.5 57.3a2.4 2.4 0 0 0-2 2.9l2.7 13.6a2.4 2.4 0 0 0 4.7-1l-2.6-13.5a2.4 2.4 0 0 0-2.8-2Z"/><path id="Vector_309" opacity=".2" d="M148.6 57.2a2.4 2.4 0 0 0-2 2.9l2.6 13.6a2.4 2.4 0 0 0 4.8-1l-2.6-13.6a2.4 2.4 0 0 0-2.8-1.9Z"/><path id="Vector_310" opacity=".2" d="M148.6 57a2.4 2.4 0 0 0-1.9 3l2.6 13.6a2.4 2.4 0 0 0 4.8-1L151.5 59a2.4 2.4 0 0 0-2.9-2Z"/><path id="Vector_311" opacity=".2" d="M148.7 57a2.4 2.4 0 0 0-2 2.8l2.7 13.7a2.4 2.4 0 0 0 4.8-1L151.6 59a2.4 2.4 0 0 0-2.9-2Z"/><path id="Vector_312" opacity=".2" d="M148.8 56.9a2.4 2.4 0 0 0-2 2.8l2.6 13.7a2.4 2.4 0 0 0 4.8-1l-2.6-13.6a2.4 2.4 0 0 0-2.8-2Z"/><path id="Vector_313" opacity=".2" d="M148.9 56.8a2.4 2.4 0 0 0-2 2.8l2.6 13.6a2.4 2.4 0 0 0 4.8-.9l-2.6-13.6a2.4 2.4 0 0 0-2.8-2Z"/><path id="Vector_314" opacity=".2" d="M149 56.7a2.4 2.4 0 0 0-2 2.8l2.6 13.6a2.4 2.4 0 0 0 4.8-.9l-2.6-13.6a2.4 2.4 0 0 0-2.9-2Z"/><path id="Vector_315" opacity=".2" d="M149 56.5a2.4 2.4 0 0 0-2 2.9l2.7 13.6a2.4 2.4 0 0 0 4.8-.9l-2.6-13.6a2.4 2.4 0 0 0-2.9-2Z"/><path id="Vector_316" opacity=".2" d="M149 56.4a2.4 2.4 0 0 0-1.9 2.9l2.6 13.6a2.4 2.4 0 0 0 4.8-.9L152 58.4a2.4 2.4 0 0 0-2.8-2Z"/><path id="Vector_317" opacity=".2" d="M149.2 56.3a2.4 2.4 0 0 0-2 2.9l2.6 13.6a2.4 2.4 0 0 0 4.8-1L152 58.4a2.4 2.4 0 0 0-2.8-2Z"/><path id="Vector_318" opacity=".2" d="M149.2 56.2a2.4 2.4 0 0 0-2 2.9l2.7 13.6a2.4 2.4 0 0 0 4.8-1L152 58.3a2.4 2.4 0 0 0-2.9-2Z"/><path id="Vector_319" opacity=".2" d="M149.3 56.1a2.4 2.4 0 0 0-2 2.9l2.7 13.6a2.4 2.4 0 0 0 4.8-1l-2.6-13.5a2.4 2.4 0 0 0-2.9-2Z"/><path id="Vector_320" opacity=".2" d="M149.4 56a2.4 2.4 0 0 0-2 2.9l2.6 13.6a2.4 2.4 0 0 0 4.8-1L152.2 58a2.4 2.4 0 0 0-2.8-1.9Z"/><path id="Vector_321" opacity=".2" d="M149.5 55.9a2.4 2.4 0 0 0-2 2.8l2.6 13.7a2.4 2.4 0 0 0 4.8-1l-2.6-13.6a2.4 2.4 0 0 0-2.8-2Z"/><path id="Vector_322" opacity=".2" d="M149.5 55.8a2.4 2.4 0 0 0-2 2.8l2.7 13.7a2.4 2.4 0 0 0 4.8-1l-2.6-13.6a2.4 2.4 0 0 0-2.9-2Z"/><path id="Vector_323" opacity=".2" d="M149.6 55.7a2.4 2.4 0 0 0-2 2.8l2.7 13.7a2.4 2.4 0 0 0 4.8-1l-2.7-13.6a2.4 2.4 0 0 0-2.8-2Z"/><path id="Vector_324" opacity=".2" d="M149.7 55.6a2.4 2.4 0 0 0-2 2.8l2.6 13.6a2.4 2.4 0 0 0 4.8-.9l-2.6-13.6a2.4 2.4 0 0 0-2.8-2Z"/><path id="Vector_325" opacity=".2" d="M149.8 55.5a2.4 2.4 0 0 0-2 2.8l2.6 13.6a2.4 2.4 0 0 0 4.8-.9l-2.6-13.6a2.4 2.4 0 0 0-2.8-2Z"/><path id="Vector_326" opacity=".3" d="M149.8 55.3a2.4 2.4 0 0 0-2 2.9l2.7 13.6a2.4 2.4 0 0 0 4.8-.9l-2.6-13.6a2.4 2.4 0 0 0-2.9-2Z"/><path id="Vector_327" opacity=".3" d="M149.9 55.2a2.4 2.4 0 0 0-2 2.9l2.7 13.6a2.4 2.4 0 0 0 4.8-.9l-2.7-13.6a2.4 2.4 0 0 0-2.8-2Z"/><path id="Vector_328" opacity=".3" d="M150 55.1a2.4 2.4 0 0 0-2 2.9l2.6 13.6a2.4 2.4 0 0 0 4.8-1l-2.6-13.5a2.4 2.4 0 0 0-2.8-2Z"/><path id="Vector_329" opacity=".3" d="M150 55a2.4 2.4 0 0 0-1.9 2.9l2.6 13.6a2.4 2.4 0 0 0 4.8-1L152.9 57a2.4 2.4 0 0 0-2.8-2Z"/><path id="Vector_330" opacity=".3" d="M150.1 54.9a2.4 2.4 0 0 0-2 2.9l2.7 13.6a2.4 2.4 0 0 0 4.8-1L153 56.9A2.4 2.4 0 0 0 150 55Z"/><path id="Vector_331" opacity=".3" d="M150.2 54.8a2.4 2.4 0 0 0-2 2.8l2.7 13.7a2.4 2.4 0 0 0 4.8-1L153 56.8a2.4 2.4 0 0 0-2.9-2Z"/><path id="Vector_332" opacity=".3" d="M150.3 54.7a2.4 2.4 0 0 0-2 2.8l2.6 13.7a2.4 2.4 0 0 0 4.8-1l-2.6-13.6a2.4 2.4 0 0 0-2.8-2Z"/><path id="Vector_333" opacity=".3" d="M150.3 54.6a2.4 2.4 0 0 0-1.9 2.8l2.6 13.7a2.4 2.4 0 0 0 4.8-1l-2.6-13.6a2.4 2.4 0 0 0-2.8-2Z"/><path id="Vector_334" opacity=".3" d="M150.4 54.5a2.4 2.4 0 0 0-2 2.8l2.7 13.7a2.4 2.4 0 0 0 4.8-1l-2.6-13.6a2.4 2.4 0 0 0-2.9-2Z"/><path id="Vector_335" opacity=".3" d="M150.5 54.4a2.4 2.4 0 0 0-2 2.8l2.7 13.6a2.4 2.4 0 0 0 4.8-.9l-2.7-13.6a2.4 2.4 0 0 0-2.8-2Z"/><path id="Vector_336" opacity=".3" d="M150.6 54.3a2.4 2.4 0 0 0-2 2.8l2.6 13.6a2.4 2.4 0 0 0 4.8-.9l-2.6-13.6a2.4 2.4 0 0 0-2.8-2Z"/><path id="Vector_337" opacity=".3" d="M150.6 54.1a2.4 2.4 0 0 0-1.9 2.9l2.6 13.6a2.4 2.4 0 0 0 4.8-.9l-2.6-13.6a2.4 2.4 0 0 0-2.9-2Z"/><path id="Vector_338" opacity=".3" d="M150.7 54a2.4 2.4 0 0 0-2 2.9l2.7 13.6a2.4 2.4 0 0 0 4.8-.9L153.6 56a2.4 2.4 0 0 0-2.9-2Z"/><path id="Vector_339" opacity=".3" d="M150.8 54a2.4 2.4 0 0 0-2 2.8l2.6 13.6a2.4 2.4 0 0 0 4.8-1L153.6 56a2.4 2.4 0 0 0-2.8-2Z"/><path id="Vector_340" opacity=".3" d="M150.9 53.8a2.4 2.4 0 0 0-2 2.9l2.6 13.6a2.4 2.4 0 0 0 4.8-1l-2.6-13.5a2.4 2.4 0 0 0-2.8-2Z"/><path id="Vector_341" opacity=".3" d="M151 53.7a2.4 2.4 0 0 0-2 2.9l2.6 13.6a2.4 2.4 0 0 0 4.8-1l-2.6-13.6a2.4 2.4 0 0 0-2.9-1.9Z"/><path id="Vector_342" opacity=".3" d="M151 53.6a2.4 2.4 0 0 0-2 2.8l2.7 13.7a2.4 2.4 0 0 0 4.8-1l-2.6-13.6a2.4 2.4 0 0 0-2.9-2Z"/><path id="Vector_343" opacity=".3" d="M151 53.5a2.4 2.4 0 0 0-1.8 2.8l2.6 13.7a2.4 2.4 0 0 0 4.7-1L154 55.5a2.4 2.4 0 0 0-2.8-2Z"/><path id="Vector_344" opacity=".3" d="M151.2 53.4a2.4 2.4 0 0 0-2 2.8l2.6 13.7a2.4 2.4 0 0 0 4.8-1L154 55.3a2.4 2.4 0 0 0-2.8-2Z"/><path id="Vector_345" opacity=".3" d="M151.2 53.3a2.4 2.4 0 0 0-1.9 2.8l2.6 13.6a2.4 2.4 0 0 0 4.8-.9L154 55.2a2.4 2.4 0 0 0-2.9-2Z"/><path id="Vector_346" opacity=".4" d="M151.3 53.2a2.4 2.4 0 0 0-2 2.8l2.7 13.6a2.4 2.4 0 0 0 4.8-.9l-2.6-13.6a2.4 2.4 0 0 0-2.9-2Z"/><path id="Vector_347" opacity=".4" d="M151.4 53a2.4 2.4 0 0 0-2 2.9l2.7 13.6a2.4 2.4 0 0 0 4.7-.9L154.2 55a2.4 2.4 0 0 0-2.8-2Z"/><path id="Vector_348" opacity=".4" d="M151.5 53a2.4 2.4 0 0 0-2 2.8l2.6 13.6a2.4 2.4 0 0 0 4.8-.9l-2.6-13.6a2.4 2.4 0 0 0-2.8-2Z"/><path id="Vector_349" opacity=".4" d="M151.5 52.8a2.4 2.4 0 0 0-2 2.9l2.7 13.6a2.4 2.4 0 0 0 4.8-.9l-2.6-13.6a2.4 2.4 0 0 0-2.9-2Z"/><path id="Vector_350" opacity=".4" d="M151.6 52.7a2.4 2.4 0 0 0-2 2.9l2.7 13.6a2.4 2.4 0 0 0 4.8-1l-2.6-13.5a2.4 2.4 0 0 0-2.9-2Z"/><path id="Vector_351" opacity=".4" d="M151.7 52.6a2.4 2.4 0 0 0-2 2.9l2.6 13.6a2.4 2.4 0 0 0 4.8-1l-2.6-13.5a2.4 2.4 0 0 0-2.8-2Z"/><path id="Vector_352" opacity=".4" d="M151.8 52.5a2.4 2.4 0 0 0-2 2.9l2.6 13.6a2.4 2.4 0 0 0 4.8-1l-2.6-13.6a2.4 2.4 0 0 0-2.8-1.9Z"/><path id="Vector_353" opacity=".4" d="M151.8 52.4a2.4 2.4 0 0 0-2 2.8l2.7 13.7a2.4 2.4 0 0 0 4.8-1l-2.6-13.6a2.4 2.4 0 0 0-2.9-2Z"/><path id="Vector_354" opacity=".4" d="M152 52.3a2.4 2.4 0 0 0-2 2.8l2.6 13.7a2.4 2.4 0 0 0 4.8-1l-2.6-13.6a2.4 2.4 0 0 0-2.9-2Z"/><path id="Vector_355" opacity=".4" d="M152 52.2a2.4 2.4 0 0 0-2 2.8l2.6 13.7a2.4 2.4 0 0 0 4.8-1l-2.6-13.6a2.4 2.4 0 0 0-2.8-2Z"/><path id="Vector_356" opacity=".4" d="M152 52a2.4 2.4 0 0 0-1.9 3l2.6 13.5a2.4 2.4 0 0 0 4.8-.9L154.9 54a2.5 2.5 0 0 0-2.8-2Z"/><path id="Vector_357" opacity=".4" d="M152.1 52a2.4 2.4 0 0 0-2 2.8l2.7 13.6a2.4 2.4 0 0 0 4.8-.9L155 54a2.4 2.4 0 0 0-2.9-2Z"/><path id="Vector_358" opacity=".4" d="M152.2 51.8a2.4 2.4 0 0 0-2 2.9l2.7 13.6a2.4 2.4 0 0 0 4.8-.9L155 53.8a2.4 2.4 0 0 0-2.9-2Z"/><path id="Vector_359" opacity=".4" d="M152.3 51.7a2.4 2.4 0 0 0-2 2.9l2.6 13.6a2.4 2.4 0 0 0 4.8-.9l-2.6-13.6a2.4 2.4 0 0 0-2.8-2Z"/><path id="Vector_360" opacity=".4" d="M152.3 51.6a2.4 2.4 0 0 0-1.9 2.9L153 68a2.4 2.4 0 0 0 4.8-1l-2.6-13.5a2.4 2.4 0 0 0-2.8-2Z"/><path id="Vector_361" opacity=".4" d="M152.4 51.5a2.4 2.4 0 0 0-2 2.9l2.7 13.6a2.4 2.4 0 0 0 4.8-1l-2.6-13.5a2.4 2.4 0 0 0-2.9-2Z"/><path id="Vector_362" opacity=".4" d="M152.5 51.4a2.4 2.4 0 0 0-2 2.9l2.7 13.6a2.4 2.4 0 0 0 4.8-1l-2.7-13.6a2.4 2.4 0 0 0-2.8-1.9Z"/><path id="Vector_363" opacity=".4" d="M152.6 51.3a2.4 2.4 0 0 0-2 2.8l2.6 13.7a2.4 2.4 0 0 0 4.8-1l-2.6-13.6a2.4 2.4 0 0 0-2.8-2Z"/><path id="Vector_364" opacity=".4" d="M152.7 51.2a2.4 2.4 0 0 0-2 2.8l2.6 13.7a2.4 2.4 0 0 0 4.8-1l-2.6-13.6a2.4 2.4 0 0 0-2.8-2Z"/><path id="Vector_365" opacity=".4" d="M152.7 51a2.4 2.4 0 0 0-2 3l2.7 13.6a2.4 2.4 0 0 0 4.8-1L155.6 53a2.4 2.4 0 0 0-2.9-2Z"/><path id="Vector_366" opacity=".5" d="M152.8 51a2.4 2.4 0 0 0-2 2.8l2.7 13.7a2.4 2.4 0 0 0 4.8-1L155.6 53a2.4 2.4 0 0 0-2.8-2Z"/><path id="Vector_367" opacity=".5" d="M152.9 50.9a2.4 2.4 0 0 0-2 2.8l2.6 13.6a2.4 2.4 0 0 0 4.8-.9l-2.6-13.6a2.4 2.4 0 0 0-2.8-2Z"/><path id="Vector_368" opacity=".5" d="M153 50.8a2.4 2.4 0 0 0-2 2.8l2.6 13.6a2.4 2.4 0 0 0 4.8-.9l-2.6-13.6a2.4 2.4 0 0 0-2.9-2Z"/><path id="Vector_369" opacity=".5" d="M153 50.6a2.4 2.4 0 0 0-2 2.9l2.7 13.6a2.4 2.4 0 0 0 4.8-.9l-2.6-13.6a2.4 2.4 0 0 0-2.9-2Z"/><path id="Vector_370" opacity=".5" d="M153 50.5a2.4 2.4 0 0 0-1.8 2.9l2.6 13.6a2.4 2.4 0 0 0 4.7-.9L156 52.5a2.4 2.4 0 0 0-2.8-2Z"/><path id="Vector_371" opacity=".5" d="M153.2 50.4a2.4 2.4 0 0 0-2 2.9l2.6 13.6a2.4 2.4 0 0 0 4.8-1L156 52.5a2.4 2.4 0 0 0-2.8-2Z"/><path id="Vector_372" opacity=".5" d="M153.2 50.3a2.4 2.4 0 0 0-1.9 2.9l2.6 13.6a2.4 2.4 0 0 0 4.8-1L156 52.4a2.4 2.4 0 0 0-2.9-2Z"/><path id="Vector_373" opacity=".5" d="M153.3 50.2a2.4 2.4 0 0 0-2 2.9l2.7 13.6a2.4 2.4 0 0 0 4.8-1l-2.6-13.6a2.4 2.4 0 0 0-2.9-1.9Z"/><path id="Vector_374" opacity=".5" d="M153.4 50a2.4 2.4 0 0 0-2 3l2.7 13.6a2.4 2.4 0 0 0 4.7-1L156.2 52a2.4 2.4 0 0 0-2.8-2Z"/><path id="Vector_375" opacity=".5" d="M153.5 50a2.4 2.4 0 0 0-2 2.8l2.6 13.7a2.4 2.4 0 0 0 4.8-1L156.3 52a2.4 2.4 0 0 0-2.8-2Z"/><path id="Vector_376" opacity=".5" d="M153.5 49.9a2.4 2.4 0 0 0-1.9 2.8l2.6 13.7a2.4 2.4 0 0 0 4.8-1l-2.6-13.6a2.4 2.4 0 0 0-2.9-2Z"/><path id="Vector_377" opacity=".5" d="M153.6 49.8a2.4 2.4 0 0 0-2 2.8l2.7 13.6a2.4 2.4 0 0 0 4.8-.9l-2.6-13.6a2.4 2.4 0 0 0-2.9-2Z"/><path id="Vector_378" opacity=".5" d="M153.7 49.7a2.4 2.4 0 0 0-2 2.8l2.7 13.6a2.4 2.4 0 0 0 4.7-.9l-2.6-13.6a2.4 2.4 0 0 0-2.8-2Z"/><path id="Vector_379" opacity=".5" d="M153.8 49.6a2.4 2.4 0 0 0-2 2.8l2.6 13.6a2.4 2.4 0 0 0 4.8-.9l-2.6-13.6a2.4 2.4 0 0 0-2.8-2Z"/><path id="Vector_380" opacity=".5" d="M153.8 49.4a2.4 2.4 0 0 0-1.9 2.9l2.6 13.6a2.4 2.4 0 0 0 4.8-.9l-2.6-13.6a2.4 2.4 0 0 0-2.9-2Z"/><path id="Vector_381" opacity=".5" d="M154 49.3a2.4 2.4 0 0 0-2 2.9l2.6 13.6a2.4 2.4 0 0 0 4.8-.9l-2.6-13.6a2.4 2.4 0 0 0-2.9-2Z"/><path id="Vector_382" opacity=".5" d="M154 49.2a2.4 2.4 0 0 0-2 2.9l2.7 13.6a2.4 2.4 0 0 0 4.7-1l-2.6-13.5a2.4 2.4 0 0 0-2.8-2Z"/><path id="Vector_383" opacity=".5" d="M154 49.1a2.4 2.4 0 0 0-1.9 2.9l2.6 13.6a2.4 2.4 0 0 0 4.8-1L157 51.2a2.4 2.4 0 0 0-2.8-2Z"/><path id="Vector_384" opacity=".5" d="M154.1 49a2.4 2.4 0 0 0-2 2.9l2.7 13.6a2.4 2.4 0 0 0 4.8-1L157 51A2.4 2.4 0 0 0 154 49Z"/><path id="Vector_385" opacity=".5" d="M154.2 48.9a2.4 2.4 0 0 0-2 2.8l2.7 13.7a2.4 2.4 0 0 0 4.8-1L157 50.9a2.4 2.4 0 0 0-2.9-2Z"/><path id="Vector_386" opacity=".6" d="M154.3 48.8a2.4 2.4 0 0 0-2 2.8l2.6 13.7a2.4 2.4 0 0 0 4.8-1l-2.6-13.6a2.4 2.4 0 0 0-2.8-2Z"/><path id="Vector_387" opacity=".6" d="M154.4 48.7a2.4 2.4 0 0 0-2 2.8l2.6 13.7a2.4 2.4 0 0 0 4.8-1l-2.6-13.6a2.4 2.4 0 0 0-2.8-2Z"/><path id="Vector_388" opacity=".6" d="M154.4 48.6a2.4 2.4 0 0 0-2 2.8l2.7 13.6a2.4 2.4 0 0 0 4.8-.9l-2.6-13.6a2.4 2.4 0 0 0-2.9-2Z"/><path id="Vector_389" opacity=".6" d="M154.5 48.5a2.4 2.4 0 0 0-2 2.8l2.7 13.6a2.4 2.4 0 0 0 4.8-.9l-2.6-13.6a2.4 2.4 0 0 0-2.9-2Z"/><path id="Vector_390" opacity=".6" d="M154.6 48.3a2.4 2.4 0 0 0-2 2.9l2.6 13.6a2.4 2.4 0 0 0 4.8-.9l-2.6-13.6a2.4 2.4 0 0 0-2.8-2Z"/><path id="Vector_391" opacity=".6" d="M154.7 48.2a2.4 2.4 0 0 0-2 2.9l2.6 13.6a2.4 2.4 0 0 0 4.8-.9l-2.6-13.6a2.4 2.4 0 0 0-2.8-2Z"/><path id="Vector_392" opacity=".6" d="M154.7 48.1a2.4 2.4 0 0 0-2 2.9l2.7 13.6a2.4 2.4 0 0 0 4.8-1l-2.6-13.5a2.4 2.4 0 0 0-2.9-2Z"/><path id="Vector_393" opacity=".6" d="M154.8 48a2.4 2.4 0 0 0-2 2.9l2.7 13.6a2.4 2.4 0 0 0 4.8-1L157.6 50a2.4 2.4 0 0 0-2.8-2Z"/><path id="Vector_394" opacity=".6" d="M154.9 47.9a2.4 2.4 0 0 0-2 2.9l2.6 13.6a2.4 2.4 0 0 0 4.8-1l-2.6-13.6A2.4 2.4 0 0 0 155 48Z"/><path id="Vector_395" opacity=".6" d="M155 47.8a2.4 2.4 0 0 0-2 2.9l2.6 13.6a2.4 2.4 0 0 0 4.8-1l-2.6-13.6a2.4 2.4 0 0 0-2.9-1.9Z"/><path id="Vector_396" opacity=".6" d="M155 47.7a2.4 2.4 0 0 0-2 2.8l2.7 13.7a2.4 2.4 0 0 0 4.8-1l-2.6-13.6a2.4 2.4 0 0 0-2.9-2Z"/><path id="Vector_397" opacity=".6" d="M155.1 47.6a2.4 2.4 0 0 0-2 2.8l2.7 13.7a2.4 2.4 0 0 0 4.8-1l-2.7-13.6a2.4 2.4 0 0 0-2.8-2Z"/><path id="Vector_398" opacity=".6" d="M155.2 47.5a2.4 2.4 0 0 0-2 2.8l2.6 13.7a2.4 2.4 0 0 0 4.8-1L158 49.4a2.4 2.4 0 0 0-2.8-2Z"/><path id="Vector_399" opacity=".6" d="M155.3 47.4a2.4 2.4 0 0 0-2 2.8l2.6 13.6a2.4 2.4 0 0 0 4.8-.9l-2.6-13.6a2.4 2.4 0 0 0-2.8-2Z"/><path id="Vector_400" opacity=".6" d="M155.3 47.3a2.4 2.4 0 0 0-2 2.8l2.7 13.6a2.4 2.4 0 0 0 4.8-.9l-2.6-13.6a2.4 2.4 0 0 0-2.9-2Z"/><path id="Vector_401" opacity=".6" d="M155.4 47.1a2.4 2.4 0 0 0-2 2.9l2.7 13.6a2.4 2.4 0 0 0 4.8-.9l-2.7-13.6a2.4 2.4 0 0 0-2.8-2Z"/><path id="Vector_402" opacity=".6" d="M155.5 47a2.4 2.4 0 0 0-2 2.9l2.6 13.6a2.4 2.4 0 0 0 4.8-.9L158.3 49a2.4 2.4 0 0 0-2.8-2Z"/><path id="Vector_403" opacity=".6" d="M155.6 47a2.4 2.4 0 0 0-2 2.8l2.6 13.6a2.4 2.4 0 0 0 4.8-1L158.4 49a2.4 2.4 0 0 0-2.8-2Z"/><path id="Vector_404" opacity=".6" d="M155.6 46.8a2.4 2.4 0 0 0-2 2.9l2.7 13.6a2.4 2.4 0 0 0 4.8-1l-2.6-13.5a2.4 2.4 0 0 0-2.9-2Z"/><path id="Vector_405" opacity=".6" d="M155.7 46.7a2.4 2.4 0 0 0-2 2.9l2.7 13.6a2.4 2.4 0 0 0 4.7-1l-2.6-13.6a2.4 2.4 0 0 0-2.8-1.9Z"/><path id="Vector_406" opacity=".7" d="M155.8 46.6a2.4 2.4 0 0 0-2 2.8l2.6 13.7a2.4 2.4 0 0 0 4.8-1l-2.6-13.6a2.4 2.4 0 0 0-2.8-2Z"/><path id="Vector_407" opacity=".7" d="M155.8 46.5a2.4 2.4 0 0 0-1.9 2.8l2.6 13.7a2.4 2.4 0 0 0 4.8-1l-2.6-13.6a2.4 2.4 0 0 0-2.9-2Z"/><path id="Vector_408" opacity=".7" d="M156 46.4a2.4 2.4 0 0 0-2 2.8l2.6 13.7a2.4 2.4 0 0 0 4.8-1l-2.6-13.6a2.4 2.4 0 0 0-2.9-2Z"/><path id="Vector_409" opacity=".7" d="M156 46.3a2.4 2.4 0 0 0-2 2.8l2.7 13.6a2.4 2.4 0 0 0 4.7-.9l-2.6-13.6a2.4 2.4 0 0 0-2.8-2Z"/><path id="Vector_410" opacity=".7" d="M156 46.2a2.4 2.4 0 0 0-1.9 2.8l2.6 13.6a2.4 2.4 0 0 0 4.8-.9L159 48.1a2.4 2.4 0 0 0-2.8-2Z"/><path id="Vector_411" opacity=".7" d="M156.1 46a2.4 2.4 0 0 0-1.9 2.9l2.6 13.6a2.4 2.4 0 0 0 4.8-.9L159 48a2.4 2.4 0 0 0-2.9-2Z"/><path id="Vector_412" opacity=".7" d="M156.2 46a2.4 2.4 0 0 0-2 2.8l2.7 13.6a2.4 2.4 0 0 0 4.8-.9L159 48a2.4 2.4 0 0 0-2.9-2Z"/><path id="Vector_413" opacity=".7" d="M156.3 45.8a2.4 2.4 0 0 0-2 2.9l2.6 13.6a2.4 2.4 0 0 0 4.8-.9l-2.6-13.6a2.4 2.4 0 0 0-2.8-2Z"/><path id="Vector_414" opacity=".7" d="M156.4 45.7a2.4 2.4 0 0 0-2 2.9l2.6 13.6a2.4 2.4 0 0 0 4.8-1l-2.6-13.5a2.4 2.4 0 0 0-2.8-2Z"/><path id="Vector_415" opacity=".7" d="M156.4 45.6a2.4 2.4 0 0 0-1.9 2.9l2.6 13.6a2.4 2.4 0 0 0 4.8-1l-2.6-13.5a2.4 2.4 0 0 0-2.9-2Z"/><path id="Vector_416" opacity=".7" d="M156.5 45.5a2.4 2.4 0 0 0-2 2.9l2.7 13.6a2.4 2.4 0 0 0 4.8-1l-2.6-13.6a2.4 2.4 0 0 0-2.9-1.9Z"/><path id="Vector_417" opacity=".7" d="M156.6 45.4a2.4 2.4 0 0 0-2 2.8l2.6 13.7a2.4 2.4 0 0 0 4.8-1l-2.6-13.6a2.4 2.4 0 0 0-2.8-2Z"/><path id="Vector_418" opacity=".7" d="M156.7 45.3a2.4 2.4 0 0 0-2 2.8l2.6 13.7a2.4 2.4 0 0 0 4.8-1l-2.6-13.6a2.4 2.4 0 0 0-2.8-2Z"/><path id="Vector_419" opacity=".7" d="M156.7 45.2a2.4 2.4 0 0 0-2 2.8l2.7 13.7a2.4 2.4 0 0 0 4.8-1l-2.6-13.6a2.4 2.4 0 0 0-2.9-2Z"/><path id="Vector_420" opacity=".7" d="M156.8 45a2.4 2.4 0 0 0-2 3l2.7 13.5a2.4 2.4 0 0 0 4.8-.9L159.7 47a2.4 2.4 0 0 0-2.9-2Z"/><path id="Vector_421" opacity=".7" d="M156.9 45a2.4 2.4 0 0 0-2 2.8l2.6 13.6a2.4 2.4 0 0 0 4.8-.9L159.7 47a2.4 2.4 0 0 0-2.8-2Z"/><path id="Vector_422" opacity=".7" d="M157 44.8a2.4 2.4 0 0 0-2 2.9l2.6 13.6a2.4 2.4 0 0 0 4.8-.9l-2.6-13.6a2.4 2.4 0 0 0-2.8-2Z"/><path id="Vector_423" opacity=".7" d="M157 44.7a2.4 2.4 0 0 0-2 2.9l2.7 13.6a2.4 2.4 0 0 0 4.8-.9l-2.6-13.6a2.4 2.4 0 0 0-2.9-2Z"/><path id="Vector_424" opacity=".7" d="M157.1 44.6a2.4 2.4 0 0 0-2 2.9l2.7 13.6a2.4 2.4 0 0 0 4.8-1l-2.7-13.5a2.4 2.4 0 0 0-2.8-2Z"/><path id="Vector_425" opacity=".7" d="M157.2 44.5a2.4 2.4 0 0 0-2 2.9l2.6 13.6a2.4 2.4 0 0 0 4.8-1L160 46.6a2.4 2.4 0 0 0-2.8-2Z"/><path id="Vector_426" opacity=".8" d="M157.3 44.4a2.4 2.4 0 0 0-2 2.9l2.6 13.6a2.4 2.4 0 0 0 4.8-1l-2.6-13.5a2.4 2.4 0 0 0-2.8-2Z"/><path id="Vector_427" opacity=".8" d="M157.3 44.3a2.4 2.4 0 0 0-2 2.9l2.7 13.6a2.4 2.4 0 0 0 4.8-1l-2.6-13.6a2.4 2.4 0 0 0-2.9-1.9Z"/><path id="Vector_428" opacity=".8" d="M157.4 44.2a2.4 2.4 0 0 0-2 2.8l2.7 13.7a2.4 2.4 0 0 0 4.8-1l-2.7-13.6a2.4 2.4 0 0 0-2.8-2Z"/><path id="Vector_429" opacity=".8" d="M157.5 44a2.4 2.4 0 0 0-2 3l2.6 13.6a2.4 2.4 0 0 0 4.8-1L160.3 46a2.4 2.4 0 0 0-2.8-2Z"/><path id="Vector_430" opacity=".8" d="M157.6 44a2.4 2.4 0 0 0-2 2.8l2.6 13.7a2.4 2.4 0 0 0 4.8-1L160.4 46a2.4 2.4 0 0 0-2.8-2Z"/><path id="Vector_431" opacity=".8" d="M157.6 43.9a2.4 2.4 0 0 0-2 2.8l2.7 13.6a2.4 2.4 0 0 0 4.8-.9l-2.6-13.6a2.4 2.4 0 0 0-2.9-2Z"/><path id="Vector_432" opacity=".8" d="M157.7 43.8a2.4 2.4 0 0 0-2 2.8l2.7 13.6a2.4 2.4 0 0 0 4.8-.9l-2.6-13.6a2.4 2.4 0 0 0-2.9-2Z"/><path id="Vector_433" opacity=".8" d="M157.8 43.6a2.4 2.4 0 0 0-2 2.9l2.6 13.6a2.4 2.4 0 0 0 4.8-.9l-2.6-13.6a2.4 2.4 0 0 0-2.8-2Z"/><path id="Vector_434" opacity=".8" d="M157.8 43.5a2.4 2.4 0 0 0-1.9 2.9l2.6 13.6a2.4 2.4 0 0 0 4.8-.9l-2.6-13.6a2.4 2.4 0 0 0-2.8-2Z"/><path id="Vector_435" opacity=".8" d="M158 43.4a2.4 2.4 0 0 0-2 2.9l2.6 13.6a2.4 2.4 0 0 0 4.8-1l-2.6-13.5a2.4 2.4 0 0 0-2.9-2Z"/><path id="Vector_436" opacity=".8" d="M158 43.3a2.4 2.4 0 0 0-2 2.9l2.7 13.6a2.4 2.4 0 0 0 4.8-1l-2.7-13.5a2.4 2.4 0 0 0-2.8-2Z"/><path id="Vector_437" opacity=".8" d="M158 43.2a2.4 2.4 0 0 0-1.9 2.9l2.6 13.6a2.4 2.4 0 0 0 4.8-1L161 45.2a2.4 2.4 0 0 0-2.8-1.9Z"/><path id="Vector_438" opacity=".8" d="M158.1 43a2.4 2.4 0 0 0-1.9 3l2.6 13.6a2.4 2.4 0 0 0 4.8-1L161 45a2.4 2.4 0 0 0-2.9-2Z"/><path id="Vector_439" opacity=".8" d="M158.2 43a2.4 2.4 0 0 0-2 2.8l2.7 13.7a2.4 2.4 0 0 0 4.8-1L161 45a2.4 2.4 0 0 0-2.9-2Z"/><path id="Vector_440" opacity=".8" d="M158.3 42.9a2.4 2.4 0 0 0-2 2.8l2.6 13.7a2.4 2.4 0 0 0 4.8-1l-2.6-13.6a2.4 2.4 0 0 0-2.8-2Z"/><path id="Vector_441" opacity=".8" d="M158.4 42.8a2.4 2.4 0 0 0-2 2.8l2.6 13.7a2.4 2.4 0 0 0 4.8-1l-2.6-13.6a2.4 2.4 0 0 0-2.8-2Z"/><path id="Vector_442" opacity=".8" d="M158.4 42.7a2.4 2.4 0 0 0-1.9 2.8l2.6 13.6a2.4 2.4 0 0 0 4.8-.9l-2.6-13.6a2.4 2.4 0 0 0-2.9-2Z"/><path id="Vector_443" opacity=".8" d="M158.5 42.6a2.4 2.4 0 0 0-2 2.8l2.7 13.6a2.4 2.4 0 0 0 4.8-.9l-2.6-13.6a2.4 2.4 0 0 0-2.9-2Z"/><path id="Vector_444" opacity=".8" d="M158.6 42.4a2.4 2.4 0 0 0-2 2.9l2.7 13.6a2.4 2.4 0 0 0 4.7-.9l-2.6-13.6a2.4 2.4 0 0 0-2.8-2Z"/><path id="Vector_445" opacity=".8" d="M158.7 42.3a2.4 2.4 0 0 0-2 2.9l2.6 13.6a2.4 2.4 0 0 0 4.8-.9l-2.6-13.6a2.4 2.4 0 0 0-2.8-2Z"/><path id="Vector_446" opacity=".9" d="M158.7 42.2a2.4 2.4 0 0 0-1.9 2.9l2.6 13.6a2.4 2.4 0 0 0 4.8-1l-2.6-13.5a2.4 2.4 0 0 0-2.9-2Z"/><path id="Vector_447" opacity=".9" d="M158.8 42.1a2.4 2.4 0 0 0-2 2.9l2.7 13.6a2.4 2.4 0 0 0 4.8-1l-2.6-13.5a2.4 2.4 0 0 0-2.9-2Z"/><path id="Vector_448" opacity=".9" d="M158.9 42a2.4 2.4 0 0 0-2 2.9l2.7 13.6a2.4 2.4 0 0 0 4.7-1L161.7 44A2.4 2.4 0 0 0 159 42Z"/><path id="Vector_449" opacity=".9" d="M159 41.9a2.4 2.4 0 0 0-2 2.8l2.6 13.7a2.4 2.4 0 0 0 4.8-1l-2.6-13.6a2.4 2.4 0 0 0-2.8-2Z"/><path id="Vector_450" opacity=".9" d="M159 41.8a2.4 2.4 0 0 0-1.9 2.8l2.6 13.7a2.4 2.4 0 0 0 4.8-1l-2.6-13.6a2.4 2.4 0 0 0-2.9-2Z"/><path id="Vector_451" opacity=".9" d="M159.1 41.7a2.4 2.4 0 0 0-2 2.8l2.7 13.7a2.4 2.4 0 0 0 4.8-1L162 43.6a2.4 2.4 0 0 0-2.9-2Z"/><path id="Vector_452" opacity=".9" d="M159.2 41.6a2.4 2.4 0 0 0-2 2.8l2.6 13.6a2.4 2.4 0 0 0 4.8-.9L162 43.5a2.4 2.4 0 0 0-2.8-2Z"/><path id="Vector_453" opacity=".9" d="M159.3 41.5a2.4 2.4 0 0 0-2 2.8l2.6 13.6a2.4 2.4 0 0 0 4.8-.9l-2.6-13.6a2.4 2.4 0 0 0-2.8-2Z"/><path id="Vector_454" opacity=".9" d="M159.3 41.3a2.4 2.4 0 0 0-2 2.9l2.7 13.6a2.4 2.4 0 0 0 4.8-.9l-2.6-13.6a2.4 2.4 0 0 0-2.9-2Z"/><path id="Vector_455" opacity=".9" d="M159.4 41.2a2.4 2.4 0 0 0-2 2.9l2.7 13.6a2.4 2.4 0 0 0 4.8-.9l-2.6-13.6a2.4 2.4 0 0 0-2.9-2Z"/><path id="Vector_456" opacity=".9" d="M159.5 41.1a2.4 2.4 0 0 0-2 2.9l2.6 13.6a2.4 2.4 0 0 0 4.8-1l-2.6-13.5a2.4 2.4 0 0 0-2.8-2Z"/><path id="Vector_457" opacity=".9" d="M159.6 41a2.4 2.4 0 0 0-2 2.9l2.6 13.6a2.4 2.4 0 0 0 4.8-1L162.4 43a2.4 2.4 0 0 0-2.8-2Z"/><path id="Vector_458" opacity=".9" d="M159.6 41a2.4 2.4 0 0 0-2 2.8l2.7 13.6a2.4 2.4 0 0 0 4.8-1L162.5 43a2.4 2.4 0 0 0-2.9-2Z"/><path id="Vector_459" opacity=".9" d="M159.7 40.8a2.4 2.4 0 0 0-2 2.9l2.7 13.6a2.4 2.4 0 0 0 4.8-1l-2.6-13.6a2.4 2.4 0 0 0-2.9-1.9Z"/><path id="Vector_460" opacity=".9" d="M159.8 40.7a2.4 2.4 0 0 0-2 2.8l2.6 13.7a2.4 2.4 0 0 0 4.8-1l-2.6-13.6a2.4 2.4 0 0 0-2.8-2Z"/><path id="Vector_461" opacity=".9" d="M159.8 40.6a2.4 2.4 0 0 0-1.9 2.8l2.6 13.7a2.4 2.4 0 0 0 4.8-1l-2.6-13.6a2.4 2.4 0 0 0-2.8-2Z"/><path id="Vector_462" opacity=".9" d="M160 40.5a2.4 2.4 0 0 0-2 2.8l2.6 13.7a2.4 2.4 0 0 0 4.8-1l-2.6-13.6a2.4 2.4 0 0 0-2.9-2Z"/><path id="Vector_463" opacity=".9" d="M160 40.4a2.4 2.4 0 0 0-2 2.8l2.7 13.6a2.4 2.4 0 0 0 4.8-.9l-2.7-13.6a2.4 2.4 0 0 0-2.8-2Z"/><path id="Vector_464" opacity=".9" d="M160 40.3a2.4 2.4 0 0 0-1.9 2.8l2.6 13.6a2.4 2.4 0 0 0 4.8-.9L163 42.2a2.4 2.4 0 0 0-2.8-2Z"/><path id="Vector_465" opacity=".9" d="M160.2 40.1a2.4 2.4 0 0 0-2 2.9l2.6 13.6a2.4 2.4 0 0 0 4.8-.9L163 42.1a2.4 2.4 0 0 0-2.8-2Z"/><path id="Vector_466" opacity="1" d="M160.2 40a2.4 2.4 0 0 0-2 2.9l2.7 13.6a2.4 2.4 0 0 0 4.8-.9L163 42a2.4 2.4 0 0 0-2.9-2Z"/><path id="Vector_467" opacity="1" d="M160.3 40a2.4 2.4 0 0 0-2 2.8l2.7 13.6a2.4 2.4 0 0 0 4.8-1L163 42a2.4 2.4 0 0 0-2.8-2Z"/><path id="Vector_468" opacity="1" d="M160.4 39.8a2.4 2.4 0 0 0-2 2.9l2.6 13.6a2.4 2.4 0 0 0 4.8-1l-2.6-13.5a2.4 2.4 0 0 0-2.8-2Z"/><path id="Vector_469" opacity="1" d="M160.4 39.7a2.4 2.4 0 0 0-1.9 2.9l2.6 13.6a2.4 2.4 0 0 0 4.8-1l-2.6-13.6a2.4 2.4 0 0 0-2.9-1.9Z"/><path id="Vector_470" opacity="1" d="M160.5 39.6a2.4 2.4 0 0 0-2 2.8l2.7 13.7a2.4 2.4 0 0 0 4.8-1l-2.6-13.6a2.4 2.4 0 0 0-2.9-2Z"/><path id="Vector_471" opacity="1" d="M160.6 39.5a2.4 2.4 0 0 0-2 2.8l2.7 13.7a2.4 2.4 0 0 0 4.8-1l-2.7-13.6a2.4 2.4 0 0 0-2.8-2Z"/><path id="Vector_472" opacity="1" d="M160.7 39.4a2.4 2.4 0 0 0-2 2.8l2.6 13.7a2.4 2.4 0 0 0 4.8-1l-2.6-13.6a2.4 2.4 0 0 0-2.8-2Z"/><path id="Vector_473" opacity="1" d="M160.7 39.3a2.4 2.4 0 0 0-1.9 2.8l2.6 13.7a2.4 2.4 0 0 0 4.8-1l-2.6-13.6a2.4 2.4 0 0 0-2.9-2Z"/><path id="Vector_474" opacity="1" d="M160.8 39.2a2.4 2.4 0 0 0-2 2.8l2.7 13.6a2.4 2.4 0 0 0 4.8-.9l-2.6-13.6a2.4 2.4 0 0 0-2.9-2Z"/><path id="Vector_475" opacity="1" d="M160.9 39a2.4 2.4 0 0 0-2 2.9l2.7 13.6a2.4 2.4 0 0 0 4.7-.9L163.7 41a2.4 2.4 0 0 0-2.8-2Z"/><path id="Vector_476" opacity=".2" d="M161 39a2.4 2.4 0 0 0-2 2.8l2.6 13.6a2.4 2.4 0 0 0 4.8-.9L163.8 41a2.4 2.4 0 0 0-2.8-2Z"/></g></g><path id="Vector_477" d="M161 39a2.4 2.4 0 0 0-2 2.8l2.6 13.6a2.4 2.4 0 0 0 4.8-.9L163.8 41a2.4 2.4 0 0 0-2.8-2Z" fill="#fff"/><path id="Vector_478" d="M228 75.4s.6 0 1.4-.3L215 .1l-1.4.1 14.3 75.2Z" fill="#F59817"/></g><g id="Group_30"><g id="Group_31"><g id="Group_32"><g id="Group_33"><path id="Vector_479" d="m41 155.6-.4 65.8 38 .2.3-65.7-37.9-.3Zm37.2 65.7L41 221l.3-65.1 37.3.2-.4 65Z" fill="#D1D3D4"/></g></g></g></g><g id="Group_34"><g id="Group_35"><g id="Group_36"><path id="Vector_480" d="M51 63c-4.9 4.8-4.3 10.6-4.3 10.6L61.5 93l10.7-18.6S56 58.3 51 63Z" fill="#1095A3"/><path id="Vector_481" d="M51 63a14.3 14.3 0 0 0-2.8 3.9c3 3.6 10.7 11.4 21.4 12.1l2.6-4.5S56 58.3 51 63Z" fill="#0C707A"/></g><g id="Group_37"><path id="Vector_482" d="M77.6 43c-6 3.4 5.3 23.3 5.3 23.3l20.8-5.2L89 41.6s-5.4-2.2-11.3 1.3Z" fill="#1095A3"/><path id="Vector_483" d="M82 41.2c-1.3.3-2.9.8-4.4 1.7-6 3.5 5.3 23.4 5.3 23.4l5-1.2c2.3-10.5-3.2-20-5.8-23.9Z" fill="#0C707A"/></g><path id="Vector_484" d="M72.7 33.6c-12-16-28.4-24-36.5-17.8-8 6.1-4.8 24 7.3 40 12 15.9 28.4 23.8 36.5 17.7 8-6.1 4.8-24-7.3-40Z" fill="#fff"/><path id="Vector_485" d="M36.3 15.8c-6.3 4.8-5.8 16.7.5 29.2l27.5-20.8c-10.4-9.4-21.8-13.2-28-8.4Z" fill="#1095A3"/><path id="Vector_486" d="M38.1 14.7c3.3 2.8 10.3 8.9 17 16.6l9.1-7c-9.4-8.6-19.6-12.5-26-9.6Z" fill="#0C707A"/><path id="Vector_487" d="M69.4 40.2a11.7 11.7 0 1 0-18.6 14.1 11.7 11.7 0 0 0 18.6-14.1Z" fill="#E6E7E8"/><path id="Vector_488" d="M67.3 41.8a9 9 0 1 0-14.4 11 9 9 0 0 0 14.4-11Z" fill="#333"/><path id="Vector_489" d="M32 9.3 31.9 26s10-3.4 15.7-11.9L32 9.3Z" fill="#333"/><path id="Vector_490" d="m33.1 11.4.1 11.7c1 0 5-2.2 5-2.2l-5-9.4-.1-.1Z" fill="#4D4D4D"/></g></g></g></g></g></svg>