<svg width="240" height="244" viewBox="0 0 240 244" fill="none" xmlns="http://www.w3.org/2000/svg">
<g id="Group">
<g id="Vector" filter="url(#filter0_d_18_112)">
<path d="M57.7753 15.4885C49.6976 27.2199 59.1327 46.2479 47.1671 55.0673C35.5115 63.6442 21.2248 49.5531 10.2395 56.9333C-6.04986 67.8866 -3.13387 118.092 20.6382 149.304C27.7858 158.692 33.7602 162.349 36.3997 172.959C42.0641 195.744 22.0627 209.274 25.8501 220.546C34.3887 245.925 166.103 267.337 219.035 191.158C243.754 155.579 247.499 104.169 225.487 65.0918C185.71 -5.5059 75.8913 -10.8277 57.7753 15.4885Z" fill="#F4F7FA"/>
</g>
<g id="Group_2">
<g id="Group_3">
<path id="Vector_2" d="M148.322 210.688C144.953 209.567 142.448 206.714 141.736 203.208L136.859 178.992L94.9542 180.431L89.7674 205.651C89.0384 209.182 91.9293 212.73 95.2559 214.036L112.777 220.905C116.037 222.186 119.539 222.696 123.025 222.403L160.078 219.274C161.159 219.182 162.031 218.336 162.156 217.24C162.282 216.153 163.044 214.922 162.014 214.579L148.322 210.688Z" fill="#97A6B7"/>
<path id="Vector_3" d="M148.741 209.216C145.381 208.111 142.867 205.291 142.163 201.827L137.295 177.912L96.4121 179.343L91.2337 204.245C90.5047 207.735 92.4152 211.232 95.7418 212.521L113.246 219.299C116.506 220.562 120 221.064 123.486 220.771L160.505 217.684C161.586 217.592 162.458 216.755 162.584 215.676C162.709 214.596 162.064 213.584 161.033 213.241L148.741 209.216Z" fill="url(#paint0_linear_18_112)"/>
</g>
<g id="Group_4">
<g id="Group_5">
<path id="Vector_4" d="M9.32614 194.949C4.78455 195.217 1.06414 192.271 1.07252 188.38L1.20659 48.1557C1.20659 44.2647 4.93538 41.2608 9.47696 41.47L15.6358 45.6036L219.622 50.7748C222.956 50.9254 225.655 53.7369 225.655 57.0421L225.529 176.298C225.529 179.603 222.822 182.456 219.487 182.649L9.32614 194.949Z" fill="#97A6B7"/>
<path id="Vector_5" d="M11.2114 194.949C6.66981 195.217 2.9494 192.271 2.95778 188.38L3.10023 48.1557C3.10023 44.2647 6.82902 41.2608 11.3706 41.47L221.515 50.7748C224.85 50.9254 227.548 53.7369 227.548 57.0421L227.423 176.298C227.423 179.603 224.716 182.456 221.381 182.649L11.2114 194.949Z" fill="white"/>
<path id="Vector_6" opacity="0.3" d="M221.507 53.5863L11.3622 44.7333C8.93222 44.6329 6.9547 46.2311 6.9547 48.3063L6.84577 157.37L6.81226 188.18C6.81226 190.255 8.78139 191.828 11.2114 191.694L221.373 179.854C223.157 179.753 224.607 178.23 224.607 176.456L224.632 149.195L224.724 56.9417C224.741 55.1594 223.3 53.6616 221.507 53.5863Z" fill="#D8DEE8"/>
<path id="Vector_7" d="M11.2283 179.778C10.2814 179.82 9.5105 179.201 9.5105 178.398L9.64457 48.4234C9.64457 47.6118 10.4155 46.9926 11.3623 47.026L221.507 55.5527C222.202 55.5778 222.772 56.1719 222.772 56.858L222.655 168.298C222.655 168.993 222.085 169.578 221.39 169.612L11.2283 179.778Z" fill="url(#paint1_linear_18_112)"/>
</g>
<path id="Vector_8" opacity="0.6" d="M199.444 173.955C181.772 163.018 194.157 131.974 174.314 116.352C154.313 100.604 126.125 119.866 112.123 103.558C101.691 91.4163 113.925 76.7813 103.97 65.3679C88.3512 47.4696 48.3065 72.0285 29.9391 54.3896C27.3332 51.8877 24.7021 48.0888 23.2105 41.9971L11.3706 41.47C6.829 41.2691 3.10859 44.2731 3.10021 48.1557L2.95776 188.38C2.95776 192.271 6.6698 195.217 11.2114 194.949L221.373 182.649C224.708 182.456 227.414 179.603 227.414 176.298V174.181C213.463 178.9 204.932 177.352 199.444 173.955Z" fill="white"/>
</g>
<path id="Vector_9" d="M185.375 171.821L55.9988 177.862L56.1664 10.4009C56.1664 8.15843 58.0601 6.38449 60.2974 6.51837L181.856 13.7564C183.917 13.8819 185.526 15.5889 185.526 17.6473L185.375 171.821Z" fill="#D8DEE8"/>
<g id="Group_6" opacity="0.75">
<path id="Vector_10" opacity="0.75" d="M85.4285 40.6332L67.8152 39.947L67.8319 23.8896L85.4453 24.7514L85.4285 40.6332Z" fill="white"/>
<path id="Vector_11" opacity="0.75" d="M131.63 33.7131L89.5413 31.8304L89.5496 24.9522L131.63 27.0107V33.7131Z" fill="white"/>
<path id="Vector_12" opacity="0.75" d="M119.472 41.9636L89.5327 40.8005L89.5411 33.914L119.48 35.211L119.472 41.9636Z" fill="white"/>
<path id="Vector_13" opacity="0.75" d="M175.412 109.591L67.7466 110.101V105.03L175.421 104.863L175.412 109.591Z" fill="white"/>
<path id="Vector_14" opacity="0.75" d="M175.404 116.854L67.7383 117.891V112.821L175.412 112.126L175.404 116.854Z" fill="white"/>
<path id="Vector_15" opacity="0.75" d="M175.395 124.117L67.7297 125.682L67.7381 120.611L175.404 119.389L175.395 124.117Z" fill="white"/>
<path id="Vector_16" opacity="0.75" d="M175.395 131.388L67.7214 133.472L67.7298 128.401L175.395 126.652V131.388Z" fill="white"/>
<path id="Vector_17" opacity="0.75" d="M67.8135 44.8086L67.7549 100.253L175.421 100.395L175.471 48.6661L67.8135 44.8086ZM134.58 72.0787L129.929 76.2458C129.753 76.4048 129.678 76.6307 129.72 76.8483L130.809 82.8813C130.901 83.375 130.424 83.7599 129.946 83.6595C129.795 83.6846 129.628 83.6679 129.46 83.5842L123.678 80.6639C123.611 80.6304 123.544 80.6137 123.477 80.597C123.41 80.6053 123.343 80.6304 123.276 80.6555L117.444 83.442C117.285 83.5173 117.109 83.534 116.95 83.5005C116.464 83.5926 115.978 83.1909 116.07 82.6889L117.193 76.6307C117.235 76.4048 117.151 76.1789 116.983 76.0115L112.232 71.6185C111.788 71.2085 112.031 70.514 112.651 70.4387L119.212 69.6856C119.455 69.6605 119.665 69.5182 119.774 69.3174L122.69 63.8784C122.849 63.5772 123.192 63.4684 123.494 63.527C123.804 63.4768 124.139 63.6107 124.298 63.9203L127.189 69.4764C127.298 69.6856 127.499 69.8278 127.742 69.8613L134.169 70.8738C134.773 70.9993 135.007 71.6938 134.58 72.0787Z" fill="white"/>
</g>
</g>
<g id="locationIcon">
<path id="Vector_18" d="M68.7688 90.9812C68.7688 90.9226 68.7604 90.8641 68.7604 90.8055C68.7437 90.5461 68.7269 90.2783 68.7018 90.0189C68.6934 89.952 68.685 89.885 68.6766 89.8181C68.6515 89.6005 68.6264 89.3746 68.5929 89.1571C68.5845 89.0734 68.5677 88.9981 68.5593 88.9144C68.5258 88.7052 68.4923 88.496 68.4504 88.2868C68.4337 88.178 68.4085 88.0693 68.3918 87.9605C68.3499 87.7513 68.308 87.5421 68.2577 87.3413C68.2242 87.2074 68.1906 87.0652 68.1571 86.9313C68.132 86.8392 68.1069 86.7388 68.0817 86.6468C67.9979 86.3539 67.9141 86.0694 67.822 85.7765C67.8136 85.7514 67.8052 85.7347 67.7968 85.7096C66.9086 82.9734 65.4339 80.4213 63.5066 78.1453C63.5066 78.1453 63.5066 78.1536 63.4982 78.1536C58.7472 72.5557 51.1974 68.6647 42.617 68.1376C27.7186 67.2088 15.3927 76.706 15.3843 89.3663C15.3759 100.579 25.0205 110.193 37.5811 112.553C37.5978 112.553 37.6146 112.561 37.6313 112.561C38.0084 112.628 38.3855 112.695 38.7625 112.754C38.8044 112.762 38.8463 112.771 38.8882 112.771C39.2569 112.821 39.6256 112.871 39.9943 112.913C40.0446 112.921 40.0948 112.921 40.1451 112.93C40.5138 112.971 40.8909 113.005 41.2679 113.03C41.3098 113.03 41.3517 113.038 41.3853 113.038C41.7791 113.063 42.1729 113.088 42.5667 113.097C57.1551 113.532 68.7604 104.001 68.7772 91.818C68.7856 91.5335 68.7772 91.2573 68.7688 90.9812Z" fill="url(#paint2_linear_18_112)"/>
<g id="Group_7">
<path id="Vector_19" d="M17.2612 89.2324C17.2445 101.893 29.5537 112.519 44.4521 112.963C59.0404 113.398 70.6458 103.867 70.6625 91.6841C70.6709 79.5008 59.0823 68.9074 44.5024 68.0037C29.5956 67.0832 17.278 76.5805 17.2612 89.2324Z" fill="url(#paint3_linear_18_112)"/>
<path id="Vector_20" d="M34.8662 85.4084C34.8662 89.0483 38.905 97.6837 41.7372 103.282C42.9103 105.599 45.9939 105.708 47.167 103.482C49.9741 98.1355 53.9543 89.9436 53.9543 86.3539C53.9626 80.8145 49.7395 76.0868 44.4856 75.7856C39.1983 75.4844 34.8746 79.7853 34.8662 85.4084ZM39.3324 85.6259C39.3324 82.6219 41.6451 80.3041 44.4856 80.4547C47.3095 80.6053 49.5886 83.1491 49.5886 86.128C49.5886 89.1069 47.3011 91.4247 44.4773 91.2992C41.6367 91.1737 39.3324 88.6299 39.3324 85.6259Z" fill="white"/>
<g id="Group_8" opacity="0.3">
<path id="Vector_21" opacity="0.3" d="M37.9499 107.022C41.201 100.478 37.9247 94.1191 42.3155 90.0106C46.7397 85.8602 52.446 90.1695 58.5294 86.9396C60.8672 85.7012 63.4648 83.2411 65.3921 78.0197C68.7103 81.9191 70.671 86.6635 70.6627 91.6925C70.6543 103.876 59.0406 113.398 44.4522 112.971C41.067 112.871 37.8158 112.243 34.8076 111.181C36.2908 109.8 37.2795 108.369 37.9499 107.022Z" fill="url(#paint4_linear_18_112)"/>
</g>
</g>
</g>
<g id="hashMarkIcon">
<path id="Vector_22" d="M119.506 138.802C119.506 138.719 119.497 138.635 119.497 138.551C119.48 138.175 119.455 137.806 119.422 137.438C119.413 137.338 119.405 137.237 119.388 137.137C119.355 136.827 119.321 136.526 119.279 136.217C119.263 136.083 119.246 135.957 119.221 135.823C119.179 135.539 119.128 135.254 119.078 134.978C119.045 134.811 119.02 134.643 118.986 134.485C118.936 134.233 118.885 133.991 118.827 133.74C118.768 133.489 118.71 133.246 118.651 132.995C118.626 132.886 118.601 132.786 118.567 132.677C117.411 128.276 115.232 124.192 112.257 120.644C112.257 120.653 112.249 120.661 112.249 120.661C105.688 112.829 95.2642 107.532 83.3824 107.081C62.719 106.294 45.5666 120.393 45.5498 138.593C45.5331 154.717 58.9651 168.131 76.4024 170.976C76.4192 170.976 76.4359 170.984 76.4527 170.984C76.9722 171.068 77.5001 171.143 78.028 171.21C78.0867 171.218 78.1453 171.227 78.1956 171.235C78.7067 171.294 79.2179 171.352 79.7374 171.394C79.8044 171.402 79.8798 171.402 79.9469 171.411C80.4664 171.453 80.9775 171.486 81.5054 171.503C81.5641 171.503 81.6227 171.503 81.673 171.511C82.2177 171.528 82.7623 171.545 83.307 171.545C103.476 171.545 119.489 157.42 119.514 140.007C119.531 139.597 119.514 139.204 119.506 138.802Z" fill="url(#paint5_linear_18_112)"/>
<g id="Group_9">
<path id="Vector_23" d="M47.9043 138.434C47.8876 156.634 64.9981 171.386 85.6698 171.377C105.839 171.377 121.852 157.253 121.877 139.84C121.894 122.427 105.906 107.691 85.7369 106.922C65.0735 106.135 47.9294 120.234 47.9043 138.434Z" fill="url(#paint6_linear_18_112)"/>
<g id="Group_10">
<path id="Vector_24" d="M75.2208 160.993L76.8547 148.868L71.802 148.802L71.8104 142.543L77.8602 142.643L78.8658 135.079L73.57 134.961L73.5784 128.644L79.7372 128.795L81.2957 117.063L86.7842 117.239L85.234 128.928L90.823 129.071L92.4235 117.423L97.8449 117.599L96.2528 129.213L101.104 129.338L101.096 135.556L95.3897 135.43L94.4094 142.927L99.4537 143.011L99.4453 149.161L93.4876 149.086L91.9458 161.094L86.4239 161.06L87.9741 149.011L82.3683 148.935L80.8098 161.027L75.2208 160.993ZM88.9712 142.835L89.9599 135.321L84.3626 135.204L83.3654 142.743L88.9712 142.835Z" fill="white"/>
</g>
<g id="Group_11" opacity="0.3">
<path id="Vector_25" opacity="0.3" d="M76.6537 163.127C81.1618 153.605 76.6202 144.609 82.7036 138.543C88.8372 132.426 96.7221 138.375 105.135 133.514C108.369 131.648 111.947 128.025 114.604 120.477C119.179 125.933 121.877 132.635 121.868 139.831C121.852 157.244 105.839 171.369 85.6615 171.369C80.9691 171.369 76.461 170.608 72.2881 169.219C74.3578 167.185 75.7236 165.093 76.6537 163.127Z" fill="url(#paint7_linear_18_112)"/>
</g>
</g>
</g>
<g id="messageIcon2">
<path id="Vector_26" d="M236.858 56.3894C236.858 56.3225 236.849 56.2555 236.849 56.1886C236.841 55.9878 236.833 55.7869 236.824 55.5777C236.824 55.5192 236.816 55.4606 236.816 55.402C236.799 55.1677 236.782 54.9334 236.765 54.6991C236.765 54.6824 236.765 54.674 236.765 54.6573C236.212 48.2561 233.548 42.4071 229.341 37.6292C229.333 37.6459 229.333 37.6543 229.325 37.671C222.445 29.8306 211.351 25.3288 198.656 25.312C176.049 25.2869 156.927 40.5746 156.902 60.1548C156.894 68.4639 160.346 75.8525 166.044 81.4588C162.232 87.7262 155.679 92.1945 155.679 92.1945C167.594 98.6543 176.828 91.2406 180.247 88.2868C182.308 89.0315 184.345 90.1193 186.465 91.0146C187.026 89.4415 189.07 88.2701 190.679 88.8809C191.274 89.1068 191.878 89.2909 192.498 89.4332C192.816 89.5085 193.134 89.5587 193.453 89.6172C193.528 89.634 193.595 89.6423 193.637 89.6507C193.687 89.6591 193.738 89.6591 193.805 89.6675C195.078 89.8013 196.36 89.9101 197.634 90.0105C200.466 90.2281 203.299 90.2867 206.139 90.2113C206.851 90.1946 207.497 90.4038 208.033 90.772C210.295 90.1277 212.474 89.3244 214.544 88.3705C215.113 88.1111 215.666 87.8433 216.219 87.5588C217.317 86.9982 218.39 86.3957 219.42 85.7598C221.222 84.6385 222.923 83.4001 224.498 82.0613C225.395 81.2998 226.258 80.4965 227.071 79.6681C227.682 79.0489 228.269 78.4046 228.83 77.752C229.015 77.5344 229.199 77.3168 229.383 77.0909C229.928 76.4299 230.448 75.7437 230.934 75.0492C231.755 73.8945 232.492 72.6979 233.154 71.4679C233.422 70.9742 233.674 70.4805 233.908 69.9784C234.025 69.7274 234.143 69.4764 234.252 69.2253C234.478 68.7149 234.687 68.2045 234.88 67.6857C234.981 67.4263 235.073 67.1669 235.165 66.9075C235.349 66.3887 235.517 65.8616 235.668 65.3344C235.978 64.2801 236.229 63.2007 236.414 62.1129C236.506 61.569 236.59 61.0251 236.657 60.4728C236.724 59.9205 236.766 59.3683 236.799 58.816C236.833 58.2638 236.849 57.7031 236.849 57.1425C236.866 56.9082 236.866 56.6488 236.858 56.3894Z" fill="url(#paint8_linear_18_112)"/>
<g id="Group_12">
<path id="Vector_27" d="M158.092 60.0795C158.076 79.6682 177.256 94.0856 199.863 92.3702C221.356 90.7385 238.039 74.9739 238.064 57.0923C238.081 39.2107 221.431 24.6928 199.939 24.6677C177.323 24.6343 158.109 40.4909 158.092 60.0795Z" fill="url(#paint9_linear_18_112)"/>
<path id="Vector_28" d="M158.092 60.0795C158.076 79.6682 177.256 94.0856 199.863 92.3702C221.356 90.7385 238.039 74.9739 238.064 57.0923C238.081 39.2107 221.431 24.6928 199.939 24.6677C177.323 24.6343 158.109 40.4909 158.092 60.0795Z" fill="url(#paint10_linear_18_112)"/>
<path id="Vector_29" d="M182.585 88.3956C182.585 88.3956 172.337 100.495 156.877 92.1192C156.877 92.1192 169.346 83.626 169.899 73.61L182.585 88.3956Z" fill="url(#paint11_linear_18_112)"/>
<g id="Group_13">
<path id="message bit 3" d="M212.792 58.0295C212.792 60.523 214.652 62.456 216.94 62.3639C219.211 62.2635 221.054 60.1883 221.054 57.7199C221.054 55.2514 219.228 53.3101 216.948 53.3855C214.661 53.4608 212.801 55.5443 212.792 58.0295Z" fill="white"/>
<path id="message bit1" d="M177.666 59.3432C177.666 61.9371 179.677 63.9538 182.149 63.845C184.613 63.7362 186.599 61.5773 186.599 59.0085C186.599 56.4396 184.621 54.423 182.158 54.5067C179.686 54.5904 177.666 56.7576 177.666 59.3432Z" fill="white"/>
<path id="message bit2" d="M195.581 58.6738C195.581 61.2176 197.517 63.1923 199.888 63.0919C202.251 62.9915 204.162 60.8745 204.162 58.3558C204.162 55.8372 202.26 53.8624 199.897 53.9377C197.525 54.013 195.581 56.1384 195.581 58.6738Z" fill="white"/>
</g>
<g id="Group_14" opacity="0.3">
<path id="Vector_30" opacity="0.3" d="M190.076 84.3959C194.978 74.02 190.042 64.8407 196.654 58.063C203.273 51.2852 211.711 57.0505 220.618 51.5111C224.012 49.4025 227.758 45.4697 230.531 37.5455C235.274 42.9427 238.073 49.6953 238.064 57.0839C238.047 74.9656 221.364 90.7302 199.863 92.3619C194.785 92.7468 189.875 92.32 185.308 91.182C187.562 88.8642 189.054 86.5464 190.076 84.3959Z" fill="url(#paint12_linear_18_112)"/>
</g>
</g>
</g>
<g id="messageIcon1">
<path id="Vector_31" d="M192.196 21.1799C192.196 21.1297 192.196 21.0878 192.188 21.046C192.179 20.9205 192.179 20.795 192.171 20.6695C192.171 20.6276 192.162 20.5774 192.162 20.5356C192.154 20.4017 192.146 20.2678 192.129 20.1256C192.129 20.1005 192.121 20.067 192.121 20.0419C191.743 15.9083 189.934 12.0926 187.101 8.92968C187.101 8.93805 187.101 8.93805 187.093 8.94641C182.476 3.79196 175.136 0.336128 166.731 0.101834C152.017 -0.316547 139.725 9.23091 139.708 21.4393C139.7 32.2586 149.344 41.0865 161.796 42.7516C161.796 42.7516 161.796 42.7516 161.804 42.7516C161.972 42.7767 162.139 42.7935 162.315 42.8186C162.357 42.8269 162.408 42.8269 162.449 42.8353C162.592 42.852 162.743 42.8688 162.885 42.8771C162.952 42.8855 163.028 42.8939 163.103 42.8939C163.229 42.9022 163.363 42.919 163.497 42.9273C163.589 42.9357 163.673 42.9441 163.765 42.9441C163.882 42.9524 164 42.9608 164.117 42.9692C164.217 42.9775 164.326 42.9775 164.427 42.9859C164.536 42.9943 164.645 42.9943 164.754 43.0026C164.871 43.011 164.988 43.011 165.106 43.011C165.198 43.011 165.298 43.0194 165.391 43.0194C165.533 43.0194 165.667 43.0194 165.81 43.0278C165.885 43.0278 165.96 43.0278 166.044 43.0278C166.262 43.0278 166.48 43.0278 166.698 43.0194C170.376 42.9524 173.862 42.2579 176.996 41.0781C179.476 42.6679 184.303 44.4837 190.394 40.5007C190.394 40.5007 187.596 38.777 185.417 36.024C185.903 35.5889 186.372 35.1287 186.816 34.6601C186.942 34.5262 187.068 34.3924 187.185 34.2585C187.428 33.9823 187.663 33.7062 187.889 33.4301C188.115 33.1456 188.333 32.8611 188.551 32.5682C189.397 31.4051 190.11 30.1751 190.679 28.8865C190.889 28.4011 191.082 27.9158 191.257 27.4138C191.375 27.0791 191.475 26.7444 191.568 26.4096C191.894 25.2298 192.104 24.0081 192.179 22.7614C192.204 22.4016 192.213 22.0501 192.213 21.6903C192.204 21.5062 192.196 21.3472 192.196 21.1799Z" fill="url(#paint13_linear_18_112)"/>
<g id="Group_15">
<path id="Vector_32" d="M140.916 21.3458C140.908 33.5542 153.175 43.2104 167.889 42.9343C182.142 42.6665 193.387 33.1107 193.396 21.5885C193.404 10.0662 182.184 0.410009 167.931 0.00836266C153.217 -0.401651 140.925 9.14581 140.916 21.3458Z" fill="url(#paint14_linear_18_112)"/>
<path id="Vector_33" d="M186.607 35.9405C190.83 32.1332 193.394 27.0875 193.394 21.5984C193.403 10.0762 182.183 0.419923 167.93 0.018277C153.215 -0.400104 140.923 9.14736 140.906 21.3557C140.898 33.5641 153.165 43.2203 167.879 42.9442C171.558 42.8773 175.044 42.1827 178.177 41.0029C180.658 42.5928 185.484 44.4085 191.576 40.4255C191.584 40.4172 188.786 38.6934 186.607 35.9405Z" fill="url(#paint15_linear_18_112)"/>
<g id="Group_16">
<path id="Vector_34" d="M176.435 21.5132C176.435 23.103 177.666 24.3916 179.191 24.3916C180.708 24.3916 181.94 23.1197 181.94 21.5383C181.94 19.9568 180.716 18.6682 179.2 18.6598C177.675 18.6514 176.435 19.9317 176.435 21.5132Z" fill="white"/>
<path id="Vector_35" d="M153.433 21.4044C153.433 23.0361 154.732 24.3498 156.333 24.3582C157.925 24.3582 159.215 23.0528 159.223 21.4295C159.232 19.8062 157.933 18.4925 156.341 18.4757C154.741 18.4673 153.433 19.7811 153.433 21.4044Z" fill="white"/>
<path id="Vector_36" d="M165.081 21.4629C165.081 23.0695 166.346 24.3749 167.904 24.3749C169.463 24.3749 170.72 23.0863 170.72 21.4881C170.72 19.8898 169.463 18.5845 167.913 18.5761C166.354 18.5594 165.081 19.8564 165.081 21.4629Z" fill="white"/>
</g>
<path id="Vector_37" opacity="0.3" d="M186.607 35.939C190.83 32.1317 193.394 27.086 193.394 21.5968C193.403 16.8357 191.509 12.4259 188.3 8.84457C186.439 13.8652 183.917 16.2918 181.646 17.5553C175.714 20.8605 170.133 16.9695 165.784 21.1031C161.461 25.2033 164.687 31.1527 161.486 37.5539C160.824 38.876 159.852 40.2901 158.385 41.6791C161.36 42.5577 164.561 43.0012 167.896 42.9427C171.575 42.8757 175.06 42.1812 178.194 41.0014C180.674 42.5912 185.501 44.407 191.593 40.424C191.584 40.4156 188.786 38.6919 186.607 35.939Z" fill="url(#paint16_linear_18_112)"/>
</g>
</g>
<g id="men">
<g id="left_hand">
<path id="Vector_38" d="M146.881 101.65C146.881 101.65 145.741 95.6838 144.602 93.9015C143.462 92.1192 141.325 90.9812 141.325 90.9812C141.325 90.9812 140.881 91.7092 142.297 93.2488C143.713 94.7885 142.532 94.9391 142.297 95.4328C142.063 95.9265 142.565 97.7088 143.588 98.3447C144.602 98.9807 144.979 102.445 144.979 102.445L146.881 101.65Z" fill="url(#paint17_linear_18_112)"/>
<path id="Vector_39" d="M143.579 100.88C144.811 100.671 146.034 100.462 147.266 100.253C151.657 108.403 156.802 113.641 160.313 116.678C164.452 120.276 167.133 122.594 171.524 123.757C178.018 125.481 183.632 123.473 184.361 125.297C184.713 126.192 183.481 127.154 181.496 129.514C175.722 136.401 176.267 140.099 173.091 141.12C170.468 141.965 167.837 140.141 163.371 136.953C159.307 134.049 154.213 130.409 149.914 123.481C144.141 114.185 143.571 105.047 143.579 100.88Z" fill="url(#paint18_linear_18_112)"/>
</g>
<g id="right_hand">
<path id="Vector_40" d="M197.701 126.05C198.296 126.276 207.404 129.907 209.273 139.405C209.424 140.174 210.882 148.333 205.335 154.09C199.117 160.55 187.152 160.374 182.409 154.968C181.303 153.705 180.716 152.308 180.398 151.136L181.655 147.814C183.18 145.973 185.266 145.538 186.372 145.27C189.112 144.601 191.174 145.823 192.741 144.501C193.612 143.773 193.78 142.727 193.939 141.789C194.467 138.593 192.665 136.627 192.531 134.66C192.431 133.188 191.92 129.966 193.847 127.857C195.062 126.527 196.754 126.167 197.701 126.05Z" fill="url(#paint19_linear_18_112)"/>
</g>
<path id="Vector_41" d="M201.145 231.884C201.254 231.298 203.139 230.771 204.078 231.557C204.539 231.951 204.865 232.737 204.589 233.089C204.488 233.214 204.891 233.448 204.505 233.448C203.24 233.465 201.036 232.469 201.145 231.884Z" fill="url(#paint20_linear_18_112)"/>
<path id="Vector_42" d="M203.131 232.101L205.075 231.825C204.178 230.737 204.346 227.29 204.346 227.29L202.276 227.75C202.276 227.75 202.511 228.696 202.913 230.093C203.047 230.578 203.106 231.323 203.131 232.101Z" fill="url(#paint21_linear_18_112)"/>
<path id="Vector_43" d="M202.955 231.859C202.955 231.859 205.293 231.323 205.553 231.783C205.804 232.243 205.997 233.49 204.514 233.448C203.03 233.415 202.821 232.252 202.955 231.859Z" fill="url(#paint22_linear_18_112)"/>
<path id="Vector_44" d="M174.465 234.051C174.65 233.49 176.602 233.231 177.415 234.135C177.817 234.586 178.027 235.406 177.708 235.724C177.591 235.842 177.959 236.118 177.574 236.067C176.317 235.908 174.281 234.612 174.465 234.051Z" fill="url(#paint23_linear_18_112)"/>
<path id="Vector_45" d="M176.401 234.545H178.362C177.624 233.348 178.278 229.951 178.278 229.951L176.167 230.118C176.167 230.118 176.267 231.089 176.468 232.528C176.527 233.022 176.485 233.766 176.401 234.545Z" fill="url(#paint24_linear_18_112)"/>
<path id="Vector_46" d="M171.382 160.382C170.468 163.378 169.161 168.223 168.323 174.298C165.918 191.619 170.988 192.179 170.024 211.375C169.714 217.5 175.32 231.641 175.814 231.951C176.057 231.976 176.317 231.992 176.594 231.984C177.08 231.967 177.775 231.892 178.571 231.658C179.459 231.507 182.677 222.83 181.94 217.667C181.42 214.01 181.571 210.094 181.889 202.254C181.94 200.982 185.216 177.544 185.216 177.544C186.196 186.222 187.328 193.602 188.308 199.317C191.459 217.684 201.765 228.813 202.301 228.997C202.41 229.039 203.374 229.39 204.17 228.871C204.522 228.637 204.639 228.344 204.639 228.344C204.916 228.127 204.581 210.002 201.447 196.363C196.905 176.565 198.891 171.93 197.458 163.085C196.21 155.429 171.382 160.382 171.382 160.382Z" fill="url(#paint25_linear_18_112)"/>
<path id="Vector_47" d="M189.858 124.494C186.825 124.402 179.862 123.322 176.024 126.77C175.957 126.828 176.745 127.247 176.359 127.698C175.999 128.117 174.767 129.589 173.644 131.581C172.831 133.02 172.102 134.702 171.365 137.204C170.058 141.614 169.681 145.379 169.555 147.019C168.843 156.232 169.538 160.483 170.167 163.37C172.907 164.775 179.962 167.302 188.383 166.056C192.23 165.487 195.305 164.215 197.467 163.077C195.288 156.475 197.006 152.944 197.819 149.688C198.975 145.044 198.992 145.396 199.947 141.714C201.522 135.631 201.782 129.414 200.709 128.142C197.802 124.711 192.573 124.577 189.858 124.494Z" fill="url(#paint26_linear_18_112)"/>
<path id="Vector_48" d="M176.259 234.277C176.259 234.277 178.655 234.076 178.839 234.57C179.024 235.063 179.04 236.318 177.582 236.076C176.116 235.825 176.074 234.653 176.259 234.277Z" fill="url(#paint27_linear_18_112)"/>
<g id="Group_17">
<path id="Vector_49" d="M183.498 118.82C183.004 117.046 183.875 115.406 184.068 115.055C184.873 113.574 185.082 113.373 185.467 113.114L186.004 112.787C186.004 112.787 186.037 112.779 186.071 112.762C186.414 112.645 187.579 112.603 187.814 112.653C188.568 112.812 189.372 115.883 189.138 120.226C189.171 120.393 189.196 120.561 189.23 120.728C189.347 121.414 189.439 122.084 189.515 122.745C189.582 123.372 190.001 123.908 190.596 124.134C194.609 125.648 194.601 124.443 195.012 125.74C195.238 126.452 190.679 127.59 188.442 127.33C183.398 127.364 179.3 126.82 179.744 126.033C179.937 125.682 183.85 124.669 184.948 123.657C185.953 122.736 185.878 121.774 185.953 121.096C185.635 120.937 183.867 120.126 183.498 118.82Z" fill="url(#paint28_linear_18_112)"/>
<path id="Vector_50" d="M184.428 111.549C184.428 112.896 185.065 114.327 185.392 114.561C185.434 114.595 185.669 114.779 185.878 115.097C185.903 115.139 185.928 115.189 185.953 115.256C186.247 116.101 184.898 117.097 185.157 117.481C185.35 117.758 186.264 117.389 186.372 117.624C186.473 117.85 185.71 118.31 185.828 118.578C185.912 118.778 186.381 118.594 186.682 118.904C186.833 119.055 186.783 119.18 186.942 119.649C187.034 119.916 187.152 120.209 187.252 120.368C187.713 121.155 189.037 121.448 189.288 121.13C189.355 121.038 189.297 120.971 189.372 120.67C189.372 120.67 189.439 120.393 189.632 120.075C189.909 119.624 190.562 119.297 191.232 118.82C192.464 117.933 192.799 117.18 192.9 116.929C192.933 116.837 192.959 116.77 192.975 116.72C193.294 115.733 193.302 114.277 192.85 113.373C192.104 111.875 190.42 112.586 189.037 111.097C187.445 109.382 188.4 107.039 187.529 106.779C186.574 106.512 184.428 109.064 184.428 111.549Z" fill="#26264F"/>
<path id="Vector_51" d="M185.643 117.163C185.97 116.712 186.557 117.138 186.557 117.724C186.557 118.31 185.987 118.921 185.442 118.804C184.889 118.686 185.199 117.774 185.643 117.163Z" fill="url(#paint29_linear_18_112)"/>
</g>
<path id="Vector_52" d="M196.495 158.901C196.453 158.901 196.419 158.868 196.411 158.826C196.051 155.571 196.729 153.22 197.324 151.136C197.467 150.626 197.609 150.149 197.726 149.672C198.38 147.036 198.673 146.015 198.975 144.936C199.176 144.233 199.377 143.513 199.696 142.3C199.704 142.258 199.754 142.225 199.796 142.241C199.838 142.25 199.872 142.3 199.855 142.342C199.536 143.555 199.335 144.275 199.134 144.977C198.833 146.057 198.539 147.069 197.886 149.705C197.768 150.191 197.626 150.667 197.483 151.178C196.889 153.245 196.218 155.579 196.578 158.801C196.587 158.851 196.553 158.884 196.503 158.893C196.503 158.901 196.495 158.901 196.495 158.901Z" fill="#9B305E"/>
<path id="Vector_53" d="M185.911 116.185L185.141 117.18C185.141 117.18 184.311 118.402 183.833 117.733C183.44 117.189 183.339 117.197 183.314 117.222C183.305 117.23 183.305 117.23 183.305 117.23C183.297 117.23 183.364 116.963 183.423 116.72C183.222 117.013 182.937 117.49 182.769 118.126C182.602 118.745 182.426 119.406 182.778 120.042C182.794 120.075 183.18 120.762 183.9 120.921C183.9 120.921 184.185 120.988 185.384 120.778C185.384 120.778 184.076 119.833 184.06 119.607C184.009 118.996 184.856 118.661 185.492 117.415C185.727 116.921 185.853 116.486 185.911 116.185Z" fill="#26264F"/>
</g>
</g>
<defs>
<filter id="filter0_d_18_112" x="-4" y="0.925629" width="247.993" height="251.07" filterUnits="userSpaceOnUse" color-interpolation-filters="sRGB">
<feFlood flood-opacity="0" result="BackgroundImageFix"/>
<feColorMatrix in="SourceAlpha" type="matrix" values="0 0 0 0 0 0 0 0 0 0 0 0 0 0 0 0 0 0 127 0" result="hardAlpha"/>
<feOffset dy="4"/>
<feGaussianBlur stdDeviation="2"/>
<feComposite in2="hardAlpha" operator="out"/>
<feColorMatrix type="matrix" values="0 0 0 0 0 0 0 0 0 0 0 0 0 0 0 0 0 0 0.25 0"/>
<feBlend mode="normal" in2="BackgroundImageFix" result="effect1_dropShadow_18_112"/>
<feBlend mode="normal" in="SourceGraphic" in2="effect1_dropShadow_18_112" result="shape"/>
</filter>
<linearGradient id="paint0_linear_18_112" x1="126.861" y1="188.426" x2="126.837" y2="211.759" gradientUnits="userSpaceOnUse">
<stop offset="0.494" stop-color="#EBEFF2"/>
<stop offset="1" stop-color="white"/>
</linearGradient>
<linearGradient id="paint1_linear_18_112" x1="131.636" y1="51.9578" x2="51.6725" y2="344.003" gradientUnits="userSpaceOnUse">
<stop stop-color="#FFC444"/>
<stop offset="0.9964" stop-color="#F36F56"/>
</linearGradient>
<linearGradient id="paint2_linear_18_112" x1="31.3506" y1="69.0286" x2="69.7991" y2="146.491" gradientUnits="userSpaceOnUse">
<stop stop-color="#311944"/>
<stop offset="1" stop-color="#893976"/>
</linearGradient>
<linearGradient id="paint3_linear_18_112" x1="53.6883" y1="72.4708" x2="17.7623" y2="139.033" gradientUnits="userSpaceOnUse">
<stop stop-color="#AA80F9"/>
<stop offset="0.9964" stop-color="#6165D7"/>
</linearGradient>
<linearGradient id="paint4_linear_18_112" x1="64.1378" y1="77.2569" x2="29.2162" y2="147.255" gradientUnits="userSpaceOnUse">
<stop stop-color="#AA80F9"/>
<stop offset="0.9964" stop-color="#6165D7"/>
</linearGradient>
<linearGradient id="paint5_linear_18_112" x1="67.5048" y1="109.102" x2="121.35" y2="217.583" gradientUnits="userSpaceOnUse">
<stop stop-color="#311944"/>
<stop offset="1" stop-color="#893976"/>
</linearGradient>
<linearGradient id="paint6_linear_18_112" x1="98.9037" y1="113.216" x2="47.144" y2="209.115" gradientUnits="userSpaceOnUse">
<stop stop-color="#FF9085"/>
<stop offset="1" stop-color="#FB6FBB"/>
</linearGradient>
<linearGradient id="paint7_linear_18_112" x1="113.395" y1="119.687" x2="63.0159" y2="220.668" gradientUnits="userSpaceOnUse">
<stop stop-color="#FF9085"/>
<stop offset="1" stop-color="#FB6FBB"/>
</linearGradient>
<linearGradient id="paint8_linear_18_112" x1="176.039" y1="30.6342" x2="231.173" y2="141.714" gradientUnits="userSpaceOnUse">
<stop stop-color="#311944"/>
<stop offset="1" stop-color="#893976"/>
</linearGradient>
<linearGradient id="paint9_linear_18_112" x1="213.355" y1="30.2874" x2="156.843" y2="134.991" gradientUnits="userSpaceOnUse">
<stop stop-color="#FFC444"/>
<stop offset="0.9964" stop-color="#F36F56"/>
</linearGradient>
<linearGradient id="paint10_linear_18_112" x1="213.355" y1="30.2874" x2="156.843" y2="134.991" gradientUnits="userSpaceOnUse">
<stop stop-color="#FF9085"/>
<stop offset="1" stop-color="#FB6FBB"/>
</linearGradient>
<linearGradient id="paint11_linear_18_112" x1="216.745" y1="27.9193" x2="140.327" y2="128.365" gradientUnits="userSpaceOnUse">
<stop stop-color="#FF9085"/>
<stop offset="1" stop-color="#FB6FBB"/>
</linearGradient>
<linearGradient id="paint12_linear_18_112" x1="229.212" y1="36.6811" x2="174.249" y2="146.851" gradientUnits="userSpaceOnUse">
<stop stop-color="#FF9085"/>
<stop offset="1" stop-color="#FB6FBB"/>
</linearGradient>
<linearGradient id="paint13_linear_18_112" x1="155.841" y1="1.23906" x2="196.392" y2="82.9365" gradientUnits="userSpaceOnUse">
<stop stop-color="#311944"/>
<stop offset="1" stop-color="#893976"/>
</linearGradient>
<linearGradient id="paint14_linear_18_112" x1="176.723" y1="3.76482" x2="141.362" y2="69.2808" gradientUnits="userSpaceOnUse">
<stop stop-color="#FFC444"/>
<stop offset="0.9964" stop-color="#F36F56"/>
</linearGradient>
<linearGradient id="paint15_linear_18_112" x1="161.926" y1="15.4985" x2="255.972" y2="123.741" gradientUnits="userSpaceOnUse">
<stop offset="0.00359712" stop-color="#E38DDD"/>
<stop offset="1" stop-color="#9571F6"/>
</linearGradient>
<linearGradient id="paint16_linear_18_112" x1="170.057" y1="17.8044" x2="194.035" y2="66.1125" gradientUnits="userSpaceOnUse">
<stop offset="0.00359712" stop-color="#E38DDD"/>
<stop offset="1" stop-color="#9571F6"/>
</linearGradient>
<linearGradient id="paint17_linear_18_112" x1="142.23" y1="92.301" x2="148.046" y2="105.742" gradientUnits="userSpaceOnUse">
<stop stop-color="#311944"/>
<stop offset="1" stop-color="#893976"/>
</linearGradient>
<linearGradient id="paint18_linear_18_112" x1="157.163" y1="101.964" x2="180.755" y2="156.491" gradientUnits="userSpaceOnUse">
<stop offset="0.00359712" stop-color="#E38DDD"/>
<stop offset="1" stop-color="#9571F6"/>
</linearGradient>
<linearGradient id="paint19_linear_18_112" x1="192.656" y1="157.346" x2="200.54" y2="125.903" gradientUnits="userSpaceOnUse">
<stop offset="0.00359712" stop-color="#E38DDD"/>
<stop offset="1" stop-color="#9571F6"/>
</linearGradient>
<linearGradient id="paint20_linear_18_112" x1="200.256" y1="230.241" x2="204.412" y2="233.013" gradientUnits="userSpaceOnUse">
<stop stop-color="#444B8C"/>
<stop offset="0.9964" stop-color="#26264F"/>
</linearGradient>
<linearGradient id="paint21_linear_18_112" x1="204.314" y1="233.04" x2="203.412" y2="226.606" gradientUnits="userSpaceOnUse">
<stop stop-color="#FFC444"/>
<stop offset="0.9964" stop-color="#F36F56"/>
</linearGradient>
<linearGradient id="paint22_linear_18_112" x1="200.569" y1="229.772" x2="204.725" y2="232.544" gradientUnits="userSpaceOnUse">
<stop stop-color="#444B8C"/>
<stop offset="0.9964" stop-color="#26264F"/>
</linearGradient>
<linearGradient id="paint23_linear_18_112" x1="173.664" y1="232.233" x2="177.391" y2="235.56" gradientUnits="userSpaceOnUse">
<stop stop-color="#444B8C"/>
<stop offset="0.9964" stop-color="#26264F"/>
</linearGradient>
<linearGradient id="paint24_linear_18_112" x1="177.258" y1="235.561" x2="177.264" y2="229.064" gradientUnits="userSpaceOnUse">
<stop stop-color="#FFC444"/>
<stop offset="0.9964" stop-color="#F36F56"/>
</linearGradient>
<linearGradient id="paint25_linear_18_112" x1="176.948" y1="238.54" x2="201.336" y2="140.365" gradientUnits="userSpaceOnUse">
<stop stop-color="#444B8C"/>
<stop offset="0.9964" stop-color="#26264F"/>
</linearGradient>
<linearGradient id="paint26_linear_18_112" x1="163.99" y1="96.278" x2="189.977" y2="156.34" gradientUnits="userSpaceOnUse">
<stop offset="0.00359712" stop-color="#E38DDD"/>
<stop offset="1" stop-color="#9571F6"/>
</linearGradient>
<linearGradient id="paint27_linear_18_112" x1="174.04" y1="231.812" x2="177.767" y2="235.139" gradientUnits="userSpaceOnUse">
<stop stop-color="#444B8C"/>
<stop offset="0.9964" stop-color="#26264F"/>
</linearGradient>
<linearGradient id="paint28_linear_18_112" x1="181.081" y1="111.282" x2="193.445" y2="139.767" gradientUnits="userSpaceOnUse">
<stop stop-color="#311944"/>
<stop offset="1" stop-color="#893976"/>
</linearGradient>
<linearGradient id="paint29_linear_18_112" x1="182.664" y1="110.433" x2="195.589" y2="140.212" gradientUnits="userSpaceOnUse">
<stop stop-color="#311944"/>
<stop offset="1" stop-color="#893976"/>
</linearGradient>
</defs>
</svg>
