<svg width="248" height="250" viewBox="0 0 248 250" fill="none" xmlns="http://www.w3.org/2000/svg">
<g id="Group_32">
<g id="thebg">
<path id="Vector" d="M60.73 14.9665C52.4924 26.9898 62.1517 46.4728 49.9333 55.5188C38.0399 64.3207 23.4249 49.8976 12.2139 57.4711C-4.41578 68.7135 -1.37743 120.134 22.9375 152.088C30.249 161.695 36.3582 165.437 39.0635 176.305C44.8721 199.636 24.4485 213.522 28.3399 225.066C37.0894 251.048 171.662 272.858 225.662 194.763C250.879 158.286 254.656 105.621 232.121 65.6141C191.403 -6.68038 79.212 -12.0087 60.73 14.9665Z" fill="#F4F7FA"/>
<g id="Group">
<path id="Vector_2" d="M84.915 205.298C90.4311 204.867 99.7086 204.135 107.824 197.456C122.569 185.319 123.869 161.402 119.109 144.945C115.022 130.807 104.079 119.768 82.2097 97.698C61.6074 76.9053 53.7922 73.3016 53.8409 63.434C53.9059 49.3607 69.8451 42.4542 67.4891 26.038C67.2048 24.0694 66.2299 17.3012 61.12 13.6893C52.3624 7.51495 37.6093 14.9258 30.0947 21.1408C22.84 27.1444 13.8143 39.0701 15.9753 50.8331C17.5432 59.3503 23.6443 60.5461 23.3356 67.9895C23.0187 75.4817 16.7471 76.5311 11.434 87.7898C9.31366 92.2883 5.05672 101.31 7.37204 110.421C10.3698 122.192 21.6458 123.445 21.6945 132.686C21.727 139.365 15.8453 140.894 14.318 148.281C12.3114 158.002 20.0535 167.186 26.5933 174.743C34.2947 183.635 55.092 207.649 84.915 205.298Z" fill="url(#paint0_linear_640_8)"/>
<path id="Vector_3" opacity="0.16" d="M56.4975 16.9677C60.7788 21.9625 41.582 34.4251 40.3634 57.0319C39.0554 81.3551 59.3571 102.579 68.7403 112.39C84.7444 129.131 93.4858 128.676 102.333 145.189C105.834 151.722 113.129 165.339 108.109 180.364C107.646 181.764 102.211 197.244 88.2215 201.662C72.3473 206.664 57.5293 193.616 44.7584 182.374C37.0407 175.581 21.6215 162.004 25.4316 152.389C27.7551 146.507 36.732 143.465 43.4342 143.636C52.9961 143.872 59.2434 150.697 60.462 149.314C61.5587 148.069 57.5536 141.342 51.1926 135.493C38.4786 123.795 29.3717 127.569 20.3054 117.393C19.2087 116.156 10.6461 106.256 13.2457 95.1518C14.7486 88.7497 20.0048 81.7781 25.4316 81.7781C31.5652 81.7781 35.2697 90.6939 36.927 89.7909C38.5111 88.9205 36.0821 80.2406 32.4507 72.0163C27.1051 59.936 23.5956 58.911 22.2876 51.793C20.2892 40.933 26.3252 31.6592 27.2108 30.3414C35.5134 17.9601 52.8418 12.705 56.4975 16.9677Z" fill="white"/>
</g>
<g id="Group_2">
<path id="Vector_4" d="M142.116 199.213C138.013 197.545 131.108 194.731 126.526 187.67C118.199 174.833 122.968 156.277 130.563 144.872C137.087 135.078 148.095 129.318 170.103 117.791C190.827 106.939 197.659 106.085 199.999 98.5441C203.338 87.7898 192.833 78.6543 198.593 66.7042C199.284 65.2725 201.656 60.3427 206.433 58.8297C214.605 56.2428 224.078 65.4758 228.311 72.0488C232.397 78.3859 236.418 89.6771 231.934 98.121C228.684 104.238 223.737 103.669 222.185 109.42C220.617 115.212 225.158 117.539 226.499 127.415C227.035 131.36 228.107 139.275 224.151 145.661C219.025 153.918 210.121 152.128 207.863 159.165C206.23 164.249 210.349 166.844 209.731 172.848C208.919 180.747 200.803 185.88 193.987 190.053C185.961 194.983 164.31 208.251 142.116 199.213Z" fill="url(#paint1_linear_640_8)"/>
<path id="Vector_5" opacity="0.16" d="M209.146 62.4578C204.678 65.2237 216.328 79.3946 211.811 96.9333C206.953 115.806 186.35 127.073 176.829 132.271C160.581 141.154 154.025 138.69 143.294 149.135C139.045 153.267 130.206 161.882 130.417 174.564C130.433 175.744 130.848 188.874 140.466 195.634C151.377 203.305 165.829 196.943 178.283 191.469C185.806 188.158 200.844 181.544 200.25 173.287C199.893 168.235 193.776 163.737 188.617 162.24C181.257 160.101 174.855 163.786 174.254 162.435C173.718 161.223 178.397 157.058 184.653 154.146C197.171 148.305 203.216 153.397 212.583 147.833C213.72 147.158 222.64 141.683 223.322 132.58C223.721 127.333 221.389 120.736 217.246 119.418C212.566 117.929 207.586 123.835 206.547 122.737C205.547 121.688 209.487 115.66 214.248 110.266C221.235 102.351 224.159 102.424 226.873 97.3075C231.008 89.5062 228.635 80.9727 228.278 79.7525C224.923 68.3068 212.964 60.0906 209.146 62.4578Z" fill="white"/>
</g>
<g id="Group_3">
<g id="Group_4">
<path id="Vector_6" d="M241.146 201.328L91.3004 190.964C91.1217 190.948 90.9349 190.948 90.7561 190.964L1.52289 195.015C-0.613707 195.211 -0.51622 200.807 1.90471 201.108L142.116 219.908C142.692 219.981 143.269 219.981 143.846 219.9L240.862 206.25C242.17 206.03 242.641 201.434 241.146 201.328Z" fill="url(#paint2_linear_640_8)"/>
<path id="Vector_7" d="M240.854 201.165L91.3086 187.035C91.1298 187.019 90.943 187.019 90.7643 187.035L1.96157 194.845C0.32866 194.991 0.28804 197.358 1.91283 197.562L142.124 214.889C142.701 214.962 143.277 214.962 143.854 214.881L240.87 202.329C241.561 202.231 241.544 201.23 240.854 201.165Z" fill="url(#paint3_linear_640_8)"/>
<path id="Vector_8" d="M140.645 213.189C140.857 213.189 141.06 213.172 141.271 213.148L228.229 201.897C228.546 201.857 228.538 201.393 228.221 201.361L94.6883 188.768C94.6558 188.768 94.6314 188.76 94.5989 188.76C94.5745 188.76 94.542 188.76 94.5176 188.76L9.6307 196.219C9.24075 196.252 9.2245 196.829 9.62257 196.878L140.06 213.14C140.247 213.172 140.442 213.189 140.645 213.189Z" fill="url(#paint4_linear_640_8)"/>
<path id="Vector_9" d="M190.112 207.771C190.144 208.031 190.965 208.145 191.94 208.023C192.915 207.901 193.686 207.6 193.654 207.34C193.621 207.079 192.801 206.966 191.826 207.088C190.851 207.21 190.079 207.511 190.112 207.771Z" fill="url(#paint5_linear_640_8)"/>
<g id="Group_5">
<path id="Vector_10" d="M119.401 215.792L132.862 217.565C133.845 217.695 134.65 217.215 134.65 216.491C134.65 215.767 133.845 215.084 132.862 214.97L119.401 213.392C118.572 213.294 117.898 213.75 117.898 214.409C117.898 215.06 118.564 215.678 119.401 215.792Z" fill="url(#paint6_linear_640_8)"/>
<path id="Vector_11" d="M104.697 213.856L115.778 215.312C116.582 215.418 117.24 214.97 117.24 214.319C117.24 213.669 116.582 213.058 115.778 212.961L104.697 211.667C104.006 211.586 103.454 212.009 103.454 212.603C103.454 213.205 104.006 213.766 104.697 213.856Z" fill="url(#paint7_linear_640_8)"/>
<path id="Vector_12" d="M86.1173 211.415L94.5499 212.522C95.1592 212.603 95.6467 212.204 95.6467 211.635C95.6467 211.065 95.1511 210.553 94.5499 210.48L86.1173 209.495C85.5893 209.43 85.1587 209.813 85.1587 210.333C85.1668 210.862 85.5893 211.342 86.1173 211.415Z" fill="url(#paint8_linear_640_8)"/>
</g>
<path id="Vector_13" opacity="0.6" d="M70.5112 195.748C83.542 198.074 92.194 202.8 110.895 203.183C127.094 203.508 127.216 199.774 146.039 198.595C170.704 197.049 177.138 203.044 202.363 202.532C208.943 202.394 217.554 201.8 227.742 199.929L240.854 201.165C241.544 201.23 241.561 202.231 240.87 202.32L143.854 214.873C143.277 214.946 142.7 214.946 142.124 214.881L23.4412 200.214C43.8079 193.413 59.4058 193.771 70.5112 195.748Z" fill="white"/>
</g>
<g id="Group_6">
<path id="Vector_14" d="M125.64 203.101C117.516 203.101 108.881 201.613 108.881 198.863C108.881 196.114 117.516 194.625 125.64 194.625C133.764 194.625 142.4 196.114 142.4 198.863C142.4 201.621 133.764 203.101 125.64 203.101ZM125.64 195.528C115.81 195.528 109.782 197.472 109.782 198.863C109.782 200.254 115.819 202.198 125.64 202.198C135.47 202.198 141.498 200.254 141.498 198.863C141.498 197.472 135.47 195.528 125.64 195.528Z" fill="white"/>
<path id="Vector_15" opacity="0.6" d="M118.223 198.863C118.223 199.815 121.546 200.588 125.64 200.588C129.735 200.588 133.058 199.815 133.058 198.863C133.058 197.911 129.735 197.139 125.64 197.139C121.546 197.139 118.223 197.911 118.223 198.863Z" fill="white"/>
<path id="Vector_16" opacity="0.97" d="M89.0096 79.0529L200.754 136.892L137.501 198.863C137.501 200.384 132.188 201.621 125.64 201.621C119.092 201.621 113.779 200.384 113.779 198.863L32.9707 92.4754L89.0096 79.0529Z" fill="white"/>
</g>
<g id="Group_7">
<path id="Vector_17" d="M87.466 154.886C82.4129 154.561 77.6361 151.356 75.5807 146.418L46.6189 76.7507C43.9786 70.4055 46.9601 63.2306 53.2968 60.6844C59.6822 58.1219 69.634 61.1399 72.3393 67.5502L102.048 137.966C104.851 144.604 101.691 151.868 95.0294 154.146C93.3884 154.707 89.1314 154.992 87.466 154.886Z" fill="url(#paint9_linear_640_8)"/>
<path id="Vector_18" opacity="0.3" d="M53.2967 60.6844C59.6821 58.1219 69.6339 61.1399 72.3392 67.5502L99.5056 131.938C94.9562 130.766 89.5781 130.872 84.4113 126.333C75.8081 118.784 80.0406 109.103 73.2247 100.48C70.1051 96.5429 64.3452 92.3941 52.6061 91.1413L46.6188 76.7507C43.9785 70.4055 46.9519 63.2306 53.2967 60.6844Z" fill="url(#paint10_linear_640_8)"/>
<path id="Vector_19" d="M35.8628 46.8551C36.1146 46.8551 36.3584 46.8714 36.6021 46.9039L54.5072 46.7087V93.3215L37.2195 93.0856C36.7727 93.1995 36.3259 93.2564 35.8628 93.2564C29.7292 93.2564 24.7493 82.8682 24.7493 70.0558C24.7493 57.2434 29.7211 46.8551 35.8628 46.8551Z" fill="url(#paint11_linear_640_8)"/>
<path id="Vector_20" d="M54.5073 46.7168C47.7238 62.2382 47.7238 77.7025 54.5073 93.3296L187.683 136.208L189.056 5.37546L54.5073 46.7168Z" fill="url(#paint12_linear_640_8)"/>
<path id="Vector_21" d="M194.141 137.925C212.034 137.925 226.54 107.637 226.54 70.2754C226.54 32.9136 212.034 2.62589 194.141 2.62589C176.248 2.62589 161.743 32.9136 161.743 70.2754C161.743 107.637 176.248 137.925 194.141 137.925Z" fill="url(#paint13_linear_640_8)"/>
<path id="Vector_22" opacity="0.3" d="M151.726 97.7469C139.061 92.9392 135.129 74.5462 120.425 73.928C108.889 73.4399 105.412 84.6579 94.1115 83.4458C82.543 82.2093 80.6014 69.7141 67.6437 65.3132C61.7539 63.312 55.5878 63.678 49.6086 65.3701C48.8043 74.6438 50.4291 83.942 54.4992 93.3215L187.675 136.2L179.795 91.7759C166.674 99.4552 157.868 100.073 151.726 97.7469Z" fill="url(#paint14_linear_640_8)"/>
<path id="Vector_23" d="M194.141 135.631C197.943 135.631 201.672 134.036 205.239 130.888C208.862 127.683 212.144 123.054 214.987 117.116C220.958 104.645 224.249 88.0013 224.249 70.2673C224.249 52.5333 220.958 35.8975 214.987 23.4186C212.144 17.4883 208.87 12.8514 205.239 9.64628C201.672 6.49809 197.943 4.90366 194.141 4.90366C190.339 4.90366 186.61 6.49809 183.044 9.64628C179.421 12.8514 176.139 17.4802 173.295 23.4186C170.801 28.633 168.77 34.5796 167.251 41.0224C165.139 49.9952 171.24 59.3584 171.24 69.6816C171.24 80.6555 165.293 91.7921 167.665 101.196C169.128 106.996 171.013 112.357 173.295 117.108C176.139 123.038 179.413 127.675 183.044 130.88C186.61 134.036 190.339 135.631 194.141 135.631Z" fill="url(#paint15_linear_640_8)"/>
</g>
</g>
<path id="Vector_24" d="M88.1079 166.495C88.1079 166.495 71.0802 171.05 64.0205 161.459L57.9519 173.125C57.9519 173.125 74.4922 185.644 87.3524 168.756L88.1079 166.495Z" fill="white"/>
</g>
<g id="gear2">
<path id="Vector_25" d="M165.951 235.852C166.544 236.65 167.186 237.39 167.869 238.081C167.812 238.155 167.763 238.228 167.714 238.309C166.78 239.863 167.276 242.002 168.819 243.084C170.363 244.166 172.369 243.784 173.312 242.23C173.36 242.149 173.401 242.067 173.442 241.978C174.311 242.377 175.196 242.71 176.098 242.97C176.09 243.068 176.082 243.166 176.082 243.263C176.041 245.151 177.479 246.81 179.283 246.973C181.086 247.135 182.581 245.736 182.622 243.849C182.622 243.751 182.622 243.654 182.614 243.564C183.515 243.467 184.417 243.296 185.303 243.052C185.343 243.141 185.376 243.231 185.424 243.32C186.294 245.037 188.284 245.777 189.86 244.972C191.444 244.166 192.021 242.124 191.152 240.408C191.103 240.318 191.054 240.237 191.006 240.148C191.729 239.578 192.395 238.952 193.004 238.277C193.077 238.334 192.07 238.74 192.143 238.797C193.686 239.879 196.782 239.155 197.716 237.601C198.65 236.048 198.155 233.908 196.611 232.826C196.53 232.769 196.449 232.72 196.367 232.672C196.692 231.785 196.952 230.874 197.139 229.938C197.229 229.955 197.326 229.971 197.415 229.979C199.219 230.142 200.714 228.743 200.754 226.855C200.795 224.968 199.357 223.308 197.553 223.146C197.464 223.138 197.367 223.138 197.277 223.138C197.131 222.178 196.904 221.226 196.611 220.274C196.692 220.242 196.782 220.209 196.863 220.16C198.447 219.355 199.024 217.313 198.155 215.597C197.285 213.88 195.295 213.14 193.719 213.945C193.638 213.986 193.557 214.035 193.483 214.084C192.89 213.286 192.249 212.546 191.566 211.855C191.623 211.781 191.672 211.708 191.721 211.627C192.655 210.073 192.159 207.934 190.616 206.852C189.072 205.77 187.065 206.152 186.123 207.706C186.074 207.787 186.034 207.869 185.993 207.958C185.124 207.559 184.238 207.226 183.337 206.966C183.345 206.868 183.353 206.77 183.353 206.673C183.393 204.785 182.061 203.069 178.105 203.142C176.293 203.175 176.854 204.2 176.813 206.087C176.813 206.185 176.813 206.282 176.821 206.372C175.919 206.469 175.018 206.64 174.132 206.884C174.092 206.795 174.059 206.705 174.01 206.616C173.141 204.899 171.557 203.354 167.869 205.16C166.276 205.941 167.414 207.812 168.283 209.528C168.332 209.618 168.38 209.699 168.429 209.788C167.706 210.358 167.04 210.984 166.431 211.659C166.358 211.602 166.284 211.537 166.203 211.48C164.66 210.398 162.653 210.781 161.711 212.335C160.768 213.888 161.272 216.028 162.816 217.11C162.897 217.167 162.978 217.215 163.059 217.264C162.734 218.151 162.474 219.062 162.287 219.998C162.198 219.981 162.101 219.965 162.011 219.957C160.208 219.794 158.713 221.193 158.672 223.081C158.632 224.968 160.07 226.627 161.873 226.79C161.963 226.798 162.06 226.798 162.149 226.798C162.296 227.758 162.523 228.71 162.816 229.662C162.734 229.694 162.645 229.727 162.564 229.776C160.98 230.581 160.403 232.623 161.272 234.339C162.141 236.056 164.132 236.796 165.708 235.991C165.797 235.95 165.87 235.901 165.951 235.852ZM169.315 230.248C166.154 224.016 168.25 216.605 173.994 213.685C179.738 210.765 186.952 213.449 190.112 219.672C193.272 225.903 191.176 233.314 185.433 236.235C179.689 239.163 172.475 236.479 169.315 230.248Z" fill="url(#paint16_linear_640_8)"/>
<path id="Vector_26" d="M161.873 226.798C160.07 226.636 158.64 224.976 158.672 223.089C158.705 221.202 160.208 219.802 162.011 219.965C162.109 219.973 162.198 219.989 162.288 220.006C162.474 219.07 162.734 218.159 163.059 217.272C162.978 217.224 162.897 217.175 162.816 217.118C161.272 216.036 159.363 213.416 160.452 211.968C162.523 209.219 164.66 210.407 166.203 211.488C166.285 211.545 166.358 211.602 166.431 211.667C167.04 210.992 167.706 210.366 168.437 209.796C168.389 209.715 168.34 209.626 168.291 209.536C167.82 208.601 167.779 207.576 168.088 206.697C169.583 209.325 171.053 211.968 172.499 214.62C167.917 217.98 166.455 224.61 169.323 230.256C171.752 235.039 176.578 237.732 181.289 237.39C181.501 237.935 181.704 238.488 181.931 239.025C182.541 240.489 183.239 241.929 183.93 243.361C183.491 243.442 183.052 243.507 182.614 243.556C182.622 243.654 182.622 243.743 182.622 243.841C182.581 245.728 181.436 247.331 178.17 247.16C176.358 247.062 176.049 245.142 176.09 243.255C176.09 243.158 176.098 243.06 176.106 242.962C175.205 242.702 174.311 242.377 173.45 241.97C173.409 242.051 173.369 242.141 173.32 242.222C172.386 243.776 169.144 244.435 167.592 243.353C166.049 242.271 166.788 239.855 167.722 238.301C167.771 238.22 167.82 238.146 167.877 238.073C167.194 237.39 166.553 236.641 165.96 235.844C165.886 235.893 165.805 235.942 165.724 235.983C164.14 236.788 162.158 236.048 161.288 234.331C160.419 232.615 160.996 230.573 162.58 229.768C162.661 229.727 162.742 229.694 162.832 229.654C162.539 228.702 162.32 227.75 162.166 226.79C162.06 226.806 161.971 226.806 161.873 226.798Z" fill="url(#paint17_linear_640_8)"/>
<path id="Vector_27" d="M164.245 236.048C164.838 236.845 165.48 237.585 166.163 238.277C166.106 238.35 166.057 238.423 166.008 238.504C165.074 240.058 165.57 242.198 167.113 243.28C168.657 244.361 170.663 243.979 171.606 242.425C171.654 242.344 171.695 242.263 171.736 242.173C172.605 242.572 173.49 242.905 174.392 243.158C174.384 243.255 174.376 243.353 174.376 243.45C174.335 245.338 175.773 246.997 177.577 247.16C179.38 247.323 180.875 245.923 180.916 244.036C180.916 243.938 180.916 243.841 180.908 243.751C181.809 243.654 182.711 243.483 183.597 243.239C183.637 243.328 183.67 243.418 183.718 243.507C184.588 245.224 186.578 245.964 188.154 245.159C189.738 244.353 190.315 242.312 189.446 240.595C189.397 240.506 189.348 240.424 189.3 240.335C190.023 239.765 190.689 239.139 191.306 238.464C191.379 238.521 191.452 238.586 191.534 238.643C193.077 239.725 195.084 239.342 196.026 237.789C196.96 236.235 196.465 234.095 194.921 233.013C194.84 232.956 194.759 232.908 194.678 232.859C195.003 231.972 195.263 231.061 195.449 230.125C195.539 230.142 195.636 230.158 195.726 230.166C197.529 230.329 199.024 228.93 199.065 227.042C199.105 225.155 197.667 223.496 195.864 223.333C195.774 223.325 195.677 223.325 195.588 223.325C195.441 222.365 195.214 221.413 194.921 220.461C195.003 220.429 195.092 220.396 195.173 220.347C196.757 219.542 197.334 217.5 196.465 215.784C195.596 214.067 193.605 213.327 192.029 214.132C191.948 214.173 191.867 214.222 191.794 214.271C191.201 213.473 190.559 212.733 189.876 212.042C189.933 211.968 189.982 211.895 190.031 211.814C190.965 210.26 190.469 208.121 188.926 207.039C187.382 205.957 185.376 206.339 184.433 207.893C184.385 207.974 184.344 208.056 184.303 208.145C183.434 207.746 182.549 207.413 181.647 207.153C181.655 207.055 181.663 206.957 181.663 206.86C181.704 204.972 180.266 203.313 178.462 203.15C176.659 202.988 175.164 204.387 175.123 206.274C175.123 206.372 175.123 206.469 175.131 206.559C174.23 206.656 173.328 206.827 172.442 207.071C172.402 206.982 172.369 206.892 172.321 206.803C171.451 205.086 169.461 204.346 167.885 205.151C166.301 205.957 165.724 207.999 166.593 209.715C166.642 209.805 166.691 209.886 166.739 209.975C166.016 210.545 165.35 211.171 164.733 211.846C164.66 211.789 164.587 211.724 164.505 211.667C162.962 210.586 160.955 210.968 160.013 212.522C159.079 214.075 159.574 216.215 161.118 217.297C161.199 217.354 161.28 217.403 161.361 217.451C161.036 218.338 160.776 219.249 160.59 220.185C160.5 220.168 160.403 220.152 160.313 220.144C158.51 219.981 157.015 221.38 156.974 223.268C156.934 225.155 158.372 226.815 160.175 226.977C160.265 226.985 160.362 226.985 160.452 226.985C160.598 227.945 160.825 228.897 161.118 229.849C161.036 229.881 160.947 229.914 160.866 229.963C159.282 230.768 158.705 232.81 159.574 234.526C160.443 236.243 162.434 236.983 164.01 236.178C164.091 236.137 164.172 236.096 164.245 236.048ZM167.617 230.443C164.457 224.211 166.553 216.801 172.296 213.88C178.04 210.96 185.254 213.644 188.414 219.867C191.574 226.099 189.478 233.51 183.735 236.43C177.991 239.35 170.769 236.674 167.617 230.443Z" fill="url(#paint18_linear_640_8)"/>
</g>
<g id="gear1">
<path id="Vector_28" d="M89.1883 215.247C90.4637 216.963 91.8448 218.566 93.3152 220.038C93.2015 220.193 93.0877 220.356 92.9821 220.526C90.9674 223.878 92.0316 228.482 95.3543 230.809C98.677 233.144 103.007 232.322 105.022 228.97C105.127 228.8 105.217 228.612 105.306 228.433C107.167 229.296 109.084 230.003 111.034 230.565C111.009 230.768 110.993 230.98 110.993 231.191C110.912 235.259 113.999 238.838 117.882 239.18C121.773 239.529 124.99 236.511 125.072 232.444C125.08 232.232 125.064 232.029 125.055 231.826C127.005 231.622 128.939 231.256 130.848 230.719C130.929 230.915 131.01 231.11 131.108 231.297C132.984 234.99 137.266 236.585 140.67 234.852C144.074 233.119 145.325 228.718 143.448 225.025C143.351 224.83 143.245 224.651 143.131 224.472C144.691 223.243 146.129 221.893 147.445 220.437C147.607 220.567 145.422 221.429 145.593 221.551C148.915 223.886 155.585 222.332 157.6 218.981C159.615 215.629 158.55 211.025 155.228 208.698C155.057 208.576 154.878 208.471 154.7 208.365C155.398 206.461 155.959 204.493 156.365 202.475C156.56 202.508 156.763 202.54 156.966 202.565C160.858 202.914 164.075 199.896 164.156 195.829C164.237 191.761 161.15 188.182 157.267 187.84C157.072 187.824 156.869 187.816 156.674 187.816C156.357 185.758 155.878 183.692 155.244 181.65C155.423 181.577 155.601 181.503 155.78 181.414C159.184 179.681 160.435 175.28 158.559 171.587C156.682 167.894 152.401 166.299 148.997 168.032C148.818 168.122 148.655 168.219 148.485 168.325C147.209 166.608 145.828 165.006 144.358 163.534C144.472 163.379 144.585 163.216 144.691 163.045C146.706 159.694 145.641 155.09 142.319 152.763C138.996 150.428 134.666 151.25 132.651 154.601C132.546 154.78 132.456 154.959 132.367 155.138C130.507 154.276 128.589 153.568 126.64 153.007C126.664 152.804 126.68 152.592 126.68 152.381C126.761 148.313 123.894 144.62 115.38 144.783C111.48 144.856 112.683 147.06 112.601 151.128C112.593 151.339 112.61 151.543 112.618 151.746C110.668 151.949 108.734 152.316 106.825 152.852C106.744 152.657 106.663 152.462 106.565 152.275C104.689 148.582 101.285 145.254 93.3396 149.143C89.9032 150.819 92.3566 154.854 94.2251 158.555C94.3226 158.75 94.4282 158.929 94.5419 159.108C92.9821 160.337 91.5442 161.687 90.2281 163.143C90.0656 163.013 89.9113 162.883 89.7407 162.761C86.418 160.426 82.0879 161.248 80.0732 164.599C78.0585 167.951 79.1227 172.555 82.4454 174.882C82.616 175.004 82.7947 175.109 82.9735 175.215C82.2748 177.119 81.7142 179.087 81.308 181.105C81.1131 181.072 80.91 181.04 80.7069 181.015C76.8155 180.666 73.5984 183.684 73.5172 187.751C73.436 191.818 76.5231 195.398 80.4063 195.739C80.6094 195.756 80.8044 195.764 80.9993 195.764C81.3162 197.822 81.7955 199.888 82.4291 201.93C82.2504 202.003 82.0717 202.077 81.893 202.166C78.489 203.899 77.238 208.3 79.1146 211.993C80.9912 215.686 85.2725 217.281 88.6765 215.548C88.8552 215.45 89.0177 215.353 89.1883 215.247ZM96.4348 203.183C89.6351 189.768 94.152 173.792 106.525 167.503C118.897 161.215 134.439 166.991 141.238 180.405C148.038 193.82 143.521 209.796 131.148 216.085C118.784 222.373 103.243 216.597 96.4348 203.183Z" fill="url(#paint19_linear_640_8)"/>
<path id="Vector_29" d="M80.4063 195.739C76.5149 195.39 73.436 191.818 73.5172 187.751C73.5984 183.684 76.8155 180.674 80.7069 181.015C80.91 181.032 81.1131 181.064 81.3081 181.105C81.7142 179.087 82.2667 177.119 82.9735 175.215C82.7947 175.109 82.616 175.004 82.4454 174.882C79.1227 172.547 75.0039 166.909 77.3517 163.786C81.8036 157.855 86.418 160.426 89.7407 162.761C89.9113 162.883 90.0738 163.013 90.2281 163.143C91.5442 161.687 92.9821 160.345 94.5419 159.108C94.4363 158.929 94.3226 158.742 94.2251 158.555C93.2015 156.546 93.1121 154.325 93.7864 152.446C96.9954 158.108 100.172 163.794 103.283 169.513C93.4127 176.753 90.2687 191.029 96.4429 203.191C101.675 213.498 112.065 219.29 122.212 218.566C122.667 219.737 123.106 220.925 123.593 222.088C124.909 225.245 126.404 228.344 127.899 231.435C126.956 231.614 126.014 231.752 125.064 231.85C125.072 232.053 125.088 232.265 125.08 232.468C124.999 236.536 122.537 239.985 115.485 239.611C111.586 239.407 110.92 235.275 111.001 231.207C111.009 230.996 111.025 230.784 111.042 230.581C109.092 230.028 107.175 229.312 105.314 228.45C105.225 228.629 105.136 228.808 105.03 228.987C103.015 232.338 96.0286 233.754 92.6978 231.427C89.3751 229.092 90.9674 223.886 92.9821 220.543C93.0878 220.372 93.2015 220.209 93.3152 220.055C91.8448 218.582 90.4637 216.98 89.1883 215.263C89.0258 215.369 88.8552 215.466 88.6765 215.556C85.2725 217.289 80.9912 215.694 79.1146 212.001C77.238 208.308 78.489 203.907 81.893 202.174C82.0717 202.085 82.2504 202.011 82.4292 201.938C81.7955 199.896 81.3162 197.83 80.9993 195.772C80.8044 195.764 80.6094 195.756 80.4063 195.739Z" fill="url(#paint20_linear_640_8)"/>
<path id="Vector_30" d="M85.5164 215.671C86.7918 217.388 88.1729 218.99 89.6433 220.463C89.5296 220.617 89.4159 220.78 89.3103 220.951C87.2955 224.302 88.3598 228.907 91.6824 231.233C95.0051 233.568 99.3352 232.746 101.35 229.395C101.456 229.224 101.545 229.037 101.634 228.858C103.495 229.72 105.412 230.428 107.362 230.989C107.337 231.192 107.321 231.404 107.321 231.615C107.24 235.683 110.327 239.262 114.21 239.604C118.101 239.954 121.319 236.936 121.4 232.868C121.408 232.657 121.392 232.453 121.384 232.25C123.333 232.047 125.267 231.681 127.176 231.144C127.257 231.339 127.338 231.534 127.436 231.721C129.312 235.414 133.594 237.009 136.998 235.276C140.402 233.543 141.653 229.142 139.776 225.449C139.679 225.254 139.573 225.075 139.459 224.896C141.019 223.668 142.457 222.317 143.773 220.861C143.936 220.991 144.09 221.121 144.261 221.244C147.583 223.578 151.913 222.757 153.928 219.405C155.943 216.062 154.879 211.449 151.556 209.123C151.385 209.001 151.206 208.895 151.028 208.789C151.726 206.885 152.287 204.917 152.693 202.899C152.888 202.932 153.091 202.964 153.294 202.989C157.186 203.339 160.403 200.321 160.484 196.253C160.565 192.186 157.478 188.606 153.595 188.265C153.4 188.249 153.197 188.24 153.002 188.24C152.685 186.182 152.206 184.116 151.572 182.074C151.751 182.001 151.93 181.928 152.108 181.838C155.512 180.106 156.763 175.705 154.887 172.011C153.01 168.318 148.729 166.724 145.325 168.456C145.146 168.546 144.984 168.644 144.813 168.749C143.537 167.033 142.156 165.43 140.686 163.958C140.8 163.803 140.913 163.641 141.019 163.47C143.034 160.118 141.97 155.514 138.647 153.187C135.324 150.853 130.994 151.674 128.979 155.026C128.874 155.205 128.784 155.384 128.695 155.563C126.835 154.7 124.917 153.993 122.968 153.431C122.992 153.228 123.008 153.016 123.008 152.805C123.09 148.737 120.002 145.158 116.119 144.816C112.228 144.467 109.011 147.485 108.93 151.552C108.921 151.764 108.938 151.967 108.946 152.17C106.996 152.374 105.063 152.74 103.153 153.277C103.072 153.082 102.991 152.886 102.893 152.699C101.017 149.006 96.7355 147.412 93.3316 149.144C89.9277 150.877 88.6766 155.278 90.5532 158.971C90.6507 159.166 90.7563 159.345 90.87 159.524C89.3103 160.753 87.8723 162.103 86.5562 163.559C86.4019 163.429 86.2394 163.299 86.0688 163.177C82.7461 160.842 78.4161 161.664 76.4013 165.015C74.3866 168.367 75.4508 172.971 78.7735 175.298C78.9441 175.42 79.1228 175.526 79.3016 175.631C78.6029 177.535 78.0424 179.504 77.6362 181.521C77.4412 181.488 77.2381 181.456 77.035 181.431C73.1436 181.082 69.9266 184.1 69.8453 188.167C69.7641 192.235 72.8512 195.814 76.7344 196.156C76.9375 196.172 77.1325 196.18 77.3275 196.18C77.6443 198.238 78.1236 200.304 78.7573 202.346C78.5785 202.419 78.3998 202.493 78.2211 202.582C74.8172 204.315 73.5661 208.716 75.4427 212.409C77.3193 216.102 81.6006 217.697 85.0046 215.964C85.1914 215.875 85.3539 215.769 85.5164 215.671ZM92.7711 203.599C85.9713 190.185 90.4882 174.208 102.861 167.919C115.234 161.631 130.775 167.407 137.575 180.821C144.374 194.236 139.857 210.213 127.485 216.501C115.12 222.789 99.5708 217.013 92.7711 203.599Z" fill="url(#paint21_linear_640_8)"/>
</g>
<g id="men2">
<g id="left_leg">
<path id="Vector_31" d="M29.77 220.787C29.705 220.77 29.5831 220.73 29.4288 220.746C29.2257 220.77 29.0876 220.876 29.0144 220.933C28.9413 220.99 28.332 221.47 28.332 222.137C28.3402 222.666 28.7301 222.698 29.1282 223.585C29.445 224.301 29.2663 224.464 29.5587 224.83C30.0462 225.448 31.1104 225.725 31.5735 225.318C31.7847 225.131 31.8172 224.838 31.8253 224.756C31.8984 224.032 31.1429 223.829 30.9804 223.016C30.818 222.202 31.4516 221.82 31.1429 221.356C31.0048 221.177 30.5986 221.047 29.77 220.787Z" fill="url(#paint22_linear_640_8)"/>
<path id="Vector_32" d="M30.3629 219.542C29.6805 220.168 29.388 220.868 29.5993 221.226C29.6805 221.356 29.8267 221.437 29.8917 221.478C30.3467 221.73 30.8341 221.543 30.9316 221.511L31.809 220.274L30.3629 219.542Z" fill="url(#paint23_linear_640_8)"/>
<path id="Vector_33" d="M48.4386 185.913C49.1129 188.524 49.9903 192.355 50.6727 197.082C51.8588 205.273 51.1276 207.031 50.7458 207.795C49.3241 210.651 46.9763 211.204 41.0621 214.742C36.8376 217.264 33.6206 219.623 31.6058 221.177C31.3052 221.128 30.8422 221.014 30.3466 220.73C29.9079 220.478 29.5992 220.177 29.4124 219.957C29.9567 217.321 30.964 215.58 31.7439 214.498C32.67 213.221 33.4987 212.587 37.5119 209.39C40.3634 207.12 41.7851 205.981 41.8582 205.843C44.2954 201.312 36.4314 195.292 38.2187 190.574C38.9011 188.809 41.1108 186.71 48.4386 185.913Z" fill="url(#paint24_linear_640_8)"/>
<path id="Vector_34" opacity="0.3" d="M31.7522 214.498C32.6784 213.221 33.507 212.587 37.5202 209.39C40.3717 207.12 41.7934 205.981 41.8665 205.843C44.3037 201.312 36.4397 195.292 38.227 190.574C38.8932 188.809 41.111 186.718 48.4388 185.913C48.78 187.238 49.1699 188.874 49.568 190.785C46.879 192.168 46.0422 193.551 45.8879 194.666C45.506 197.334 48.8206 199.197 48.0163 201.483C47.3664 203.337 44.8318 203.118 44.3281 205.029C43.8406 206.892 46.0016 207.95 45.6035 209.43C44.9536 211.855 38.7957 210.504 35.538 213.693C34.49 214.718 33.4501 216.5 33.377 219.843C32.7108 220.331 32.1259 220.779 31.6141 221.169C31.3135 221.12 30.8505 221.006 30.3549 220.722C29.9162 220.469 29.6075 220.168 29.4207 219.949C29.965 217.329 30.9723 215.58 31.7522 214.498Z" fill="url(#paint25_linear_640_8)"/>
</g>
<g id="right_leg">
<path id="Vector_35" d="M13.059 224.325C12.8396 224.252 12.5959 224.293 12.4253 224.447C12.1572 224.683 11.7673 225.057 11.556 225.383C11.223 225.912 12.4984 226.164 13.8226 226.44C15.1468 226.717 16.7879 227.148 16.7391 226.75C16.6904 226.351 16.3085 225.741 15.025 225.09C14.6919 224.919 13.6195 224.521 13.059 224.325Z" fill="url(#paint26_linear_640_8)"/>
<path id="Vector_36" d="M13.1889 222.861L12.6365 224.618C12.6365 224.618 12.9371 225.188 13.7413 224.854L14.6675 223.317L13.1889 222.861Z" fill="url(#paint27_linear_640_8)"/>
<path id="Vector_37" d="M49.7874 186.856C47.602 188.353 44.5637 190.525 41.0704 193.315C36.0417 197.334 30.623 201.653 25.2206 208.129C22.2879 211.643 18.4534 216.866 14.9601 223.951C14.7164 224 14.2452 224.065 13.6928 223.927C13.0347 223.756 12.6041 223.382 12.4254 223.203C11.7918 217.98 12.7179 214.311 13.6278 211.985C15.6506 206.811 17.9822 207.242 21.9954 199.701C23.084 197.659 24.3107 194.991 26.9266 190.387C27.9259 188.621 28.6895 187.352 29.9325 185.929C31.9147 183.651 34.027 182.211 35.5461 181.349C40.2986 183.187 45.043 185.026 49.7874 186.856Z" fill="url(#paint28_linear_640_8)"/>
</g>
<g id="head">
<path id="Vector_38" d="M62.6475 147.231C62.6475 147.239 60.0235 151.014 57.5132 151.754L64.1342 152.828C64.1342 152.828 63.2731 152.535 63.2731 151.323C63.2731 150.567 63.858 148.744 63.858 148.744L62.6475 147.231Z" fill="url(#paint29_linear_640_8)"/>
<g id="Group_8">
<path id="Vector_39" d="M64.9222 145.897C65.9377 144.734 65.5153 142.236 64.8816 142.066C64.2886 141.903 63.9149 143.945 62.1845 144.441C60.9821 144.783 60.4134 144.018 59.5929 144.482C58.5612 145.067 58.1631 147.02 58.8861 148.378C59.4467 149.428 60.7059 150.192 61.2827 149.883C61.892 149.55 61.9407 147.923 62.0382 147.939C62.0464 147.939 62.0545 147.955 62.1601 148.037C62.1763 148.045 62.1926 148.061 62.2088 148.077C62.4769 148.281 62.9725 148.606 63.7849 148.907C63.7686 148.704 63.7524 148.46 63.7767 148.175C63.7849 148.069 63.8255 147.638 63.9717 147.239C64.2317 146.54 64.6866 146.174 64.9222 145.897Z" fill="url(#paint30_linear_640_8)"/>
<path id="Vector_40" d="M62.7937 148.655C62.7937 148.655 63.7929 149.476 65.0359 148.956C66.1489 148.484 65.4258 145.873 64.5159 145.588C64.2072 145.49 63.7035 145.588 63.3461 145.832C63.1349 145.978 63.0943 146.101 62.7449 146.336C62.42 146.548 62.3144 146.548 62.2331 146.67C62.1356 146.833 62.1356 147.142 62.6149 147.809C62.3225 147.662 62.03 147.671 61.8757 147.825C61.8513 147.85 61.7944 147.931 61.7782 148.028C61.7213 148.37 62.1113 148.655 62.7937 148.655Z" fill="url(#paint31_linear_640_8)"/>
</g>
</g>
<g id="body">
<path id="Vector_41" d="M90.0331 149.135C90.5368 149.769 91.0405 150.396 91.5442 151.03C90.1631 155.74 87.9453 158.335 86.158 159.832C80.4225 164.632 74.4758 162.069 66.8718 167.853C64.524 169.635 63.0454 171.441 61.8106 172.937C56.2538 179.689 56.6031 184.058 51.8181 186.807C49.186 188.32 46.6513 188.394 44.9859 188.434C40.2497 188.564 33.8074 186.726 32.8 182.943C32.605 182.219 32.6619 181.625 32.6944 181.324C33.6205 173.141 43.3043 161.907 47.2038 157.514C49.9253 154.447 52.2731 151.974 55.9045 151.364C57.4237 151.103 58.6504 151.274 61.1038 151.6C65.5638 152.202 66.9612 153.202 70.8769 154.024C73.5172 154.577 76.4743 155.203 79.7401 154.707C81.6736 154.414 85.7518 153.422 90.0331 149.135Z" fill="white"/>
<path id="Vector_42" opacity="0.3" d="M42.9063 183.879C44.3849 180.747 42.7113 178.396 44.6042 176.069C46.8952 173.255 50.2991 175.5 53.6786 172.807C57.6106 169.675 55.994 164.266 59.3492 163.013C61.4614 162.224 62.4119 164.241 65.5883 163.721C69.0248 163.159 69.0897 160.605 72.5343 159.458C76.2794 158.213 78.0342 160.613 83.0304 160.312C84.0297 160.255 85.102 160.076 86.2475 159.759C86.215 159.783 86.1825 159.816 86.15 159.84C80.4145 164.64 74.4678 162.077 66.8638 167.861C64.516 169.643 63.0374 171.449 61.8026 172.946C56.2458 179.697 56.5951 184.066 51.8101 186.815C49.178 188.329 46.6433 188.402 44.9779 188.442C43.1338 188.491 41.0378 188.239 39.0962 187.694C41.2084 186.506 42.3133 185.14 42.9063 183.879Z" fill="url(#paint32_linear_640_8)"/>
<path id="Vector_43" d="M90.1714 150.03L91.7312 148.427C91.7312 148.427 93.6728 147.475 95.0945 148.191C96.5162 148.899 95.2732 148.801 94.5502 148.899C93.819 148.997 92.7304 149.655 92.0236 150.03C91.3169 150.412 90.5613 150.924 90.5613 150.924L90.1714 150.03Z" fill="url(#paint33_linear_640_8)"/>
</g>
</g>
<path id="Subtract" fill-rule="evenodd" clip-rule="evenodd" d="M167.786 101.085C161.711 80.2407 164.317 56.0741 167.795 40.4039C169.021 40.3247 170.317 40.3125 171.687 40.3716C185.473 40.2333 196.806 54.0219 196.806 71.1621C196.806 88.3022 185.473 101.912 171.687 101.562C170.358 101.529 169.055 101.366 167.786 101.085ZM192.533 70.8692C192.5 77.5805 187.463 83.4376 186.001 82.9088C185.45 82.7114 185.534 81.6531 185.72 79.3054L185.72 79.3054C185.871 77.3959 186.09 74.6336 186.09 70.7879C186.09 66.9371 185.871 64.1738 185.72 62.265C185.534 59.9196 185.45 58.8643 186.001 58.6669C187.472 58.1463 192.557 64.0929 192.533 70.8692Z" fill="url(#paint34_linear_640_8)"/>
</g>
<defs>
<linearGradient id="paint0_linear_640_8" x1="3.06472" y1="92.168" x2="133.232" y2="126.376" gradientUnits="userSpaceOnUse">
<stop stop-color="#AA80F9"/>
<stop offset="0.9964" stop-color="#6165D7"/>
</linearGradient>
<linearGradient id="paint1_linear_640_8" x1="176.493" y1="128.527" x2="220.922" y2="192.558" gradientUnits="userSpaceOnUse">
<stop stop-color="#FF9085"/>
<stop offset="0.6291" stop-color="#FC7BA7"/>
<stop offset="1" stop-color="#FB6FBB"/>
</linearGradient>
<linearGradient id="paint2_linear_640_8" x1="121.378" y1="178.478" x2="121.15" y2="193.261" gradientUnits="userSpaceOnUse">
<stop stop-color="#444B8C"/>
<stop offset="0.9964" stop-color="#26264F"/>
</linearGradient>
<linearGradient id="paint3_linear_640_8" x1="123.941" y1="207.815" x2="100.307" y2="136.353" gradientUnits="userSpaceOnUse">
<stop stop-color="#444B8C"/>
<stop offset="0.9964" stop-color="#26264F"/>
</linearGradient>
<linearGradient id="paint4_linear_640_8" x1="228.455" y1="200.975" x2="9.32255" y2="200.975" gradientUnits="userSpaceOnUse">
<stop stop-color="#FF9085"/>
<stop offset="1" stop-color="#FB6FBB"/>
</linearGradient>
<linearGradient id="paint5_linear_640_8" x1="193.652" y1="207.342" x2="190.112" y2="207.772" gradientUnits="userSpaceOnUse">
<stop stop-color="#FF9085"/>
<stop offset="1" stop-color="#FB6FBB"/>
</linearGradient>
<linearGradient id="paint6_linear_640_8" x1="126.299" y1="214.79" x2="126.056" y2="221.057" gradientUnits="userSpaceOnUse">
<stop stop-color="#444B8C"/>
<stop offset="0.9964" stop-color="#26264F"/>
</linearGradient>
<linearGradient id="paint7_linear_640_8" x1="110.32" y1="214.17" x2="110.076" y2="220.436" gradientUnits="userSpaceOnUse">
<stop stop-color="#444B8C"/>
<stop offset="0.9964" stop-color="#26264F"/>
</linearGradient>
<linearGradient id="paint8_linear_640_8" x1="90.3147" y1="213.393" x2="90.0715" y2="219.66" gradientUnits="userSpaceOnUse">
<stop stop-color="#444B8C"/>
<stop offset="0.9964" stop-color="#26264F"/>
</linearGradient>
<linearGradient id="paint9_linear_640_8" x1="45.6568" y1="107.339" x2="103.071" y2="107.339" gradientUnits="userSpaceOnUse">
<stop stop-color="#311944"/>
<stop offset="1" stop-color="#893976"/>
</linearGradient>
<linearGradient id="paint10_linear_640_8" x1="89.0202" y1="80.3045" x2="49.809" y2="126.486" gradientUnits="userSpaceOnUse">
<stop stop-color="#311944"/>
<stop offset="1" stop-color="#893976"/>
</linearGradient>
<linearGradient id="paint11_linear_640_8" x1="28.125" y1="51.5754" x2="59.7758" y2="88.8525" gradientUnits="userSpaceOnUse">
<stop stop-color="#311944"/>
<stop offset="1" stop-color="#893976"/>
</linearGradient>
<linearGradient id="paint12_linear_640_8" x1="111.92" y1="-0.436251" x2="148.144" y2="199.659" gradientUnits="userSpaceOnUse">
<stop stop-color="#FF9085"/>
<stop offset="0.6291" stop-color="#FC7BA7"/>
<stop offset="1" stop-color="#FB6FBB"/>
</linearGradient>
<linearGradient id="paint13_linear_640_8" x1="158.152" y1="27.7761" x2="230.236" y2="112.673" gradientUnits="userSpaceOnUse">
<stop offset="0.00359712" stop-color="#E38DDD"/>
<stop offset="1" stop-color="#9571F6"/>
</linearGradient>
<linearGradient id="paint14_linear_640_8" x1="99.5577" y1="-0.0703255" x2="136.233" y2="202.517" gradientUnits="userSpaceOnUse">
<stop stop-color="#AA80F9"/>
<stop offset="0.9964" stop-color="#6165D7"/>
</linearGradient>
<linearGradient id="paint15_linear_640_8" x1="153.112" y1="69.2259" x2="222.493" y2="70.9911" gradientUnits="userSpaceOnUse">
<stop stop-color="#311944"/>
<stop offset="1" stop-color="#893976"/>
</linearGradient>
<linearGradient id="paint16_linear_640_8" x1="154.958" y1="239.091" x2="179.726" y2="224.594" gradientUnits="userSpaceOnUse">
<stop stop-color="#311944"/>
<stop offset="1" stop-color="#893976"/>
</linearGradient>
<linearGradient id="paint17_linear_640_8" x1="184.946" y1="222.002" x2="179.443" y2="224.475" gradientUnits="userSpaceOnUse">
<stop stop-color="#311944"/>
<stop offset="1" stop-color="#893976"/>
</linearGradient>
<linearGradient id="paint18_linear_640_8" x1="165.973" y1="195.383" x2="195.44" y2="268.051" gradientUnits="userSpaceOnUse">
<stop stop-color="#FFC444"/>
<stop offset="0.9964" stop-color="#F36F56"/>
</linearGradient>
<linearGradient id="paint19_linear_640_8" x1="65.5101" y1="222.226" x2="118.858" y2="191" gradientUnits="userSpaceOnUse">
<stop stop-color="#311944"/>
<stop offset="1" stop-color="#893976"/>
</linearGradient>
<linearGradient id="paint20_linear_640_8" x1="130.104" y1="185.417" x2="118.251" y2="190.743" gradientUnits="userSpaceOnUse">
<stop stop-color="#311944"/>
<stop offset="1" stop-color="#893976"/>
</linearGradient>
<linearGradient id="paint21_linear_640_8" x1="102.307" y1="164.606" x2="131.771" y2="227.658" gradientUnits="userSpaceOnUse">
<stop stop-color="#FFC444"/>
<stop offset="0.9964" stop-color="#F36F56"/>
</linearGradient>
<linearGradient id="paint22_linear_640_8" x1="33.8392" y1="244.075" x2="29.9153" y2="222.595" gradientUnits="userSpaceOnUse">
<stop stop-color="#311944"/>
<stop offset="1" stop-color="#893976"/>
</linearGradient>
<linearGradient id="paint23_linear_640_8" x1="29.9691" y1="227.402" x2="29.0181" y2="236.614" gradientUnits="userSpaceOnUse">
<stop stop-color="#FFC444"/>
<stop offset="0.9964" stop-color="#F36F56"/>
</linearGradient>
<linearGradient id="paint24_linear_640_8" x1="50.9806" y1="217.539" x2="11.7807" y2="170.165" gradientUnits="userSpaceOnUse">
<stop stop-color="#444B8C"/>
<stop offset="0.9964" stop-color="#26264F"/>
</linearGradient>
<linearGradient id="paint25_linear_640_8" x1="50.9808" y1="217.539" x2="11.7809" y2="170.165" gradientUnits="userSpaceOnUse">
<stop stop-color="#444B8C"/>
<stop offset="0.9964" stop-color="#26264F"/>
</linearGradient>
<linearGradient id="paint26_linear_640_8" x1="16.5134" y1="239.283" x2="13.9546" y2="225.274" gradientUnits="userSpaceOnUse">
<stop stop-color="#311944"/>
<stop offset="1" stop-color="#893976"/>
</linearGradient>
<linearGradient id="paint27_linear_640_8" x1="13.4384" y1="225.985" x2="12.4901" y2="235.167" gradientUnits="userSpaceOnUse">
<stop stop-color="#FFC444"/>
<stop offset="0.9964" stop-color="#F36F56"/>
</linearGradient>
<linearGradient id="paint28_linear_640_8" x1="31.2057" y1="205.171" x2="12.1711" y2="179.495" gradientUnits="userSpaceOnUse">
<stop stop-color="#444B8C"/>
<stop offset="0.9964" stop-color="#26264F"/>
</linearGradient>
<linearGradient id="paint29_linear_640_8" x1="58.8726" y1="157.259" x2="62.5679" y2="147.886" gradientUnits="userSpaceOnUse">
<stop stop-color="#FFC444"/>
<stop offset="0.9964" stop-color="#F36F56"/>
</linearGradient>
<linearGradient id="paint30_linear_640_8" x1="61.6364" y1="156.065" x2="62.1207" y2="142.796" gradientUnits="userSpaceOnUse">
<stop stop-color="#311944"/>
<stop offset="1" stop-color="#893976"/>
</linearGradient>
<linearGradient id="paint31_linear_640_8" x1="69.0435" y1="148.649" x2="59.8318" y2="146.203" gradientUnits="userSpaceOnUse">
<stop stop-color="#FFC444"/>
<stop offset="0.9964" stop-color="#F36F56"/>
</linearGradient>
<linearGradient id="paint32_linear_640_8" x1="65.9533" y1="159.824" x2="56.4756" y2="199.955" gradientUnits="userSpaceOnUse">
<stop stop-color="#FFC444"/>
<stop offset="0.9964" stop-color="#F36F56"/>
</linearGradient>
<linearGradient id="paint33_linear_640_8" x1="102.329" y1="142.06" x2="85.4385" y2="154.817" gradientUnits="userSpaceOnUse">
<stop stop-color="#FFC444"/>
<stop offset="0.8142" stop-color="#F57F53"/>
<stop offset="0.9964" stop-color="#F36F56"/>
</linearGradient>
<linearGradient id="paint34_linear_640_8" x1="128.068" y1="70.9501" x2="185.066" y2="70.9501" gradientUnits="userSpaceOnUse">
<stop stop-color="#311944"/>
<stop offset="1" stop-color="#893976"/>
</linearGradient>
</defs>
</svg>
