<svg width="1500" height="623" viewBox="0 0 1500 623" fill="none" xmlns="http://www.w3.org/2000/svg"><g id="Frame" clip-path="url(#clip0_46_1900)"><g id="Group"><path id="Vector" d="M0 41.5C0 17.2 23 1.3 45.2 1.3a62 62 0 0 1 36.7 11.9L78 17.3A55 55 0 0 0 45.2 6.7c-19.2 0-39 13.8-39 34.8 0 22.5 21.4 34.9 39.3 34.9 15.2 0 26.5-5.6 33.8-11.3l4.2 4a61.3 61.3 0 0 1-38 12.7C25 81.8 0 67.5 0 41.5Z" fill="#1C1C1B"/><path id="Vector_2" d="M241 49.1h-31.9V81h-7.7V2.3h49.2c13.8 0 32.8 8.5 32.8 23.6 0 12.7-17 23.3-31.4 23.3h-1.4l33.7 31.7h-9.8L241 49ZM209 7.8v36h43c10.3 0 23.7-8.1 23.7-17.9 0-11.4-14.6-18.1-25.1-18.1H209Z" fill="#1C1C1B"/><path id="Vector_3" d="M385.9 2.3h64.7v5.3h-58.7v32.8h46.8v5.4h-46.8v29.7H452v5.4h-66.2V2.3Z" fill="#1C1C1B"/><path id="Vector_4" d="M628.4 61.3H581l-9.2 19.6h-6.6L602.4 2h4.6l37.3 78.8h-6.6l-9.3-19.6Zm-45-5.3H626l-21.2-44.8L583.5 56Z" fill="#1C1C1B"/><path id="Vector_5" d="M788.1 5.4V518H782V5.4h-38.3V0h82v5.4H788Z" fill="#1C1C1B"/><path id="Vector_6" d="M938.3 2.3h64.7v5.3h-58.6v32.8H991v5.4h-46.7l-.1 29.7h60.2v5.4h-66.3l.1-78.6Z" fill="#1C1C1B"/><g id="Group_2"><g id="Group_3" fill="#171D26"><path id="Vector_7" d="M725 584s1.3-.5 1-.8c-.3-.3-.8-1-2-1-1.1 0-.7.8-.7.8s-.7-.4-2.5-.8c-1.5-.4-2.4-.8-3.4-.8s-.5 0-.7.3c-.2.2-2.5-.3-2.3 0 .3.4-2.3-.2-1.2.4.8.3-1.6 0-.5.4l4.3 1.1 2.2 1 6-.1-.2-.5Z"/><path id="Vector_8" d="M706 598s-13.8-4.9-17.8-6.8l-5.9-3 8.3-.7s11.1 4.6 14.9 6a528 528 0 0 0 13.7 4.2s4.4 1.5 2.9 2c-1.5.3-16.1-1.8-16.1-1.8Z"/><path id="Vector_9" d="m683.2 588-1.4-.4 7.3-.4.8.3-6.7.6Z"/><path id="Vector_10" d="M581.3 564.8c.7-.1.8-1.8 2-1.9l3.1-1 3.2-1c-.6 1.2-1.2 3.1-1.2 3.1l2.3 1.8-7.7-.3s-2.3-.5-1.7-.7Z"/><path id="Vector_11" d="M572.5 565.9c.8-.2 1.5-1.4 2.8-1.5 0 0 4.6-5.3 5.4-4 .1.3 1.5 1.6 1.4 2-1.2 2 .9 3.2.9 3.2l1.8.8-4.2 1s-8.8-1.4-8-1.5Z"/><path id="Vector_12" d="m581.6 565.6 8.1-.6s54.8 8.3 62.5 9.7c7.6 1.4 4.7 2.8 4.7 2.8s-11.7 1.5-24.7-1.3l-50.6-10.6Z"/><path id="Vector_13" d="m580.7 567.4 2.7-1.4 60.3 11c7.7 1.5 4.6 2.9 4.6 2.9s-12-1-25.2-3.8l-42.4-8.7Z"/><path id="Vector_14" d="M652.2 574.7s34.6 6 48 8.8c13.2 2.7 17 3.7 17 3.7l-23.6 1s-22.6-4.7-34.8-7l-24.2-6.9c-2.7-.6 17.6.4 17.6.4Z"/><path id="Vector_15" d="M636.9 575.9s35.6 6 49 8.8l21.7 4.6-23.2.1s-26-6-38.3-8.4l-26-5.7c-2.8-.7 16.8.6 16.8.6Z"/><path id="Vector_16" d="M816.2 610.1s-6.4-1-8.5-1.7c-3.3-1-4.2-.9-5-1-1.6-.3-6-1.4-7.5-1.5-1.3-.2-3.2 0-3.2 0l-9.4-2.3-15 .7 8.9 1.7 2 .6 23.8 3.8 13.9-.3Z"/><path id="Vector_17" d="M793.3 611.8c-8-1.5-14.8-5.3-14.8-5.3s9.5-.7 11.2-.5c1.7.2 8.1 1.5 8.1 1.5s.3.6 2.8.9c2.4.3 2.6.1 2.6.1.8-.1-1-.4-1-.4h1.7l9.3 1.9c1.7.2 3 .1 3 .1s3.8 1.7-6.7 2.3c-6.2.3-16.2-.6-16.2-.6Z"/><path id="Vector_18" d="M672.8 587.8s36.3-3.2 37.6-2.9c3 .8 14.4 3.7 27.5 6.4 16 3.3 36.8 7.3 42 8.7 12 3.3 3.2 4.1 3.2 4.1s-6.6 1.3-10.3 1.3c-3.8 0-21.7-1.6-27.7-2.4-6-.9-34.4-8.3-40-9.6-5.5-1.3-32.3-5.6-32.3-5.6Z"/><path id="Vector_19" d="M772.9 605.3c-7.2.4-18 .3-23.5-.3-5.5-.7-32.4-4.7-43.4-7 0 0-10.4-3.3-7.4-3.4 5.4-.1 29 3.8 33 4.6 4 .9 15.5 3.6 20.6 4 5.2.3 20.7 2 20.7 2Z"/><path id="Vector_20" d="M743 595.2s-14.6-5.1-18.9-7.3l-6.4-3.1 11-.4s9.8 4.5 13.8 6a531 531 0 0 0 14.7 4.6s4.7 1.5 3 2c-1.5.4-17.1-1.8-17.1-1.8Z"/><path id="Vector_21" d="m771.6 605.3 4.6.7 9.5-1.7-1-.3-13.1 1.3Z"/><path id="Vector_22" d="m718.4 584.7-.7-.3 9-.4 1.1.4-9.4.3Z"/></g><g id="Group_4"><path id="Vector_23" d="M594.6 506.8s1.4.5 2 1c.4.6 1.6 1.9 1.1 2-.5.2-1.8-1-1.8-1s.5.7.7 1.8c.2.9.6 1.7.2 1.9-.3.2-.1.1-.7-.3-.5-.3-.4 1-1 .3-.6-.6-.5.8-1.1-.3-.4-.7-.7.4-1-.5l-.7-2.7-1-2 2.5-1 .8.8Z" fill="#0D1218"/><path id="Vector_24" d="M559.8 488s4.3 10.4 6.7 14.4l3.7 6 4.5-.4s-4.9-9.7-6-12.6c-1.3-2.9-3.4-9.6-3.4-9.6s-1.3-3.3-2.7-3.7c-1.3-.3-2.8 5.8-2.8 5.8Z" fill="#0D1218"/><path id="Vector_25" d="m570.7 508.4.4 1 3.6-.7-.2-.6-3.8.3Z" fill="#fff"/><path id="Vector_26" d="M580.2 566c.5 0 1 .2 1.5 0 2.4-.6 5.1-2.5 6.4-3.5 1.5-1.2 2-2.3 1.2-2.1-2.6.7-5.4 1.8-5.4 1.8l-.7-1.1-2.9 1.4s-.7 3.3-.1 3.4Z" fill="#0D1218"/><path id="Vector_27" d="M572.8 566h2c2.4-.8 5.2-3.9 6.3-5 1.5-1.2 1.5-2 .7-1.8-2.8.4-5 2.2-5 2.2l-.6-1.5-3.5 2s-.5 4 0 4Z" fill="#0D1218"/><path id="Vector_28" d="m580 563.3 4-1.8s1.3-21.7 1.4-25.4c.2-3.7-3.6-5.4-3.6-5.4s-3 3.7-2.4 10.7l.7 21.9Z" fill="#0D1218"/><path id="Vector_29" d="m572.7 561.8 3.8-1.9 1-26c.1-3.8-3.8-5.5-3.8-5.5s-2.8 3.8-2.2 11c.4 3.5 1.2 22.4 1.2 22.4Z" fill="#0D1218"/><path id="Vector_30" d="M585.4 536.1s1.1-16.6.8-23.6c-.3-7-.9-9.3-.9-9.3l-11 2.8s3.6 14.3 3.6 20.5c0 0 1.3 12 1.6 13.6.3 1.6 6-4 6-4Z" fill="#0D1218"/><path id="Vector_31" d="M577.3 537.2s1.5-16.8 1-24c-.3-7-.8-11.6-.8-11.6l-9 4.4s2.1 14.8 2.2 21.1c0 0 1.2 12.7 1.5 14.4.3 1.6 5.1-4.3 5.1-4.3Z" fill="#0D1218"/><path id="Vector_32" d="M577.5 446.7s-.5 3 .1 4.4c1 2.5.3 2.3.2 2.7-.2.7.4 3.4.2 4-.2.4-1.2.6-1.2.6l.8 5.4-7 1.9v-4.5l-.4-1.3 1.5-10.8 5.8-2.4Z" fill="#0D1218"/><path id="Vector_33" d="M565.5 448.5c0 4 4.7 11.4 4.7 11.4s5.1-.7 5.4-1.3c.3-.6 0-4 0-4s-1-1-.6-2c.3-1 .7-.8.7-.8.6.2.5 1 .5 1l.6-.4s-.3-4.1-.2-4.8c.2-.7.8-.9.8-.9s-1.8-3.4-6.9-2.3c-3 .7-5 4.1-5 4.1Z" fill="#0D1218"/><path id="Vector_34" d="M567.4 511s20-2 19.9-2.8c-.4-1.9-1.8-8.7-2.2-15.7-.5-8.4-.5-19-1.4-22.3-1.9-7.6-6.9-7.3-6.9-7.3s-5-.7-6.4 0c-1.4.7-5 6.8-5.7 9.3-.7 2.5 3.3 20 3.8 23.3.5 3.2-1 15.4-1 15.4Z" fill="#0D1218"/><path id="Vector_35" d="M570.7 463c-3.6.7-7.6 3-8.3 5.1a74.6 74.6 0 0 0-2.6 19.8s2.6 7.4 3.8 6.9c2.3-.9 3.6-11.7 3.4-13.9-.1-2.2-1.2-8.8 0-10.4 1.3-1.5 3.7-7.4 3.7-7.4Z" fill="#0D1218"/><path id="Vector_36" d="M579.3 485.2s4.6 11.2 7.2 15.4l3.9 6.5 4.9-1.6s-5.3-9.3-6.6-12.4c-1.3-3-3.5-10.3-3.5-10.3s-1.4-3.5-2.9-3.9c-1.4-.3-3 6.3-3 6.3Z" fill="#0D1218"/><path id="Vector_37" d="m570 463.2.4-2 7 .9.2.7-7.6.4Z" fill="#fff"/><path id="Vector_38" d="m590.7 507 .4.6 4.2-1.1-.4-.9-4.2 1.4Z" fill="#fff"/></g></g><path id="Vector_39" d="M1499.4 622.6 782 518h6.1l711.3 102v2.6Z" fill="#1C1C1B"/></g></g><defs><clipPath id="clip0_46_1900"><path fill="#fff" d="M0 0h1499.4v622.6H0z"/></clipPath></defs></svg>